<svg width="215" height="189" viewBox="0 0 215 189" fill="none" xmlns="http://www.w3.org/2000/svg">
<path d="M-20.9399 188.15C-8.78988 187.37 -0.099884 184.3 7.44012 180.45C55.6301 160.46 108.18 148.91 170.2 148.09C182.95 148.08 191.89 142.84 198.13 135L193.69 135.92C192.95 135.68 192.23 135.49 191.57 135.63C190.31 135.89 189.6 135.21 188.94 134.2C189.78 133.69 189.01 132.91 188.47 132.25C187.9 131.57 187.35 131.77 186.87 132C186.35 132.25 185.74 132 185.12 131.64C184.19 131.73 183.7 130.98 183.11 130.43C183.22 129.13 183.29 127.83 181.3 126.64L180.36 125.95C180.04 126.33 180.25 126.82 180.58 127.33L180.61 127.31C179.99 128.32 179.43 129.39 178.69 130.32C178.46 130.61 178.02 132.02 177.08 130.06C176.99 129.87 176.55 129.71 176.27 129.53C174.26 128.21 174.62 130.11 173.72 130.31C172.73 130 171.73 129.7 170.74 129.39C171.52 131.6 168.08 130.25 168.05 131.8C168.05 132.06 167.7 132.13 167.36 131.86C167.12 131.66 166.74 131.26 166.79 131.16C167.51 129.75 165.92 129.44 164.82 128.89C165.42 127.62 167.51 128.17 168.53 127.42C169.44 127.83 170.04 127.51 170.72 127.38C172.73 128.45 174.1 128.45 174.47 126.76C176.56 127.68 175.46 125.03 177.17 125.38C177.34 125.41 176.1 124.58 175.94 124C175.87 123.77 175.97 123.55 175.99 123.33C175.98 123.18 175.97 123.02 175.95 122.87C175.24 122.35 174.58 122.45 173.91 122.36C172.67 122.18 173.08 121.21 172.46 120.69C171.89 120.21 172.04 119.69 172.67 119.72C174.3 119.8 174.62 118.61 175.49 117.97C175.63 118.04 175.77 118.1 175.9 118.17C176.45 118.44 176.65 118.2 176.79 117.91C177.02 117.91 177.24 117.91 177.47 117.91C178.35 119.55 180.48 119.09 181.51 120.47C182.15 121.71 182.78 120.53 183.42 121.05C184.2 122.3 183.44 122.61 182.03 122.59C185.42 124.11 187.08 122.78 189.31 122.51C188.17 120.99 187.28 122.35 186.28 121.55C186.33 120.8 187.35 120.96 187.66 120.49C188.95 120.53 188.96 119.55 189.29 118.83C190.22 118.25 191.42 117.74 189.16 116.28V116.26C189.42 115.82 190.04 116 190.58 115.95C192.27 115.79 194.57 117.54 195.86 116.31C196.61 115.69 197.87 116.42 198.85 116.39C199.23 116.38 199.61 116.37 199.42 115.91C199.37 115.78 198.91 115.52 198.86 115.55C197.96 116.08 196.28 114.77 195.5 115.57C195.15 115.28 194.8 114.99 194.45 114.7C194.26 113.89 195.37 113.89 195.36 113.2C194.19 112.34 195.81 112.34 195.28 111.51C194.35 111.85 193.51 111.3 192.74 110.53C191.82 109.61 193.39 108.89 191.93 107.91C193.19 107.76 194.5 107.68 195.13 106.73C196.83 108.09 196.47 106.4 197.14 106.25C199.42 105.54 199.88 105.75 201.75 108.35C201.99 108.69 202.36 109.04 202.73 108.93C203.13 108.8 203.18 108.47 202.77 107.97C201.71 106.7 200.45 105.58 199.18 104.46C200.27 104.02 201.26 104.04 202.57 105.39C203.48 106.33 204.58 106.35 204.81 105.41C205.02 104.56 205.69 104.12 206.26 103.56C207.95 104.59 209.59 106.14 211.43 105.46C212.2 106.05 212.98 106.63 214.34 107.66C213.02 105.83 212.7 104.21 210.46 103.82C210.15 103.01 208.87 102.72 208.65 101.86C208.97 101.86 209.28 101.86 209.59 101.86C210.04 102.04 210.24 102.73 210.75 102.62C211.23 102.52 211.01 102.03 210.78 101.63C210.09 100.45 210.26 99.9 211.76 100.15C212.2 100.22 212.59 100.08 213 100.04C212.92 99.32 215.09 99.73 213.86 98.72C212.5 97.6 211.57 95.96 209.69 95.36C209.18 95.44 208.66 95.51 208.15 95.59C207.55 95.85 206.36 95.67 206.63 96.59C207.18 98.48 205.93 98.75 204.32 98.78C204.12 98.59 203.91 98.4 203.71 98.22C203.38 96.68 202.98 95.13 204.19 94.18C204.65 93.82 204.97 93.33 205.41 92.95C206.14 92.33 205.25 91.37 204.81 90.77C204.24 89.97 203.57 90.45 203.21 90.8C202.88 91.13 202.52 91.2 201.9 90.98C200.52 90.51 200.08 91.16 199.81 91.98C198.64 92 198.12 91.27 197.83 90.24C197.3 90.74 196.93 91.1 196.55 91.46C195.11 91.46 193.7 90.85 192.31 90.05C192.05 90.68 191.8 91.3 191.54 91.93H191.51C191.07 91.51 190.69 91.08 191.17 90.76C191.84 90.31 191.3 89.82 190.64 89.32C190.59 89.22 190.54 89.12 190.49 89.02C190.49 89.11 190.49 89.21 190.49 89.3C190.56 90.53 189.82 90.72 188.4 90.01C187.81 89.35 187.21 88.69 186.62 88.03C187.09 87.84 187.56 87.64 188.03 87.45C188.2 87.37 188.37 87.3 188.54 87.22C188.61 87.29 188.7 87.33 188.79 87.34C189.83 87.72 190.45 87.69 191.02 87C191.68 86.2 192.44 84.85 194.6 86.74C194.63 87.36 194.47 88.12 195.78 87.91C196.73 87.76 197.54 88.31 198.36 88.94C198.41 89 198.46 89.07 198.52 89.13C198.49 89.07 198.47 89.01 198.44 88.95C198.77 88.58 199.27 88.32 199.05 87.64C199.01 87.55 198.97 87.45 198.93 87.36C198.93 87.45 198.93 87.53 198.93 87.62C197.63 88.4 196.2 86.68 194.85 86.51C193.6 84.99 193.87 84.75 196.46 85.11H196.48C197.25 85.46 197.89 84.53 198.73 85.66C198.84 85.67 198.95 85.69 199.06 85.7C198.98 85.25 198.9 84.79 198.83 84.34C199.02 84.32 199.21 84.32 199.38 84.29C199.41 84.29 199.36 84.17 199.35 84.11C199.15 84.11 198.94 84.11 198.74 84.11C198.37 83.86 197.99 83.62 197.62 83.37C198.4 82.88 198.13 81.8 198.6 81.1C198.99 80.51 198.1 80.27 197.53 80.57C197.03 80.12 196.53 79.68 196.04 79.23C195.45 79.85 193.81 79.53 194.13 81.01C194.49 82.69 192.28 82.92 192.23 84.5C192.22 84.85 190.57 84.8 189.61 84.67C188.42 84.51 188.91 85 189.32 85.54C189.05 85.78 188.78 86.01 188.51 86.25C188.06 86.06 187.62 85.89 187.55 85.39C187.32 83.8 186.77 84.52 186.27 84.88C186.27 84.88 186.27 84.88 186.26 84.87C186.25 84.88 186.23 84.89 186.22 84.9C185.33 85.22 184.43 85.53 183.54 85.85C182.96 84.79 182.25 83.57 183.15 82.99C184.21 82.3 184.33 81.45 182.91 79.71C186.78 81.77 184.14 77.97 186.05 78.3C185.18 77.93 184.68 78.67 183.79 77.94L183.75 77.86C183.72 77.73 183.7 77.59 183.67 77.46C183.35 75.75 185.96 74.98 183.7 72.63C183.05 72.92 182.33 73.17 182.96 74.23C182.7 74.21 182.44 74.19 182.19 74.17C181.57 73.81 182.16 73.17 181.47 72.95C180.32 72.58 181.04 73.9 180.34 73.98C178.31 73.7 175.85 72.77 175.47 75.04C174.9 74.56 174.32 74.07 173.75 73.59C174.16 73.01 174.08 72.42 173.05 71.81C173.22 71.66 173.39 71.52 173.55 71.37C176.34 72.25 176.68 70.29 177.84 69.33C178.19 69.04 177.61 68.67 177.05 68.52C176.6 68.4 175.85 68.61 175.82 67.8C175.8 67.27 176.43 67.27 176.99 67.41C179.06 67.92 179.19 66.78 179.21 65.53C180.19 64.97 180.47 63.81 181.68 63.46C182.57 63.03 183.92 63.66 184.9 63.42C186.01 65.05 186.67 63.07 187.69 64.02C188.21 63.55 189.18 63.94 190 63.91C188.93 62.86 188.23 62.04 190.02 62.04C190.65 62.04 191.2 61.84 190.12 61.06C189.2 60.4 189.85 60.1 190.14 59.81C190.69 59.27 190.49 58.6 189.95 57.82C189.87 57.68 189.8 57.54 189.72 57.39L189.77 57.35C190.56 57.08 191.35 56.81 192.14 56.54C193.03 55.8 191.7 55.41 191.18 54.89L191.25 54.87C192.11 54.11 190.8 52.46 191.76 51.75C194.77 51.35 197.32 52.1 199.06 55.51C199.35 56.08 200.1 56.67 200.54 57.33C201.19 58.29 202.04 58.9 202.87 58.12C203.14 58.03 203.38 57.81 203.77 58.25C205.27 59.12 205.63 57.97 206.52 57.79C206.69 57.76 205.9 57.03 205.39 56.74C204.26 56.39 203.2 53.92 201.99 55.61C201.68 55.35 201.37 55.09 201.07 54.82C201.27 54.71 201.96 55.11 201.66 54.48C201.94 53.71 203.82 54.25 203.36 52.83C203.25 52.49 203.69 52.65 204.02 52.81C205.81 53.67 207.3 53.5 207.92 52.4C208.29 52.02 208.89 51.78 208.06 50.88C207.21 49.96 206.86 50.52 206.36 50.64C205.99 50.74 205.66 50.91 205.32 51.04C204.52 50.87 203.68 50.23 202.91 50.52C202.58 50.64 202.09 50.71 201.72 50.16C201.44 49.74 200.92 49.28 201.42 48.92C201.81 48.64 201.93 48.19 201.65 47.43C200.3 47.47 198.75 46.79 197.46 47.09C197.44 47.4 197.42 47.7 197.39 48.01C197.41 47.7 197.43 47.4 197.46 47.09C196.79 46.89 196.71 47.44 196.28 47.54C196 47.3 195.73 47.06 195.45 46.82C195.97 46.29 196.49 45.76 197.01 45.23C198.55 45.03 196.47 43.82 196.93 43.32C196.7 43.52 196.46 43.71 196.23 43.91C195.26 44.18 194.63 45.1 193.05 44.22C193.25 44.58 193.18 44.86 193 45.09C191.02 44.31 191.35 45.55 191.33 46.49C190.93 47.76 190.01 47.33 188.63 46.46C187.65 45.83 188.12 45.09 187.32 44.58C187.05 44 186.66 43.48 186.04 43.05C186.05 42.2 185.57 41.35 185.04 40.49C185.84 39.8 184.21 39.02 184.23 38.3C184.13 38.21 184.02 38.12 183.91 38.04C184.28 37.72 184.66 37.54 185.42 38.08C186.29 38.7 187.17 38.92 187.95 38.64C189.58 39.39 190.6 38.86 192.25 38.44C190.27 38.03 188.76 36.75 187.46 37.46C186.48 36.73 187.56 36.07 186.68 35.34C187.82 34.9 189.35 34.96 190.16 34.11C191.55 33.68 192.35 32.71 193.16 31.75C191.31 30.24 189.47 28.73 187.62 27.22C187.15 26.49 186.02 26.37 185.63 25.56C185.02 25.05 184.42 24.54 183.81 24.02C183.19 23.5 182.58 22.98 181.96 22.47C181.19 21.85 180.41 21.23 179.64 20.61C178.08 19.33 176.53 18.04 174.97 16.76C174.14 16.76 173.97 17.34 173.67 17.81C173.17 19.07 171.49 18.45 170.39 18.01C169.37 17.6 169.09 16.4 169.35 15.55C169.53 14.98 169 14.73 168.42 14.42C167.94 14.17 167.53 13.87 167.31 14.35C166.98 15.07 166.42 15.87 167.45 16.78C169.3 18.41 168.01 18.64 167.11 19.32C166.95 18.55 166.78 17.98 166.73 17.43C166.65 16.59 165.86 16.61 165.52 16.66C164.64 16.78 165.68 17.15 165.81 17.38C166.49 18.63 165.74 19.13 165.11 20.03C164.923 18.4366 164.243 17.2433 163.07 16.45C161.9 15.29 161.08 15.4 160.41 16.13C159.35 15.15 159.06 15.64 158.83 16.27L158.61 16.22L158.55 16.37C158.19 16.37 157.83 16.35 157.48 16.34C156.92 15.72 155.42 15.65 155.71 14.53C155.89 14.38 156.07 14.24 156.25 14.09C156.6 13.86 156.93 13.6 157.32 13.4C158.34 12.87 157.4 11.94 157 11.11C156.83 10.76 156.73 10.37 156.23 10.38C155.39 10.4 154.76 10.67 154.65 11.43C154.61 11.67 154.52 11.89 154.45 12.11C154.31 12.16 154.17 12.2 154.03 12.25C150.52 11.58 149.51 12.56 150.8 15.41C150.61 15.58 149.95 15.36 150.23 15.92C149.15 16.8 148.53 18.12 146.6 18.19C146.24 18.2 145.85 18.58 145.87 18.89C146 20.89 144.15 21.49 143.13 22.67C143.01 22.77 142.9 22.88 142.78 22.99C142.37 23.13 142.29 23.64 141.54 23.5C141.49 23.06 141.33 22.58 141.42 22.21C141.57 21.61 141.96 21.18 140.76 20.46C139.39 19.64 139.28 20.57 138.96 20.95C138.3 21.73 137.59 22.39 136.2 22.3C134.88 22.21 134.26 22.87 133.45 23.41C132.13 24.29 131.36 26.06 128.33 24.49C127.55 24.09 126.51 24.25 125.95 24.8C125.63 25.11 125.22 25.25 124.57 24.78C124.52 24.56 124.47 24.33 124.41 24.11C124.29 23.72 124.16 23.33 124.04 22.93C125.38 23.69 127.53 22.42 126.87 21.04C125.79 18.76 126.87 17.79 128.31 16.89C128.68 16.65 129.66 16.78 129.28 16.05C128.81 15.15 128.05 15.96 127.42 15.45V15.39C127.76 15.15 128.08 14.9 128.44 14.69C128.72 14.52 129.37 14.55 128.88 13.96C128.46 13.46 128.05 13.67 127.68 13.78C127.43 13.85 127.16 13.89 126.9 13.95C125.65 13.18 124.5 12.63 124.14 13.97C122.38 13.88 121.38 15.95 122.42 17.53L122.44 17.6C122.55 17.73 122.62 17.86 122.65 18C122.72 18.09 122.81 18.17 122.91 18.24C122.16 18.78 120.85 19.13 121.48 20.39C122.3 22.03 121.51 22.49 120.31 22.82C119.87 22.94 119.75 23.22 119.77 23.63C119.08 25.02 117.47 25.67 116.48 26.82C115.57 26.55 115.79 27.96 114.83 27.34C114.3 27 113.98 26.22 113.7 25.63C113.44 25.09 113.92 24.85 114.23 24.6C114.69 24.21 114.84 23.65 114.32 23.04C113.52 22.09 113.25 23.09 112.63 22.97C112 22.85 111.87 23.27 111.54 23.52C110.33 24.45 108.78 25.11 109.01 27.39C107.88 26.02 107.44 24.83 106.42 24.59C105.46 24.37 105.64 25.46 105.47 26.06C105.4 26.07 105.34 26.1 105.3 26.15C104.76 26.26 104.72 27.35 103.58 26.3C103.82 25.77 103.95 25.22 103.38 24.51C103.42 23.87 103.1 23.28 102.45 22.56C102.21 23.25 102.55 23.85 102.84 24.44C102.33 25.04 102.94 26.19 101.91 26.61C100.38 27.23 99.6401 28.45 100.04 30.28C99.6001 30.16 98.9501 31.16 98.7601 29.67C98.6301 28.65 97.7701 28.33 96.9101 28.64C96.4901 28.79 96.2601 29.16 95.8301 29.29C94.7301 29.61 93.2301 29.43 92.3501 28.42C91.4601 27.39 92.9101 27.31 93.5301 26.96C93.7401 26.84 93.9201 26.68 94.1101 26.53C94.4601 26.65 94.8701 27.5 95.1101 26.92C95.3501 26.32 95.9201 26.1 96.5501 26.43C99.0901 27.78 97.9201 26.5 97.4001 25.51C97.1001 24.94 97.2301 24.35 96.6701 23.75C96.6001 22.96 98.3001 23.49 97.8401 22.4C99.8801 23.45 99.5901 22.13 99.7501 21.26C99.8101 21.17 99.8601 21.09 99.9201 21C100.23 20.95 100.53 20.9 100.84 20.86C101.01 20.98 101.18 21.09 101.35 21.21C101.44 21.39 101.53 21.58 101.63 21.76C101.64 21.78 101.77 21.78 101.84 21.79C101.73 21.6 101.63 21.41 101.52 21.23C101.52 20.81 101.54 20.4 101.55 19.98C102.61 20.41 103.76 21.88 104.68 21.07C105.19 20.63 106.42 20.14 104.95 18.8C104.16 17.79 103.43 16.75 102.55 15.78C101.45 14.57 100.23 13.6 99.1501 14.81C98.2801 14.56 97.7401 14.54 97.1701 15.12C96.1101 16.19 95.8601 18.23 93.0101 17.53C92.4801 17.4 92.2201 17.85 92.1001 18.28C90.8501 17.31 90.9701 16.21 90.5001 15.17C90.0601 14.19 89.6401 13.34 88.3001 13.59C87.6601 13.08 87.0201 12.57 86.3801 12.06C87.9401 11.43 91.6501 11.81 92.2301 12.84C93.0101 14.24 93.9801 13.59 94.8001 14.11C95.1201 14.31 95.3401 13.58 95.2301 13.32C94.8801 12.51 94.8701 11.53 93.5301 11.01C92.5201 10.62 91.6601 10.04 90.9301 9.24997C91.8601 8.56997 92.7201 7.83997 92.9801 6.66997C92.9801 6.42997 93.1101 6.10997 92.9601 5.95997C91.9601 4.94997 87.6901 4.06997 86.6401 4.60997C85.9701 4.73997 85.3801 4.89997 86.3901 5.75997C85.3301 5.69997 83.8301 4.51997 83.2601 5.66997C82.8901 6.41997 82.1101 6.71997 81.2401 6.92997L80.5901 6.37997C80.5101 5.32997 82.1701 5.35997 81.9301 4.29997C81.5201 2.48997 82.7101 3.95997 83.2901 4.14997L83.3601 4.16997C83.3401 4.28997 83.3301 4.41997 83.3101 4.53997C83.4801 4.53997 83.6501 4.52997 83.8301 4.51997C84.3601 4.45997 84.9901 4.48997 85.0801 3.94997C85.1001 3.84997 84.8001 3.53997 84.6201 3.47997C84.0401 3.25997 83.9301 3.65997 83.7001 3.87997C83.2701 3.34997 83.2701 2.90997 83.5001 2.50997C85.4301 2.02997 85.4201 1.77997 83.4201 0.179974L83.2301 0.159973L82.8201 0.539974C82.6201 0.459974 82.3901 0.359974 82.5701 0.679974C82.2201 0.999974 81.8701 1.32997 81.5301 1.64997C80.9301 1.79997 80.3301 1.94997 79.7301 2.08997C78.4101 2.08997 79.2401 3.95997 77.7301 3.78997C76.8301 2.96997 76.3601 3.35997 75.7401 3.59997C74.9401 3.90997 74.0601 3.22997 73.3401 2.67997C72.2201 1.82997 74.2201 2.18997 73.5901 1.46997C68.8801 0.299975 65.3701 1.30997 64.1101 4.18997C62.9801 4.42997 61.5701 5.26997 60.7601 4.80997C57.8401 3.14997 59.1501 5.28997 58.8101 5.95997C58.8001 5.98997 58.6701 5.95997 58.5901 5.94997C55.6901 5.72997 54.7701 7.27997 54.3401 9.27997C54.1301 9.43997 53.9201 9.58997 53.7001 9.74997L53.7301 9.80997C53.8101 10.85 52.1601 10.78 52.4101 11.93C52.3001 12.14 52.1901 12.34 52.0801 12.55C51.3001 12.07 50.9701 12.36 50.7001 12.76C48.3001 13.84 47.8201 15.83 49.1001 18.65C46.4701 20.14 43.2301 21.01 41.2501 23.17C39.8001 23.12 41.9101 25.25 40.2001 25.06C39.0201 24.93 38.6101 25.66 38.0501 26.22C36.6301 27.93 36.5301 30.38 35.3401 32.22C35.0701 34.79 37.2301 38.03 35.6201 40.28C35.0701 41.05 36.2601 42.29 37.7601 42.94C38.6201 42.71 36.3801 41.66 37.7401 41.65C38.3301 41.65 38.9701 42.13 39.3101 42.9C39.7601 43.94 40.0601 45.03 41.0201 46.03C41.6101 45.13 40.4901 43.97 40.3301 42.96C42.6501 42.28 42.2501 44.43 43.2301 45.25C43.7101 45.06 44.2001 44.86 44.6801 44.67C45.5901 45.6 44.9101 46.24 45.4001 47.24C46.4201 46.41 47.6101 45.92 46.6301 44.21C46.7701 44.08 46.9201 43.95 47.0601 43.81C47.2701 43.93 47.4801 44.05 47.6901 44.17C48.3901 43.91 49.0501 44.08 49.6201 44.91C49.2901 45.35 48.2801 45.58 49.6201 46.53C49.5401 47.74 48.8501 49.1 49.5501 50.12C50.3201 51.25 50.5801 52.13 50.7601 53.14C49.3001 53.69 50.6501 55.06 51.2001 55.84C51.6101 56.43 53.0701 56.92 54.0201 57.15C55.0501 57.4 53.9201 56.3 54.3201 56.06C54.4501 56.03 54.5501 55.97 54.6101 55.88C57.7801 57.86 55.0201 59.07 55.6801 61.05C56.5501 60.46 56.0501 58.72 57.9501 59.87C57.8101 60.46 57.7001 61.05 57.9701 61.77C58.2801 61.73 58.7001 61.54 58.9001 61.81C58.6901 61.54 58.2801 61.73 57.9701 61.77C58.0201 62.29 57.8301 62.68 57.6601 63.11C57.4601 63.58 57.0001 64.1 57.8501 64.88C58.8001 65.75 59.1401 64.81 59.8601 65.03C60.6301 65.77 59.8301 66.41 60.5901 67.15C59.3601 67.9 60.9701 68.54 61.5501 69.22H61.5401C61.5401 69.22 61.5401 69.22 61.5501 69.22C61.5501 69.28 61.5501 69.38 61.5701 69.4C61.6901 69.48 61.8201 69.53 61.9501 69.6C62.8901 70.26 63.6001 70.28 64.0001 69.63C64.2501 69.23 64.3101 68.64 63.9101 68.19C63.3501 67.57 62.6601 67.57 62.1501 67.9C61.4701 67.31 60.9301 66.73 61.7401 66.32C61.7301 66.25 61.7101 66.18 61.6901 66.11C61.5501 65.38 61.8001 64.84 62.1101 64.31C62.3701 63.86 61.9101 63.65 61.3801 63.61C60.8801 63.43 60.3501 63.35 59.9401 62.9C60.2201 62.64 60.6901 62.49 60.4001 61.91C60.8001 61.68 61.1901 61.46 61.5901 61.23C62.1401 61.18 62.6801 61.21 62.5201 60.43C62.3301 59.53 62.9201 59.55 63.7801 60.26C63.2001 60.82 63.5101 61.76 63.3301 62.49C63.3301 62.71 63.3501 62.92 63.3501 63.14C63.5601 63.39 63.7701 63.64 63.9901 63.9C63.6401 64.12 62.9301 64.61 63.1401 64.63C64.9101 64.84 64.8601 67.12 66.5801 67.13C66.6501 67.39 66.6601 67.69 67.1401 67.71C67.0701 67.52 66.9901 67.34 66.9201 67.15C67.2001 66.29 68.0901 66.86 68.8501 67.15C68.1301 66.42 67.5801 65.71 67.3801 65.07C67.5701 65.71 68.1301 66.41 68.8501 67.15C68.6601 67.75 68.9801 68.21 69.7801 68.72C70.7901 69.37 71.5601 70.17 70.9701 71.03C69.9901 70.12 68.7101 69.95 67.6901 69.17C67.0201 70.61 68.4901 71.48 70.5501 72.68C67.6601 71.85 66.8401 72.37 67.6401 74.27C67.7801 74.61 67.9201 74.96 67.9701 75.29C68.2501 76.94 67.5701 77.33 65.7401 76.52C64.6801 76.05 65.0001 74.99 63.9301 74.33C63.7601 74.84 63.5501 75.33 63.0001 75.54C62.2201 74.99 62.0201 75.67 61.4401 75.62C60.8101 75.56 60.2701 75.83 60.6901 76.49C61.1001 77.13 61.7401 77.14 62.2801 76.93C62.5001 76.85 62.8201 76.89 63.0901 76.87C64.7401 77.56 64.6001 79.38 66.2701 80.06C66.7501 80.26 67.3201 80.52 67.2401 80.97C67.2101 81.17 66.6901 81.27 66.3501 81.22C64.6501 80.97 63.3101 81.26 62.2401 82.01C61.7501 82.35 61.1301 82.03 60.5301 81.57C60.3301 81.08 60.1201 80.6 59.9201 80.11C59.9401 79.05 59.6701 78.18 59.1101 77.5C58.2901 79.73 57.8901 79.85 55.6301 78.5C55.4901 77.85 55.4401 77.21 55.2001 76.56C55.0401 76.13 54.7801 75.49 54.2101 75.33C53.3101 75.07 53.7101 75.96 53.4401 76.27C52.8801 76.79 52.3101 77.25 51.4901 75.85C51.7101 74.77 50.1401 75.28 49.9501 74.49C50.0901 74.07 50.8601 74.46 51.1401 74.18C51.8301 74.77 52.6601 75.14 52.7101 74.35C52.7701 73.35 53.7701 72.97 53.5501 71.66C53.1601 69.34 55.0601 69.23 57.9001 71.09C57.8701 70.87 57.8301 70.67 57.7701 70.49C57.8301 70.67 57.8801 70.87 57.9101 71.09C58.6701 72.05 56.8401 73.03 59.0601 73.93C59.9201 72.87 58.3201 70.7 60.7501 69.85C58.4401 69.6 57.4701 68.28 56.4201 67.25C55.6001 66.45 55.3801 66.73 54.9501 66.96C54.8401 66.57 54.7301 66.18 54.6201 65.78C54.7901 65.63 54.9601 65.49 55.1301 65.34C53.4901 63.85 52.1601 64.02 50.9101 64.6C49.4301 63.99 47.9001 64 46.4401 62.78C44.8101 61.41 43.0401 60.17 41.3301 58.88C40.4701 58.23 39.4401 57.58 38.7001 57.97C37.9601 58.36 38.8301 59.26 39.2101 59.96C39.2701 60.53 39.2801 61.38 40.1001 61.51C42.1801 61.85 43.1901 63.65 44.8201 64.52L44.8501 64.59C43.8101 66.39 40.8801 67.19 42.5801 70.44C42.4501 70.62 42.3201 70.79 42.1901 70.97C41.3101 71.32 41.4801 72.75 39.8601 72.33C39.2501 72.09 38.6301 71.85 38.0201 71.61C37.0801 71.05 36.0701 69.97 35.4801 71.23C35.1601 71.9 34.4001 71.38 33.7701 70.87V70.85C33.7201 70.46 33.5301 70.44 33.2701 70.59C31.7201 71.44 30.3901 72.58 27.9301 72.17C27.8401 72.05 27.7301 71.98 27.5901 71.93C26.0301 72.13 25.5801 73.26 24.9701 74.26C24.4001 74.8 23.8401 75.34 23.2701 75.87C23.2701 76.72 23.1101 77.55 24.1201 78.48C23.9401 78.67 23.8101 78.87 24.0801 79.21C24.6101 78.9 24.9701 78.43 25.4601 78.09C24.9701 78.43 24.6001 78.91 24.0801 79.22C23.3201 80.97 23.2001 83.05 20.9201 83.9C20.2201 84.16 18.2401 84.85 20.0301 86.81C19.9901 87.74 20.0601 88.74 18.5801 88.67C18.0001 88.64 17.8501 88.91 18.3901 89.43C19.1501 90.17 19.2101 90.82 19.0201 91.5C18.7801 92.34 19.8501 92.52 20.4001 92.86C20.8301 93.12 21.8001 93.62 21.7201 92.97C21.5501 91.64 23.2301 91.96 23.5401 91.12C24.2501 90.64 22.9201 89.96 23.0501 89.42C23.5501 89.69 24.0401 89.97 24.5401 90.24C24.5401 90.05 24.5201 89.86 24.5201 89.67C24.5201 89.86 24.5301 90.05 24.5401 90.24C24.8401 90.43 25.1401 90.62 25.4401 90.81C25.5001 91.35 25.9601 91.74 26.4801 92.09C26.4801 92.54 26.4801 92.98 26.4901 93.43C25.9801 94.66 24.7601 93.15 23.9901 92.97C24.4401 95.1 25.8901 95.22 27.5501 94.91C27.2201 95.73 26.6001 96.1 26.7301 96.88H26.6601C25.1601 95.83 24.1801 96.03 23.4701 96.88C22.6001 97.75 21.9101 98.73 21.7601 100.04C21.5401 100.23 21.2701 100.39 21.0901 100.61C20.6901 101.1 20.0501 101.73 21.0901 102.41C22.0701 103.05 22.4601 102.39 22.5801 101.65C22.7101 100.88 23.1601 101.75 23.4701 101.86C23.8401 103.35 24.9001 102.57 25.5901 102.84C26.3801 103.15 26.4901 102.64 26.3001 102.01C26.1201 101.43 25.8601 100.81 26.1201 100.33C26.2401 100.45 26.3601 100.49 26.4701 100.43C26.7101 100.65 26.9601 100.87 27.2001 101.08C28.0201 101.81 27.7601 102.34 27.7101 103.01C27.6001 104.25 28.4001 103.55 28.8401 103.57C28.8301 103.92 28.4801 104.25 28.9201 104.65C29.3501 105.04 29.5901 104.73 29.7601 104.52C29.9701 104.26 30.3201 104.3 30.7001 104.35C32.2301 104.54 31.2501 103.16 31.6301 102.63C31.8001 102.39 31.6301 101.92 31.1901 101.78C30.3701 101.53 29.8001 101.78 29.3701 102.19C29.2201 102.06 29.0801 101.93 28.9301 101.8C28.7901 101.69 28.6501 101.57 28.5101 101.46C28.7601 100.76 29.2501 100.25 30.0301 99.99C30.3701 99.07 31.6301 100.27 32.3401 100.11C31.8101 99.21 30.8301 99.09 30.2701 98.5C30.8701 98.45 31.7001 98.76 31.9701 98.09C31.0301 97.16 29.2101 96.34 29.9401 95L30.1101 95.05C31.3401 95.71 32.5601 96.16 33.7301 96C34.3001 96.26 34.7601 96.97 35.4401 96.76C37.0801 98.17 39.1701 98.32 40.8601 99.59C40.3301 99.68 39.8401 99.83 40.8601 100.33C41.4901 100.64 42.1701 100.79 42.8301 101.01C44.4801 101.82 45.3501 103.95 47.4801 103.93C48.0701 104.34 48.6601 104.61 49.2701 104.53C51.7001 105.71 53.8901 105.75 56.0501 105.62C56.2501 105.72 56.4601 105.81 56.6701 105.91C56.2401 107.01 57.6901 107.48 58.4101 107.95C59.3901 108.6 59.8201 107.89 60.2901 107.47C61.7501 107.95 63.2101 108.44 64.6701 108.92C65.8701 109.86 67.7501 110.58 67.1501 112.36C67.6601 110.39 69.4801 111.38 71.1101 112.01C71.7301 112.25 72.3501 112.6 72.9701 112.8C75.1601 113.49 77.1301 114.24 76.0601 116.55C77.7701 116.46 76.9901 114.99 77.6501 114.19C78.5101 115.38 79.2001 116.33 79.8801 117.27C81.5101 118.71 80.7001 119.58 80.0501 120.34C79.3801 121.12 78.0101 121.07 76.7101 120.52C75.8101 120.14 75.2101 119.94 74.6001 120.56C76.7101 121.22 76.9901 122.38 76.8101 123.73C77.3801 122.82 78.7101 123.61 79.5201 123.39C79.7701 123.57 80.0101 123.75 80.2601 123.92C78.9201 125.08 76.6501 125.26 75.4601 126.6C74.5301 127.64 74.6701 129.68 75.9801 130.89C76.9101 131.17 77.8401 131.44 78.7001 131.7C78.6001 133.27 76.4301 133.55 77.0201 135.43C76.0601 135.01 75.6501 135.33 75.7901 136.02C75.9401 136.77 75.4501 137.11 75.2401 137.63C75.2401 137.63 75.2501 137.65 75.2501 137.66L75.2401 137.63C73.8201 136.28 72.4201 135.08 71.1601 136.52C69.1901 137.26 66.3701 137.08 65.7901 139.33C64.1001 137.39 65.2901 135.69 64.0401 133.79C64.5801 134.22 65.0801 134.7 65.6601 135.07C66.2501 135.45 66.6201 135.18 66.5601 134.78C66.4601 134.1 65.8801 133.47 65.1801 132.92C64.3601 132.27 63.8601 132.36 63.5501 132.92C62.8201 132.74 63.2601 132.29 62.9601 132.02C64.8101 131.53 65.2501 129.74 67.1201 129.18C69.1001 128.59 68.7401 127.44 66.4701 125.86C66.5301 124.62 65.9301 124.18 64.8001 124.71C64.1501 125.01 63.5401 125.41 63.5801 126.24C63.6201 126.79 63.8701 127.24 64.6001 127.5C64.4901 127.48 64.4201 127.52 64.4001 127.61C63.9801 127.35 63.5901 127.28 63.2201 127.35C62.6701 127.46 62.1101 127.58 61.5601 127.69C61.4801 127.36 61.2201 126.93 61.3401 126.73C62.0901 125.44 62.9801 124.28 64.7101 123.82C65.1401 123.71 65.6701 123.24 64.9101 122.89C62.9201 121.97 64.2201 121.59 64.5401 121.26C65.8401 119.92 67.7201 119.16 69.6501 118.46C71.6201 118.09 71.0001 116.13 71.7101 114.96C71.0001 115.18 70.2901 115.21 69.5301 115.24C68.2601 115.28 66.9601 115.49 67.4301 117.1C66.6001 117.99 65.7201 118.96 64.0601 118.8C62.6601 118.67 62.1701 119.07 62.0401 120.1C61.9001 121.19 60.3201 121.37 59.3401 120.31C58.2901 119.17 58.0001 119.68 57.6101 120.08C57.2601 120.45 57.0801 120.95 56.8201 121.39C57.0801 121.65 57.5201 122 57.7101 122.22C57.5201 121.99 57.0801 121.65 56.8201 121.39C56.4201 121.09 56.0201 120.8 55.6101 120.5C56.1101 119.81 57.1501 119.49 57.0901 118.42C57.2701 118.27 57.5101 118.15 57.6201 117.96C57.8501 117.55 58.7801 117.29 58.0301 116.64C57.3501 116.05 56.2601 115.95 55.6601 116.3C54.9901 116.69 54.5401 117.31 53.8801 117.94C52.9001 116.64 51.6801 115.62 52.0501 113.86C50.3001 115.6 49.2301 117.21 46.9201 117.63C46.9501 117.73 46.9801 117.84 47.0101 117.95C47.6501 118.98 48.5601 119.71 49.5801 120.3C48.5601 119.7 47.6501 118.98 47.0101 117.95C46.9801 117.84 46.9501 117.74 46.9201 117.63C45.8301 117.36 46.3301 116.36 45.4801 115.97C44.8301 114.95 45.4801 114.51 45.9701 114.03C46.6001 113.42 47.2101 112.81 47.4601 111.93C47.6001 111.44 48.3201 111.13 47.6601 110.43C47.2401 109.99 46.8401 110.91 46.1601 110.23C44.6401 109.65 43.0301 111.11 41.5901 108.69C42.7501 108.01 44.8001 107.8 42.7801 105.46C42.9801 105.18 43.0301 104.96 42.3901 104.74C39.9301 103.91 39.9901 105.86 38.8701 106.51C37.4301 107.34 37.7401 108.17 39.9401 108.95C39.3901 109.3 38.8401 109.66 38.2901 110.01C38.3801 111.53 38.9501 113.04 40.1801 114.56C40.3401 116.1 40.5001 117.63 40.6601 119.17C40.1501 119.46 40.3401 120.02 40.4801 120.56C40.1801 121.42 40.0001 122.28 41.4801 123.19C40.9101 123.87 39.9601 123.96 38.8101 123.73C37.7401 122.46 38.0901 121.52 38.3801 120.53C38.5001 120.13 38.8201 119.52 38.0801 119.09C37.2601 118.61 36.8201 119.07 36.6101 119.57C36.0801 120.88 34.7301 121.03 32.9701 120.64C32.8201 119.39 32.3201 118.11 32.2401 116.83C32.0801 114.38 34.9701 114.81 35.8301 113.43C35.1401 113.2 34.5401 113.26 33.9201 113.31C34.5301 113.26 35.1301 113.2 35.8301 113.43C36.3701 113.66 36.6701 113.47 36.9801 113.28C37.8901 114.66 39.0801 114.3 40.1601 114.56C38.9301 113.04 38.3601 111.52 38.2701 110.01C36.6001 109.1 36.6701 110.43 35.9801 110.8C34.9201 109.72 34.1901 109.49 33.2901 110.31C32.1601 111.35 31.1601 110.99 30.5101 109.55C30.2301 109.7 29.9501 109.83 29.7101 110C27.7301 111.32 27.5201 113.19 29.1201 115.16C28.8301 115.67 29.3101 116.28 29.5501 116.86C28.9701 117.27 27.1701 116.51 27.8501 118.22C29.2801 117.16 30.1001 119.58 31.4001 119.63C31.6901 120.17 31.3801 120.9 32.5501 121.18C33.0801 121.62 33.6201 122.07 34.1501 122.51C34.2401 123.52 33.4601 124.23 34.0501 125.4C33.4601 125.47 32.9701 125.12 32.4801 124.71C32.0601 123.59 30.9501 122.47 31.2101 121.01C30.6501 121.54 30.0401 121.78 30.1201 122.11C30.5901 124.04 28.9401 124.09 27.6401 124.6C26.4301 125.08 25.3101 125.84 25.9301 127.58C25.3601 127.86 24.9901 128.3 24.8001 128.87C23.8301 128.68 22.8501 128.49 21.8801 128.3C21.6701 128.11 21.4501 127.93 21.2301 127.74C21.7701 127.15 22.3301 126.58 22.8501 125.98C22.9801 125.83 23.0801 125.56 22.9801 125.36C22.7501 124.92 22.3101 125.03 21.9501 124.94C21.1501 124.75 21.0301 125.23 20.8301 125.63C18.9201 124.18 17.3101 122.7 18.4701 120.99C19.1601 120.73 20.8201 121.44 20.4601 120.16C20.2301 119.36 19.2101 118.92 18.2901 119.01C17.5501 116.89 18.5301 115.81 20.3101 115.22C21.2401 114.91 21.6101 114.56 21.1101 113.25C20.6201 111.96 20.0801 110.3 20.9701 109.34C21.6601 108.6 21.6001 107.65 21.6801 106.45C20.1901 108.19 18.0201 109.47 18.4001 111.82C18.7401 113.96 17.4501 114.84 16.7101 116.18C16.2101 117.09 15.5901 118.04 13.6501 117.01C12.9701 116.44 12.2801 115.87 11.6001 115.3C12.1701 111.95 13.8701 108.98 11.6001 104.72C9.51012 104.14 9.68011 105.7 10.0001 106.94C10.5601 109.06 10.4301 110.92 10.2201 112.79C9.14011 113.58 7.71011 112.46 6.50011 111.98C5.33012 111.52 4.93011 111.85 4.49011 112.33C4.26011 112.58 3.94012 112.92 4.58012 113.31C5.39011 113.8 6.30012 114.74 7.08012 113.99C7.38012 114.24 7.69011 114.49 7.99011 114.75C7.96011 114.84 7.99012 114.94 8.08012 115.04C7.97012 115.29 7.86012 115.54 7.75011 115.79C6.94012 116.26 7.93011 116.64 8.35011 117.05C8.52011 117.45 8.82011 117.95 8.48012 118.15C7.10012 119.01 8.44011 119.34 9.45011 119.76C10.0301 121.5 11.5701 120.8 12.5801 121.44C11.7201 122.7 9.13011 122.31 8.77011 124.05C8.25011 124.44 7.74011 124.84 7.22012 125.24C5.32011 124.29 5.62011 125.8 5.02011 126.3C4.88011 126.34 4.74011 126.38 4.61012 126.42C4.36012 126.24 4.16012 126.22 4.01012 126.37C3.93011 126.42 3.84011 126.47 3.75011 126.51C2.01012 125.07 1.71011 126.59 0.760117 126.73C0.24012 126.8 0.23011 127.37 0.630112 127.88C1.19011 128.6 1.91011 129 2.70011 128.78C3.94011 128.31 5.18011 127.85 6.42011 127.38C7.81011 127.77 9.33012 128.72 10.4301 127.95C11.3601 128.75 11.6401 129.6 11.5601 130.48C12.5101 130.53 12.6001 129.7 13.4801 129.92C13.5501 130.99 12.5101 131.38 12.1901 132.21C10.9701 132.73 11.8401 133.82 12.3701 134.8C12.5101 135.07 12.7901 135.39 13.1101 135.29C14.0001 135.01 13.7101 134.12 13.6901 133.37C13.6901 133.25 13.7301 133.13 13.7601 133.02C14.7801 132.53 14.0501 130.86 15.4301 130.58C15.7401 130.52 14.5501 129.33 15.7201 129.78C16.5801 130.11 17.6101 130.8 18.1301 131.48C18.5701 132.05 17.5501 131.82 17.1301 131.91C15.6901 132.24 15.9801 133.53 16.1101 134.69C16.1501 135.06 16.1101 135.59 16.6301 135.83C17.2901 136.12 17.4301 135.59 17.6901 135.3C17.9201 136.02 17.4901 136.94 18.9601 137.31C19.6401 137.48 20.1201 136.81 19.8401 136.45C19.0501 135.43 19.4001 134.33 18.2201 133.39C19.0601 133.57 20.1101 133.51 20.6901 133.96C21.7501 134.79 21.0701 135.78 21.4801 136.74C22.2201 136.84 22.3801 136.42 22.7401 136.21C23.1401 136.51 23.5301 136.81 23.9301 137.11C24.3401 137.68 24.8401 138.24 24.7701 138.83C24.6601 139.83 24.6501 139.83 26.1001 140.06C26.8801 140.36 27.6201 141.45 28.4601 140.87C28.3001 140.05 28.5101 139.34 29.6301 139.8C30.9101 140.33 30.0801 140.91 30.0801 141.47C30.0801 141.65 30.1901 141.87 30.2501 142.07C30.0801 142.4 29.9101 142.73 29.7301 143.05C29.1401 143.71 28.3701 144.18 27.3601 144.4C26.3301 144.62 25.8601 145.2 26.2601 146.32C26.7601 145.68 27.5501 145.79 28.3901 146.52C29.2401 147.26 28.6301 147.65 28.2501 147.94C27.7701 148.31 27.7001 149.15 26.5901 148.86C26.1701 149.1 25.3101 149.33 25.4101 149.58C26.1901 151.64 24.4701 150.77 23.3201 150.65C22.8001 150.59 22.3301 150.69 21.8401 150.72C22.0801 151.31 23.0701 151.45 22.9601 152.01C22.8501 152.53 22.1601 152.36 21.6501 152.25C20.0801 151.91 19.4301 152.76 18.4601 153.25C19.5901 153.17 20.7401 153.83 22.0501 153.42C23.7401 152.89 25.0401 151.07 27.9901 152.46C28.0801 152.5 28.2401 152.27 28.3801 152.15C29.9801 153.87 27.2301 153.5 27.6401 154.65C24.5901 153.47 25.8601 156.08 25.0201 156.84C24.8301 157.01 24.9801 157.37 25.3201 157.53C25.5801 157.65 26.1301 157.69 26.1401 157.61C26.3301 155.99 28.6901 156.43 29.3901 155.32C29.4601 155.2 29.5301 155.09 29.6101 154.97C29.9501 154.3 30.3201 154.3 30.6901 154.53C30.3201 154.3 29.9501 154.31 29.6101 154.97C29.5401 155.09 29.4701 155.2 29.3901 155.32C29.7701 156.15 29.8001 156.91 28.7601 156.8C27.7401 156.69 27.4401 157.49 27.4501 157.75C27.5301 159.49 26.0101 159.61 24.5701 159.85C24.2701 159.79 23.9701 159.73 23.6701 159.67C23.3601 159.22 22.9501 158.77 22.7601 158.32C22.3301 157.32 21.4801 157.15 20.8901 157.35C19.6701 157.77 20.9101 158.79 21.3201 159.6C21.3101 160.46 20.4501 160.79 19.9901 161.29C19.4601 161.87 18.4601 162.25 18.9001 163.21C19.3601 164.22 20.7201 164.14 21.8001 164.66C21.0201 164.9 22.1101 166.45 20.9801 166.06C20.2101 165.79 18.6401 165.42 18.4201 164.11C18.8301 164.01 18.7601 163.87 18.2901 163.69C17.1601 163.74 16.9401 165.09 15.3501 164.49C15.0001 164.39 14.6501 164.29 14.2901 164.18C14.1601 163.98 14.0301 163.78 13.9101 163.57C14.0301 163.77 14.1401 163.97 14.2601 164.17C13.7101 164.62 13.5901 165.29 13.6601 166.05C13.5301 166.16 13.3901 166.28 13.2601 166.39C12.0401 166.7 12.3901 167.49 13.2901 168.44L13.3101 168.57C13.0001 168.82 12.4501 168.9 12.0901 168.55C10.9401 167.41 9.92011 166.84 8.72012 167.47C8.48012 167.59 7.81011 167.28 7.34011 167.1C6.10011 166.65 4.97012 166.55 4.01012 166.87C1.35011 167.75 -1.94988 167.6 -4.60988 168.49C-5.47988 168.78 -6.49988 168.88 -7.30988 167.38C-7.83988 166.41 -8.27988 166.81 -8.47988 167.29C-9.21988 169.07 -11.5199 169.37 -12.9599 170.49C-15.2899 168.97 -15.2999 168.97 -15.5299 171.19C-15.5699 171.53 -15.7199 171.86 -16.0899 171.78C-17.6299 171.43 -17.7299 172.63 -18.5799 173.02C-19.4799 172.72 -20.2199 171.18 -20.9899 171.7C-22.0399 172.41 -23.8599 172.12 -24.5699 173.18C-24.2699 173.29 -23.7499 173.18 -23.5399 173.39C-23.7499 173.19 -24.2699 173.29 -24.5699 173.18C-24.9399 173.6 -25.3099 174.02 -25.6699 174.45C-27.2699 173.35 -27.9299 173.91 -28.5299 174.76C-28.6599 174.94 -28.7999 175.1 -28.8699 175.28L-38.7699 174.88C-39.2299 174.39 -39.5499 173.87 -38.7099 173.25C-40.7699 173.58 -42.6199 172.59 -44.4699 172.99C-42.9299 173.72 -41.4999 174.08 -40.2999 174.82L-43.2199 174.7C-43.5799 173.83 -44.0599 174.4 -44.4999 174.65C-44.5399 173.8 -45.8199 173.97 -46.0499 173.28C-45.9799 173.06 -45.9299 172.83 -45.8399 172.62C-45.7099 172.3 -44.2499 172.76 -45.2799 171.8C-45.9199 171.2 -46.7799 171.07 -47.2899 171.58C-47.8499 172.13 -47.6299 172.78 -46.8099 173.52C-46.6599 173.88 -46.5199 174.24 -46.3699 174.59L-54.2299 174.27C-54.2299 174.27 -54.3199 174.17 -54.3699 174.12L-54.4799 174.26L-56.1999 174.19C-57.0499 173.89 -57.8099 173.49 -58.2099 172.47C-59.0999 172.78 -58.1599 173.83 -58.8499 174.08H-58.9099C-59.0899 173.94 -59.2799 173.74 -59.4599 173.91C-59.4899 173.93 -59.4699 174 -59.4399 174.06L-64.1299 173.87C-50.2399 185.19 -33.5099 189.71 -20.9399 188.18V188.15Z" fill="#18202B"/>
</svg>
