<svg width="172" height="146" viewBox="0 0 172 146" fill="none" xmlns="http://www.w3.org/2000/svg">
<path id="Vector" d="M87.8268 145.495C97.2119 141.864 105.672 132.429 113.754 122.424C113.176 122.594 112.598 122.764 112.03 122.934C111.883 122.974 111.747 123.014 111.599 123.054C111.305 122.994 111.021 122.924 110.727 122.864C110.454 122.114 109.939 122.714 109.561 122.564C109.004 122.454 108.447 122.334 107.89 122.224C107.438 121.924 107.059 121.324 106.471 121.534C106.408 121.514 106.355 121.554 106.313 121.654C105.977 121.754 105.63 121.844 105.294 121.944C105.294 121.944 105.21 121.894 105.157 121.924C104.999 121.874 104.831 121.824 104.674 121.774C104.548 121.964 104.411 122.154 104.285 122.354C104.117 122.664 103.854 123.275 103.791 123.235C101.216 121.864 99.3138 125.496 97.0542 126.356C96.8335 126.606 96.6128 126.856 96.3921 127.106C96.3501 127.126 96.2975 127.156 96.2555 127.197C95.6879 127.056 95.1204 126.916 94.5634 126.776C94.4478 126.536 94.3217 126.296 94.2061 126.056C92.7558 125.095 91.5052 125.966 90.3806 127.717C89.4138 129.227 88.121 129.047 87.1121 129.077C86.2503 129.107 86.6182 127.006 86.6392 125.796C86.6918 123.285 86.8284 120.763 86.9335 118.252C86.7968 117.622 86.408 117.122 86.2819 116.481C86.4185 117.122 86.7968 117.622 86.9335 118.252C87.564 117.232 87.3328 116.191 87.1857 115.151C87.0596 112.249 86.9755 109.118 87.8373 106.496C89.193 102.344 90.8536 98.3025 93.0816 94.8909C93.46 94.6908 93.8277 94.4907 94.2061 94.3006C94.2166 94.2306 94.2376 94.1605 94.2691 94.0905C94.2481 94.1605 94.2271 94.2306 94.2061 94.3006C94.8367 94.5707 95.0994 96.1115 96.0453 95.2411C96.9596 95.4612 97.4326 94.9709 97.2749 93.4602C95.6144 91.8494 96.7599 89.9185 97.3905 88.0476C97.9475 88.5578 98.7567 89.7284 99.0195 89.4683C99.9023 88.5778 98.8304 87.4073 99.1246 86.2667C99.1351 86.2067 99.1246 86.1367 99.1246 86.0666C99.2823 86.1767 99.4399 86.2867 99.5975 86.3968C99.2402 87.4373 99.7237 87.6874 100.165 87.8475C100.659 88.0276 100.754 87.4373 100.775 86.867C100.796 86.2167 100.901 85.9266 101.405 85.9666C102.446 86.0466 102.624 85.1862 102.288 83.9356C102.372 83.7355 102.456 83.5254 102.54 83.3253C102.687 83.2452 102.834 83.1552 102.982 83.0652C102.393 82.3648 102.172 81.0442 101.3 80.8241C101.384 80.5639 101.458 80.3138 101.542 80.0537C102.33 79.7536 103.087 79.3534 103.497 78.0727C104.127 77.9627 104.516 77.3724 104.768 76.512C104.936 76.2119 105.115 75.9117 105.283 75.6216C105.378 75.6416 105.483 75.6716 105.577 75.6916C105.788 75.4915 105.998 75.2914 106.208 75.1013C105.998 75.3014 105.788 75.5015 105.577 75.6916C106.828 75.9217 107.185 78.3129 108.552 78.2228C109.413 78.1628 109.519 78.8631 109.361 79.9436C109.004 80.8441 109.455 81.3444 109.718 81.8146C111.169 84.3458 113.439 84.826 115.341 86.2267C115.95 86.6769 116.14 85.7665 116.36 85.1162C116.655 84.736 116.959 84.3558 117.811 83.2653C116.802 84.0556 116.36 83.3353 115.961 84.2057C115.646 83.9156 115.32 83.6254 115.005 83.3353C114.668 81.5344 113.376 82.9051 112.756 82.0447L112.703 82.1347C112.745 81.6245 112.787 81.1042 112.829 80.594C113.029 80.7241 113.228 80.8541 113.418 80.9842C113.554 80.1438 113.123 79.9837 112.798 79.6835C112.934 78.503 112.976 77.1323 114.111 78.2328C114.763 78.9032 115.414 79.5835 116.056 80.2638C116.192 80.584 116.287 81.3243 116.581 80.9342C116.896 80.5239 116.413 80.3038 116.245 80.0437C116.161 79.8036 116.077 79.5735 115.982 79.3334L116.003 79.3534C116.003 79.3534 116.003 79.3534 116.003 79.3434C117.201 79.8636 118.147 78.4329 119.208 77.8927C119.839 78.0628 120.459 78.2228 121.09 78.3929C121.121 78.2328 121.163 78.0728 121.195 77.9227C120.575 77.7126 119.955 77.4925 119.335 77.2824C119.387 77.1723 119.398 77.0623 119.366 76.9422C119.807 76.6821 120.217 76.3919 120.175 75.5515C120.196 75.5515 120.228 75.5515 120.249 75.5515C120.28 75.5415 120.301 75.4915 120.333 75.4515C120.28 75.4815 120.228 75.5115 120.175 75.5415C120.175 75.5115 120.175 75.4915 120.175 75.4515C120.175 75.4515 120.196 75.4515 120.207 75.4515C120.207 75.4515 120.186 75.4515 120.175 75.4515C120.133 74.7011 120.091 73.9608 120.049 73.2104C120.112 73.0904 120.186 73.0203 120.27 72.9903C120.89 72.9203 121.542 73.8707 122.109 72.5201C123.223 72.8602 124.337 73.2104 125.451 73.5506C125.672 73.7207 125.893 73.8807 126.113 74.0508C126.176 74.0808 126.229 74.1108 126.281 74.1609H126.25C126.25 74.2609 126.25 74.371 126.239 74.481C126.471 74.6811 126.702 74.8712 126.933 75.0713C126.723 76.542 127.248 76.2719 127.826 75.8617C128.131 75.9117 128.425 75.9617 128.73 76.0017C128.73 76.0017 128.73 76.0118 128.73 76.0218L128.741 76.1218C129.15 76.392 129.56 76.6621 129.97 76.9322L129.991 76.9122C129.855 76.582 129.718 76.2619 129.592 75.9317C129.329 75.8617 129.077 75.7916 128.814 75.7216C128.814 75.6816 128.814 75.6416 128.825 75.6016C128.846 75.3514 128.877 75.1113 128.898 74.8612C129.098 74.8312 129.308 74.8012 129.508 74.7712C130.307 75.5615 131 75.1713 131.62 73.9808C132.472 73.0203 133.029 74.441 133.775 74.2409C136.045 73.6206 137.831 76.4019 140.175 75.3214C140.396 76.4019 140.175 77.9727 141.31 78.0828C141.562 78.1528 141.825 78.2128 142.077 78.2828C142.004 78.8131 141.699 79.5134 142.382 79.4734C142.561 79.7936 142.739 80.1037 142.929 80.4239C143.086 80.5239 143.244 80.614 143.391 80.714C143.885 80.8641 144.379 81.0142 144.873 81.1642C145.934 83.0151 144.873 86.7269 147.09 87.6974C147.847 88.0276 148.824 87.9075 149.371 89.008C149.318 89.2581 149.266 89.5083 149.224 89.7584L149.182 89.8785C149.119 89.8985 149.066 89.9185 149.003 89.9385C149.045 89.9885 149.087 90.0486 149.129 90.0986C149.487 91.6593 150.443 91.2791 151.263 91.3592C151.378 91.4092 151.483 91.4692 151.599 91.5193L151.63 91.5893C151.683 91.7694 151.736 91.9595 151.788 92.1395C151.851 92.2296 151.925 92.3096 151.988 92.3997C151.988 92.4197 151.935 92.5298 151.935 92.5298C152.04 94.1906 152.65 94.7208 153.722 94.1605C155.109 93.5502 155.582 92.5798 154.531 90.899C154.426 90.7289 154.51 90.2687 154.5 89.9385C154.647 89.4082 154.689 88.7379 155.225 88.7479C155.183 88.4678 155.151 88.1877 155.109 87.9075C155.698 88.2077 156.244 88.1376 156.654 87.1572C156.507 86.9871 156.349 86.817 156.202 86.6569C156.349 86.827 156.507 86.9971 156.654 87.1572C156.833 87.3272 157.001 87.5073 157.18 87.6774C157.18 87.7574 157.18 87.8375 157.18 87.9175C157.201 87.8275 157.222 87.7474 157.243 87.6574C157.432 87.8575 157.621 88.0576 157.81 88.2577C158.104 88.4778 158.388 88.6979 158.682 88.928C158.388 88.7079 158.104 88.4778 157.81 88.2577C157.306 89.3382 157.264 90.1386 158.22 90.3187C158.472 90.3987 158.451 91.1691 158.872 90.8289C159.061 90.8089 159.26 90.7789 159.45 90.7589C159.576 90.939 159.702 91.109 159.817 91.2891C160.732 93.12 162.813 90.4587 163.548 92.9799C163.601 93.18 163.653 93.3902 163.706 93.5903C163.895 92.5297 164.095 91.4692 164.284 90.4187C164.21 90.3587 164.137 90.3087 164.063 90.2586C164.147 89.7984 164.221 89.3282 164.305 88.858C164.147 86.897 165.903 84.5859 164.263 82.8951C164.21 81.7946 164.263 80.4939 163.286 80.4339C162.266 80.3739 161.236 80.4939 160.206 80.5339C160.112 80.5339 160.017 80.5339 159.933 80.5339C159.029 80.3939 158.104 80.4639 157.579 79.0032C157.379 78.4529 156.77 78.4029 156.339 79.1833C156.265 79.2934 156.244 79.4234 156.265 79.5635C155.855 79.6635 155.572 79.4434 155.225 79.1333C153.154 77.2824 151.137 75.1113 148.32 76.2519C148.299 76.3819 148.288 76.512 148.257 76.6421C148.278 76.512 148.299 76.3819 148.32 76.2519C147.658 75.3514 146.744 75.8717 145.955 75.6416C145.798 75.5515 145.651 75.4515 145.493 75.3614C144.558 72.9803 145.398 71.8898 146.964 71.2895C147.048 71.2595 147.101 70.9493 147.164 70.7792L147.185 70.6792C147.353 70.3991 147.521 70.1289 147.689 69.8488C147.952 69.4986 147.763 69.4586 147.584 69.3986C147.542 69.2385 147.5 69.0884 147.458 68.9283C147.921 68.8383 148.152 68.318 148.373 67.7678C148.982 68.3781 149.613 68.9083 150.401 68.9183C150.727 69.4286 151.063 69.5486 151.452 68.8683L152.881 69.4886C152.86 70.329 152.839 71.1694 152.818 72.0098C152.871 72.6901 153.144 72.5901 153.449 72.31C153.753 72.1899 154.048 72.0799 154.352 71.9598C154.531 71.9598 154.72 71.9698 154.899 71.9798C155.225 72.1199 155.551 72.26 155.876 72.4C155.813 73.3405 156.066 73.1604 156.402 72.6701C156.528 72.6701 156.654 72.6601 156.78 72.6501C157.064 72.7102 157.348 72.7702 157.621 72.8402C157.821 72.6301 158.01 72.43 158.209 72.2199C158.43 71.5796 158.462 71.0293 157.999 70.7192C158.146 70.349 158.294 69.9688 158.43 69.5986C158.535 69.4686 158.63 69.3385 158.735 69.2085C159.05 69.0284 158.987 68.7383 158.893 68.4281C158.872 68.248 158.84 68.0679 158.819 67.8878C158.63 67.6477 158.451 67.4076 158.262 67.1675C158.041 66.9574 157.821 66.7573 157.589 66.5472C157.411 66.5172 157.243 66.4972 157.064 66.4771C156.885 66.4371 156.707 66.3971 156.528 66.3571C156.444 66.3571 156.36 66.3171 156.286 66.247C156.391 65.0564 155.298 64.7563 155.54 63.4557C156.192 63.4357 156.024 62.6553 156.129 62.125C156.297 62.105 156.475 62.085 156.644 62.065C156.99 62.9254 157.358 61.5848 157.716 61.9149C157.863 61.5448 158.01 61.1846 158.157 60.8144C158.84 59.8139 158.304 59.4638 157.873 59.0436V59.0135C157.873 59.0135 157.947 59.0135 157.947 59.0035C158.031 58.6834 158.125 58.3532 158.209 58.023C158.409 58.2431 158.598 58.3132 158.745 57.843C159.134 57.913 159.555 58.1131 159.796 57.2827C159.838 57.1426 159.87 56.9926 159.912 56.8525C159.744 56.4723 159.576 56.0921 159.408 55.7119C159.492 54.5814 158.535 54.8115 158.43 53.9211C159.376 53.2308 160.28 52.4904 161.32 53.1807C161.814 53.5109 162.287 53.1507 162.13 52.0402C162.077 52.0001 162.014 51.9501 161.961 51.9001C161.909 50.3593 163.17 50.9096 163.391 49.7991C163.233 49.549 163.075 49.2989 162.918 49.0487C162.729 48.9087 162.539 48.7586 162.361 48.6185C162.55 48.7586 162.739 48.9087 162.918 49.0487C163.075 49.2989 163.233 49.549 163.391 49.7991C163.643 49.609 163.885 49.4089 164.137 49.2188C164.179 49.0187 164.221 48.8186 164.263 48.6185C165.892 50.6295 167.689 46.2974 169.318 48.0783C169.465 47.6781 169.602 47.2678 169.749 46.8677C169.781 46.7276 169.812 46.5875 169.833 46.4475C169.833 46.3174 169.812 46.1973 169.77 46.0873C170.768 46.2574 171.241 45.467 171.368 44.0163C171.22 43.7061 171.073 43.386 170.937 43.0758C170.842 42.6556 170.758 42.2354 170.663 41.8152C170.474 41.4651 170.296 41.1149 170.106 40.7547H170.127C170.138 40.1744 170.159 39.5942 170.169 39.0039C170.148 38.1935 169.854 37.8233 169.329 37.8433C168.982 37.7633 168.645 37.6832 168.299 37.6132C167.384 36.9929 167.878 34.0515 166.186 34.7118C165.892 34.6117 165.608 34.5117 165.314 34.4216C165.282 34.3416 165.251 34.3316 165.198 34.3916C164.831 34.3416 164.463 34.2916 164.095 34.2416C163.832 33.8013 163.569 33.9214 163.317 34.3716C163.159 34.2816 163.002 34.1815 162.855 34.0915C162.886 33.9414 162.928 33.8013 162.96 33.6513C163.349 33.061 163.149 32.7108 162.823 32.4107C162.476 32.1205 162.13 31.8304 161.783 31.5403C161.73 31.6503 161.667 31.7503 161.594 31.8304C161.667 31.7403 161.73 31.6503 161.783 31.5403C161.793 31.3502 161.814 31.1601 161.825 30.97C161.898 30.1796 161.541 30.1796 161.184 30.1896C161.184 29.7094 161.037 29.4192 160.7 29.4192C160.522 29.2291 160.353 29.049 160.175 28.8589C159.492 27.8284 157.821 28.979 157.768 26.5578L157.821 26.3877C157.61 23.6564 155.593 24.1367 154.741 22.5359C155.582 24.1467 157.6 23.6564 157.821 26.3877C158.388 25.2872 158.262 24.5169 157.474 24.1267C156.77 23.7765 156.286 23.0461 155.887 22.1457C156.276 21.4454 156.087 20.8551 155.866 20.2648C155.761 20.2548 155.656 20.2448 155.551 20.2348C155.015 20.0047 154.468 19.7746 153.932 19.5545C153.732 19.4244 153.522 19.2843 153.323 19.1443C152.997 18.8341 152.66 18.5139 152.324 18.1938C152.986 17.7436 152.461 17.5335 152.314 17.2433C150.884 15.3424 148.993 16.9832 147.364 16.553C146.933 16.1228 146.523 16.0828 146.197 16.9632C146.229 17.0332 146.25 17.1033 146.281 17.1733C146.25 17.1033 146.218 17.0332 146.197 16.9632C145.209 17.8837 145.756 18.3038 146.323 18.704C146.271 18.9842 146.229 19.2743 146.176 19.5545C146.67 19.2443 147.164 18.664 147.668 18.564C147.164 18.654 146.67 19.2443 146.176 19.5545C146.092 19.6445 146.008 19.7345 145.924 19.8246C145.787 19.7946 145.651 19.7545 145.514 19.7245C145.293 19.2543 145.072 18.7841 144.852 18.3139C144.242 16.9332 142.561 17.7636 142.298 15.8026C142.13 14.5821 141.699 14.1518 140.963 13.9017C139.04 13.2514 137.096 14.6321 135.173 14.552C135.13 14.2719 135.088 13.9918 135.057 13.7116C135.193 13.5616 135.341 13.4015 135.477 13.2514C135.898 13.0813 136.276 12.8312 136.465 12.1509C136.465 12.1509 136.465 12.1509 136.465 12.1609C136.98 11.6506 137.495 11.1404 138.01 10.6301C138.756 10.5401 139.555 10.7702 140.07 9.42956C140.101 9.2995 140.08 9.18944 140.017 9.1094C140.301 7.52864 140.501 6.13796 138.861 6.88833C138.388 7.10843 137.768 7.04839 137.348 6.74824C135.992 5.79778 135.235 6.6282 134.794 8.75923C134.279 9.02936 133.775 9.88979 133.228 9.2795C132.65 8.62918 133.428 8.02888 133.47 7.38857C133.522 6.6182 133.68 5.59772 132.755 6.27805C132.871 6.69825 132.85 7.01839 132.734 7.26851C132.85 7.00839 132.881 6.69825 132.755 6.27805C132.451 6.37809 132.156 6.46812 131.851 6.56816C131.788 6.52814 131.736 6.46811 131.694 6.37807C130.927 5.00741 129.707 5.68776 128.72 5.30757C128.699 4.49718 128.415 4.11698 128.268 5.16749C128.11 6.29804 127.658 6.95835 127.206 7.71871C126.986 7.67869 126.765 7.64869 126.534 7.60868C126.281 5.64773 124.306 4.25705 123.16 5.22752C121.542 4.43714 119.902 4.65725 118.221 5.70776C118.073 5.75779 117.926 5.81782 117.779 5.86784C117.727 5.65774 117.674 5.44764 117.611 5.23753C117.495 5.27755 117.369 5.31758 117.254 5.3676C117.17 5.58771 117.096 5.80781 117.012 6.01791C116.854 6.07794 116.707 6.12795 116.549 6.18797C116.339 6.13795 116.129 6.08793 115.919 6.03791C115.814 5.48764 116.308 4.5772 115.593 4.40712C115.278 4.14699 114.963 3.88686 114.637 3.62674C114.941 3.55671 115.383 3.48667 115.152 2.84636C114.984 2.38614 114.805 1.37566 114.122 2.16604C113.806 2.2961 113.481 2.42617 113.165 2.54623L113.092 2.56623C109.949 3.45666 106.902 3.16651 103.917 2.18604C103.013 2.27608 102.866 -0.435222 101.584 1.03549C100.932 0.895422 100.291 0.755361 99.6396 0.605289C99.6396 0.605289 99.5555 0.67533 99.545 0.67533C99.2612 0.725354 98.9774 0.785366 98.6832 0.845395C98.3994 0.635293 98.1787 0.8454 97.9896 1.22558L97.8844 1.34564C97.8319 1.46569 97.7584 1.54573 97.6743 1.59576L97.5902 1.69581C97.3485 1.73583 97.1068 1.76586 96.865 1.80588C92.3354 -0.775367 87.7217 1.65579 83.129 3.62674C83.0449 3.69677 82.9609 3.76683 82.8873 3.83686C80.6908 5.26755 78.4417 6.24801 76.1506 6.91834C75.9404 6.92834 75.7197 6.93835 75.5096 6.94835C75.1943 6.91834 74.8895 6.87831 74.5742 6.8483C73.5758 5.95787 72.9978 6.77826 72.5774 8.24897C72.5248 8.309 72.4617 8.34902 72.3987 8.37904C72.1359 8.299 71.8628 8.20898 71.6 8.11893C71.5265 8.03889 71.4634 7.95883 71.3898 7.8788L71.3688 7.8588C71.2847 7.74874 71.2006 7.64869 71.106 7.53863C70.1812 6.87831 69.2143 6.74824 68.1739 7.49861C68.1213 7.56864 68.0687 7.63868 68.0057 7.6887C67.6063 7.66869 67.3857 8.0689 67.1965 8.54913C67.1334 8.60916 67.0703 8.65919 67.0073 8.6792C66.198 8.20897 65.578 8.79925 65.0525 9.82975C64.8949 9.86977 64.7477 9.90979 64.5901 9.95982C63.0347 9.7097 61.763 10.5701 60.8277 12.7111C60.5439 12.6111 60.2601 12.521 59.9869 12.421C59.9448 12.321 59.8923 12.301 59.8188 12.371C59.6296 12.2809 59.4299 12.1909 59.2407 12.1008C59.1251 11.3605 58.7468 11.5706 58.4315 11.7707C58.1267 11.9608 58.1792 12.2409 58.4315 12.421C58.3369 13.0413 58.1267 13.4815 57.6643 13.4915C57.6118 13.3915 57.5592 13.3915 57.4961 13.4915C57.3385 13.7617 57.1913 14.0318 57.0337 14.3019C56.4031 16.0828 55.5203 15.6426 54.9423 14.8522C54.4063 14.1118 53.9018 13.7316 53.1767 13.8817C52.956 14.3019 53.1452 14.452 53.3344 14.6121C52.8299 14.8722 52.2203 14.7721 51.9155 15.7326C51.842 15.8527 51.7684 15.9727 51.6843 16.0928C51.4952 16.453 51.306 16.8031 51.1168 17.1633C50.8015 17.3234 50.4968 17.4734 50.1815 17.6335C50.1079 17.8236 50.0238 18.0137 49.9502 18.2138C48.09 18.1038 46.6607 20.715 44.8216 20.8751C44.4222 20.9051 44.233 21.6755 44.1489 22.3158C44.0123 22.716 43.8757 23.1062 43.7391 23.5063C43.8022 23.5364 43.8547 23.5864 43.8862 23.6564C43.9808 23.8265 44.0754 23.9866 44.17 24.1567C44.706 24.3068 45.0738 24.777 45.305 25.5073C45.2525 25.7474 45.1999 25.9976 45.1473 26.2377C45.0738 26.2177 45.0003 26.2377 44.9267 26.2877C44.6745 26.3878 44.4117 26.4978 44.1594 26.5979C43.9808 26.948 43.8021 27.3082 43.6234 27.6584C43.8336 27.5984 44.0333 27.5383 44.2435 27.4783C44.3381 27.4282 44.4222 27.3582 44.4958 27.2782C44.4222 27.3582 44.3381 27.4182 44.2435 27.4783C44.0333 27.5383 43.8336 27.5984 43.6234 27.6584C44.0754 30.3697 46.0617 29.6193 47.1232 30.93C47.491 31.3101 47.8588 31.6903 48.2267 32.0705C48.1636 32.2706 48.1005 32.4807 48.0375 32.6808C47.9219 32.7909 47.8063 32.9009 47.6802 33.001C47.3124 33.021 47.0286 33.2911 46.8394 33.8013C46.7659 34.1015 46.6923 34.3916 46.6292 34.6918C46.1248 36.5027 46.976 36.6127 47.7327 36.8328C47.7958 36.9729 47.8588 37.1129 47.9324 37.253C47.7853 37.7633 47.6382 38.2635 47.4805 38.7737C47.449 38.8138 47.3754 38.8738 47.3859 38.8738C47.4174 38.9638 47.449 39.0539 47.491 39.1439C47.3964 39.284 47.3018 39.4141 47.1967 39.5441C46.4821 39.7442 45.778 39.9543 45.0633 40.1544C44.9582 40.1444 44.8426 40.1344 44.7375 40.1244C44.5273 40.1244 44.3171 40.1244 44.1174 40.1144C43.9177 40.3445 43.718 40.5746 43.5079 40.7947C42.047 41.1449 40.4285 39.7142 39.1569 42.3355C39.0518 42.4655 38.9467 42.5756 38.8416 42.6957C38.0744 43.6161 37.5594 44.4065 38.6314 45.487C39.2409 46.1073 39.6298 47.2178 40.1133 48.1083C39.84 49.1588 39.3145 49.609 38.6314 49.609C37.0234 49.609 35.941 51.2298 34.8795 52.9006C34.5012 53.0406 34.1123 53.1907 33.734 53.3308C33.6289 53.3608 33.5343 53.3908 33.4292 53.4108C33.3872 53.4608 33.3451 53.5109 33.3031 53.5609C32.2206 54.2212 31.3798 53.1507 30.4024 53.0606C27.5438 54.1112 24.7272 54.6214 21.9632 53.5109C19.9769 52.7205 17.9065 52.6604 15.8151 54.0211C15.0374 54.5314 14.4909 55.2517 15.3527 56.3323C15.3737 56.4423 15.3527 56.5523 15.3002 56.6524C14.5435 57.0226 13.5766 56.8225 13.3244 58.5633C13.9024 62.125 14.9323 62.8454 16.7925 60.9645L16.7715 60.9845C16.8976 61.0145 17.0237 61.0545 17.1499 61.0846C17.0868 61.8249 17.4231 61.975 17.7909 62.065C17.8855 62.3652 17.9801 62.6653 18.0852 62.9654C17.896 64.7063 20.04 64.046 19.4094 66.247C18.2428 66.177 16.9922 65.5767 16.1829 67.8678L15.668 69.2285C15.3106 69.5586 14.9849 69.8888 15.4893 70.379C15.689 70.9793 14.9008 71.9198 15.6365 72.34C15.5209 72.6702 15.3947 72.9903 15.2791 73.3204C14.2492 73.8907 13.7027 72.8602 13.0721 72.0899L13.0195 72.0098C13.009 71.5196 13.2087 70.7992 12.7253 70.7192C10.8861 70.439 9.49887 68.9583 8.06956 67.5076C7.21829 66.6372 6.21985 65.6968 4.9587 66.5372C4.81157 66.5372 4.67497 66.5272 4.52784 66.5172C4.22306 66.6973 3.91823 66.8673 3.62397 67.0474C3.57142 67.3376 3.50839 67.6277 3.45584 67.9178C3.34024 68.198 3.21409 68.4781 3.09849 68.7683C3.03543 69.0484 2.96186 69.3385 2.8988 69.6187C2.73065 70.6292 2.552 71.6496 2.38384 72.6601C2.3418 72.8202 2.28925 72.9903 2.24721 73.1504C2.11059 74.461 2.4574 75.8917 1.5851 77.0322C1.39593 78.1028 1.19626 79.1733 1.00709 80.2438C0.817917 81.5444 0.26093 82.7951 0.50265 84.1557C0.618256 84.0056 0.744399 83.8455 0.860005 83.6955C0.912553 83.5854 0.975548 83.5254 1.05963 83.5254C1.49052 83.5054 1.67972 83.9156 1.81635 84.4258C2.04756 84.786 1.72173 86.3768 2.63606 85.2162C2.95135 85.0061 3.25614 84.796 3.57143 84.5859C4.71698 86.2567 5.88357 87.8275 7.80683 86.6269C7.88039 86.6269 7.95392 86.6269 8.02749 86.6269C8.54245 87.7575 9.44629 87.4173 10.203 87.6674C10.3711 87.7374 10.5393 87.8075 10.7075 87.8675C11.2119 88.0876 11.7164 88.3177 12.2209 88.5378C12.7569 89.3282 13.4294 89.6484 14.1966 89.7084C14.9953 90.0385 15.2896 91.5893 16.267 91.4792C16.4247 91.5993 16.5928 91.7294 16.7505 91.8594C16.9397 92.0895 17.1288 92.3196 17.318 92.5397C17.9696 93 17.5807 94.8008 18.5371 94.8609C18.7157 94.8809 18.8944 94.9109 19.0836 94.9309C19.1361 94.9809 19.1887 95.041 19.2413 95.091C19.4935 95.031 19.7457 94.9709 19.9979 94.9109C19.9979 94.6908 19.9979 94.4707 19.9979 94.2506C20.3763 94.2806 20.7546 94.3006 21.1225 94.3306C21.3642 93.9904 21.6374 93.7803 21.8687 93.7903C21.6374 93.7903 21.3537 94.0005 21.1225 94.3406C20.7441 94.3106 20.3658 94.2906 19.9979 94.2606C19.9979 94.4807 19.9979 94.7008 19.9979 94.9309C19.7457 94.9909 19.4935 95.051 19.2413 95.111C19.1677 96.3116 19.1992 97.4021 20.3658 97.3821C19.3989 98.2325 18.6107 98.9128 17.6543 99.7432C19.2728 100.193 20.4919 98.5026 21.8371 98.2825C21.8371 98.2325 21.8371 98.1825 21.8266 98.1325C21.8266 98.1825 21.8371 98.2325 21.8371 98.2825C22.1103 98.3125 22.3941 98.3426 22.6674 98.3726C22.8986 98.4526 23.1193 98.5227 23.3505 98.5927C23.5817 98.7928 23.8024 98.9929 24.0336 99.193C24.0757 99.1329 24.1177 99.0629 24.1703 99.0029C24.1282 99.0629 24.0862 99.1329 24.0336 99.193C24.969 100.744 26.3457 101.224 27.5123 102.204C27.3757 102.945 27.6384 103.275 28.0273 103.465C28.269 103.585 28.5107 103.715 28.7524 103.835C28.9101 104.115 29.0677 104.385 29.2254 104.666C29.877 104.666 30.5391 104.676 31.1907 104.686C30.5391 104.686 29.8875 104.676 29.2254 104.666C29.0677 104.385 28.9101 104.115 28.7524 103.835C28.4792 105.096 27.3441 103.215 27.4282 104.686C27.4808 105.526 28.4897 105.326 29.1518 105.106C29.4776 105.176 29.8034 105.246 30.1292 105.316L29.6562 106.406C29.5196 106.637 29.383 106.867 29.2359 107.087L29.1938 107.227H29.2884C29.425 106.977 29.5616 106.737 29.6982 106.496C29.982 106.256 30.2763 106.026 30.56 105.786C30.6231 105.666 30.6861 105.536 30.7492 105.416C30.8018 105.326 30.8543 105.236 30.9069 105.146L30.7492 105.416C30.6861 105.536 30.6231 105.666 30.56 105.786C30.6756 106.867 30.0872 107.657 29.8875 108.608C29.4986 109.088 28.6158 107.697 28.5422 109.418C28.0588 109.498 27.5228 109.758 27.239 109.028C27.3126 108.918 27.3967 108.808 27.4702 108.698L27.4282 108.527C27.3757 108.527 27.3231 108.527 27.2705 108.527C26.682 108.698 26.0935 108.858 25.5049 109.028C25.4314 108.958 25.3578 108.968 25.2948 109.058C25.2422 109.168 25.1896 109.258 25.1161 109.338C25.1686 109.528 25.2317 109.718 25.2843 109.908C25.3263 110.088 25.3578 110.278 25.3999 110.458C25.3158 110.488 25.2317 110.518 25.1371 110.528C24.3069 110.008 23.4766 109.498 22.6464 108.978C22.0473 108.748 21.4482 108.718 20.8597 109.318C20.7126 109.268 20.576 109.208 20.4288 109.158C20.0505 109.138 19.6196 108.908 19.2938 109.128C18.6842 109.558 18.0116 109.298 17.36 109.208C17.0868 108.978 16.6979 108.888 16.5087 108.547C16.1094 108.517 15.6995 108.487 15.3002 108.447C15.1215 108.658 14.9428 108.868 14.7642 109.088C14.3228 110.518 15.216 109.948 15.5103 110.268C15.4683 110.348 15.4368 110.408 15.3947 110.498C14.2176 111.849 13.0196 113.75 13.5135 115.641C13.9865 117.442 14.4909 120.273 16.6559 119.393C17.2234 119.273 17.8329 119.353 18.1587 118.282C18.1167 118.282 18.0641 118.262 18.0221 118.252C17.6858 118.192 17.339 118.122 17.0027 118.062C16.6559 117.672 16.3301 117.242 16.5298 116.451C16.7084 115.751 17.3495 115.441 17.5177 115.621C18.4951 116.671 20.3658 115.211 20.7336 118.132C20.9123 119.503 21.8791 120.393 22.9616 119.903C23.897 119.473 25.0741 118.933 24.4225 116.751C24.3909 116.651 24.5275 116.271 24.5906 116.261C26.167 116.011 25.4209 115.371 24.8113 114.75C24.4015 114.72 24.1807 114.63 24.1807 114.38C24.1807 114.63 24.4015 114.71 24.8113 114.74C24.9374 114.44 25.053 114.15 25.1686 113.86C25.2842 113.83 25.4104 113.81 25.526 113.78C25.4734 113.64 25.4208 113.5 25.3683 113.36C25.5365 112.659 25.7047 111.959 25.8833 111.259C26.619 111.259 27.3441 111.379 28.0798 111.259C28.0378 111.429 27.9852 111.599 27.9432 111.769C27.8276 112.279 27.7225 112.8 27.6068 113.31C28.353 112.81 28.7419 111.919 29.0467 110.949C29.2884 110.829 29.5301 110.669 29.7718 110.448C29.8664 110.358 29.961 110.278 30.0556 110.188C30.0976 110.188 30.1397 110.218 30.1922 110.218V110.308C30.4129 110.378 30.6442 110.448 30.8754 110.508C30.97 111.429 31.3378 111.279 31.9158 110.829C31.5059 110.679 31.2117 110.568 30.9174 110.458C30.8123 110.248 30.6967 110.048 30.5916 109.838C30.6652 109.348 30.7388 108.858 30.8123 108.367C32.1155 107.497 32.0209 105.116 33.0298 103.905C33.1665 103.675 33.3031 103.445 33.4397 103.205C34.2595 102.715 34.953 101.954 35.4785 100.844C35.7518 100.864 36.0356 100.884 36.3088 100.904C36.3088 100.824 36.3088 100.744 36.2878 100.674L35.4575 100.744C35.7308 100.724 36.0145 100.694 36.2878 100.664C36.3088 100.734 36.3193 100.814 36.3088 100.894C36.4559 102.094 36.6136 103.305 36.7607 104.506L36.7922 104.626L36.8553 104.516C37.4018 103.855 37.4123 102.985 37.4123 102.114C37.8747 101.954 38.3266 101.804 38.7891 101.644C38.9362 101.864 39.0729 102.074 39.22 102.294C39.4617 102.775 39.7034 103.265 39.9451 103.745C40.4916 104.526 40.7544 104.015 40.912 103.105C41.2588 103.195 41.6477 101.944 41.9735 103.005L42.026 102.965C42.3623 102.244 42.6987 101.534 43.0245 100.814C43.4974 100.514 43.9178 100.133 44.0124 99.263C44.6534 98.5927 45.284 98.9929 45.925 98.9328C47.1126 98.8128 48.2792 99.6832 49.4773 98.5026C49.4878 98.3726 49.5404 98.3125 49.635 98.3326C49.7506 98.3726 49.8767 98.4226 49.9923 98.4626C51.3481 99.0729 52.7143 98.7728 54.091 97.8223L59.7872 99.0129C60.7225 99.223 61.658 99.4231 62.6038 99.6332C63.907 99.9834 65.1156 100.994 66.5764 100.324C68.0057 100.504 69.4245 100.684 70.8538 100.854C71.3688 100.884 71.8837 100.914 72.3987 100.944C72.4828 101.144 72.5669 101.354 72.651 101.554C72.651 101.684 72.5984 101.784 72.5248 101.854C72.4197 101.924 72.3146 102.004 72.2095 102.074C72.2516 102.164 72.2936 102.254 72.3356 102.344C72.3777 102.375 72.3987 102.425 72.4092 102.495C73.313 102.705 74.1328 103.145 74.7633 104.115C75.5095 102.585 76.3923 103.865 77.1911 103.415C78.0634 103.705 78.3997 102.435 78.9567 101.804C79.1879 102.314 79.4296 102.825 79.6609 103.335C79.6609 103.625 79.6609 103.925 79.6609 104.215C79.787 105.326 79.9131 106.426 80.0287 107.537C79.7449 112.479 79.4717 117.432 79.1879 122.374C78.7045 126.026 78.0003 129.608 77.149 133.159C74.9736 132.829 72.9978 136.871 70.7277 134.92C70.6646 134.86 70.507 134.95 70.3494 135.1C76.1717 139.833 81.2373 146.956 87.7847 145.455L87.8268 145.495Z" fill="#091421"/>
</svg>
