<svg width="287" height="143" viewBox="0 0 287 143" fill="none" xmlns="http://www.w3.org/2000/svg">
<path d="M13.9401 31.98C21.9401 38.98 29.9401 42.98 37.9401 45.98C84.9401 66.98 126.94 93.98 164.94 130.98C172.61 138.65 182.71 141.93 193.54 142.55L190.04 140.25C189.81 139.71 189.55 139.2 189.03 138.86C188.04 138.21 188.22 137.5 188.74 136.71C189.7 137.01 189.95 136.24 190.21 135.64C190.48 135.02 189.97 134.77 189.48 134.58C188.94 134.36 188.8 133.9 188.75 133.38C188.11 132.85 188.49 132.26 188.64 131.68C189.88 131.23 191.1 130.75 190.97 129.07L191.03 128.23C190.5 128.19 190.18 128.51 189.92 128.91L189.96 128.92C188.67 128.95 187.38 129.04 186.1 128.97C185.69 128.95 184.16 129.24 185.36 127.9C185.47 127.77 185.36 127.44 185.36 127.2C185.34 125.46 183.84 126.44 183.12 125.98C182.8 125.26 182.48 124.54 182.16 123.82C180.63 125.18 179.79 122.56 178.37 123.17C178.13 123.27 177.86 123.09 177.9 122.78C177.93 122.55 178.07 122.17 178.19 122.16C179.89 122.03 179.23 120.95 179.06 120.07C180.56 119.92 181.32 121.4 182.61 121.71C182.79 122.42 183.43 122.66 183.96 123.01C184.2 124.65 185.03 125.47 186.77 125.02C187.19 126.65 188.93 124.93 189.63 126.09C189.7 126.2 189.71 125.13 190.13 124.8C190.3 124.67 190.55 124.64 190.77 124.56C190.9 124.49 191.03 124.42 191.17 124.35C191.21 123.71 190.73 123.36 190.41 122.91C189.82 122.09 190.94 121.95 191.05 121.37C191.15 120.84 191.7 120.72 192.05 121.11C192.96 122.12 194.22 121.84 195.33 122.11C195.35 122.22 195.38 122.33 195.4 122.44C195.49 122.88 195.82 122.9 196.18 122.87C196.32 123.01 196.46 123.14 196.6 123.28C195.65 124.47 197.35 125.56 196.72 126.74C195.99 127.62 197.43 127.53 197.34 128.12C196.68 129.09 195.95 128.75 195.12 127.9C195.79 130.55 197.98 131.02 199.56 132.25C200.25 130.95 198.49 130.97 198.6 130.04C199.31 129.77 199.77 130.45 200.39 130.45C201.13 131.24 202.01 130.86 202.86 130.77C203.95 131.1 205.13 131.62 205.09 129.67H205.1C205.66 129.64 205.87 130.09 206.23 130.39C207.39 131.34 207.19 133.43 209.07 133.71C210.08 133.91 210.18 134.96 210.8 135.54C211.04 135.77 211.28 135.99 211.57 135.69C211.65 135.61 211.61 135.23 211.56 135.21C210.54 134.88 210.71 133.34 209.53 133.2C209.58 132.87 209.63 132.55 209.69 132.22C210.31 131.78 210.97 132.45 211.6 132.17C211.67 131.12 212.65 132.09 213.08 131.45C212.21 131.03 212.21 130.3 212.44 129.53C212.72 128.61 214.31 129.27 214.31 127.99C215.2 128.69 216.07 129.44 217.3 129.44C217.09 131.01 218.4 130.11 218.94 130.45C220.95 131.54 221.04 131.9 219.81 134.06C219.65 134.34 219.55 134.7 219.88 134.88C220.23 135.07 220.57 134.97 220.77 134.52C221.28 133.38 221.54 132.17 221.78 130.95C222.83 131.43 223.41 132.03 222.98 133.36C222.68 134.28 223.32 134.95 224.31 134.72C225.21 134.51 226.01 134.73 226.85 134.85C226.93 136.28 226.52 137.89 228.24 138.72C228.18 139.42 228.11 140.12 228 141.35C228.86 139.83 230.13 138.98 229.14 137.48C229.68 136.97 229.18 136.08 229.82 135.61C230.01 135.8 230.2 135.99 230.39 136.18C230.5 136.52 229.99 136.92 230.4 137.18C230.78 137.43 231.09 137.1 231.31 136.8C231.96 135.91 232.56 135.79 233.23 136.8C233.42 137.09 233.79 137.27 234.08 137.5C234.68 137.17 235.61 138.63 235.79 137.49C235.98 136.22 236.91 135.01 236.32 133.63C235.94 133.35 235.56 133.07 235.19 132.8C234.6 132.54 234.04 131.75 233.37 132.29C231.99 133.38 231 132.73 230 131.77C230.05 131.57 230.1 131.37 230.14 131.18C231.33 130.36 232.49 129.51 234.08 129.85C234.68 129.98 235.32 129.98 235.93 130.09C236.93 130.28 237.26 129.36 237.54 128.86C237.92 128.19 237.08 127.99 236.55 127.91C236.06 127.84 235.78 127.66 235.59 127.19C235.18 126.17 234.33 126.17 233.43 126.33C232.71 125.64 233.06 125.02 233.81 124.44C233.04 124.32 232.49 124.24 231.94 124.16C231.09 123.29 230.77 122.2 230.66 121.04C229.94 121.14 229.22 121.23 228.5 121.33L228.49 121.31C228.61 120.87 228.77 120.48 229.34 120.64C230.15 120.86 230.27 120.34 230.32 119.74C230.38 119.67 230.44 119.6 230.51 119.53C230.43 119.57 230.34 119.61 230.26 119.65C229.19 120.18 228.58 119.82 228.37 118.67C228.61 118.05 228.85 117.43 229.08 116.81C229.54 117.02 229.99 117.22 230.45 117.43C230.62 117.5 230.79 117.57 230.96 117.64C230.94 117.71 230.96 117.78 231 117.84C231.28 118.62 231.68 118.98 232.65 119.04C233.77 119.12 235.45 119.04 235.03 121.09C234.49 121.36 233.71 121.57 234.68 122.27C235.39 122.78 235.38 123.49 235.3 124.24C235.27 124.3 235.25 124.35 235.22 124.41C235.26 124.37 235.3 124.33 235.33 124.29C235.86 124.34 236.4 124.54 236.88 124.13C236.94 124.07 237 124.01 237.06 123.95C236.98 123.98 236.9 124.02 236.82 124.05C235.33 123.58 236.02 122.03 235.37 121.15C236 119.79 236.37 119.86 237.6 121.56L237.61 121.58C237.76 122.18 238.98 122.19 238.46 123.15C238.51 123.22 238.57 123.29 238.62 123.36C238.98 123.13 239.35 122.9 239.71 122.67C239.84 122.78 239.96 122.89 240.09 122.98C240.11 122.99 240.19 122.92 240.24 122.89C240.12 122.77 239.99 122.65 239.87 122.52C239.87 122.2 239.87 121.87 239.87 121.55C240.78 121.82 241.59 121.23 242.51 121.23C243.27 121.23 242.96 120.59 242.35 120.37C242.45 119.89 242.56 119.41 242.66 118.93C241.74 118.82 241.05 117.71 239.91 118.49C238.61 119.38 237.07 118.14 235.61 118.74C235.29 118.87 234.34 117.86 233.88 117.23C233.3 116.45 233.16 116.94 232.92 117.4C232.54 117.33 232.17 117.27 231.79 117.2C231.69 116.85 231.58 116.52 231.99 116.27C233.29 115.5 232.3 115.45 231.68 115.29C231.68 115.29 231.68 115.29 231.68 115.28C231.66 115.28 231.64 115.28 231.62 115.27C230.8 114.86 229.97 114.45 229.15 114.04C229.76 113.27 230.43 112.35 231.5 112.66C232.76 113.03 233.6 112.76 234.32 111.21C234.78 114.37 236.63 111.25 237.48 112.54C237.29 111.86 236.32 111.86 236.45 111.04L236.5 110.98C236.61 110.91 236.71 110.84 236.82 110.77C238.17 109.89 240.43 111.15 241.2 108.85C240.55 108.58 239.89 108.24 239.31 109.05C239.17 108.89 239.04 108.72 238.9 108.56C238.85 108.05 239.78 108.14 239.57 107.64C239.22 106.8 238.45 107.76 237.96 107.37C236.99 106.04 236.35 104.18 234.08 104.86C233.93 104.86 233.79 104.86 233.65 104.86C233.79 104.86 233.94 104.86 234.08 104.86C234.17 104.32 234.27 103.78 234.36 103.24C235.13 103.25 235.62 102.97 235.55 102.11C235.78 102.15 236.01 102.2 236.25 102.24C237.14 104.27 239.1 103.69 240.67 104C241.14 104.09 241.12 103.6 240.92 103.2C240.76 102.88 240.12 102.51 240.83 102.17C241.3 101.95 241.67 102.32 241.89 102.72C242.67 104.17 243.78 103.8 244.92 103.3C246.01 103.67 247.23 103.37 248.28 103.96C249.2 104.33 249.45 105.39 250.25 105.88C249.44 107.2 251.63 106.81 251.39 107.8C252.12 107.93 252.35 108.67 252.88 109.14C253.18 108.08 253.5 107.33 254.58 108.4C254.96 108.78 255.47 109.03 255.52 108.07C255.57 107.25 256.23 107.52 256.67 107.58C257.49 107.69 257.98 107.31 258.35 106.67C258.43 106.57 258.51 106.46 258.6 106.36H258.67V106.37C259.39 106.74 260.1 107.1 260.82 107.47C262.02 107.71 261.57 106.75 261.73 106.23L261.79 106.26C262.99 106.47 263.69 105.02 264.91 105.32C267.08 106.97 267.94 108.81 265.9 111.22C265.56 111.62 265.48 112.31 265.15 112.84C264.67 113.62 264.63 114.37 265.83 114.56C266.07 114.69 266.41 114.74 266.25 115.15C266.37 116.4 267.62 116.16 268.32 116.62C268.45 116.71 268.64 115.94 268.59 115.52C268.23 114.7 269.82 113.08 267.57 113.02C267.62 112.73 267.67 112.44 267.72 112.15C267.94 112.23 268 112.8 268.38 112.37C269.25 112.23 269.89 113.58 270.89 112.73C271.13 112.53 271.25 112.85 271.31 113.12C271.61 114.54 272.66 115.37 274.02 115.3C274.59 115.37 275.17 115.64 275.48 114.78C275.8 113.9 275.09 113.91 274.67 113.66C274.36 113.47 274.01 113.35 273.68 113.19C273.35 112.64 273.43 111.87 272.7 111.53C272.39 111.38 272.04 111.11 272.32 110.67C272.53 110.34 272.63 109.84 273.26 109.99C273.75 110.11 274.23 110 274.74 109.53C273.89 108.73 273.57 107.53 272.53 106.87C272.24 106.98 271.95 107.09 271.66 107.2C271.52 107.43 271.39 107.66 271.25 107.89C271.18 108.38 271.27 108.87 270.98 109.14C271.28 108.87 271.19 108.39 271.25 107.89C271.39 107.66 271.52 107.43 271.66 107.2C271.95 107.09 272.24 106.98 272.53 106.87C272.31 106.38 271.77 106.56 271.42 106.34C271.47 106.08 271.52 105.81 271.57 105.55C272.36 105.65 273.16 105.75 273.95 105.85C275.05 106.7 274.9 104.96 275.63 105.04C275.31 104.98 275 104.92 274.68 104.85C273.85 104.37 272.64 104.36 272.49 103.06C272.28 103.33 271.99 103.39 271.67 103.38C271.18 101.88 270.26 102.57 269.4 102.93C268.02 103.2 267.84 102.47 267.81 101.29C267.78 100.45 268.74 100.43 268.72 99.75C269.08 99.36 269.32 98.91 269.33 98.37C270.1 98.04 270.58 97.4 271.04 96.74C272.14 96.95 271.87 95.65 272.53 95.37C272.55 95.27 272.56 95.17 272.57 95.07C273.08 95.17 273.47 95.32 273.43 95.99C273.39 96.76 273.72 97.38 274.45 97.74C274.75 99.02 275.84 99.43 277.22 100.24C276.4 98.88 276.64 97.46 275.22 96.97C275.29 96.09 276.54 96.48 276.67 95.65C277.75 96.16 278.61 97.11 279.88 97.25C281.11 97.91 282.46 98.01 283.81 98.11C284.06 96.4 284.32 94.68 284.57 92.97C284.95 92.4 284.37 91.67 284.87 91.11C284.97 90.54 285.07 89.97 285.16 89.4C285.26 88.82 285.35 88.24 285.45 87.66C285.54 86.95 285.64 86.23 285.73 85.52C285.95 84.07 286.18 82.62 286.4 81.16C285.9 80.66 285.28 80.79 284.67 80.8C283.23 81.01 282.78 79.74 282.52 78.91C282.28 78.13 283.19 77.48 284.11 77.3C284.73 77.18 284.64 76.76 284.57 76.29C284.51 75.9 284.53 75.53 283.97 75.59C283.12 75.68 282.06 75.66 281.86 76.65C281.5 78.42 280.52 77.73 279.36 77.46C279.96 77.05 280.37 76.72 280.83 76.47C281.54 76.08 281.05 75.62 280.8 75.43C280.16 74.95 280.46 75.73 280.32 75.9C279.6 76.81 278.7 76.56 277.51 76.54C278.837 75.7866 279.503 74.9 279.51 73.88C279.86 72.71 279.26 72.26 278.21 72.15C278.46 71.12 277.84 71.14 277.14 71.25L277.05 71.1C277.05 71.1 276.88 71.13 276.88 71.12C276.67 70.9 276.47 70.68 276.26 70.46C276.48 69.87 275.64 68.95 276.83 68.67C277.07 68.72 277.31 68.77 277.55 68.82C277.97 68.94 278.4 69.04 278.81 69.19C279.91 69.59 280.17 68.66 280.69 68.08C280.91 67.84 281.2 67.62 280.88 67.32C280.36 66.82 279.74 66.55 278.99 66.79C278.75 66.87 278.5 66.89 278.25 66.94C278.12 66.87 278 66.81 277.87 66.74C276.37 64.36 274.88 64.15 273.08 66.06C272.81 66.01 272.62 65.53 272.28 65.93C270.84 65.63 269.27 65.78 268.06 64.66C267.84 64.45 267.26 64.36 266.99 64.5C265.26 65.38 263.61 64.5 261.93 64.36C261.77 64.33 261.6 64.3 261.43 64.28C261.06 64.09 260.55 64.24 260.23 63.74C260.6 63.53 260.94 63.24 261.32 63.15C261.95 63 262.58 63.06 262.5 62.05C262.41 60.9 261.52 61.2 260.98 61.16C259.88 61.07 258.85 60.91 258.1 60.04C257.39 59.21 256.41 59.1 255.44 58.83C253.85 58.39 251.8 58.63 251.39 56.19C251.28 55.56 250.51 55 249.68 54.88C249.21 54.81 248.83 54.62 248.87 54.04C249.04 53.92 249.21 53.8 249.38 53.68C249.66 53.45 249.94 53.22 250.22 52.99C250.34 54.1 252.77 54.89 253.63 53.94C255.04 52.38 256.57 52.65 258.24 53.14C258.68 53.27 259.15 53.91 259.58 53.39C260.11 52.74 258.92 52.61 259.01 52.03L259.07 52.01C259.49 52.12 259.91 52.21 260.32 52.34C260.64 52.44 261.01 52.84 261.24 52.32C261.44 51.87 261 51.71 260.68 51.52C260.47 51.4 260.27 51.25 260.06 51.12C260 50.06 259.81 49.14 258.39 49.47C257.41 48.38 254.95 48.6 254.14 49.86L254.09 49.9C254.04 50.02 253.96 50.11 253.86 50.19C253.82 50.27 253.8 50.35 253.8 50.44C252.86 50.2 251.76 49.55 251 50.44C250.01 51.59 249.12 51.3 248.11 50.71C247.74 50.49 247.41 50.53 247.06 50.71C245.39 50.85 243.84 50.14 242.2 50.01C241.9 49.36 240.76 50.05 240.74 49.22C240.73 48.77 241.24 48.26 241.6 47.85C241.94 47.48 242.43 47.67 242.85 47.75C243.48 47.87 244.07 47.74 244.31 47.18C244.68 46.32 243.62 46.56 243.36 46.14C243.1 45.71 242.63 45.8 242.21 45.71C240.64 45.35 239.12 44.69 237.2 45.74C237.75 44.51 238.57 43.77 238.17 43.06C237.79 42.39 236.92 42.94 236.27 43.08C236.22 43.04 236.15 43.02 236.09 43.01C235.67 42.73 234.66 43.14 234.92 42.03C235.54 41.97 236.11 41.82 236.42 41.19C237.02 40.96 237.36 40.53 237.62 39.85C236.85 39.98 236.51 40.43 236.15 40.84C235.3 40.77 234.63 41.6 233.63 41.15C232.15 40.48 230.61 40.52 229.19 41.49C229.04 41.18 227.74 41.18 228.98 40.48C229.83 40 229.59 39.35 228.8 38.95C228.42 38.76 227.93 38.77 227.57 38.56C226.63 38.03 225.88 37.05 226.27 36.11C226.66 35.17 227.61 36 228.3 36.23C228.54 36.31 228.79 36.35 229.03 36.41C229.13 36.67 228.62 37.26 229.28 37.17C229.96 37.08 230.51 37.33 230.59 37.84C230.9 39.91 231.35 38.69 231.93 37.98C232.26 37.57 232.88 37.41 233.08 36.84C233.75 36.48 234.29 37.72 235 37.01C235.28 38.65 236.3 37.95 237.18 37.7C237.29 37.7 237.41 37.7 237.52 37.7C237.75 37.86 237.97 38.03 238.2 38.19C238.6 37.39 239.23 37.11 239.96 37.08C239.23 37.11 238.61 37.39 238.2 38.19C238.2 38.34 238.2 38.49 238.2 38.64C238.09 38.77 237.98 38.89 237.88 39.03C237.87 39.04 237.95 39.12 237.98 39.17C238.09 39.03 238.19 38.89 238.3 38.75C238.68 38.59 239.06 38.43 239.44 38.27C239.69 39.08 239.05 40.36 240.34 40.59C241.04 40.72 242.23 41.27 242.55 39.84C242.98 38.96 243.49 38.1 243.84 37.19C244.27 36.04 244.41 34.92 242.67 34.75C242.37 34.12 242.07 33.79 241.2 33.68C239.59 33.47 237.6 34.14 236.52 32.14C236.32 31.77 235.75 31.79 235.3 31.89C235.43 30.75 236.49 30.38 237.14 29.68C237.76 29.02 238.28 28.43 237.24 27.72C237.31 27.13 237.39 26.54 237.46 25.95C238.97 26.64 240.85 29.02 240.27 29.78C239.48 30.81 240.64 31.14 240.66 31.83C240.66 32.1 241.46 31.94 241.63 31.77C242.15 31.24 243.04 30.84 242.7 29.82C242.45 29.06 242.45 28.3 242.73 27.55C243.9 27.84 245.08 28.06 246.29 27.75C246.51 27.65 246.88 27.61 246.92 27.46C247.23 26.46 245.46 23.53 244.34 23.12C243.82 22.77 243.32 22.48 243.15 23.43C242.57 22.77 242.73 21.39 241.35 21.51C240.46 21.59 239.72 21.24 238.99 20.8L239.09 20.19C239.99 19.72 240.96 20.73 241.78 20.16C243.17 19.19 242.56 20.49 242.73 20.91L242.75 20.96C242.63 21 242.51 21.04 242.39 21.08C242.5 21.18 242.61 21.28 242.71 21.38C243.08 21.68 243.43 22.07 243.98 21.9C244.08 21.87 244.18 21.57 244.13 21.44C243.98 21 243.55 21.1 243.21 21.05C243.43 20.58 243.83 20.4 244.32 20.38C245.91 21.35 246.13 21.24 246.38 19.4L246.29 19.28L245.7 19.19C245.65 19.04 245.61 18.86 245.42 19.09C244.92 19.01 244.42 18.93 243.92 18.85C243.43 18.55 242.93 18.25 242.44 17.94C241.64 17.15 240.46 18.39 239.7 17.42C239.9 16.55 239.26 16.42 238.67 16.14C237.91 15.78 237.99 14.98 238.06 14.32C238.16 13.31 239.03 14.65 239.3 13.99C237.53 10.69 234.5 8.97996 231.15 9.36996C230.25 8.78996 228.65 8.26997 228.58 7.60997C228.33 5.18997 227.17 6.82996 226.37 6.89996C226.33 6.89996 226.29 6.80996 226.25 6.75996C224.71 4.91996 222.75 4.98997 220.69 5.52997C220.42 5.46997 220.15 5.39997 219.88 5.33997L219.84 5.37997C218.95 5.84997 218.03 4.81997 217.14 5.43997C216.89 5.45997 216.63 5.46997 216.38 5.48997C216.34 4.82998 215.88 4.74998 215.36 4.73997C212.94 3.72997 210.86 4.22997 209.08 6.12997C206.15 5.13997 203.43 3.53998 200.28 3.20998C199.45 2.31998 198.8 4.43997 197.95 3.33997C197.36 2.57997 196.45 2.61996 195.61 2.50996C193.21 2.33996 190.94 3.25997 188.56 3.27997C186.08 4.14997 184.46 6.73996 181.46 6.67996C180.44 6.65996 180.03 7.86997 180.34 9.02997C181.06 9.44997 180.67 7.68997 181.5 8.49997C181.86 8.84997 181.81 9.42997 181.32 9.93997C180.65 10.63 179.85 11.25 179.52 12.22C180.69 12.22 181.06 11.08 181.88 10.57C183.89 11.69 181.71 12.31 181.55 13.23C182.01 13.44 182.49 13.66 182.95 13.87C182.66 14.79 181.67 14.64 181.06 15.33C182.42 15.61 183.58 16.13 184.53 14.86C184.74 14.89 184.94 14.93 185.15 14.96C185.17 15.13 185.19 15.31 185.21 15.48C185.87 15.8 186.11 16.26 185.71 16.94C186.19 17.29 186.59 17.14 186.97 16.92C186.59 17.13 186.19 17.29 185.71 16.94C185.12 16.92 184.3 16.4 184.25 17.59C183.11 18.03 181.47 18.16 180.97 18.98C180.41 19.9 179.77 20.41 178.97 20.92C177.59 20.26 177.18 21.62 176.79 22.27C176.5 22.75 176.93 23.83 177.3 24.49C177.7 25.21 178.01 24.09 178.47 24.24C178.57 24.31 178.68 24.34 178.81 24.34C178.92 27.04 176.17 25.86 174.78 27.05C175.84 27.34 177.11 26.34 177.21 27.95C176.6 28.1 175.99 28.27 175.51 28.72C175.07 28.96 174.6 29 174.11 29.07C173.57 29.14 172.81 29.07 172.62 29.89C172.4 30.81 173.46 30.64 173.7 31.16C173.49 31.92 172.43 31.7 172.22 32.45C170.8 32.01 171.2 33.24 170.93 33.85C170.88 33.88 170.78 33.91 170.78 33.94C170.78 34.04 170.81 34.15 170.83 34.25C170.8 35.08 171.21 35.51 172.03 35.5C172.53 35.5 173.11 35.29 173.27 34.87C173.49 34.29 173.08 33.87 172.48 33.7C172.61 33.05 172.8 32.5 173.66 32.82C173.72 32.78 173.77 32.75 173.82 32.7C174.39 32.32 175.03 32.26 175.7 32.23C176.27 32.21 176.17 31.84 175.9 31.51C175.76 31.14 175.52 30.79 175.68 30.36C176.08 30.43 176.5 30.65 176.85 30.24C177.29 30.39 177.74 30.54 178.18 30.68C178.56 30.99 178.86 31.33 179.46 30.92C180.16 30.45 180.49 30.81 180.37 31.61C179.52 31.49 178.85 32.05 178.08 32.23C177.89 32.32 177.7 32.41 177.51 32.5C177.41 32.73 177.31 32.96 177.21 33.18C176.8 33.06 175.93 32.82 176.04 32.96C176.91 34.11 174.83 34.99 175.85 36.03C175.85 36.03 175.86 36.04 175.87 36.05C175.87 36.05 175.86 36.04 175.85 36.03C175.65 36.18 175.4 36.3 175.66 36.6C175.79 36.48 175.91 36.36 176.04 36.24C176.99 36.07 177 36.83 177.19 37.4C177.42 36.67 177.72 36.06 178.18 35.68C177.72 36.05 177.42 36.67 177.19 37.4C176.53 37.53 176.31 37.9 176.33 38.59C176.35 39.46 176.09 40.24 174.96 40.23C175.2 39.27 174.58 38.44 174.66 37.51C172.96 37.68 173.06 38.92 173.21 40.63C172.23 38.56 171.26 38.28 170.02 39.52C169.8 39.74 169.57 39.96 169.3 40.13C167.98 40.96 167.22 40.71 166.85 39.28C166.63 38.45 167.79 38.22 167.74 37.32C167.17 37.42 166.61 37.5 166.08 37.24C166.1 36.55 165.37 36.7 165.07 36.34C164.74 35.94 164.18 35.72 163.83 36.23C163.49 36.73 163.88 37.12 164.38 37.37C164.59 37.47 164.74 37.68 164.92 37.83C165.28 39.1 163.56 39.74 163.95 41.02C164.06 41.39 164.17 41.83 163.71 41.97C163.51 42.03 163.11 41.76 162.95 41.54C162.15 40.42 161.09 39.73 159.77 39.38C159.17 39.22 159.08 38.72 159.14 38.18C159.46 37.86 159.77 37.55 160.09 37.23C161.063 36.8166 161.687 36.3066 161.96 35.7C159.45 36.1 159.11 35.91 158.96 34.01C159.46 33.67 160.01 33.38 160.45 32.97C160.74 32.7 161.16 32.29 160.96 31.88C160.65 31.23 160.09 31.83 159.65 31.79C158.84 31.66 158.09 31.5 158.86 30.45C159.97 30.15 158.57 29.41 159.16 28.98C159.62 28.89 159.73 29.52 160.15 29.57C160.03 30.22 160.2 30.87 160.94 30.58C161.88 30.22 162.82 30.66 163.87 30.01C165.73 28.85 166.98 29.95 167 32.4C167.18 32.3 167.33 32.19 167.46 32.08C167.34 32.19 167.19 32.3 167 32.4C166.59 33.24 164.61 32.53 165.13 34.23C166.6 34.32 167.61 32.49 169.83 33.61C168.67 32.12 169.28 31.01 169.58 29.96C169.81 29.15 169.42 29.13 168.96 28.96C169.25 28.74 169.54 28.51 169.82 28.29C170.05 28.33 170.29 28.38 170.52 28.42C170.88 26.84 169.93 26.1 168.66 25.58C168.31 24.44 167.39 23.53 167.62 22.16C167.88 20.63 167.93 19.07 168.07 17.52C168.14 16.74 168.11 15.86 167.32 15.57C166.52 15.28 166.23 16.16 165.82 16.67C165.35 16.93 164.58 17.28 164.95 17.82C165.89 19.21 164.88 20.53 165.07 21.87L165.02 21.92C162.77 22.02 160.29 20.57 158.37 22.9C158.13 22.9 157.9 22.89 157.66 22.88C156.82 22.49 155.63 23.16 155.03 22.02C154.88 21.55 154.73 21.09 154.57 20.62C154.51 19.83 154.88 18.79 153.38 18.94C152.58 19.02 152.6 18.35 152.68 17.76L152.69 17.75C153.01 17.56 152.91 17.44 152.63 17.35C150.93 16.76 149.1 16.41 147.99 14.77C148.04 14.67 148.05 14.57 148 14.47C146.88 13.61 145.59 13.79 144.32 13.83C143.49 13.7 142.67 13.58 141.84 13.46C141.07 13.8 140.22 14.04 140 15.02C139.72 14.99 139.46 14.99 139.31 15.29C137.28 15.53 135.33 16.29 133.18 15.26C132.52 14.94 130.72 14.03 130.02 15.89C129.15 16.24 128.29 16.68 127.47 15.77C127.15 15.41 126.82 15.43 126.67 15.96C126.46 16.72 125.9 17.01 125.18 17.16C124.28 17.35 124.76 18.07 124.78 18.54C124.8 18.9 124.94 19.69 125.47 19.37C126.56 18.74 127.29 19.88 128.23 19.73C129.09 19.97 128.91 18.89 129.47 18.75C129.52 19.16 129.57 19.57 129.62 19.98C129.79 19.9 129.95 19.82 130.12 19.74C130.32 19.78 130.49 19.85 130.66 19.94C130.49 19.85 130.31 19.77 130.12 19.74C129.95 19.82 129.79 19.9 129.62 19.98C129.62 20.24 129.64 20.49 129.64 20.75C129.19 21 129.12 21.43 129.11 21.89C128.71 22.07 128.31 22.25 127.91 22.43C126.49 22.62 127.13 21.28 126.82 20.74C125.17 21.86 125.93 22.78 127.2 23.66C126.26 23.79 125.55 23.57 124.92 23.95L124.87 23.91C124.92 22.59 124.15 22.08 122.96 21.99C121.65 21.82 120.35 21.79 119.08 22.23C118.77 22.17 118.47 22.08 118.16 22.06C117.48 22.02 116.52 21.88 116.53 22.78C116.54 23.63 117.37 23.59 118.11 23.37C118.89 23.14 118.37 23.76 118.46 23.99C117.34 24.81 118.68 25.13 118.85 25.66C119.05 26.26 119.57 26.12 120.03 25.76C120.45 25.42 120.85 25.02 121.44 24.98C121.4 25.1 121.44 25.19 121.56 25.23C121.51 25.46 121.46 25.7 121.41 25.93C121.24 26.72 120.61 26.78 119.97 27.01C118.79 27.44 119.89 27.64 120.14 27.91C119.82 28.04 119.31 27.96 119.21 28.39C119.11 28.81 119.54 28.82 119.83 28.84C120.19 28.86 120.36 29.09 120.55 29.34C121.3 30.34 121.95 29.19 122.66 29.21C122.98 29.21 123.31 28.93 123.16 28.6C122.89 28.01 122.32 27.77 121.7 27.67C121.73 27.53 121.76 27.39 121.78 27.25C121.8 27.12 121.82 26.99 121.84 26.86C122.62 26.73 123.37 26.82 124.08 27.19C125.12 27.03 124.79 28.26 125.36 28.63C125.86 27.95 125.37 27.31 125.57 26.74C125.97 27.08 126.19 27.7 126.96 27.6C127.24 26.66 126.88 25.24 128.53 25.14L128.59 25.26C128.74 26.27 129.06 27.18 129.91 27.82C130.02 28.27 129.66 28.83 130.25 29.15C129.96 30.7 131.08 32.02 130.95 33.54C130.55 33.26 130.12 33.02 130.28 33.84C130.38 34.34 130.65 34.81 130.85 35.3C131.11 36.61 129.71 37.99 131 39.27C131.1 39.3 131.2 39.33 131.31 39.36C131.21 39.33 131.11 39.3 131 39.27C130.99 39.79 131.1 40.25 131.54 40.59C131.94 42.53 133.21 43.86 134.63 45.1C134.67 45.26 134.7 45.42 134.74 45.58C133.49 45.76 133.94 46.82 133.94 47.45C133.94 48.3 134.84 48.28 135.5 48.39C135.54 47.9 135.59 47.4 135.64 46.91C135.59 47.4 135.55 47.9 135.5 48.39C135.94 49.46 136.38 50.54 136.82 51.61C136.69 52.71 137.17 54.13 135.2 54.48C137.28 54 137.48 55.49 137.9 56.73C138.06 57.2 138.11 57.71 138.31 58.17C139.01 59.76 139.51 61.25 136.78 61.53C137.89 62.53 138.75 61.47 139.87 61.54C139.31 62.54 138.87 63.33 138.43 64.11C138.11 65.67 136.84 65.53 135.77 65.44C134.66 65.35 133.89 64.5 133.6 63.5C133.4 62.81 133.22 62.36 132.29 62.25C132.96 63.78 132.09 64.42 130.76 64.85C131.92 64.83 132.01 65.94 132.69 66.34C132.68 66.56 132.66 66.78 132.65 67C130.79 66.66 129.28 65.37 127.34 65.18C125.84 65.04 124.09 65.94 123.78 67.21C124.09 67.88 124.39 68.55 124.68 69.17C123.2 69.74 121.65 68.55 120.3 69.65C120.11 68.9 119.56 68.79 119.03 69.15C118.45 69.54 117.84 69.38 117.25 69.46L117.24 69.48C117.24 69.48 117.26 69.46 117.25 69.46C117.62 68.07 117.86 66.74 115.8 66.56C113.95 65.67 112.42 63.9 110.04 64.46C110.78 62.67 113.02 62.7 113.99 61.19C113.92 61.68 113.79 62.18 113.81 62.67C113.82 63.18 114.29 63.29 114.62 63.1C115.18 62.77 115.4 62.17 115.47 61.52C115.56 60.76 115.18 60.5 114.49 60.54C114.21 60.03 114.88 60.12 114.95 59.82C116.5 60.74 118.38 60.29 120.01 61.19C121.73 62.14 122.55 61.47 122.61 59.47C123.77 59.01 123.81 58.47 122.65 58C121.99 57.73 121.26 57.52 120.53 57.88C120.06 58.12 119.8 58.46 120.01 59C119.96 58.93 119.88 58.9 119.79 58.92C119.78 58.56 119.6 58.3 119.32 58.11C118.88 57.82 118.45 57.53 118.01 57.25C118.25 57.07 118.49 56.74 118.74 56.73C120.35 56.66 121.94 56.73 123.39 57.59C123.75 57.8 124.49 57.94 124.35 57.34C123.98 55.77 125.11 56.4 125.6 56.46C127.59 56.71 129.41 57.53 131.2 58.42C132.72 59.45 134.11 58.3 135.6 58.25C134.98 57.91 134.52 57.5 134.04 57.05C133.24 56.3 132.27 55.61 131.1 56.53C129.79 56.39 128.4 56.24 127.54 55.18C126.82 54.29 126.16 54.15 125.15 54.48C124.08 54.83 122.97 53.95 123.34 52.94C123.74 51.85 123.11 51.88 122.51 51.81C121.97 51.75 121.41 51.84 120.86 51.86C120.78 52.12 120.74 52.53 120.64 52.73C120.73 52.53 120.78 52.12 120.86 51.86C120.88 51.5 120.91 51.14 120.94 50.78C121.86 50.81 122.78 51.3 123.71 50.84C123.96 50.89 124.2 50.99 124.45 50.97C124.96 50.95 125.76 51.4 125.89 50.69C126.01 50.04 125.45 49.35 124.78 49.13C124.03 48.88 123.2 48.86 122.24 48.72C122.82 47.61 123.02 46.47 124.83 45.99C122.2 45.64 120.11 45.63 118.34 44.41C117.93 43.64 119.13 43.54 118.97 42.88C119.5 42.08 120.29 42.3 121.01 42.4C121.94 42.53 122.85 42.66 123.8 42.46C124.33 42.35 125.04 42.66 125.27 41.98C125.42 41.55 124.34 41.68 124.55 40.99C124.16 39.84 121.87 39.46 123.2 37.62C124.51 38.05 125.93 39.19 126.83 37.04C127.2 37.04 127.44 36.99 127.25 36.51C126.52 34.69 124.8 35.52 123.54 35.1C121.93 34.57 121.36 35.09 121.98 36.72C121.33 36.53 120.68 36.34 120.03 36.15C118.72 36.81 117.69 37.76 117.06 39.11C115.77 39.82 114.48 40.53 113.19 41.25C112.62 41.06 112.23 41.4 111.83 41.7C110.88 41.86 109.99 42.1 110.06 43.36C109.1 43.29 108.45 42.76 107.97 41.97C108.48 40.82 109.54 40.65 110.6 40.43C111.03 40.34 111.77 40.29 111.72 39.67C111.66 38.99 110.98 38.9 110.4 38.98C108.89 39.19 107.95 38.43 107.25 37.22C108.29 36.63 109.15 35.82 110.26 35.25C112.38 34.17 113.73 36.08 115.49 36.05C115.28 35.54 114.87 35.2 114.46 34.85C114.87 35.2 115.29 35.54 115.49 36.05C115.61 36.47 115.96 36.57 116.32 36.68C115.63 37.78 116.65 38.35 117.07 39.11C117.7 37.76 118.73 36.81 120.05 36.15C119.87 34.78 118.7 35.35 117.96 35.09C118.29 34.02 118.07 33.49 116.79 33.28C115.17 33.01 114.9 32.27 115.81 31.3C115.51 31.2 115.22 31.08 114.92 31C112.54 30.34 110.73 30.96 109.91 32.71C109.27 32.74 109.01 33.28 108.63 33.65C107.91 33.46 107.52 32.08 106.37 33.17C108.18 33.6 106.49 35.07 107.23 35.87C106.92 36.26 106.07 36.37 106.52 37.18C106.44 37.68 106.36 38.18 106.28 38.67C105.43 39.13 104.31 38.95 103.6 39.77C103.18 39.44 103.2 39.01 103.28 38.55C104.04 37.84 104.38 36.73 105.85 36.3C105.03 36.18 104.45 35.9 104.2 36.08C102.74 37.13 101.7 36.16 100.46 35.59C99.3001 35.05 97.9401 34.68 96.7501 35.76C96.1501 35.53 95.5301 35.49 94.9101 35.6C94.5001 34.94 94.0801 34.27 93.6701 33.61C93.7101 33.41 93.7501 33.2 93.7901 33C94.6401 33.09 95.5001 33.2 96.3501 33.27C96.5601 33.29 96.8701 33.24 96.9901 33.1C97.2501 32.79 96.8901 32.56 96.7501 32.31C96.4401 31.75 95.9401 31.87 95.4501 31.92C95.6101 30.19 95.9801 28.62 98.2201 28.64C98.3601 28.41 98.5001 28.18 98.6401 27.94C98.5001 28.17 98.3601 28.4 98.2201 28.64C98.8701 28.95 99.2301 30.23 100.16 29.5C100.75 29.04 100.52 28.25 99.9001 27.73C101.37 26.43 102.94 26.59 104.54 27.43C105.38 27.87 105.91 27.95 106.79 27.12C107.66 26.3 108.83 25.32 110.24 25.47C111.32 25.59 112.14 25.17 113.27 24.74C110.8 24.54 108.35 23.75 106.45 24.91C104.73 25.97 103.15 25.55 101.5 25.64C100.38 25.7 99.1401 25.71 98.9201 24.13C99.0201 23.49 99.1301 22.85 99.2301 22.21C102.59 21.21 106.3 21.04 108.78 17.97C108.05 16.48 106.74 17.21 105.82 17.9C104.24 19.09 102.48 19.75 100.68 20.38C99.3201 20.05 99.4701 18.74 99.1701 17.82C98.8801 16.93 98.3401 16.82 97.6501 16.75C97.2801 16.71 96.7801 16.65 96.8201 17.2C96.8601 17.88 96.5601 18.81 97.7001 18.98C97.6501 19.26 97.6101 19.55 97.5601 19.83C97.4601 19.85 97.3901 19.91 97.3501 20C97.0601 20.03 96.7701 20.07 96.4801 20.11C95.5701 19.81 95.8201 20.56 95.7001 20.98C95.4401 21.24 95.1701 21.62 94.7801 21.5C93.1801 21.02 93.6801 21.96 93.9101 22.73C92.6901 23.77 94.2501 24.42 94.2801 25.29C92.6201 25.28 91.4201 23.57 89.6301 24.04C88.9601 23.89 88.3001 23.73 87.6301 23.58C87.3501 22.06 86.1601 22.84 85.3501 22.68C85.2301 22.61 85.1101 22.55 84.9901 22.48C85.0001 22.26 84.9001 22.13 84.6801 22.09C84.5801 22.06 84.4901 22.03 84.3901 21.99C84.6501 20.37 83.0901 20.8 82.3901 20.28C82.0101 19.99 81.5001 20.22 81.2701 20.66C80.9501 21.29 81.0301 21.88 81.7001 22.27C82.8701 22.83 84.0301 23.39 85.2001 23.95C85.6801 24.94 85.7401 26.23 87.1001 26.59C86.9401 27.47 86.3401 27.98 85.5001 28.28C86.0301 28.87 86.8301 28.59 87.1601 29.21C86.2301 29.68 85.2601 29.21 84.3101 29.35C83.1101 28.83 82.6501 29.79 82.0801 30.49C81.9201 30.68 81.8001 30.98 82.0801 31.13C82.8701 31.55 83.5001 31.02 84.1601 30.71C84.2701 30.66 84.4001 30.64 84.5201 30.61C85.5801 31.02 86.6401 29.92 87.7201 30.64C87.9701 30.8 88.3201 29.61 88.6101 30.5C88.8301 31.15 88.8201 32.05 88.5201 32.63C88.2701 33.13 87.8701 32.41 87.5301 32.2C86.3601 31.46 85.3801 32.16 84.4001 32.7C84.0901 32.87 83.5801 33.06 83.6801 33.47C83.8101 33.98 84.3801 33.85 84.7901 33.89C84.2801 34.32 83.1901 34.43 83.7301 35.46C83.9801 35.94 84.8801 35.96 85.0301 35.64C85.4801 34.76 86.6801 34.53 86.8201 33.44C87.1701 34.01 87.8401 34.63 87.7801 35.15C87.6701 36.12 86.3601 36.11 85.7401 36.74C86.0901 37.23 86.5701 37.16 86.9701 37.29C86.9401 37.65 86.9101 38.01 86.8701 38.37C86.6101 38.85 86.3901 39.37 85.8201 39.57C84.8501 39.9 84.8401 39.9 85.5101 40.87C85.7101 41.46 85.1701 42.34 86.1901 42.61C86.8401 42.18 87.6001 42.02 87.8601 42.88C88.1501 43.86 87.1301 43.6 86.6301 43.82C86.4701 43.89 86.3401 44.05 86.1901 44.16C85.7901 44.19 85.3901 44.22 84.9901 44.24C84.0401 44.15 83.1501 43.88 82.3501 43.36C81.5301 42.83 80.7201 42.78 79.9601 43.47C80.8301 43.51 81.2101 44.04 81.0601 44.84C80.9101 45.65 80.1901 45.43 79.6901 45.33C79.0701 45.19 78.2601 45.48 77.8601 44.7C77.3901 44.54 76.6701 44.12 76.5001 44.28C75.1101 45.57 74.8501 44.19 74.2801 43.45C74.0201 43.12 73.6501 42.87 73.3301 42.59C72.9401 42.97 73.4101 43.63 72.8301 43.78C72.3001 43.92 72.0301 43.44 71.8201 43.09C71.1801 42.01 70.0201 41.96 69.0001 41.57C69.7501 42.22 69.8401 43.18 71.0001 43.8C72.5001 44.61 74.9201 44.66 75.4401 46.99C75.4601 47.06 75.7701 47.06 75.9501 47.1C75.3601 48.75 74.0401 46.95 73.2501 47.65C72.4801 45.34 70.8801 47.15 69.6901 46.95C69.4301 46.91 69.1901 47.14 69.2501 47.41C69.3001 47.62 69.5901 47.96 69.6701 47.93C71.2501 47.4 72.2701 48.99 73.6901 48.97C73.8401 48.97 73.9901 48.97 74.1401 48.97C74.9501 48.91 75.1801 49.13 75.1901 49.45C75.1701 49.13 74.9501 48.91 74.1401 48.97C73.9901 48.97 73.8401 48.97 73.6901 48.98C73.1701 49.54 72.5001 49.86 71.9701 49.19C71.4601 48.53 70.5601 48.67 70.3301 48.78C68.8001 49.52 67.7901 48.66 66.7001 47.89C66.5801 47.68 66.4501 47.48 66.3301 47.28C66.5501 46.91 66.7101 46.49 67.0001 46.19C67.6501 45.53 67.2901 44.95 66.7501 44.68C65.6401 44.12 65.4601 45.27 64.9801 45.84C64.2001 46.18 63.3801 45.79 62.6601 45.72C61.8101 45.63 60.8801 45.18 60.2701 45.83C59.6401 46.51 60.5301 47.3 60.7001 48.16C60.0201 47.79 59.2601 49.06 58.9401 48.23C58.7201 47.66 58.1101 46.56 59.1701 45.91C59.5101 46.11 59.6001 46.02 59.4701 45.66C58.7401 45 57.3901 45.41 56.9801 44.21C56.8601 43.96 56.7401 43.7 56.6201 43.45C56.7301 43.29 56.8301 43.13 56.9401 42.98C56.8301 43.13 56.7201 43.28 56.6101 43.43C55.8701 43.28 55.1901 43.47 54.5501 43.83C54.3701 43.8 54.1801 43.76 54.0001 43.73C52.9801 43.12 52.4801 43.64 52.1701 44.57L52.0701 44.64C51.6601 44.55 51.2601 44.25 51.3601 43.9C51.6901 42.75 51.6001 41.91 50.3101 41.44C50.0601 41.35 49.9401 40.81 49.8101 40.46C49.4701 39.53 48.8801 38.81 48.0201 38.36C45.6201 37.11 43.7801 35.06 41.3801 33.82C40.5901 33.41 39.8901 32.84 40.7601 31.75C41.3201 31.04 40.6901 30.94 40.1401 31.01C38.0901 31.28 36.4301 30.01 34.5601 29.59C34.5301 27.58 34.5301 27.57 32.3901 28.32C32.0601 28.44 31.6701 28.47 31.5201 28.22C30.9101 27.15 29.7701 27.57 28.9101 27.22C28.6401 26.56 29.5901 25.5 28.6601 25.24C27.3801 24.89 26.5501 23.68 25.1701 23.68C25.2601 23.91 25.6601 24.18 25.6001 24.38C25.6601 24.18 25.2601 23.9 25.1701 23.68C24.5701 23.63 23.9701 23.58 23.3601 23.52C23.3901 22.12 22.4901 21.95 21.3701 21.92C21.1401 21.92 20.9001 21.9 20.7001 21.92L15.1101 15.8C15.2801 15.32 15.5601 14.93 16.6201 15.18C15.0801 14.07 14.8701 12.56 13.3901 11.61C13.6601 12.83 14.1901 13.84 14.2401 14.85L12.5901 13.04C13.1601 12.47 12.3601 12.42 11.8701 12.25C12.6101 11.89 11.6901 11.18 12.1801 10.76C12.4201 10.71 12.6601 10.65 12.9001 10.62C13.2701 10.57 13.7301 11.63 13.9801 10.62C14.1301 9.99996 13.7401 9.41998 12.9701 9.31998C12.1401 9.20998 11.6801 9.59997 11.5101 10.38C11.2801 10.61 11.0401 10.84 10.8101 11.08L6.37007 6.21997C6.37007 6.21997 6.40007 6.12997 6.42007 6.07997H6.23007L5.26007 5.00996C5.02007 4.37996 4.93007 3.75997 5.60007 3.10997C4.79007 2.68997 4.40007 3.67996 3.76007 3.36996L3.73007 3.32997C3.74007 3.16997 3.81007 2.96996 3.55007 2.92996C3.51007 2.92996 3.46007 2.95997 3.43007 2.99997L0.780068 0.0999756C-1.08993 12.99 4.88007 24.87 13.8101 31.83L13.9401 31.98Z" fill="#101623"/>
</svg>
