<svg width="78" height="78" viewBox="0 0 78 78" fill="none" xmlns="http://www.w3.org/2000/svg">
<g filter="url(#filter0_d_280_119)">
<path d="M17.7455 0H60.2546C67.8423 0.00902344 73.991 6.15768 74 13.7446V56.2546C73.991 63.8423 67.8423 69.991 60.2554 70H17.7454C10.1577 69.9909 4.00902 63.8423 4 56.2555V13.7455C4.00902 6.15761 10.1577 0.00902344 17.7446 0H17.7455ZM60.2546 66.8182C66.0858 66.811 70.811 62.0858 70.8182 56.2553V13.7455C70.811 7.91431 66.0859 3.1891 60.2553 3.18192H17.7456C11.9144 3.1891 7.18917 7.91424 7.18199 13.7448V56.2546C7.18917 62.0858 11.9143 66.811 17.7449 66.8181H17.7456L60.2546 66.8182ZM39 18.2318C48.2609 18.2318 55.7683 25.7391 55.7683 35C55.7683 44.2609 48.2609 51.7682 39 51.7682C29.7394 51.7682 22.2319 44.2609 22.2319 35C22.2428 25.7436 29.7436 18.2427 38.999 18.2318H39ZM39 48.5864C46.5036 48.5864 52.5864 42.5035 52.5864 34.9999C52.5864 27.4963 46.5036 21.4137 39 21.4137C31.4965 21.4137 25.4137 27.4965 25.4137 35.0001C25.4227 42.5 31.5002 48.5774 38.9992 48.5864H38.9999L39 48.5864ZM63.2774 15.2728C63.2774 17.7857 61.2402 19.8228 58.7274 19.8228C56.2145 19.8228 54.1774 17.7857 54.1774 15.2728C54.1774 12.7599 56.2145 10.7228 58.7274 10.7228C61.2402 10.7228 63.2774 12.7599 63.2774 15.2728Z" fill="#FEFEFE"/>
</g>
<defs>
<filter id="filter0_d_280_119" x="0" y="0" width="78" height="78" filterUnits="userSpaceOnUse" color-interpolation-filters="sRGB">
<feFlood flood-opacity="0" result="BackgroundImageFix"/>
<feColorMatrix in="SourceAlpha" type="matrix" values="0 0 0 0 0 0 0 0 0 0 0 0 0 0 0 0 0 0 127 0" result="hardAlpha"/>
<feOffset dy="4"/>
<feGaussianBlur stdDeviation="2"/>
<feComposite in2="hardAlpha" operator="out"/>
<feColorMatrix type="matrix" values="0 0 0 0 0 0 0 0 0 0 0 0 0 0 0 0 0 0 0.25 0"/>
<feBlend mode="normal" in2="BackgroundImageFix" result="effect1_dropShadow_280_119"/>
<feBlend mode="normal" in="SourceGraphic" in2="effect1_dropShadow_280_119" result="shape"/>
</filter>
</defs>
</svg>
