<svg width="50" height="79" viewBox="0 0 50 79" fill="none" xmlns="http://www.w3.org/2000/svg">
<g filter="url(#filter0_d_246_146)">
<path d="M40.943 0H46V18.6213H41.0846C36.6904 18.6213 33.1282 22.0313 33.1282 26.2377V26.2649V26.2636V27.7224H42.7702V43.2778H33.1282V71H13.6758V43.2778H4V27.7222H13.6758V26.2701V26.2695C13.6758 11.8212 25.8606 0.0970703 40.9301 0.000208026L40.9397 6.92979e-05L40.943 0ZM42.6287 3.22724H40.943C27.7381 3.35482 17.0807 13.6156 17.0471 26.2669V30.9495H7.37144V40.0503H17.047V67.7726H29.7569V40.0503H39.3989V30.9496H29.7569V26.2701V26.2378C29.7569 20.249 34.8284 15.3941 41.0845 15.3941H42.6353L42.6287 3.22724Z" fill="#FFF9F6"/>
</g>
<defs>
<filter id="filter0_d_246_146" x="0" y="0" width="50" height="79" filterUnits="userSpaceOnUse" color-interpolation-filters="sRGB">
<feFlood flood-opacity="0" result="BackgroundImageFix"/>
<feColorMatrix in="SourceAlpha" type="matrix" values="0 0 0 0 0 0 0 0 0 0 0 0 0 0 0 0 0 0 127 0" result="hardAlpha"/>
<feOffset dy="4"/>
<feGaussianBlur stdDeviation="2"/>
<feComposite in2="hardAlpha" operator="out"/>
<feColorMatrix type="matrix" values="0 0 0 0 0 0 0 0 0 0 0 0 0 0 0 0 0 0 0.25 0"/>
<feBlend mode="normal" in2="BackgroundImageFix" result="effect1_dropShadow_246_146"/>
<feBlend mode="normal" in="SourceGraphic" in2="effect1_dropShadow_246_146" result="shape"/>
</filter>
</defs>
</svg>
