<svg width="72" height="72" viewBox="0 0 72 72" fill="none" xmlns="http://www.w3.org/2000/svg">
<g filter="url(#filter0_d_246_143)">
<path d="M16.5673 0H55.4328C62.3701 0.00825 67.9917 5.62987 68 12.5665V51.4328C67.9917 58.3701 62.3701 63.9917 55.4335 64H16.5673C9.62988 63.9917 4.00825 58.3701 4 51.4336V12.5673C4.00825 5.62981 9.62987 0.00825 16.5665 0H16.5673ZM55.4328 61.0909C60.7642 61.0843 65.0844 56.7642 65.0909 51.4334V12.5673C65.0844 7.23594 60.7643 2.91575 55.4334 2.90919H16.5674C11.236 2.91575 6.91581 7.23587 6.90925 12.5667V51.4328C6.91581 56.7641 11.2359 61.0843 16.5667 61.0909H16.5674L55.4328 61.0909ZM36 16.6691C44.4671 16.6691 51.331 23.5329 51.331 32C51.331 40.4671 44.4671 47.3309 36 47.3309C27.5331 47.3309 20.6691 40.4671 20.6691 32C20.6791 23.537 27.537 16.679 35.9991 16.6691H36ZM36 44.4218C42.8604 44.4218 48.4219 38.8604 48.4219 31.9999C48.4219 25.1395 42.8604 19.5782 36 19.5782C29.1397 19.5782 23.5783 25.1397 23.5783 32.0001C23.5865 38.8571 29.143 44.4136 35.9993 44.4219H35.9999L36 44.4218ZM58.1964 13.9637C58.1964 16.2612 56.3339 18.1237 54.0364 18.1237C51.7389 18.1237 49.8764 16.2612 49.8764 13.9637C49.8764 11.6662 51.7389 9.80369 54.0364 9.80369C56.3339 9.80369 58.1964 11.6662 58.1964 13.9637Z" fill="#FFF9F6"/>
</g>
<defs>
<filter id="filter0_d_246_143" x="0" y="0" width="72" height="72" filterUnits="userSpaceOnUse" color-interpolation-filters="sRGB">
<feFlood flood-opacity="0" result="BackgroundImageFix"/>
<feColorMatrix in="SourceAlpha" type="matrix" values="0 0 0 0 0 0 0 0 0 0 0 0 0 0 0 0 0 0 127 0" result="hardAlpha"/>
<feOffset dy="4"/>
<feGaussianBlur stdDeviation="2"/>
<feComposite in2="hardAlpha" operator="out"/>
<feColorMatrix type="matrix" values="0 0 0 0 0 0 0 0 0 0 0 0 0 0 0 0 0 0 0.25 0"/>
<feBlend mode="normal" in2="BackgroundImageFix" result="effect1_dropShadow_246_143"/>
<feBlend mode="normal" in="SourceGraphic" in2="effect1_dropShadow_246_143" result="shape"/>
</filter>
</defs>
</svg>
