<svg width="293" height="131" viewBox="0 0 293 131" fill="none" xmlns="http://www.w3.org/2000/svg">
<path d="M92.5609 50.3596C90.1742 50.3596 88.0141 51.3209 86.4414 52.877C84.8687 51.3209 82.7085 50.3596 80.3218 50.3596C77.9352 50.3596 75.775 51.3209 74.2023 52.877C72.6296 51.3209 70.4695 50.3596 68.0828 50.3596H64.0461V55.5252H68.0828C69.0441 55.5252 69.917 55.9082 70.5542 56.5307C70.6462 56.6191 70.731 56.713 70.812 56.8124C70.9556 56.9874 71.0845 57.1752 71.1932 57.3759C71.4657 57.8768 71.6204 58.4514 71.6204 59.0628V77.4767H76.786V59.0628C76.786 57.1089 78.3698 55.5252 80.3237 55.5252C82.2776 55.5252 83.8613 57.1089 83.8613 59.0628V77.4767H89.0269V59.0628C89.0269 57.1089 90.6107 55.5252 92.5646 55.5252C94.5185 55.5252 96.1023 57.1089 96.1023 59.0628V116.717C86.8668 122.28 76.2649 125.254 65.2063 125.254C49.168 125.254 34.0893 119.008 22.7489 107.667C11.4085 96.327 5.16191 81.2482 5.16191 65.21C5.16191 49.1718 11.4085 34.093 22.7489 22.7526C30.0489 15.4526 38.8976 10.2686 48.5548 7.49705L47.146 2.4751C36.1021 5.37189 27.386 10.8137 19.0989 19.1008C6.78249 31.4172 0 47.7924 0 65.21C0 82.6275 6.78249 99.0028 19.0989 111.319C31.4153 123.636 47.7905 130.418 65.2081 130.418C78.2317 130.418 90.6733 126.624 101.27 119.562V59.0628C101.27 54.2563 97.3729 50.3614 92.5683 50.3614L92.5609 50.3596Z" fill="#FFF9F6"/>
<path d="M111.31 19.0989C98.9936 6.7825 82.6183 0 65.2008 0C61.3077 0 57.468 0.34069 53.7131 1.0055V6.25949V65.2099C53.7131 70.5505 49.3688 74.8948 44.0283 74.8948C38.6877 74.8948 34.3435 70.5505 34.3435 65.2099C34.3435 59.8694 38.6877 55.5251 44.0283 55.5251C44.0688 55.5251 44.1074 55.5288 44.148 55.5288V55.5251H48.5493V50.3595H43.5605V50.3724C35.5884 50.621 29.1779 57.1789 29.1779 65.2099C29.1779 73.241 35.8388 80.0603 44.0283 80.0603C52.2177 80.0603 58.8768 73.3994 58.8768 65.2099V5.49708C60.9633 5.27978 63.0719 5.1656 65.1989 5.1656C81.2372 5.1656 96.3159 11.4122 107.656 22.7526C118.997 34.093 125.243 49.1717 125.243 65.2099C125.243 81.2482 118.999 96.3269 107.656 107.667C107.251 108.072 106.84 108.468 106.426 108.861L109.745 112.883L111.308 111.319C123.625 99.0027 130.407 82.6275 130.407 65.2099C130.407 47.7924 123.625 31.4172 111.308 19.1007L111.31 19.0989Z" fill="#FFF9F6"/>
<g filter="url(#filter0_d_280_124)">
<path d="M163.037 79.0819L162.356 79.6725C160.634 81.1714 158.441 81.9992 156.177 81.9992C150.982 81.9992 146.759 77.7709 146.759 72.576V57.0184H143V52.262H146.759V45H151.51V52.262H155.613V57.0184H151.51V72.576C151.51 75.1488 153.604 77.2429 156.177 77.2429C157.291 77.2429 158.374 76.8312 159.229 76.0885L159.9 75.5023L163.037 79.0819Z" fill="#FFF9F6"/>
<path d="M211.37 45.0042H206.618V81.0951H211.37V45.0042Z" fill="#FFF9F6"/>
<path d="M184.657 51.0453C180.42 51.0453 176.804 53.8999 175.641 57.7793L180.12 59.3901C180.612 57.3408 182.473 55.8016 184.657 55.8016C187.167 55.8016 189.257 57.8464 189.315 60.3432V60.5893H189.346L189.315 69.4084V72.5763C189.315 75.1491 187.221 77.2431 184.648 77.2431C182.075 77.2431 179.986 75.1491 179.986 72.5763C179.986 70.0035 182.066 67.9229 184.626 67.9094H186.943L186.961 63.1531L184.344 63.1621C179.323 63.3545 175.234 67.5739 175.229 72.5763C175.229 75.0641 176.209 77.4221 177.99 79.2119C179.78 81.0106 182.142 81.9995 184.648 81.9995C189.843 81.9995 194.071 77.7711 194.071 72.5763V60.3253C193.995 55.2065 189.776 51.0408 184.657 51.0408V51.0453Z" fill="#FFF9F6"/>
<path d="M228.668 45H223.911V81.0909H228.668V45Z" fill="#FFF9F6"/>
<path d="M288.885 53.5059L285.753 57.0854L285.077 56.4993C284.227 55.7565 283.144 55.3494 282.03 55.3494C279.457 55.3494 277.363 57.4389 277.363 60.0118V81.1043H272.607V60.0118C272.607 54.8169 276.835 50.593 282.03 50.593C284.294 50.593 286.491 51.4163 288.209 52.9197L288.885 53.5059Z" fill="#FFF9F6"/>
<path d="M250.637 77.247C248.122 77.247 246.033 75.1977 245.975 72.6831V72.6339C245.975 72.4594 245.979 72.3296 245.979 72.1686L245.97 69.8866V65.1347V60.4679C245.97 57.8951 248.064 55.801 250.637 55.801C253.21 55.801 255.304 57.8951 255.304 60.4679C255.304 63.0407 253.21 65.1347 250.637 65.1347H248.346V69.8866H250.637C255.832 69.8866 260.06 65.6627 260.06 60.4679C260.06 55.273 255.832 51.0447 250.637 51.0447C245.442 51.0447 241.384 55.0538 241.223 60.1994L241.214 72.7279C241.285 77.8422 245.514 82.0034 250.637 82.0034C255.367 82.0034 259.326 78.4417 259.957 73.8554L255.286 72.8084C255.165 75.2649 253.107 77.2426 250.637 77.2426V77.247Z" fill="#FFF9F6"/>
</g>
<defs>
<filter id="filter0_d_280_124" x="139" y="45" width="153.885" height="45.0034" filterUnits="userSpaceOnUse" color-interpolation-filters="sRGB">
<feFlood flood-opacity="0" result="BackgroundImageFix"/>
<feColorMatrix in="SourceAlpha" type="matrix" values="0 0 0 0 0 0 0 0 0 0 0 0 0 0 0 0 0 0 127 0" result="hardAlpha"/>
<feOffset dy="4"/>
<feGaussianBlur stdDeviation="2"/>
<feComposite in2="hardAlpha" operator="out"/>
<feColorMatrix type="matrix" values="0 0 0 0 0 0 0 0 0 0 0 0 0 0 0 0 0 0 0.25 0"/>
<feBlend mode="normal" in2="BackgroundImageFix" result="effect1_dropShadow_280_124"/>
<feBlend mode="normal" in="SourceGraphic" in2="effect1_dropShadow_280_124" result="shape"/>
</filter>
</defs>
</svg>
