<svg width="77" height="77" viewBox="0 0 77 77" fill="none" xmlns="http://www.w3.org/2000/svg">
<g filter="url(#filter0_d_246_149)">
<path d="M38.7824 0C57.6809 0.0023584 73 15.3316 73 34.2408C73 53.1515 57.6784 68.4816 38.7782 68.4816C33.089 68.4816 27.7241 67.0925 23.0038 64.6349L23.1935 64.7248L4 69L8.27281 49.7925C5.91955 45.2701 4.53937 39.9167 4.53937 34.2409C4.53937 15.3377 19.8488 0.0121962 38.7388 0.000134692H38.7399L38.7824 0ZM38.7824 65.2206C55.8826 65.2206 69.745 51.3505 69.745 34.2408C69.745 17.1312 55.8826 3.26113 38.7824 3.26113H38.7399C21.6487 3.27285 7.79802 17.1384 7.79802 34.2408C7.79802 39.5703 9.14305 44.5854 11.512 48.9651L11.431 48.8014L11.7145 49.3328L8.29557 64.702L23.6563 61.2812L24.1875 61.5649C28.4097 63.8625 33.4327 65.2153 38.771 65.2206H38.7726H38.7824ZM43.9547 54.5309C37.0558 54.1671 30.9621 50.9958 26.7452 46.1472L26.7199 46.1175C18.2068 37.5017 17.7343 29.7406 18.8587 24.7578C19.6459 21.296 21.2612 18.2905 23.4873 15.8531L23.4737 15.8681L24.6275 14.7137L35.9305 26.0231L35.2429 27.3992C34.7378 28.3749 34.4416 29.5292 34.4416 30.7529C34.4416 32.8229 35.2893 34.6948 36.6563 36.0399L36.6573 36.0409C37.998 37.408 39.8639 38.2553 41.9276 38.2553H41.9515H41.9502C43.1687 38.2534 44.3181 37.9595 45.333 37.4399L45.291 37.4595L45.5811 37.3128L47.1063 37.2052L58.1062 48.2112L56.9524 49.3656C53.5338 52.506 48.9737 54.4503 43.9605 54.5113L43.9482 54.5115L43.9547 54.5309ZM24.7482 19.4521C23.4807 21.2 22.527 23.265 22.0189 25.4996L21.9974 25.6121C20.6938 31.6614 23.073 37.7889 29.0439 43.825C32.7042 48.0893 37.9697 50.8847 43.8919 51.2668L43.9548 51.2699C47.5148 51.2184 50.7901 50.0407 53.4519 48.0782L53.4066 48.11L46.0374 40.7368C44.8378 41.242 43.4434 41.5366 41.9806 41.539H41.9797C36.0317 41.5139 31.2195 36.6836 31.2195 30.7287C31.2195 29.2753 31.5062 27.8888 32.0261 26.6228L31.9999 26.6947L24.7482 19.4521Z" fill="#FFF9F6"/>
</g>
<defs>
<filter id="filter0_d_246_149" x="0" y="0" width="77" height="77" filterUnits="userSpaceOnUse" color-interpolation-filters="sRGB">
<feFlood flood-opacity="0" result="BackgroundImageFix"/>
<feColorMatrix in="SourceAlpha" type="matrix" values="0 0 0 0 0 0 0 0 0 0 0 0 0 0 0 0 0 0 127 0" result="hardAlpha"/>
<feOffset dy="4"/>
<feGaussianBlur stdDeviation="2"/>
<feComposite in2="hardAlpha" operator="out"/>
<feColorMatrix type="matrix" values="0 0 0 0 0 0 0 0 0 0 0 0 0 0 0 0 0 0 0.25 0"/>
<feBlend mode="normal" in2="BackgroundImageFix" result="effect1_dropShadow_246_149"/>
<feBlend mode="normal" in="SourceGraphic" in2="effect1_dropShadow_246_149" result="shape"/>
</filter>
</defs>
</svg>
