<svg version="1.2" xmlns="http://www.w3.org/2000/svg" viewBox="0 0 103 109" width="103" height="109">
	<title>vectores diagrama flujo-ai</title>
	<defs>
		<clipPath clipPathUnits="userSpaceOnUse" id="cp1">
			<path d="m0 0h103v109h-103z"/>
		</clipPath>
	</defs>
	<style>
		tspan { white-space:pre } 
		.s0 { fill: #ffffff } 
		.s1 { fill: #000000 } 
		.t2 { font-size: 12px;fill: #000000;font-weight: bold;font-family: "Century Gothic" } 
		.s3 { fill: none;stroke: #000000;stroke-miterlimit:10;stroke-width: 4 } 
		.s4 { fill: none;stroke: #000000;stroke-linecap: round;stroke-linejoin: round;stroke-width: 1.3 } 
		.t5 { font-size: 12px;fill: #000000;font-family: "Helvetica Neue LT Std" } 
		.s6 { fill: none;stroke: #000000;stroke-miterlimit:10;stroke-width: 2.6 } 
		.s7 { fill: none;stroke: #000000;stroke-linecap: round;stroke-linejoin: round;stroke-width: .9 } 
		.s8 { fill: none;stroke: #000000;stroke-linecap: round;stroke-linejoin: round;stroke-width: 4 } 
		.s9 { fill: none;stroke: #000000;stroke-linecap: round;stroke-linejoin: round;stroke-width: 9;stroke-dasharray: 14.999999999999998,20 } 
		.s10 { fill: #ffffff;stroke: #000000;stroke-linecap: round;stroke-linejoin: round;stroke-width: 9 } 
	</style>
	<g id="Mesa de trabajo 1" clip-path="url(#cp1)">
		<g id="_Artboards_">
			<path id="Mesa de trabajo 3" class="s0" d="m-760-259.4h1758.9v-876.2h-1758.9z"/>
			<path id="Mesa de trabajo 4" class="s0" d="m-541.8 643h92.3v-96.3h-92.3z"/>
		</g>
		<g id="Capa 1">
			<path id="&lt;Path&gt;" class="s1" d="m1154-2264.6q0-1.1 0.1-2.2v4.4q-0.1-1.1-0.1-2.2z"/>
			<path id="&lt;Path&gt;" class="s1" d="m-463.9 623q0-15.7 0-31.5c0-3.9-2.3-6.9-6-7.7-2.3-0.5-4.4 0-6.3 1.5q-0.2 0.2-0.5 0.4 0 0-0.1 0c-3.3-2.9-7.6-2.7-10.6 0.1-2.5-2.6-5.6-2.2-8.8-2.1v4.4h1.9q0.8-0.1 1.6 0c1.8 0 3 1.3 3 3.1q0 7.5 0 15v0.9h4.5v-0.8q0-7.5 0-15c0-2.3 2.1-3.8 4.2-3q1.7 0.6 2 2.4 0 0.6 0 1.1 0 7.2 0 14.3v1h4.5v-0.8q-0.1-7.4 0-14.8c0-1.7 0.7-2.9 2.2-3.3 1.9-0.6 3.8 0.8 3.9 2.8q0.1 0.3 0.1 0.7v35.6q-1.7 1.3-3.4 2.5c-6.8 4.5-14.9 7.2-23.7 7.2-8.7 0-16.8-2.7-23.6-7.2-10.8-7.2-18.1-19.3-18.8-33.1v-4.4c1-19.1 14.5-34.8 32.6-39.1v43.5c0 4.5-3.8 8.2-8.4 8.2-4.7 0-8.5-3.6-8.5-8.2 0-4.8 3.5-8.4 8.2-8.6 1.4-0.1 2.7 0 4.1 0v-4.4c-7.9-1-14.9 2.3-16.6 10.6-1.4 7.1 4 14.3 11.3 15 7 0.7 13-3.9 14.2-10.9 0.1-0.6 0.1-1.3 0.1-1.9v-44.2q2.7-0.3 5.4-0.3c23.5 0 42.5 19 42.5 42.5 0 11-4.1 21-11 28.5z"/>
			<g id="&lt;Group&gt;">
				<g id="&lt;Group&gt;">
					<path id="&lt;Compound Path&gt;" fill-rule="evenodd" class="s1" d="m404.1 64c0.5 0 1 0 1.4 0q1.9 0 3.7 0c1 0 1.6 0.5 1.6 1.4q0 6.1 0 12.3c0 0.8-0.5 1.3-1.3 1.4q-0.4 0-0.8 0-6.9 0-13.9 0c-0.3 0-0.5 0-0.9 0 0 0.3 0.1 0.5 0.1 0.8q2.4 9.5 4.8 19 0.5 2.1-1.6 2.1-3.7 0-7.5 0c-1.1 0-1.5-0.3-1.8-1.4q-2.5-9.9-4.9-19.8c-0.2-0.6-0.4-0.7-0.9-0.7q-6.5 0-13 0c-0.5 0-0.7 0.2-0.8 0.7q-2.5 9.9-5 19.7c-0.3 1.3-0.6 1.5-1.8 1.5q-3.7 0-7.4 0c-1.5 0-2-0.7-1.7-2.1q2.5-9.6 4.9-19.2c0-0.2 0-0.3 0.1-0.6q-0.5 0-0.9 0-7.6 0-15.1 0c-1.6 0-1.9-0.4-1.9-1.9q0-5.7 0-11.4c0-1.4 0.4-1.8 1.8-1.8q21 0 42 0c0.3 0 0.6 0 1 0-0.8-1.1-1.5-2-2.3-3-0.1-0.1-0.4-0.1-0.5 0q-2.6 0.4-5.1 1c-1.2 0.2-1.5 0.1-2.2-0.9-0.5-0.8-1-1.6-1.5-2.4-0.3-0.4-0.5-0.5-1-0.4-1.2 0.4-2.5 0.6-3.7 0.9-1 0.3-1.5 0.1-2-0.9q-0.9-1.8-1.8-3.7c-0.2-0.4-0.4-0.5-0.9-0.4-1.1 0.4-2.3 0.6-3.4 0.9-1.1 0.3-1.6 0.1-2.1-0.9-0.7-1.3-1.3-2.6-2-4q-1.4 0.7-2.7 1.4c-2.5 1.2-1.9 1.3-4.3 0q-6.6-3.7-13.1-7.6c-3.1-1.9-4.1-6-2.2-9.1q3.3-5.4 6.8-10.6c2-2.9 5.9-3.7 9.1-1.9 6.1 3.6 12.1 7.1 18 11 12.4 8.2 24.9 16.3 37.3 24.5 1.2 0.8 1.3 1.1 0.8 2.5-0.5 1.2-0.9 2.3-1.4 3.6zm3.9 2.8c-22 0-43.9 0-65.8 0q0 4.8 0 9.5c22 0 43.9 0 65.8 0 0-3.2 0-6.3 0-9.5zm-47.1-34.3q-5.4 8.3-10.7 16.6c0.5 0.5 0.9 0.4 1.3 0.2q2.1-1.1 4.2-2.1c0.9-0.4 1.5-0.2 2 0.6q0.2 0.4 0.4 0.8 0.9 1.8 1.8 3.7c1.4-0.4 2.8-0.8 4.2-1.1 1-0.2 1.4 0 1.9 0.9q1 1.9 1.9 3.8c0.2 0.4 0.3 0.5 0.8 0.4q1.8-0.5 3.6-1c0.9-0.2 1.3 0 1.9 0.8 0.5 0.8 1.1 1.6 1.6 2.5 0.3 0.5 0.6 0.6 1.2 0.5 1.6-0.4 3.3-0.7 5-1.1 0.8-0.1 1.3 0.1 1.7 0.7q1.9 2.4 3.7 4.8c0.2 0.2 0.5 0.5 0.8 0.5q6.2 0 12.5 0c0.2 0 0.5-0.2 0.5-0.3q0.8-1.9 1.5-3.8c-13.9-9.2-27.8-18.3-41.8-27.4zm-2.3-1.5c-0.3-0.1-0.4-0.2-0.6-0.3q-4.9-2.9-9.8-5.8c-2.3-1.3-4.5-0.8-6 1.4q-3 4.8-6.1 9.5c-1.4 2.3-0.9 4.8 1.5 6.2q4.8 2.8 9.5 5.5 0.3 0.2 0.7 0.4c3.6-5.6 7.2-11.2 10.8-16.9zm2.2 67.3c1.6-6.4 3.2-12.7 4.8-19.2-1.6 0-3.1 0-4.7 0-0.5 0-0.7 0.1-0.8 0.7q-1.7 6.6-3.3 13.2-0.7 2.6-1.4 5.3c1.9 0 3.6 0 5.4 0zm24.8-19.2c1.6 6.5 3.2 12.8 4.8 19.2 1.8 0 3.6 0 5.4 0q-0.6-2.7-1.3-5.2-1.7-6.7-3.4-13.4c0-0.3-0.3-0.6-0.5-0.6-1.6 0-3.2 0-5 0z"/>
					<path id="&lt;Path&gt;" class="s1" d="m380.6 83.2c0 0.7-0.6 1.3-1.3 1.3h-0.1c-0.7 0-1.3-0.6-1.3-1.3 0-0.7 0.6-1.3 1.3-1.3h0.1c0.7 0 1.3 0.6 1.3 1.3z"/>
					<path id="&lt;Path&gt;" class="s1" d="m378 94.2c0 0.7-0.6 1.3-1.3 1.3h-0.1c-0.7 0-1.3-0.6-1.3-1.3 0-0.8 0.6-1.4 1.3-1.4h0.1c0.7 0 1.3 0.6 1.3 1.4z"/>
					<path id="&lt;Path&gt;" class="s1" d="m381.7 87.4c0.8 0 1.4 0.6 1.4 1.3 0 0.7-0.6 1.3-1.4 1.3-0.7 0-1.3-0.6-1.3-1.3 0-0.7 0.6-1.3 1.3-1.3z"/>
					<path id="&lt;Path&gt;" class="s1" d="m379.1 97.3c0-0.7 0.5-1.3 1.3-1.3 0.8 0 1.3 0.6 1.3 1.3 0 0.7-0.5 1.3-1.3 1.3-0.8 0-1.3-0.6-1.3-1.3z"/>
					<path id="&lt;Path&gt;" class="s1" d="m375.1 100c0 0.8-0.6 1.3-1.4 1.3-0.7 0-1.3-0.5-1.3-1.3 0-0.7 0.6-1.3 1.3-1.3 0.8 0 1.4 0.6 1.4 1.3z"/>
					<path id="&lt;Path&gt;" class="s1" d="m384.7 99.5c-0.7 0-1.3-0.5-1.3-1.3 0-0.7 0.6-1.3 1.3-1.3 0.7 0 1.3 0.6 1.3 1.3 0 0.8-0.6 1.3-1.3 1.3z"/>
					<path id="&lt;Compound Path&gt;" fill-rule="evenodd" class="s1" d="m339.6 36.5c0.2-0.8 0.4-1.5 0.8-2.2 0.8-1.3 1.6-2.5 2.5-3.8 1.2-1.8 3.5-2.3 5.4-1.2q2.3 1.3 4.6 2.7c0.9 0.6 1 1.3 0.5 2.2q-2.7 4-5.3 7.9-0.9 1.3-2.1 0.5-2.2-1.3-4.3-2.6c-1.3-0.8-1.9-2-2.1-3.5zm10.8-2.8c-1.2-0.7-2.3-1.4-3.4-2-0.7-0.4-1.4-0.3-1.8 0.4q-1.3 1.8-2.5 3.7c-0.4 0.7-0.3 1.4 0.3 1.8 1.1 0.7 2.3 1.4 3.4 2.1 1.3-2 2.6-4 4-6z"/>
				</g>
				<g id="&lt;Group&gt;">
					<path id="&lt;Compound Path&gt;" fill-rule="evenodd" class="s1" d="m517.5 46.7c-0.8-1.6-1.6-3-2.3-4.6-1.6-3.5-2.8-7.1-2.7-10.9 0.1-4.6 1.7-8.4 5.9-10.7 6.8-3.8 16.8-0.4 17.6 9.4 0.4 4.3-0.8 8.3-2.5 12.2-0.7 1.5-1.6 3-2.4 4.6q0.3 0.1 0.7 0.3 7.5 3 14.9 6c0.4 0.2 0.8 0.5 1 0.9q3 5.1 6 10.2c0.6 1 0.4 1.6-0.6 2.1q-0.7 0.4-1.4 0.6c-0.5 0.2-0.7 0.5-0.7 1q0 6.8 0 13.6 0 4.5 0 9c0 1.2-0.2 1.5-1.3 1.9q-12.3 4.5-24.5 8.9c-0.5 0.2-1.2 0.2-1.7 0q-12.3-4.4-24.6-8.9c-1.1-0.4-1.3-0.7-1.3-1.9q0-11.3 0-22.5c0-0.7-0.2-1-0.8-1.1q-0.7-0.2-1.3-0.6c-1-0.5-1.2-1.1-0.6-2.1q1.3-2.3 2.7-4.6c1.1-1.9 2.1-3.7 3.3-5.5 0.2-0.4 0.7-0.8 1.1-1q7.5-3.1 15-6.1 0.2-0.1 0.5-0.2zm-17.2 21.5c0 0.4 0 0.6 0 0.8q0 10.1 0 20.2c0 0.5 0.2 0.8 0.7 1q8.4 3 16.8 6.1c1.7 0.6 3.4 1.2 5.1 1.8 0-9.9 0-19.7 0-29.6-0.2 0.3-0.4 0.5-0.5 0.7q-1.5 2.5-2.9 5c-0.7 1.1-1.2 1.3-2.3 0.8q-8-3.2-16-6.4c-0.2-0.1-0.5-0.2-0.9-0.4zm25.4 29.9c0.2-0.1 0.4-0.1 0.6-0.2q10.7-3.9 21.4-7.8c0.5-0.1 0.6-0.4 0.6-0.8q0-10.2 0-20.4c0-0.2 0-0.4 0-0.7-0.3 0.2-0.6 0.2-0.8 0.3q-8.1 3.3-16.1 6.5c-1.1 0.5-1.6 0.3-2.3-0.8q-1.5-2.6-3-5.1c-0.1-0.2-0.2-0.3-0.4-0.6 0 9.9 0 19.7 0 29.6zm-1.4-46c0.2-0.3 0.4-0.4 0.5-0.6q4.2-5.7 6.8-12.3c0.9-2.4 1.7-4.9 1.9-7.5 0.4-6.5-5.6-11.4-11.9-9.6-4.1 1.3-6.8 5.2-6.3 9.5 0.2 2.4 0.8 4.8 1.5 7.1 1.3 4.5 4 8.3 6.6 12.1 0.2 0.4 0.5 0.8 0.9 1.3zm-18.4 2.3c0.2 0.1 0.3 0.1 0.4 0.2q8.8 3.5 17.6 7c0.3 0.1 0.7 0.1 1 0q5.4-2.2 10.9-4.4c2.3-0.9 4.5-1.9 6.9-2.8-4.4-1.8-8.7-3.6-12.9-5.3-1.4 2-2.7 3.8-4.1 5.7q-1.4 1.9-2.8 0c-1.4-1.9-2.7-3.7-4-5.7q-6.4 2.6-13 5.3zm16.4 9.6c-6.5-2.7-13-5.3-19.5-7.9-1.7 2.8-3.2 5.4-4.8 8.2 6.5 2.6 13 5.2 19.5 7.9 1.6-2.8 3.2-5.5 4.8-8.2zm23.5-7.9c-6.5 2.6-13 5.2-19.5 7.9 1.6 2.7 3.2 5.4 4.8 8.2 6.6-2.7 13-5.3 19.5-7.9-1.6-2.8-3.1-5.4-4.8-8.2z"/>
					<path id="&lt;Compound Path&gt;" fill-rule="evenodd" class="s1" d="m524.3 36.4c-3 0-5.5-2.5-5.5-5.6-0.1-3 2.5-5.6 5.5-5.6 3 0 5.5 2.6 5.5 5.6 0 3-2.5 5.5-5.5 5.6zm0-8.4c-1.5 0-2.8 1.2-2.8 2.7 0 1.6 1.2 2.9 2.8 2.9 1.5 0 2.8-1.2 2.8-2.8 0-1.6-1.3-2.8-2.8-2.8z"/>
				</g>
				<g id="&lt;Group&gt;">
					<path id="&lt;Path&gt;" class="s1" d="m674.8 16.3q-0.4-1.9-0.9-3.8c-0.2-0.9 0.1-1.6 0.9-1.8 0.8-0.2 1.5 0.2 1.8 1.1q0.9 3.9 1.8 7.7c0.3 1-0.2 1.7-1 1.8-0.8 0.2-1.4-0.2-1.6-1.1q-0.5-1.9-1-3.9z"/>
					<path id="&lt;Path&gt;" class="s1" d="m682.7 16q0.6-1.9 1.2-3.8c0.3-0.8 1-1.2 1.8-1 0.8 0.2 1.1 1 0.8 1.9q-1.2 3.7-2.5 7.5c-0.3 0.9-1 1.3-1.8 1-0.7-0.3-1-1-0.8-1.9q0.7-1.9 1.3-3.7z"/>
					<path id="&lt;Path&gt;" class="s1" d="m668.1 21.8q-1.3-1.4-2.7-2.9c-0.6-0.6-0.7-1.4-0.1-2 0.6-0.6 1.4-0.6 2.1 0.1q2.7 2.9 5.5 5.8c0.6 0.6 0.6 1.5 0 2-0.6 0.6-1.4 0.5-2-0.2q-1.4-1.4-2.8-2.8z"/>
					<path id="&lt;Compound Path&gt;" fill-rule="evenodd" class="s1" d="m708.3 65.2c1.4 7.2 2.7 14.4 4.2 21.7 2.6-0.5 5.3-1 7.9-1.5 0.3 1.1 0.5 2.2 0.8 3.4-6.5 1.3-13 2.5-19.5 3.8-0.3-1.1-0.5-2.2-0.7-3.4 2.6-0.5 5.2-1 7.9-1.6-0.4-2.3-0.8-4.6-1.3-6.9q-1.4-7.1-2.7-14.1c-0.1-0.5-0.2-0.7-0.8-0.8-6.6-0.1-11.5-4.3-12.8-10.7q-2.6-13.1-5.1-26.3c0 0 0-0.1 0-0.3 8.4-1.7 16.8-3.3 25.3-4.9q0.3 1.6 0.6 3.2c1.6 7.9 3.2 15.8 4.6 23.7 1.2 6.3-2 12.1-8 14.5-0.1 0-0.2 0.1-0.4 0.2zm-15.7-22.1q0 0.4 0.1 0.7c0.7 3.6 1.4 7.3 2.1 11 0.9 5 5.8 8.3 10.9 7.5 4.9-0.8 8.5-5.6 7.7-10.5-0.3-1.9-0.7-3.7-1-5.5q-0.3-1.6-0.6-3.2c-6.5 0-12.8 0-19.2 0zm-2.4-11.8c0.5 2.5 1 5 1.5 7.5 0.1 0.6 0.3 0.7 0.9 0.7q8.8 0 17.7 0 0.3 0 0.8 0c-0.8-4-1.6-7.9-2.3-11.8-6.2 1.2-12.4 2.4-18.6 3.6z"/>
					<path id="&lt;Compound Path&gt;" fill-rule="evenodd" class="s1" d="m637.4 97.6c0.2-1.2 0.5-2.3 0.7-3.4 2.7 0.5 5.4 1 8.1 1.5 1.4-7.3 2.7-14.5 4.1-21.6-1.3-0.7-2.6-1.3-3.7-2.2-4.2-3.4-5.7-7.7-4.7-13 1.6-8.6 3.3-17.3 5-25.9q0.1-0.3 0.2-0.7c8.5 1.7 16.9 3.3 25.3 5-0.3 1.8-0.7 3.5-1 5.3-1.4 7.2-2.8 14.4-4.2 21.5-1.3 6.3-6.3 10.4-12.7 10.5-0.2 0-0.4 0-0.7 0-1.4 7.3-2.8 14.5-4.2 21.7 2.7 0.6 5.3 1.1 8 1.6-0.2 1.2-0.5 2.3-0.7 3.4-6.5-1.2-13-2.5-19.5-3.7zm9.4-45.7q-0.3 1.7-0.7 3.3c-0.3 2-0.9 3.9-1 5.9-0.4 5 3.3 9.3 8.1 10 5 0.6 9.6-2.7 10.6-7.7q0.8-4 1.5-8.1 0.4-1.7 0.7-3.4c-6.4 0-12.8 0-19.2 0zm3-15.5c-0.8 4-1.5 7.9-2.3 11.8 6.5 0 12.8 0 19.2 0q0.8-4.1 1.6-8.2c-6.2-1.2-12.3-2.4-18.5-3.6z"/>
				</g>
				<g id="&lt;Group&gt;">
					<g id="&lt;Group&gt;">
						<path id="&lt;Compound Path&gt;" fill-rule="evenodd" class="s1" d="m-258.7 41.7c2.8 0 5.7 0 8.5 0 5.2 0 9.6 3.9 10.2 9.1 0.5 5.5-3.4 10.4-8.7 11.1q-0.8 0.1-1.6 0.1-5 0.1-10.1 0c-0.4 0-0.7 0.2-0.9 0.5q-1 1.6-2.1 3c-0.4 0.6-0.7 0.6-1.1 0q-1.1-1.5-2.1-3.1c-0.2-0.2-0.4-0.4-0.7-0.4-5.3 0-9.5-3.7-10.2-9-0.7-5.3 3.4-10.6 8.7-11.2q0.8-0.1 1.6-0.1 4.2 0 8.5 0zm-0.5 6q1.9 0 3.9 0 2.3 0 4.7 0c0.7 0 1.1-0.4 1.1-1 0-0.6-0.4-1-1.1-1q-0.1 0-0.2 0-8.4 0-16.8 0-0.2 0-0.4 0c-0.7 0.1-1.1 1-0.7 1.6 0.3 0.3 0.6 0.4 1.1 0.4q4.2 0 8.4 0zm-5.5 5.2q-0.3 0-0.7 0-3.2 0-6.5 0c-0.7 0-1.1 0.5-1.1 1.2 0.1 0.5 0.5 0.9 1.2 0.9q4.4 0 8.8 0 2.7 0 5.4 0c0.5 0 0.9-0.2 1.1-0.6 0.4-0.7-0.1-1.5-1-1.5q-3.6 0-7.2 0zm-3.3-3.6q-2.9 0-5.8 0c-0.7 0-1.2 0.4-1.2 1 0 0.6 0.5 1 1.2 1q5.7 0 11.5 0c0.7 0 1.2-0.4 1.2-1 0-0.6-0.5-1-1.2-1q-2.9 0-5.7 0zm5.9 7.3q-2.4 0-4.8 0c-0.7 0-1.1 0.4-1.1 1 0 0.6 0.4 1 1.1 1q0.2 0 0.5 0 4.4 0 8.8 0 0.2 0 0.4 0c0.6 0 1-0.5 1-1 0-0.6-0.4-1-1.1-1q-2.4 0-4.8 0z"/>
						<path id="&lt;Compound Path&gt;" fill-rule="evenodd" class="s1" d="m-236 17.3c3.1 0 6.2-0.1 9.3 0 4.8 0.2 9 4.2 9.6 9 0.6 5.5-2.8 10.4-8.2 11.6-0.6 0.1-1.4 0.2-2.1 0.2-0.3 0.1-0.5 0.2-0.7 0.5q-0.9 1.3-1.9 2.6c-0.6 0.9-1.5 0.9-2.2 0q-0.9-1.3-1.8-2.7c-0.2-0.3-0.4-0.4-0.8-0.4q-4.9 0.1-9.7 0c-4.8 0-8.9-3.2-10.1-7.8-1.6-6.3 3-12.7 9.5-13 3.1-0.1 6.1 0 9.1 0q0 0 0 0zm4.9 22.9c0.6-0.9 1.2-1.7 1.7-2.5 0.5-0.8 1.1-1.1 2.1-1.1 6.4 0 10.7-6.8 8-12.6-1.7-3.5-4.5-5.2-8.3-5.3-5.5 0-10.9 0-16.3 0q-0.7 0-1.5 0.1c-5 0.4-8.8 5.4-7.9 10.4 0.9 4.4 4.5 7.4 9 7.4q5.1 0.1 10.2 0c0.4 0 0.6 0.1 0.8 0.4 0.7 1.1 1.5 2.1 2.2 3.2z"/>
						<path id="&lt;Path&gt;" class="s1" d="m-235.6 23.7q-4.1 0-8.2 0c-0.9 0-1.3-0.6-1-1.5 0.1-0.2 0.4-0.3 0.6-0.4 0.1-0.1 0.3 0 0.5 0q8.1 0 16.3 0c0.9 0 1.3 0.5 1 1.4-0.1 0.4-0.4 0.5-0.8 0.5q-2.7 0-5.3 0-1.5 0-3.1 0z"/>
						<path id="&lt;Path&gt;" class="s1" d="m-237.9 30.8q-3.5 0-6.9 0c-0.8 0-1-0.2-1-1 0-0.7 0.2-1 1-1q6.9 0 13.9 0.1c0.3 0 0.7 0.1 0.8 0.3 0.1 0.4 0.1 0.9 0 1.2-0.1 0.2-0.5 0.4-0.8 0.4q-3.5 0-7 0z"/>
						<path id="&lt;Path&gt;" class="s1" d="m-242.6 27.2q-2.8 0-5.6 0c-0.9 0-1.3-0.7-0.9-1.5 0.1-0.2 0.4-0.4 0.7-0.4 0.6-0.1 1.1-0.1 1.7-0.1q4.8 0 9.7 0c0.8 0 1 0.3 1 1 0 0.7-0.2 1-0.9 1q-2.9 0-5.7 0z"/>
						<path id="&lt;Path&gt;" class="s1" d="m-237.9 34q-2.3 0-4.7 0c-0.7 0-1-0.2-1-1 0.1-0.7 0.3-0.9 1-0.9q4.7 0 9.4 0c0.7 0 1 0.2 1 1 0 0.7-0.3 0.9-0.9 0.9q-2.4 0-4.8 0z"/>
					</g>
					<path id="&lt;Compound Path&gt;" fill-rule="evenodd" class="s1" d="m-318.4 43.6c0.2-3.5 1.7-6.3 4.8-8.1 2-1.3 4.1-2.4 6.1-3.5 1.9-1 4-0.5 5.2 1.3 3.4 5 6.7 10 10 14.9 0.3 0.6 0.3 1-0.1 1.5q-1.5 2.2-2.9 4.4c-1.7 2.6-1.6 6.1 0.4 8.5 4.7 5.7 9.9 11.1 15.8 15.7 2.3 1.8 4.8 1.9 7.2 0.3q2.5-1.7 5-3.4c0.6-0.4 1-0.4 1.6 0q7.3 4.9 14.7 9.9c2 1.3 2.4 3.5 1.2 5.5q-1.7 3-3.4 5.9c-2.2 3.8-5.8 5.4-10.1 4.7-4.7-0.9-8.9-2.7-13.1-4.7-5.9-2.9-10.9-6.9-15.6-11.2-5.3-4.8-10-10.1-14.6-15.4-3.9-4.5-7.1-9.3-9.3-14.7q-1.9-4.9-2.8-10.1c-0.1-0.4-0.1-0.9-0.1-1.5zm43 38q-2.7 0-4.8-1.7c-6.1-4.7-11.3-10.3-16.3-16.2-2.4-2.9-2.2-8.2-0.5-10.6 0.9-1.2 1.7-2.4 2.5-3.7 0.3-0.3 0.3-0.5 0.1-0.9q-4.7-7-9.3-14c-0.8-1.1-1.9-1.4-3-0.7-2 1-3.9 2.1-5.8 3.2-2.9 1.6-4.3 4.2-3.9 7.4 0.3 3.8 1.5 7.3 3 10.8 2.1 5 5.1 9.4 8.7 13.5 4.3 5 8.7 10 13.6 14.5 4.9 4.5 10 8.7 16.1 11.7 3.9 1.8 7.9 3.6 12.2 4.3 3.8 0.7 6.5-0.5 8.5-3.8q1.6-2.9 3.3-5.7 1.1-1.8-0.7-3-6.9-4.7-13.9-9.5c-0.4-0.2-0.6-0.2-1 0q-2.2 1.6-4.4 3.1-2 1.3-4.4 1.3z"/>
				</g>
				<g id="&lt;Group&gt;">
					<g id="&lt;Group&gt;">
						<path id="&lt;Compound Path&gt;" fill-rule="evenodd" class="s1" d="m233.9 49.3c0.2-0.7 0.3-1.4 0.6-2 1.4-4 5.5-6.5 9.7-5.9 4.4 0.6 7.7 4.1 7.9 8.5q0.1 0.7 0.1 1.4c0 13.3-0.1 26.6 0 40 0 3.6-1.2 6.5-4.2 8.5-1.9 1.4-4.1 1.5-6.4 1.5q-23.8 0-47.6 0-7.2 0-14.4 0c-1.3 0-1.7-0.4-1.7-1.7q0-24.3 0-48.5c0-1.4 0.4-1.8 1.8-1.8q26.6 0 53.2 0 0.5 0 1 0zm2.8 49.5c-2.1-2.1-2.9-4.6-2.9-7.4 0.1-13 0-25.9 0-38.8q0-0.4 0-0.7c-17.8 0-35.6 0-53.3 0 0 15.6 0 31.3 0 46.9 18.7 0 37.3 0 56.2 0zm-0.4-6.7c0 3.7 3 6.7 6.6 6.7 3.8 0 6.8-3 6.8-6.7 0-3.7-3-6.7-6.7-6.7-3.7 0-6.7 3-6.7 6.7z"/>
						<path id="&lt;Compound Path&gt;" fill-rule="evenodd" class="s1" d="m196.5 72.1c-4.1-3.2-2.6-9.1 2.1-10.4q-0.1-1.7 0-3.5c0-0.9 0.5-1.5 1.2-1.5 0.8 0 1.2 0.6 1.2 1.5q0.1 1.8 0 3.6 0.5 0.1 0.9 0.3c4 1.5 4.9 6.7 1.8 9.5-0.5 0.4-0.5 0.6-0.3 1.2q4 9.4 8 18.9 0.7 1.7-0.5 2.1c-0.8 0.4-1.4 0-1.9-1.2q-2.2-5.3-4.4-10.7c-0.2-0.5-0.5-0.6-1-0.6q-3.8 0-7.6 0c-0.5 0-0.7 0.1-0.9 0.6q-2.3 5.4-4.6 10.8 0 0.2-0.1 0.4c-0.4 0.7-1 1-1.7 0.8-0.6-0.3-0.9-1-0.6-1.7 0.2-0.8 0.6-1.5 0.9-2.2q3.6-8.7 7.3-17.4 0.1-0.2 0.2-0.5zm3.3-1.5c-1.2 2.8-2.3 5.5-3.4 8.1 2.3 0 4.5 0 6.8 0-1.1-2.7-2.2-5.3-3.4-8.1z"/>
						<path id="&lt;Compound Path&gt;" fill-rule="evenodd" class="s1" d="m216.2 74q0-7.2 0-14.4c0-2.4 1.3-3.7 3.8-3.7q1 0 2 0c1.9 0.1 3.3 1.5 3.3 3.3q0 1.7 0 3.3 0 13 0 25.9c0 0.7-0.1 1.2-0.5 1.8-1 1.2-1.9 2.5-2.8 3.8-0.8 1-1.7 1-2.4 0-1-1.3-1.9-2.5-2.8-3.9-0.3-0.4-0.5-1-0.6-1.6 0-4.8 0-9.7 0-14.5zm4.6 17.4c0.5-0.8 1-1.5 1.5-2.2 0.4-0.4 0.5-0.9 0.5-1.5q0-10.9 0-21.9 0-0.4 0-0.8c-1.4 0-2.7 0-4 0q-0.1 0.1-0.1 0.2 0 11.5 0 23c0 0.2 0.1 0.5 0.2 0.7 0.6 0.8 1.2 1.6 1.9 2.5zm2-29c0-1.1 0-2.1 0-3.1 0-0.6-0.3-0.9-0.9-0.9-0.7 0-1.5-0.1-2.3 0-0.3 0.1-0.8 0.4-0.8 0.7-0.1 1.1-0.1 2.2-0.1 3.3 1.4 0 2.7 0 4.1 0z"/>
						<path id="&lt;Path&gt;" class="s1" d="m243 87.8c2.4 0 4.3 1.9 4.3 4.3 0 2.4-1.9 4.3-4.3 4.3-2.4 0-4.3-1.9-4.3-4.3 0-2.4 1.9-4.3 4.3-4.3z"/>
					</g>
					<g id="&lt;Group&gt;">
						<path id="&lt;Compound Path&gt;" fill-rule="evenodd" class="s1" d="m203.6 19.2c2.9 0 5.7 0.1 8.6 0 5.1 0 9.6 3.9 10.1 9.2 0.6 5.5-3.3 10.3-8.6 11.1q-0.8 0.1-1.6 0.1-5.1 0-10.1 0c-0.5 0-0.7 0.1-1 0.5q-1 1.5-2 3c-0.4 0.6-0.7 0.6-1.1 0q-1.1-1.6-2.2-3.2c-0.1-0.2-0.3-0.3-0.6-0.3-5.4-0.1-9.5-3.8-10.2-9.1-0.7-5.3 3.3-10.5 8.7-11.2q0.8 0 1.6 0 4.2-0.1 8.4-0.1zm-0.5 6q2 0 3.9 0 2.4 0 4.8 0c0.6 0 1.1-0.4 1.1-1 0-0.5-0.5-1-1.1-1q-0.1 0-0.2 0-8.4 0-16.8 0-0.2 0-0.4 0c-0.8 0.2-1.1 1-0.7 1.6 0.3 0.4 0.6 0.4 1 0.4q4.2 0 8.4 0zm-5.4 5.3q-0.4 0-0.8 0-3.2 0-6.4 0c-0.7 0-1.2 0.4-1.1 1.1 0 0.6 0.5 0.9 1.2 0.9q4.4 0 8.8 0 2.7 0 5.4 0c0.5 0 0.8-0.1 1.1-0.5 0.4-0.7-0.1-1.5-1-1.5q-3.6 0-7.2 0zm-3.4-3.7q-2.8 0-5.7 0c-0.7 0-1.2 0.4-1.2 1.1 0 0.6 0.5 1 1.2 1q5.7 0 11.4 0c0.8 0 1.3-0.4 1.3-1.1-0.1-0.6-0.5-1-1.3-1q-2.8 0-5.7 0zm6 7.3q-2.4 0-4.8 0c-0.7 0-1.2 0.4-1.2 1 0 0.6 0.5 1 1.2 1q0.2 0 0.4 0 4.4 0 8.8 0 0.2 0 0.4 0c0.7 0 1.1-0.4 1.1-1 0-0.6-0.4-1-1.1-1q-2.4 0-4.8 0z"/>
						<path id="&lt;Compound Path&gt;" fill-rule="evenodd" class="s1" d="m226.4-5.2c3.1 0 6.2-0.1 9.2 0 4.9 0.2 9.1 4.2 9.6 9.1 0.7 5.5-2.7 10.3-8.1 11.5-0.7 0.2-1.4 0.2-2.1 0.3-0.4 0-0.6 0.1-0.8 0.4q-0.9 1.4-1.8 2.7c-0.6 0.9-1.5 0.9-2.2 0q-0.9-1.4-1.9-2.7c-0.2-0.3-0.4-0.4-0.7-0.4q-4.9 0-9.8 0c-4.7-0.1-8.8-3.3-10-7.9-1.7-6.3 3-12.7 9.5-13 3-0.1 6.1 0 9.1 0q0 0 0 0zm4.9 22.9c0.6-0.8 1.2-1.6 1.7-2.4 0.4-0.9 1-1.1 2-1.1 6.4-0.1 10.7-6.8 8-12.6-1.6-3.5-4.4-5.3-8.3-5.3-5.4-0.1-10.8 0-16.2 0q-0.8 0-1.5 0c-5 0.5-8.8 5.5-7.9 10.5 0.8 4.4 4.4 7.4 8.9 7.4q5.2 0 10.3 0c0.4 0 0.6 0.1 0.8 0.4 0.7 1 1.4 2 2.2 3.1z"/>
						<path id="&lt;Path&gt;" class="s1" d="m226.8 1.3q-4.1 0-8.2 0c-0.9 0-1.4-0.7-1-1.5 0.1-0.2 0.4-0.4 0.6-0.5 0.1 0 0.3 0 0.4 0q8.2 0 16.3 0c1 0 1.4 0.6 1.1 1.5-0.1 0.4-0.5 0.5-0.9 0.5q-2.6 0-5.2 0-1.6 0-3.1 0z"/>
						<path id="&lt;Path&gt;" class="s1" d="m224.5 8.3q-3.5 0-7 0c-0.7 0-0.9-0.2-0.9-0.9 0-0.8 0.2-1 0.9-1q7 0 13.9 0c0.3 0 0.8 0.2 0.9 0.4 0.1 0.3 0.1 0.8 0 1.2-0.1 0.2-0.5 0.3-0.8 0.3q-3.5 0-7 0z"/>
						<path id="&lt;Path&gt;" class="s1" d="m219.8 4.7q-2.8 0-5.6 0c-0.9 0-1.4-0.6-1-1.5 0.1-0.2 0.5-0.4 0.8-0.4 0.5-0.1 1.1 0 1.7 0q4.8 0 9.6 0c0.8 0 1.1 0.2 1.1 1 0 0.7-0.3 0.9-1 0.9q-2.8 0-5.6 0z"/>
						<path id="&lt;Path&gt;" class="s1" d="m224.5 11.6q-2.4 0-4.7 0c-0.8 0-1-0.3-1-1 0-0.7 0.3-1 1-1q4.7 0 9.4 0c0.7 0 0.9 0.3 0.9 1 0 0.7-0.2 1-0.9 1q-2.3 0-4.7 0z"/>
					</g>
				</g>
				<path id="&lt;Compound Path&gt;" class="s1" d="m-579.9 181.4h-0.2l-15.8 8.5-2.4-9.3 19.8-10.7h10.5v91h-11.9z"/>
				<path id="&lt;Compound Path&gt;" class="s1" d="m-458.8 260.9v-7.6l9.7-9.4c23.2-22.1 33.7-33.8 33.8-47.5 0-9.2-4.4-17.8-18-17.8-8.3 0-15.1 4.2-19.3 7.7l-3.9-8.7c6.3-5.3 15.2-9.2 25.7-9.2 19.6 0 27.8 13.4 27.8 26.4 0 16.8-12.1 30.4-31.3 48.9l-7.3 6.7v0.3h40.9v10.2z"/>
				<path id="&lt;Compound Path&gt;" class="s1" d="m-292.8 246.7c3.5 2.3 11.6 5.8 20.2 5.8 15.8 0 20.7-10.1 20.5-17.7-0.1-12.7-11.6-18.1-23.5-18.1h-6.8v-9.3h6.8c9 0 20.3-4.6 20.3-15.4 0-7.2-4.6-13.7-15.9-13.7-7.3 0-14.3 3.3-18.2 6.1l-3.2-9c4.7-3.5 14-7 23.8-7 17.9 0 26 10.6 26 21.7 0 9.4-5.6 17.3-16.8 21.4v0.3c11.2 2.2 20.3 10.6 20.3 23.3 0 14.6-11.4 27.3-33.2 27.3-10.2 0-19.1-3.2-23.6-6.2z"/>
				<path id="&lt;Compound Path&gt;" fill-rule="evenodd" class="s1" d="m-92.7 260.9v-24.8h-42.2v-8.1l40.5-58.1h13.3v56.6h12.8v9.6h-12.8v24.8zm0-34.4v-30.4q0-7.1 0.5-14.3h-0.5c-2.8 5.4-5 9.3-7.5 13.5l-22.3 30.9v0.3z"/>
				<path id="&lt;Compound Path&gt;" class="s1" d="m85.1 180.3h-34.7l-3.5 23.4c2.1-0.3 4-0.6 7.4-0.6 7 0 14 1.5 19.6 4.9 7.1 4.1 13 11.9 13 23.4 0 17.7-14.1 31-33.9 31-9.9 0-18.3-2.8-22.6-5.6l3.1-9.4c3.7 2.3 11.2 5.1 19.4 5.1 11.6 0 21.6-7.6 21.6-19.7-0.2-11.8-8-20.2-26.2-20.2-5.2 0-9.2 0.6-12.6 1l5.9-43.7h43.5z"/>
				<path id="&lt;Compound Path&gt;" fill-rule="evenodd" class="s1" d="m237.3 178.6c-2.5-0.1-5.7 0-9.2 0.6-19.3 3.2-29.5 17.3-31.6 32.3h0.4c4.3-5.7 11.9-10.5 21.9-10.5 16.1 0 27.5 11.6 27.5 29.4 0 16.6-11.4 32-30.3 32-19.4 0-32.1-15.1-32.1-38.7 0-17.9 6.4-32.1 15.4-41 7.5-7.4 17.6-12.1 29-13.5 3.7-0.5 6.8-0.7 9-0.7zm-3.5 52.5c0-13-7.4-20.8-18.7-20.8-7.5 0-14.3 4.6-17.7 11.2-0.8 1.4-1.4 3.2-1.4 5.4 0.3 15 7.2 26 20 26 10.7 0 17.8-8.8 17.8-21.8z"/>
				<path id="&lt;Compound Path&gt;" class="s1" d="m400.3 169.9v8.2l-39.6 82.8h-12.7l39.5-80.5v-0.2h-44.5v-10.3z"/>
				<path id="&lt;Compound Path&gt;" fill-rule="evenodd" class="s1" d="m493.6 237.8c0-11.5 6.9-19.6 18-24.4l-0.1-0.4c-10.1-4.7-14.4-12.6-14.4-20.4 0-14.4 12.2-24.2 28.1-24.2 17.6 0 26.4 11.1 26.4 22.4 0 7.7-3.7 15.9-14.9 21.3v0.4c11.3 4.4 18.3 12.4 18.3 23.5 0 15.8-13.6 26.4-30.9 26.4-19 0-30.5-11.3-30.5-24.6zm49-0.6c0-11-7.7-16.3-20-19.8-10.7 3-16.4 10-16.4 18.7-0.4 9.2 6.6 17.4 18.2 17.4 11 0 18.2-6.9 18.2-16.3zm-33.9-45.4c0 9.1 6.9 14 17.3 16.8 7.9-2.7 13.9-8.3 13.9-16.6 0-7.2-4.3-14.8-15.4-14.8-10.2 0-15.8 6.7-15.8 14.6z"/>
				<path id="&lt;Compound Path&gt;" fill-rule="evenodd" class="s1" d="m656.4 252.2c2.7 0.3 5.7 0 9.9-0.4 7.2-1 13.9-3.9 19.1-8.8 6-5.5 10.3-13.5 12-24.2h-0.4c-5.1 6.1-12.3 9.8-21.4 9.8-16.4 0-26.9-12.4-26.9-27.9 0-17.2 12.5-32.3 31.1-32.3 18.6 0 30 15.1 30 38.3 0 20-6.7 34-15.6 42.7-7 6.8-16.7 11-26.5 12.2-4.4 0.7-8.4 0.8-11.3 0.7zm4.5-52.3c0 11.3 6.8 19.3 17.5 19.3 8.2 0 14.7-4.1 17.9-9.6 0.7-1.1 1.1-2.5 1.1-4.4 0-15.6-5.7-27.4-18.6-27.4-10.5 0-17.9 9.2-17.9 22.1z"/>
				<text id="PROCESO DE DISEÑO
CO-CREATIVO
" style="transform: matrix(1,0,0,1,162.894,327.587)" >
					<tspan x="-71.1" y="0" class="t2">PROCESO DE DISEÑO
</tspan>
					<tspan x="-45.4" y="14.4" class="t2">CO-CREATIVO
</tspan>
				</text>
				<text id="IDENTIFICA LA
NECESIDAD Y EL 
ESPACIO A TRANSFORMA" style="transform: matrix(1,0,0,1,-634.92,327.587)" >
					<tspan x="-48.6" y="0" class="t2">IDENTIFICA LA
</tspan>
					<tspan x="-57.3" y="14.4" class="t2">NECESIDAD Y EL 
</tspan>
					<tspan x="-89.2" y="28.8" class="t2">ESPACIO A TRANSFORMAR
</tspan>
				</text>
				<text id="ESCRÍBENEOS POR 
INSTAGRAM, 
WATSAP, O CORREO 
" style="transform: matrix(1,0,0,1,-475.357,327.587)" >
					<tspan x="-65.2" y="0" class="t2">ESCRÍBENEOS POR 
</tspan>
					<tspan x="-44.4" y="14.4" class="t2">INSTAGRAM, 
</tspan>
					<tspan x="-68.5" y="28.8" class="t2">WATSAP, O CORREO 
</tspan>
				</text>
				<text id="ENTREVISTA
TELEFÓNICA
" style="transform: matrix(1,0,0,1,-315.795,327.587)" >
					<tspan x="-41.4" y="0" class="t2">ENTREVISTA
</tspan>
					<tspan x="-41.6" y="14.4" class="t2">TELEFÓNICA
</tspan>
				</text>
				<text id="VISITA A DOMICILIO,
ENTREVISTA PERSONAL Y 
MEDICIÓ" style="transform: matrix(1,0,0,1,-156.232,327.587)" >
					<tspan x="-68.7" y="0" class="t2">VISITA A DOMICILIO,
</tspan>
					<tspan x="-88" y="14.4" class="t2">ENTREVISTA PERSONAL Y 
</tspan>
					<tspan x="-70" y="28.8" class="t2">MEDICIÓN DE LUGAR
</tspan>
				</text>
				<text id="ENTREGA DE 
PRESUPUESTO
" style="transform: matrix(1,0,0,1,3.331,327.587)" >
					<tspan x="-44.8" y="0" class="t2">ENTREGA DE 
</tspan>
					<tspan x="-49.2" y="14.4" class="t2">PRESUPUESTO
</tspan>
				</text>
				<text id="FABRICACIÓN
DEL PROYECTO
" style="transform: matrix(1,0,0,1,322.456,327.587)" >
					<tspan x="-45.3" y="0" class="t2">FABRICACIÓN
</tspan>
					<tspan x="-50.9" y="14.4" class="t2">DEL PROYECTO
</tspan>
				</text>
				<text id="ENTREGA E INSTALACIÓN
INSTALACIÓN
" style="transform: matrix(1,0,0,1,482.019,327.587)" >
					<tspan x="-84.8" y="0" class="t2">ENTREGA E INSTALACIÓN
</tspan>
					<tspan x="-45.1" y="14.4" class="t2">INSTALACIÓN
</tspan>
				</text>
				<text id="DISFRUTA TU 
NUEVO MUEBLE
" style="transform: matrix(1,0,0,1,641.581,327.587)" >
					<tspan x="-46.5" y="0" class="t2">DISFRUTA TU 
</tspan>
					<tspan x="-53.2" y="14.4" class="t2">NUEVO MUEBLE
</tspan>
				</text>
				<g id="&lt;Group&gt;">
					<g id="&lt;Group&gt;">
						<path id="&lt;Compound Path&gt;" fill-rule="evenodd" class="s1" d="m29.2 98.4c-1.1 0-2.1 0-3.1 0-1.2 0-1.8-0.6-1.8-1.8q0-0.6 0-1.3-0.7 0-1.3 0-1 0-2.1 0c-0.8-0.1-1.4-0.6-1.4-1.4q0-0.2 0-0.4 0-15.9 0-31.8 0-0.2 0-0.4c0.1-0.8 0.6-1.4 1.4-1.4q1.5 0 2.9 0 0.2 0 0.5 0 0-0.7 0-1.4c0-1.1 0.6-1.7 1.7-1.7q1.5 0 3.2 0 0-0.7 0-1.3c0-1.1 0.6-1.6 1.6-1.6q9.5 0 18.9-0.1 0.8 0 1.3 0.6 6 6 11.9 11.9 0.6 0.6 0.6 1.3 0 16.1 0 32.2c0 1-0.6 1.5-1.6 1.5q-15.6 0-31.1 0c-1 0-1.6-0.6-1.6-1.6q0-0.6 0-1.3zm31.3-29.5q-0.3 0-0.5 0-4.9 0-9.8 0c-1.3 0-1.8-0.5-1.8-1.8q0-4.9 0-9.8 0-0.3 0-0.5c-5.5 0-10.9 0-16.3 0q0 20.8 0 41.6 14.2 0 28.4 0c0-9.8 0-19.6 0-29.5zm-33.2-9.2q0 17.9 0 35.7 0.9 0 1.8 0 0-17.8 0-35.7c-0.6 0-1.2 0-1.8 0zm-4.9 3.2q0 14.7 0 29.4 1 0 1.9 0 0-14.7 0-29.4c-0.6 0-1.2 0-1.9 0zm35.9 3.1q-3.5-3.5-7-7 0 3.4 0 7 3.6 0 7 0z"/>
						<path id="&lt;Path&gt;" class="s1" d="m46.3 82.4q4.3 0 8.5 0.1c1.1 0 1.8 0.9 1.4 1.9-0.2 0.6-0.7 1-1.4 1q-2 0-3.9 0-6.5 0-12.9 0c-1 0-1.6-0.6-1.6-1.5 0-0.8 0.6-1.4 1.4-1.4q1.9-0.1 3.9-0.1 2.3 0 4.6 0z"/>
						<path id="&lt;Path&gt;" class="s1" d="m46.4 92.6q-4.3 0-8.5 0c-1.1 0-1.9-1.1-1.4-2q0.4-0.9 1.4-0.9 3.1 0 6.1 0 5.4 0 10.8 0 0.9 0 1.3 0.7 0.4 0.8 0 1.5c-0.4 0.5-0.8 0.7-1.4 0.7q-4.2 0-8.3 0z"/>
						<path id="&lt;Path&gt;" class="s1" d="m46.3 78.1q-4.1 0-8.3 0c-1 0-1.7-0.6-1.6-1.5 0-0.7 0.5-1.3 1.2-1.4q0.2 0 0.4 0 8.3 0 16.7 0c0.7 0 1.2 0.3 1.5 0.9 0.4 0.9-0.2 1.8-1.1 2q-0.3 0-0.6 0-4.1 0-8.2 0z"/>
					</g>
					<path id="&lt;Path&gt;" class="s3" d="m72.4 48.6h-8.7c-3.5 0-6.4-2.9-6.4-6.4v-8.7c0-3.6 2.9-6.4 6.4-6.4h8.7c3.5 0 6.4 2.8 6.4 6.4v8.7c0 3.5-2.9 6.4-6.4 6.4z"/>
					<g id="&lt;Group&gt;">
						<g id="&lt;Group&gt;">
							<path id="&lt;Path&gt;" class="s1" d="m63.8 36.9c1 1.3 2.5 4.7 4.6 4.6 2.6-0.2 4.6-6.5 5.7-8.3 5.7-9.4 13.2-17.6 23.1-22.8 1.4-0.7 0.2-2.9-1.3-2.1-6.7 3.5-12.5 8.4-17.4 14.3-2.2 2.7-4.3 5.6-6.1 8.6-1.2 1.8-2.1 4.5-3.5 6q-0.5 2.6-1.3 0.7-0.8-1.1-1.6-2.3c-1-1.3-3.1 0-2.2 1.3z"/>
						</g>
					</g>
				</g>
				<g id="&lt;Group&gt;">
					<path id="&lt;Compound Path&gt;" fill-rule="evenodd" class="s1" d="m-411.3 23.2c-3.2-0.1-5.6-0.5-8-1.3-0.3-0.2-0.8-0.2-1.1-0.1q-5.4 1.9-10.8 3.7-0.2 0.1-0.4 0.1c-1.1 0.4-1.6-0.1-1.4-1.3q0.4-2.6 0.9-5.3 0.6-3.6 1.2-7.2c0-0.3-0.1-0.6-0.2-0.8-5.8-12.7 1.6-27.1 15.3-29.7 11.4-2.2 22.7 5.6 24.6 17.1 1.9 11.3-5.3 21.9-16.5 24.3-1.4 0.3-2.8 0.4-3.6 0.5zm-0.2-18q0 0 0 0 0 1.2 0 2.5c0 0.8 0.3 1.2 1 1.2q0.8 0 0.9-1.2 0-2.1 0-4.2c0-0.4 0.2-0.7 0.5-1 0.9-0.7 1.9-1.5 2.6-2.3 1.3-1.4 2-3 2.1-4.9 0.2-2.9-1.8-5.6-4.9-6.8-5-2-10.4 1.8-10.2 7.1 0.1 0.6 0.4 1 1 1 0.6 0 0.9-0.3 0.9-1 0.1-0.5 0.1-1 0.2-1.5 0.5-2.2 2.2-3.9 4.4-4.2 2.5-0.4 4.5 0.7 5.9 2.7 1.4 1.8 0.9 3.8-0.2 5.6-0.9 1.3-2 2.3-3.3 3.1-0.7 0.4-0.9 0.8-0.9 1.5 0 0.8 0 1.6 0 2.4zm1.9 7.3c0-0.4 0.1-0.8 0-1.2 0-0.6-0.4-0.9-0.9-0.9-0.6 0-0.9 0.4-0.9 0.9q-0.1 1.2 0 2.3c0 0.6 0.3 0.9 0.9 0.9 0.5 0.1 0.9-0.3 0.9-0.9 0.1-0.3 0-0.7 0-1.1z"/>
					<g id="&lt;Group&gt;">
						<g id="&lt;Group&gt;">
							<path id="&lt;Compound Path&gt;" fill-rule="evenodd" class="s1" d="m-414.5 81.3h11c0.6 0 0.8 0.3 0.8 0.8q0 6.9 0 13.7 0 0.7-0.7 0.7h-22.2c-0.5 0-0.8-0.3-0.8-0.8v-13.5c0-0.6 0.4-0.9 0.9-0.9q5.5 0 11 0zm-10.6 0.6c0.5 0.4 0.9 0.7 1.3 1q2.2 1.8 4.4 3.5c1.5 1.2 3 2.3 4.4 3.5 0.3 0.3 0.4 0.2 0.6 0q1.2-0.9 2.4-1.8 1.1-0.8 2.2-1.7 1.3-1 2.6-2.1 1.6-1.1 3.2-2.4c-7-0.1-14 0.1-21.1 0zm-0.2 14h21.5q-0.5-0.3-0.8-0.5-1.9-1.4-3.8-2.8-2.1-1.5-4.2-3c-0.2-0.2-0.3-0.1-0.5 0q-0.7 0.5-1.4 1.1c-0.1 0.1-0.3 0.1-0.4 0-0.5-0.4-0.9-0.7-1.4-1.1-0.1-0.2-0.2-0.2-0.4-0.1q-0.5 0.5-1.1 0.9-1.8 1.3-3.7 2.7c-1.3 0.9-2.5 1.9-3.8 2.8zm22-13.9q-1.5 1.2-3 2.4-1.5 1.1-2.9 2.2-1.5 1.2-3 2.3c-0.2 0.1-0.2 0.2 0 0.3q1.9 1.4 3.9 2.8 2 1.5 4 3c0.4 0.2 0.6 0.5 1 0.6zm-22.5 13.6q0.1-0.1 0.2-0.1 1.3-1 2.6-1.9 2.9-2.2 5.9-4.3c0.1-0.1 0.2-0.2 0-0.3q-0.4-0.3-0.8-0.7-1-0.8-2.1-1.6-1.1-0.9-2.3-1.9-0.9-0.7-1.8-1.4-0.9-0.7-1.7-1.4z"/>
							<path id="&lt;Compound Path&gt;" fill-rule="evenodd" class="s4" d="m-414.5 81.3h11c0.6 0 0.8 0.3 0.8 0.8q0 6.9 0 13.7 0 0.7-0.7 0.7h-22.2c-0.5 0-0.8-0.3-0.8-0.8v-13.5c0-0.6 0.4-0.9 0.9-0.9q5.5 0 11 0zm-10.6 0.6c0.5 0.4 0.9 0.7 1.3 1q2.2 1.8 4.4 3.5c1.5 1.2 3 2.3 4.4 3.5 0.3 0.3 0.4 0.2 0.6 0q1.2-0.9 2.4-1.8 1.1-0.8 2.2-1.7 1.3-1 2.6-2.1 1.6-1.1 3.2-2.4c-7-0.1-14 0.1-21.1 0zm-0.2 14h21.5q-0.5-0.3-0.8-0.5-1.9-1.4-3.8-2.8-2.1-1.5-4.2-3c-0.2-0.2-0.3-0.1-0.5 0q-0.7 0.5-1.4 1.1c-0.1 0.1-0.3 0.1-0.4 0-0.5-0.4-0.9-0.7-1.4-1.1-0.1-0.2-0.2-0.2-0.4-0.1q-0.5 0.5-1.1 0.9-1.8 1.3-3.7 2.7c-1.3 0.9-2.5 1.9-3.8 2.8zm22-13.9q-1.5 1.2-3 2.4-1.5 1.1-2.9 2.2-1.5 1.2-3 2.3c-0.2 0.1-0.2 0.2 0 0.3q1.9 1.4 3.9 2.8 2 1.5 4 3c0.4 0.2 0.6 0.5 1 0.6zm-22.5 13.6q0.1-0.1 0.2-0.1 1.3-1 2.6-1.9 2.9-2.2 5.9-4.3c0.1-0.1 0.2-0.2 0-0.3q-0.4-0.3-0.8-0.7-1-0.8-2.1-1.6-1.1-0.9-2.3-1.9-0.9-0.7-1.8-1.4-0.9-0.7-1.7-1.4z"/>
						</g>
						<g id="&lt;Group&gt;">
							<path id="&lt;Compound Path&gt;" fill-rule="evenodd" class="s1" d="m-405.7 39.8q0.3 0.1 0.7 0.2c1.7 0.5 3 2.1 3 3.9q0 8.2 0 16.4c0 2.1-1.5 3.8-3.6 4.1q-0.3 0-0.5 0-8.3 0-16.5 0c-2 0-3.8-1.5-4-3.5q-0.1-0.3-0.1-0.6 0-8.2 0-16.4c0-2.1 1.5-3.8 3.6-4.1q0 0 0.1 0zm-8.7 2.1q-4 0-8.1 0c-1.3 0-2.1 0.8-2.1 2.1q0 8.1 0 16.3c0 1.2 0.9 2.1 2.1 2.1q8.1 0 16.3 0c1.2 0 2.1-0.9 2.1-2.1q0-8.2 0-16.3 0-0.3-0.1-0.6c-0.2-0.9-1-1.5-2-1.5q-4.1 0-8.2 0z"/>
							<path id="&lt;Compound Path&gt;" fill-rule="evenodd" class="s1" d="m-408.2 52.1c0 3.4-2.8 6.2-6.2 6.2-3.4 0-6.1-2.8-6.1-6.2 0-3.4 2.7-6.1 6.2-6.1 3.4 0 6.1 2.7 6.1 6.1zm-6.2-4.1c-2.2 0-4.1 1.9-4.1 4.1 0 2.3 1.9 4.1 4.1 4.1 2.3 0 4.1-1.8 4.1-4.1 0.1-2.2-1.8-4.1-4.1-4.1z"/>
							<path id="&lt;Path&gt;" class="s1" d="m-409.2 45.4c0-0.8 0.7-1.5 1.5-1.5 0.9 0 1.5 0.7 1.5 1.6 0 0.8-0.6 1.5-1.5 1.5-0.9 0-1.5-0.7-1.5-1.6z"/>
						</g>
						<g id="&lt;Group&gt;">
							<path id="&lt;Compound Path&gt;" fill-rule="evenodd" class="s1" d="m-468.6 101.3c0.7-2 1.4-4 2-5.9 0.1-0.3 0.1-0.7 0-1-4-7.3 0.3-16.3 8.5-17.7 6.7-1.2 13.1 3.2 14.2 10 1.1 6.3-3.1 12.3-9.4 13.7q-4.2 0.9-8.1-1c-0.2-0.1-0.6-0.1-0.9 0-2.1 0.6-4.1 1.3-6.3 1.9zm3.3-3.2c1.2-0.3 2.2-0.7 3.3-1 0.3-0.1 0.7 0 1 0.1 1.7 1 3.6 1.5 5.7 1.4 5.8-0.4 10.3-5.7 9.4-11.6-0.9-5.3-6.3-9.2-11.7-8.3-7.2 1.3-10.7 9.2-6.7 15.4 0.1 0.2 0.1 0.6 0.1 0.8-0.3 1.1-0.7 2.1-1.1 3.2z"/>
							<path id="&lt;Path&gt;" class="s1" d="m-459.8 82.6c0.7 0 1.1 0.3 1.3 0.9 0.1 0.6 0.3 1.2 0.6 1.7 0.3 0.7 0.1 1.1-0.3 1.6-0.7 0.8-0.7 0.8-0.1 1.7q1.3 2 3.5 3c0.4 0.2 0.7 0.2 0.9-0.2 0.2-0.2 0.5-0.4 0.6-0.6 0.4-0.6 0.8-0.7 1.4-0.3q0.9 0.5 1.9 1c0.4 0.2 0.5 0.5 0.4 1-0.3 1.5-2 2.6-3.6 2.2q-4.7-1.2-7.3-5.2c-0.7-1-1.3-2-1.5-3.2q-0.3-2 1.3-3.3c0.2-0.2 0.6-0.2 0.9-0.3z"/>
						</g>
						<g id="&lt;Group&gt;">
							<path id="&lt;Compound Path&gt;" fill-rule="evenodd" class="s1" d="m-444.3 44.5q-1 2.9-2 5.9-2 5.8-3.9 11.7c-0.5 1.6-2 2.5-3.7 2.3-1.3-0.2-2.2-1-2.7-2.3q-1.2-3.5-2.3-7c-0.1-0.2-0.2-0.3-0.3-0.3q-3.5-1.2-7-2.3c-1.5-0.5-2.4-1.8-2.4-3.3 0-1.4 0.9-2.7 2.4-3.1q4.8-1.6 9.5-3.2c2.8-0.9 5.5-1.9 8.2-2.8 2.2-0.6 4.4 1 4.4 3.2-0.1 0.4-0.1 0.8-0.2 1.2zm-3.6-2.2q-8.8 2.9-17.6 5.8c-0.7 0.3-1 0.9-0.8 1.6 0.1 0.3 0.4 0.5 0.8 0.7q3.6 1.2 7.3 2.4 0.3 0.1 0.6 0.2c0.3 0.1 0.5 0.4 0.6 0.7q1.2 3.8 2.5 7.6c0.3 0.8 1 1.2 1.6 0.8 0.4-0.2 0.5-0.5 0.6-0.8q1.9-5.5 3.7-11 1.1-3.3 2.2-6.6c0.2-0.8-0.3-1.5-1.1-1.5q-0.2 0-0.4 0.1z"/>
							<path id="&lt;Path&gt;" class="s1" d="m-446.8 35.3q0-0.7 0-1.4c0-0.7-0.5-1.2-1.1-1.2-0.6 0-1.1 0.5-1.1 1.2q0 1.4 0 2.7c0 0.7 0.5 1.2 1.1 1.2 0.6 0 1.1-0.5 1.1-1.2q0-0.7 0-1.3z"/>
							<path id="&lt;Path&gt;" class="s1" d="m-439.4 42.6q-0.7 0-1.4 0c-0.6 0-1.1 0.5-1.1 1.2 0 0.6 0.5 1.1 1.1 1.1q1.4 0 2.8 0c0.6 0 1.1-0.5 1.1-1.2 0-0.6-0.5-1.1-1.1-1.1q-0.7 0-1.4 0z"/>
							<path id="&lt;Path&gt;" class="s1" d="m-441 35.6c-0.2 0.1-0.5 0.2-0.7 0.4q-1 0.9-2 2c-0.4 0.4-0.4 1.1 0 1.5 0.5 0.5 1.1 0.5 1.6 0q1-1 2-2c0.3-0.3 0.4-0.8 0.2-1.2-0.2-0.4-0.5-0.6-1.1-0.7z"/>
							<path id="&lt;Path&gt;" class="s1" d="m-456.1 36.8c0.2 0.3 0.3 0.5 0.5 0.7q0.9 1 1.9 2c0.5 0.5 1.1 0.5 1.6 0 0.4-0.4 0.4-1.1 0-1.6q-1-1-2-1.9c-0.4-0.4-0.8-0.5-1.2-0.3-0.4 0.2-0.7 0.6-0.7 1.1q0 0-0.1 0z"/>
							<path id="&lt;Path&gt;" class="s1" d="m-440.9 51.9c0.5-0.1 0.8-0.3 1-0.7 0.2-0.4 0.2-0.8-0.2-1.2q-1-1-2.1-2.1c-0.4-0.4-1-0.3-1.4 0.1-0.5 0.4-0.5 1-0.1 1.4q1 1.2 2.1 2.2c0.2 0.2 0.5 0.2 0.7 0.3z"/>
						</g>
					</g>
				</g>
				<g id="&lt;Group&gt;">
					<g id="&lt;Group&gt;">
						<g id="&lt;Group&gt;">
							<path id="&lt;Compound Path&gt;" fill-rule="evenodd" class="s1" d="m-560 22.3q0.7 0 1.3 0c0.5 0 0.7 0.2 0.7 0.7q0 2.4 0 4.7c0 0.5-0.2 0.7-0.7 0.7q-1.4 0-2.9 0 0 1.1 0 2.1 0 0.6 0 1.2c0 0.3-0.2 0.6-0.6 0.5-0.3 0-0.4-0.2-0.4-0.5q0-1.4 0-2.8 0-0.2 0-0.5c-9.1 0-18.1 0-27.1 0q0 1.4 0 2.8 0 0.3 0 0.5c0 0.3-0.2 0.5-0.5 0.5-0.4 0-0.6-0.2-0.6-0.5q0-0.9 0-1.9c0-0.4 0-0.9 0-1.4q-0.2 0-0.4 0-1.2 0-2.5 0c-0.5 0-0.7-0.2-0.7-0.7q0-2.3 0-4.7c0-0.5 0.2-0.7 0.7-0.7q0.6 0 1.4 0c-0.4-0.6-0.6-1.2-0.4-1.9q0.3-1.4 1.6-1.9c0.3-0.1 0.3-0.3 0.3-0.5q0-1.4 0-2.7c0-1.4 1-2.3 2.4-2.3q12.2 0 24.4 0c1.5 0 2.4 0.9 2.4 2.4q0 1.3 0 2.6c0 0.2 0 0.4 0.3 0.5 1.6 0.6 2.1 2.1 1.4 3.6-0.1 0.1-0.1 0.1-0.1 0.2zm-2.6-4q0-1.4 0-2.7c0-1.2-0.4-1.5-1.6-1.5q-12 0-24 0-0.2 0-0.4 0c-0.6 0-1.1 0.4-1.1 1.1 0 1 0 2.1 0 3.2 0.8 0.2 1.5 0.7 1.8 1.5 0.3 0.8 0.2 1.6-0.2 2.4 8 0 15.9 0 23.8 0-0.8-1.5-0.3-3.3 1.7-4zm-30.7 9q17.1 0 34.2 0 0-2 0-3.9-17.1 0-34.2 0 0 1.8 0 3.6 0 0.1 0 0.3zm3-5c0.9 0 1.5-0.6 1.5-1.4 0-0.9-0.6-1.5-1.4-1.5-0.9 0-1.5 0.6-1.5 1.5 0 0.8 0.6 1.4 1.4 1.4zm28.2 0c0.8 0 1.4-0.6 1.5-1.4 0-0.8-0.7-1.5-1.5-1.5-0.8 0-1.5 0.6-1.5 1.4 0 0.9 0.6 1.5 1.5 1.5z"/>
							<path id="&lt;Compound Path&gt;" fill-rule="evenodd" class="s1" d="m-553.2 7.9c-0.9 0-1.7 0-2.6 0q0 1.1 0 2.1c0 0.2-0.1 0.4-0.3 0.6-0.1 0.1-0.3 0.1-0.5 0-0.1-0.1-0.2-0.3-0.3-0.5 0-0.7 0-1.4 0-2.2q-0.8 0-1.6 0c-0.7 0-0.9-0.2-0.6-0.9q1.3-4 2.6-7.9c0.1-0.4 0.4-0.6 0.8-0.6q3 0 6 0c0.5 0 0.7 0.2 0.8 0.6q1.4 4 2.7 8 0.3 0.8-0.6 0.8-2.4 0-4.8 0-0.2 0-0.5 0c0 7.8 0 15.5 0 23.3q0.9 0 1.8 0c0.6 0 0.8 0.2 0.8 0.5q0 0.6-0.7 0.6-2.5 0-4.9 0-0.1 0-0.3 0c-0.3-0.1-0.5-0.3-0.5-0.6 0-0.3 0.2-0.5 0.6-0.5q1 0 2.1 0 0-11.6 0-23.3zm5.8-1.1q0-0.1 0-0.1-1.2-3.4-2.3-6.9c-0.1-0.2-0.2-0.2-0.5-0.2q-2.5 0-5 0c-0.3 0-0.4 0.1-0.5 0.3q-0.6 2.1-1.3 4.1-0.5 1.4-1 2.8c3.6 0 7.1 0 10.6 0z"/>
							<path id="&lt;Compound Path&gt;" fill-rule="evenodd" class="s1" d="m-574.6 18.2c0 0.9-0.7 1.6-1.6 1.6-0.9-0.1-1.6-0.8-1.6-1.7 0.1-0.8 0.8-1.5 1.6-1.5 0.9 0 1.6 0.7 1.6 1.6zm-2.1 0c0 0.3 0.2 0.5 0.5 0.5 0.4 0 0.5-0.2 0.5-0.5 0-0.3-0.2-0.5-0.5-0.5-0.3 0-0.5 0.2-0.5 0.5z"/>
							<path id="&lt;Compound Path&gt;" fill-rule="evenodd" class="s1" d="m-581.1 18.2c0 0.9-0.7 1.6-1.5 1.6-0.9-0.1-1.6-0.8-1.6-1.6 0-0.9 0.7-1.6 1.6-1.6 0.8 0 1.5 0.7 1.5 1.6zm-1 0c0-0.3-0.2-0.5-0.5-0.5-0.3 0-0.5 0.2-0.5 0.5 0 0.3 0.1 0.5 0.5 0.5 0.3 0 0.5-0.2 0.5-0.5z"/>
							<path id="&lt;Compound Path&gt;" fill-rule="evenodd" class="s1" d="m-571.3 18.2c0-0.9 0.7-1.6 1.5-1.6 0.9 0 1.6 0.7 1.6 1.6 0 0.8-0.7 1.5-1.5 1.6-0.9 0-1.6-0.7-1.6-1.6zm2.1 0c-0.1-0.3-0.2-0.5-0.5-0.5-0.3 0-0.5 0.1-0.6 0.4 0 0.4 0.2 0.6 0.5 0.6 0.3 0 0.5-0.2 0.6-0.5z"/>
						</g>
						<g id="&lt;Group&gt;">
							<path id="&lt;Compound Path&gt;" fill-rule="evenodd" class="s1" d="m-536.5 16.4c0 19-15.4 34.5-34.5 34.5-19 0-34.5-15.5-34.5-34.5 0-19 15.5-34.5 34.5-34.5 19.1 0 34.5 15.5 34.5 34.5zm-66 0c0 17.4 14.1 31.5 31.5 31.5 17.4 0 31.5-14.1 31.5-31.5 0-17.4-14.1-31.5-31.5-31.5-17.4 0-31.5 14.1-31.5 31.5z"/>
						</g>
					</g>
					<g id="&lt;Group&gt;">
						<path id="&lt;Compound Path&gt;" fill-rule="evenodd" class="s1" d="m-581.8 54.4c0 2.9-2.4 5.3-5.3 5.3-3 0-5.4-2.4-5.4-5.3 0-2.9 2.4-5.3 5.4-5.3 2.9 0 5.3 2.4 5.3 5.3zm-7.7 0c0 1.3 1.1 2.3 2.4 2.3 1.2 0 2.3-1 2.3-2.3 0-1.3-1.1-2.3-2.3-2.3-1.3 0-2.4 1-2.4 2.3z"/>
					</g>
					<g id="&lt;Group&gt;">
						<path id="&lt;Compound Path&gt;" fill-rule="evenodd" class="s1" d="m-590 62.9c0 1.9-1.5 3.5-3.5 3.5-1.9 0-3.5-1.6-3.5-3.5 0-1.9 1.6-3.5 3.5-3.5 2 0 3.5 1.6 3.5 3.5zm-4 0c0 0.3 0.3 0.5 0.5 0.5 0.3 0 0.5-0.2 0.5-0.5 0-0.3-0.2-0.5-0.5-0.5-0.2 0-0.5 0.2-0.5 0.5z"/>
					</g>
					<g id="&lt;Group&gt;">
						<g id="&lt;Group&gt;">
							<path id="&lt;Path&gt;" class="s1" d="m-601.5 62.5c0 5.2-4.2 9.3-9.4 9.3-5.1 0-9.3-4.1-9.3-9.3 0-5.1 4.2-9.3 9.3-9.3 5.2 0 9.4 4.2 9.4 9.3z"/>
						</g>
						<path id="&lt;Path&gt;" class="s1" d="m-601.3 101.3h-28.5v-14.2c0-7.9 6.4-14.3 14.2-14.3 7.9 0 14.3 6.4 14.3 14.3z"/>
					</g>
				</g>
				<g id="&lt;Group&gt;">
					<g id="&lt;Group&gt;">
						<path id="&lt;Compound Path&gt;" fill-rule="evenodd" class="s1" d="m-102 37q-2.4 0-4.9 0c-0.7 0-0.9-0.2-1.2-0.9-1.2-2.9-2.3-5.9-3.6-8.8-0.5-1.3-1.3-2.5-2-3.7-5.2-8.5-0.4-19.4 9.5-21.2 7.3-1.3 14.5 3.7 15.9 11q1 5.6-2 10.3c-1.9 2.8-3.1 5.9-4.2 9q-0.7 1.8-1.4 3.5c-0.2 0.6-0.4 0.8-1 0.8q-2.6 0-5.1 0zm2.7-1.8c0.6 0 1.1 0 1.6 0.1 0.3 0 0.4-0.2 0.5-0.4 0.3-0.8 0.6-1.6 0.9-2.5 1.2-3.3 2.5-6.6 4.5-9.6 1.8-2.7 2.3-5.7 1.8-8.9-1.1-6.2-7.2-10.7-13.4-9.9-8.9 1.3-13.5 11-8.8 18.6 1.2 2.1 2.4 4.2 3.3 6.4 0.7 2 1.5 3.9 2.2 5.9 0.1 0.1 0.2 0.3 0.3 0.3 0.6 0.1 1.2 0 1.8 0 0-4.6 0-9.2 0-13.9q-0.5 0.1-0.9 0c-1.4 0-2.5-1.2-2.5-2.6 0-1.4 1-2.5 2.4-2.6 1.4-0.1 2.6 0.9 2.8 2.4 0 0.3 0 0.7 0 1.1q0.9 0 1.6 0c0.1-0.6 0.1-1.1 0.2-1.6 0.4-1.3 1.7-2.1 3-1.8 1.3 0.2 2.2 1.4 2.1 2.7-0.1 1.3-1.1 2.4-2.5 2.4q-0.5 0.1-0.9 0c0 4.7 0 9.3 0 13.9zm-3.5-13.8q0 6.9 0 13.8 0.9 0 1.7 0 0-6.9 0-13.8c-0.6 0-1.1 0-1.7 0zm-1.8-1.8c0-0.4 0.1-0.7 0-1 0-0.5-0.5-0.8-0.9-0.7-0.4 0-0.8 0.4-0.8 0.8 0 0.5 0.3 0.8 0.8 0.9 0.3 0 0.6 0 0.9 0zm5.2 0c0.4 0 0.7 0 0.9 0 0.5 0 0.9-0.4 0.9-0.9 0-0.4-0.4-0.8-0.8-0.8-0.5-0.1-0.9 0.3-0.9 0.8-0.1 0.3-0.1 0.6-0.1 0.9z"/>
						<path id="&lt;Compound Path&gt;" fill-rule="evenodd" class="s1" d="m-97.7 47.4c-0.8 2.3-2.2 3.5-4.2 3.5-2 0-3.4-1.1-4.4-3.5q-0.4 0-0.9 0c-0.5 0-0.8-0.4-0.8-0.9 0-0.4 0.3-0.8 0.8-0.8q0.1 0 0.2 0 5 0 10.1 0 0.1 0 0.3 0c0.4 0.1 0.8 0.4 0.7 0.9 0 0.4-0.3 0.8-0.8 0.8q-0.5 0-1 0zm-1.9 0q-1.2 0-2.4 0-1.1 0-2.4 0c0.3 1 1.4 1.8 2.4 1.7 1.1 0 2.1-0.7 2.4-1.7z"/>
						<path id="&lt;Path&gt;" class="s1" d="m-101.9 40.5q-2.5 0-5 0c-0.7 0-1.1-0.4-1.1-0.9 0-0.5 0.4-0.9 1-0.9q5.1 0 10.1 0c0.6 0 1 0.4 1 0.9 0 0.5-0.4 0.9-1 0.9q-2.5 0-5 0z"/>
						<path id="&lt;Path&gt;" class="s1" d="m-101.9 42.2q2.5 0 5.1 0c0.7 0 1.1 0.6 0.8 1.2-0.1 0.4-0.4 0.5-0.8 0.5q-0.9 0-1.8 0-4 0-8 0-0.2 0-0.4 0c-0.6 0-1-0.3-1-0.8 0-0.6 0.4-0.9 1-0.9q2.6 0 5.1 0z"/>
						<path id="&lt;Path&gt;" class="s1" d="m-124.5 13.5q-0.5-0.3-0.4-0.9 0.1-0.6 0.7-0.7 0.2 0 0.5 0 2.6 0.2 5.3 0.5 0.1 0 0.3 0c0.4 0.1 0.7 0.4 0.7 0.9 0 0.5-0.4 0.8-0.9 0.8q-2.9-0.2-5.8-0.5c-0.2 0-0.3 0-0.4-0.1z"/>
						<path id="&lt;Path&gt;" class="s1" d="m-122.6 26.2q-0.7 0-0.9-0.6-0.1-0.6 0.3-1 0.2-0.1 0.4-0.1 2.5-1.1 4.9-2.2 0.1-0.1 0.3-0.1c0.4-0.2 0.9 0 1.1 0.4 0.2 0.5 0 1-0.4 1.2q-2.7 1.2-5.4 2.3c-0.1 0.1-0.3 0.1-0.3 0.1z"/>
						<path id="&lt;Path&gt;" class="s1" d="m-107.4-7.2q0.2-0.6 0.8-0.6 0.6 0 0.8 0.5 0.1 0.2 0.1 0.4 0.5 2.7 0.9 5.3 0 0.2 0 0.3c0 0.5-0.3 0.9-0.7 0.9-0.5 0.1-0.9-0.2-1-0.6q-0.5-2.9-0.9-5.8c0-0.2 0-0.3 0-0.4z"/>
						<path id="&lt;Path&gt;" class="s1" d="m-117.9 1.9q-0.8-1-1.5-2c-0.4-0.5-0.4-0.9 0-1.3 0.4-0.3 0.9-0.2 1.3 0.2q1.6 2 3.1 4c0.4 0.4 0.3 1-0.1 1.3-0.4 0.3-0.9 0.2-1.2-0.3q-0.8-0.9-1.6-1.9z"/>
						<path id="&lt;Path&gt;" class="s1" d="m-83.3 0.2q0.7-0.2 1 0.3 0.3 0.5-0.1 1-0.1 0.2-0.3 0.3-2 1.7-4 3.5-0.1 0.1-0.3 0.2c-0.3 0.2-0.8 0.2-1.1-0.2-0.3-0.3-0.3-0.8 0-1.2q2.3-1.9 4.5-3.8c0.1-0.1 0.2-0.1 0.3-0.1z"/>
						<path id="&lt;Path&gt;" class="s1" d="m-93.5-7.5q0.5-0.5 1-0.2 0.5 0.3 0.4 0.9 0 0.2-0.1 0.4-1 2.5-1.9 5-0.1 0.2-0.1 0.3c-0.3 0.4-0.7 0.6-1.1 0.4-0.5-0.1-0.7-0.6-0.5-1.1q1-2.7 2.1-5.4c0-0.1 0.1-0.3 0.2-0.3z"/>
						<path id="&lt;Path&gt;" class="s1" d="m-82.7 27.9q0.3 0.6-0.1 1-0.5 0.4-1 0.2-0.2-0.1-0.4-0.2-2.1-1.6-4.3-3.2-0.1 0-0.2-0.1c-0.4-0.3-0.4-0.8-0.2-1.2 0.3-0.4 0.8-0.5 1.2-0.2q2.4 1.7 4.8 3.4c0.1 0.1 0.1 0.2 0.2 0.3z"/>
						<path id="&lt;Path&gt;" class="s1" d="m-81.7 15.1q1.3 0.1 2.5 0.2c0.6 0.1 0.9 0.5 0.9 1-0.1 0.5-0.5 0.8-1.1 0.8q-2.5-0.3-5-0.6c-0.6-0.1-0.9-0.5-0.8-1 0.1-0.5 0.5-0.8 1-0.7q1.3 0.1 2.5 0.3z"/>
						<path id="&lt;Path&gt;" class="s1" d="m-105.1 8q-0.3-0.8-0.6-1.5c4.1-1.9 10.3-0.4 13 4.9q-0.7 0.4-1.5 0.8c-2.1-4-6.8-5.7-10.9-4.2z"/>
						<path id="&lt;Path&gt;" class="s1" d="m-91.9 13.3c0.1 0.6 0.2 1.2 0.4 1.9-0.6 0.1-1.2 0.1-1.8 0.2-0.1-0.6-0.2-1.1-0.3-1.7 0.5-0.1 1.1-0.3 1.7-0.4z"/>
					</g>
					<g id="&lt;Group&gt;">
						<g id="&lt;Group&gt;">
							<path id="&lt;Path&gt;" class="s1" d="m-116.1 62.5c0 5.2-4.2 9.3-9.3 9.3-5.2 0-9.4-4.1-9.4-9.3 0-5.1 4.2-9.3 9.4-9.3 5.1 0 9.3 4.2 9.3 9.3z"/>
						</g>
						<path id="&lt;Path&gt;" class="s1" d="m-115.9 101.3h-28.5v-14.2c0-7.9 6.4-14.3 14.3-14.3 7.8 0 14.2 6.4 14.2 14.3z"/>
					</g>
					<g id="&lt;Group&gt;">
						<g id="&lt;Group&gt;">
							<path id="&lt;Path&gt;" class="s1" d="m-87.2 62.5c0 5.2 4.2 9.3 9.4 9.3 5.1 0 9.3-4.1 9.3-9.3 0-5.1-4.2-9.3-9.3-9.3-5.2 0-9.4 4.2-9.4 9.3z"/>
						</g>
						<path id="&lt;Path&gt;" class="s1" d="m-87.4 101.3h28.5v-14.2c0-7.9-6.4-14.3-14.2-14.3-7.9 0-14.3 6.4-14.3 14.3z"/>
					</g>
				</g>
			</g>
			<g id="&lt;Group&gt;">
				<text id="PROCESO DE DISEÑO
CO-CREATIVO
" style="transform: matrix(1,0,0,1,447.986,-301.625)" >
					<tspan x="-64.4" y="0" class="t5">PROCESO DE DISEÑO
</tspan>
					<tspan x="-41.2" y="14.4" class="t5">CO-CREATIVO
</tspan>
				</text>
				<text id="IDENTIFICA LA NECESIDAD Y EL  ES" style="transform: matrix(1,0,0,1,-681.918,-1070.89)" >
					<tspan x="-43.1" y="0" class="t5">IDENTIFICA LA
</tspan>
					<tspan x="-51.6" y="14.4" class="t5">NECESIDAD Y EL 
</tspan>
					<tspan x="-79.2" y="28.8" class="t5">ESPACIO A TRANSFORMAR
</tspan>
				</text>
				<text id="ESCRÍBENEOS POR 
INSTAGRAM, 
WATSAP, O CORREO 
" style="transform: matrix(1,0,0,1,-509.479,-316.024)" >
					<tspan x="-58.8" y="0" class="t5">ESCRÍBENEOS POR 
</tspan>
					<tspan x="-38.9" y="14.4" class="t5">INSTAGRAM, 
</tspan>
					<tspan x="-62.7" y="28.8" class="t5">WATSAP, O CORREO 
</tspan>
				</text>
				<text id="ENTREVISTA
TELEFÓNICA
" style="transform: matrix(1,0,0,1,-289.44,-1007.49)" >
					<tspan x="-36.9" y="0" class="t5">ENTREVISTA
</tspan>
					<tspan x="-37.3" y="14.4" class="t5">TELEFÓNICA
</tspan>
				</text>
				<text id="VISITA A DOMICILIO,
ENTREVISTA PERSONAL Y 
MEDICIÓ" style="transform: matrix(1,0,0,1,-128.735,-316.024)" >
					<tspan x="-60.7" y="0" class="t5">VISITA A DOMICILIO,
</tspan>
					<tspan x="-78.3" y="14.4" class="t5">ENTREVISTA PERSONAL Y 
</tspan>
					<tspan x="-63.1" y="28.8" class="t5">MEDICIÓN DE LUGAR
</tspan>
				</text>
				<text id="ENTREGA DE 
PRESUPUESTO
" style="transform: matrix(1,0,0,1,103.337,-1007.49)" >
					<tspan x="-40.9" y="0" class="t5">ENTREGA DE 
</tspan>
					<tspan x="-43.8" y="14.4" class="t5">PRESUPUESTO
</tspan>
				</text>
				<text id="FABRICACIÓN
DEL PROYECTO
" style="transform: matrix(1,0,0,1,630.819,-1007.491)" >
					<tspan x="-40.4" y="0" class="t5">FABRICACIÓN
</tspan>
					<tspan x="-45.9" y="14.4" class="t5">DEL PROYECTO
</tspan>
				</text>
				<text id="ENTREGA E INSTALACIÓN
INSTALACIÓN
" style="transform: matrix(1,0,0,1,828.28,-301.625)" >
					<tspan x="-76.3" y="0" class="t5">ENTREGA E INSTALACIÓN
</tspan>
					<tspan x="-40" y="14.4" class="t5">INSTALACIÓN
</tspan>
				</text>
				<text id="DISFRUTA TU  NUEVO MUEBLE" style="transform: matrix(1,0,0,1,911.568,-1007.491)" >
					<tspan x="-41.4" y="0" class="t5">DISFRUTA TU 
</tspan>
					<tspan x="-47.9" y="14.4" class="t5">NUEVO MUEBLE
</tspan>
				</text>
				<g id="&lt;Group&gt;">
					<path id="&lt;Compound Path&gt;" fill-rule="evenodd" class="s1" d="m651.4-1072.9c0.4 0 0.7 0 1 0q1.2 0 2.4 0c0.7 0 1 0.4 1 1q0 4 0 8.1c0 0.5-0.3 0.8-0.8 0.9q-0.3 0-0.5 0-4.6 0-9.2 0-0.2 0-0.6 0c0 0.2 0.1 0.4 0.1 0.5q1.6 6.3 3.1 12.6 0.4 1.4-1 1.4-2.5 0-5 0c-0.7 0-0.9-0.2-1.1-1q-1.7-6.5-3.3-13.1c-0.1-0.3-0.2-0.4-0.6-0.4q-4.2 0-8.5 0c-0.4 0-0.5 0.1-0.6 0.5q-1.6 6.5-3.2 13c-0.2 0.8-0.5 1-1.3 1q-2.4 0-4.9 0-1.4 0-1-1.4 1.5-6.4 3.1-12.7c0.1-0.1 0.1-0.2 0.1-0.4q-0.3 0-0.6 0-5 0-10 0c-1 0-1.2-0.3-1.2-1.3q0-3.7 0-7.4c0-1 0.3-1.3 1.2-1.3q13.9 0 27.7 0c0.2 0 0.4 0 0.7 0-0.5-0.7-1-1.3-1.5-1.9-0.1-0.1-0.3-0.1-0.4-0.1q-1.7 0.4-3.4 0.7c-0.7 0.2-0.9 0.1-1.4-0.6q-0.5-0.8-1-1.5c-0.2-0.3-0.3-0.4-0.7-0.3q-1.1 0.3-2.3 0.6c-0.7 0.2-1.1 0-1.4-0.6q-0.6-1.2-1.2-2.4c-0.1-0.3-0.2-0.4-0.6-0.3-0.7 0.2-1.5 0.4-2.3 0.6-0.7 0.1-1 0-1.3-0.7-0.4-0.8-0.9-1.6-1.3-2.6q-0.9 0.5-1.8 0.9c-1.7 0.9-1.2 0.9-2.8 0q-4.4-2.4-8.7-5c-2-1.2-2.7-3.9-1.4-5.9q2.1-3.6 4.5-7c1.3-2 3.8-2.5 5.9-1.3 4 2.4 8.1 4.7 11.9 7.2 8.2 5.5 16.4 10.8 24.6 16.2 0.8 0.5 0.9 0.8 0.6 1.7-0.3 0.7-0.6 1.5-1 2.3zm2.6 1.9c-14.5 0-28.9 0-43.4 0q0 3.1 0 6.2 21.7 0 43.4 0c0-2.1 0-4.1 0-6.2zm-31-22.7q-3.6 5.6-7.1 11c0.3 0.3 0.6 0.3 0.9 0.1q1.3-0.7 2.7-1.3 0.9-0.4 1.3 0.4 0.2 0.2 0.3 0.5 0.6 1.2 1.2 2.4 1.4-0.4 2.7-0.7c0.7-0.1 1 0 1.3 0.6q0.6 1.2 1.2 2.5c0.2 0.2 0.3 0.3 0.6 0.2q1.1-0.3 2.3-0.6c0.7-0.1 0.9 0 1.3 0.5 0.4 0.6 0.8 1.1 1.1 1.7 0.2 0.3 0.4 0.4 0.7 0.3 1.1-0.3 2.3-0.4 3.3-0.7 0.6-0.1 0.9 0.1 1.2 0.5q1.2 1.5 2.4 3.1c0.2 0.1 0.4 0.3 0.5 0.3q4.2 0 8.3 0c0.1 0 0.3-0.1 0.4-0.2q0.5-1.2 0.9-2.5c-9.1-6-18.3-12-27.5-18.1zm-1.6-0.9c-0.1-0.1-0.3-0.2-0.4-0.3q-3.2-1.9-6.5-3.7c-1.5-0.9-2.9-0.6-3.9 0.9q-2 3.1-4 6.2c-1 1.6-0.6 3.2 1 4.1q3.1 1.9 6.3 3.7 0.1 0.1 0.4 0.2c2.4-3.7 4.7-7.4 7.1-11.1zm1.5 44.4c1-4.2 2.1-8.4 3.2-12.7-1.1 0-2.1 0-3.1 0-0.4 0-0.5 0.1-0.6 0.4q-1.1 4.4-2.2 8.8-0.4 1.7-0.9 3.5c1.2 0 2.4 0 3.6 0zm16.3-12.7c1.1 4.3 2.2 8.5 3.2 12.6 1.2 0 2.4 0 3.6 0q-0.5-1.7-0.9-3.3-1.1-4.5-2.2-8.9c0-0.2-0.2-0.4-0.4-0.4-1 0-2.1 0-3.3 0z"/>
					<path id="&lt;Path&gt;" class="s1" d="m635.9-1060.2c0 0.5-0.4 0.9-0.8 0.9h-0.1c-0.5 0-0.8-0.4-0.8-0.9 0-0.5 0.3-0.9 0.8-0.9h0.1c0.4 0 0.8 0.4 0.8 0.9z"/>
					<path id="&lt;Path&gt;" class="s1" d="m634.2-1053v0.1c0 0.4-0.4 0.8-0.8 0.8h-0.1c-0.5 0-0.8-0.4-0.8-0.8v-0.1c0-0.4 0.3-0.8 0.8-0.8h0.1c0.4 0 0.8 0.4 0.8 0.8z"/>
					<path id="&lt;Path&gt;" class="s1" d="m636.7-1057.4c0.5 0 0.9 0.3 0.9 0.8 0 0.5-0.4 0.9-0.9 0.9-0.5 0-0.9-0.4-0.9-0.9 0-0.5 0.4-0.8 0.9-0.8z"/>
					<path id="&lt;Path&gt;" class="s1" d="m634.9-1050.9c0-0.5 0.4-0.9 0.9-0.9 0.5 0 0.9 0.4 0.9 0.9 0 0.5-0.4 0.9-0.9 0.9-0.5 0-0.9-0.4-0.9-0.9z"/>
					<path id="&lt;Path&gt;" class="s1" d="m632.3-1049.1c0 0.5-0.4 0.9-0.9 0.9-0.5 0-0.8-0.4-0.8-0.9 0-0.5 0.3-0.9 0.8-0.9 0.5 0 0.9 0.4 0.9 0.9z"/>
					<path id="&lt;Path&gt;" class="s1" d="m638.7-1049.4h-0.1c-0.4 0-0.8-0.4-0.8-0.9 0-0.5 0.4-0.9 0.8-0.9h0.1c0.4 0 0.8 0.4 0.8 0.9 0 0.5-0.4 0.9-0.8 0.9z"/>
					<path id="&lt;Compound Path&gt;" fill-rule="evenodd" class="s1" d="m608.9-1091c0.1-0.5 0.3-1 0.5-1.4 0.5-0.9 1.1-1.7 1.7-2.5 0.8-1.2 2.3-1.6 3.5-0.9q1.6 0.9 3.1 1.9c0.5 0.3 0.6 0.8 0.3 1.4q-1.8 2.6-3.5 5.2-0.6 0.8-1.4 0.3-1.4-0.8-2.9-1.7c-0.8-0.5-1.2-1.3-1.3-2.3zm7.1-1.8c-0.8-0.5-1.5-1-2.3-1.4-0.4-0.2-0.8-0.1-1.1 0.3q-0.9 1.2-1.7 2.4c-0.2 0.5-0.2 1 0.2 1.2 0.8 0.5 1.5 0.9 2.3 1.4 0.9-1.3 1.7-2.6 2.6-3.9z"/>
				</g>
				<g id="&lt;Group&gt;">
					<path id="&lt;Compound Path&gt;" fill-rule="evenodd" class="s1" d="m825.1-372.3c-0.5-1-1.1-2-1.5-3-1.1-2.3-1.8-4.7-1.8-7.2 0-3.1 1.1-5.6 3.9-7.1 4.5-2.5 11.1-0.2 11.6 6.2 0.3 2.9-0.5 5.5-1.7 8.1-0.4 1-1 2-1.5 3q0.2 0.1 0.4 0.2 5 2 9.9 4c0.2 0.1 0.5 0.3 0.6 0.5q2 3.4 4 6.8c0.4 0.6 0.2 1-0.4 1.4q-0.5 0.2-1 0.4c-0.3 0.1-0.4 0.3-0.4 0.6q0 4.5 0 9 0 3 0 5.9c0 0.8-0.1 1-0.9 1.3q-8 3-16.1 5.9c-0.4 0.1-0.8 0.1-1.1 0q-8.2-2.9-16.3-5.9c-0.7-0.3-0.9-0.5-0.9-1.3q0-7.4 0.1-14.8c0-0.4-0.2-0.6-0.6-0.7q-0.4-0.2-0.8-0.4c-0.7-0.4-0.8-0.8-0.4-1.4q0.9-1.5 1.8-3.1c0.7-1.2 1.4-2.4 2.1-3.6 0.2-0.3 0.5-0.5 0.8-0.6q4.9-2.1 9.9-4.1 0.1 0 0.3-0.1zm-11.3 14.2q0 0.3 0 0.5 0 6.7-0.1 13.3c0 0.4 0.2 0.6 0.5 0.7q5.6 2 11.1 4 1.7 0.6 3.4 1.2c0-6.5 0-12.9 0-19.5-0.2 0.2-0.3 0.3-0.4 0.4q-0.9 1.7-1.9 3.4c-0.4 0.7-0.7 0.8-1.5 0.5q-5.3-2.1-10.5-4.3-0.3-0.1-0.6-0.2zm16.7 19.7q0.2-0.1 0.4-0.1 7.1-2.6 14.2-5.1c0.3-0.1 0.3-0.3 0.3-0.6q0-6.7 0-13.4 0-0.2 0-0.5-0.3 0.1-0.5 0.2-5.3 2.1-10.6 4.3c-0.8 0.3-1.1 0.2-1.5-0.5q-1-1.7-2-3.4c-0.1-0.1-0.2-0.2-0.3-0.4 0 6.6 0 13 0 19.5zm-0.9-30.3c0.1-0.2 0.2-0.3 0.3-0.5q2.8-3.7 4.5-8c0.6-1.6 1.1-3.2 1.2-5 0.3-4.3-3.7-7.5-7.8-6.3-2.7 0.8-4.5 3.4-4.2 6.2 0.2 1.6 0.6 3.2 1 4.7 0.9 3 2.7 5.5 4.4 8 0.2 0.3 0.3 0.6 0.6 0.9zm-12.1 1.5c0.1 0 0.1 0.1 0.2 0.1q5.8 2.3 11.6 4.7c0.2 0 0.5 0 0.7-0.1q3.6-1.4 7.2-2.9c1.5-0.6 3-1.2 4.5-1.8q-4.3-1.8-8.5-3.5c-0.9 1.3-1.8 2.5-2.7 3.7q-0.9 1.3-1.9 0c-0.8-1.2-1.7-2.4-2.6-3.7q-4.2 1.7-8.5 3.5zm10.8 6.3q-6.5-2.6-12.9-5.2c-1.1 1.8-2.1 3.6-3.2 5.4q6.5 2.6 12.9 5.2c1.1-1.8 2.1-3.6 3.2-5.4zm15.5-5.2c-4.3 1.8-8.6 3.5-12.9 5.2 1.1 1.8 2.1 3.6 3.2 5.4 4.3-1.7 8.6-3.5 12.9-5.2-1.1-1.8-2.1-3.6-3.2-5.4z"/>
					<path id="&lt;Compound Path&gt;" fill-rule="evenodd" class="s1" d="m829.6-379.1c-2 0-3.6-1.7-3.7-3.7 0-2 1.7-3.7 3.7-3.7 2 0 3.6 1.7 3.6 3.7 0 2-1.6 3.7-3.6 3.7zm0-5.5c-1-0.1-1.8 0.8-1.9 1.8 0 1 0.8 1.9 1.9 1.9 1 0 1.8-0.9 1.8-1.9 0-1-0.8-1.8-1.8-1.8z"/>
				</g>
				<g id="&lt;Group&gt;">
					<path id="&lt;Path&gt;" class="s1" d="m904.5-1095.8q-0.3-1.2-0.6-2.5c-0.2-0.6 0.1-1 0.6-1.2 0.5-0.1 1 0.2 1.1 0.8q0.7 2.5 1.3 5.1c0.1 0.6-0.2 1-0.7 1.1-0.5 0.1-1-0.1-1.1-0.7q-0.3-1.3-0.6-2.6z"/>
					<path id="&lt;Path&gt;" class="s1" d="m909.7-1096q0.4-1.2 0.8-2.5c0.2-0.5 0.6-0.8 1.1-0.7 0.5 0.2 0.8 0.7 0.6 1.3q-0.8 2.5-1.7 5c-0.2 0.5-0.6 0.8-1.2 0.6-0.5-0.2-0.6-0.7-0.5-1.2q0.4-1.3 0.9-2.5z"/>
					<path id="&lt;Path&gt;" class="s1" d="m900.1-1092.2q-1-0.9-1.8-1.9c-0.5-0.4-0.5-0.9-0.1-1.3 0.4-0.4 0.9-0.4 1.3 0.1q1.9 1.9 3.7 3.8c0.4 0.4 0.4 1 0 1.3-0.4 0.4-0.9 0.3-1.3-0.1q-1-0.9-1.8-1.9z"/>
					<path id="&lt;Compound Path&gt;" fill-rule="evenodd" class="s1" d="m926.5-1063.5c1 4.8 1.9 9.5 2.8 14.3q2.6-0.5 5.3-1c0.1 0.8 0.3 1.5 0.4 2.2-4.2 0.9-8.5 1.7-12.8 2.6-0.2-0.8-0.3-1.5-0.5-2.3q2.6-0.5 5.3-1-0.5-2.3-0.9-4.6-0.9-4.7-1.8-9.3c-0.1-0.3-0.1-0.5-0.5-0.5-4.4-0.1-7.6-2.8-8.4-7.1q-1.8-8.7-3.4-17.3 0-0.1 0-0.3c5.5-1 11-2.1 16.7-3.2q0.2 1.1 0.4 2.1c1 5.3 2.1 10.5 3 15.7 0.8 4.2-1.3 8-5.3 9.5q-0.1 0.1-0.3 0.2zm-10.3-14.6q0 0.2 0 0.4 0.8 3.7 1.5 7.3c0.6 3.3 3.7 5.5 7.2 5 3.2-0.5 5.5-3.8 5-7-0.2-1.2-0.4-2.4-0.6-3.6q-0.3-1.1-0.5-2.1c-4.2 0-8.4 0-12.6 0zm-1.6-7.8c0.4 1.7 0.7 3.3 1 4.9 0.1 0.4 0.2 0.5 0.6 0.5q5.8 0 11.7 0 0.2 0 0.5 0c-0.5-2.6-1-5.2-1.5-7.8-4.1 0.8-8.2 1.6-12.3 2.4z"/>
					<path id="&lt;Compound Path&gt;" fill-rule="evenodd" class="s1" d="m879.8-1042.2c0.1-0.7 0.3-1.4 0.4-2.2 1.8 0.3 3.6 0.7 5.4 1q1.3-7.2 2.7-14.2c-0.9-0.5-1.8-0.9-2.5-1.5-2.7-2.2-3.7-5.1-3.1-8.6q1.7-8.5 3.4-17.1 0-0.2 0.1-0.4c5.6 1.1 11.1 2.2 16.7 3.2q-0.4 1.8-0.7 3.6c-0.9 4.7-1.8 9.4-2.8 14.2-0.8 4.1-4.1 6.8-8.3 6.9q-0.2 0-0.5 0c-0.9 4.8-1.8 9.5-2.8 14.3 1.8 0.4 3.5 0.7 5.3 1.1-0.2 0.7-0.3 1.4-0.5 2.2-4.3-0.8-8.5-1.6-12.8-2.5zm6.2-30.1q-0.3 1.1-0.5 2.2c-0.2 1.3-0.6 2.6-0.7 3.9-0.2 3.3 2.2 6.1 5.4 6.5 3.3 0.5 6.3-1.7 7-5q0.5-2.7 1-5.3 0.2-1.2 0.4-2.3c-4.2 0-8.4 0-12.6 0zm1.9-10.2c-0.5 2.6-1 5.2-1.5 7.8 4.3 0 8.5 0 12.7 0q0.5-2.7 1.1-5.5c-4.1-0.8-8.2-1.5-12.3-2.3z"/>
				</g>
				<g id="&lt;Group&gt;">
					<g id="&lt;Group&gt;">
						<path id="&lt;Compound Path&gt;" fill-rule="evenodd" class="s1" d="m-273.9-1077.6q2.8 0 5.6 0c3.4-0.1 6.4 2.5 6.7 6 0.4 3.6-2.2 6.8-5.7 7.3q-0.5 0.1-1 0.1-3.4 0-6.7 0c-0.3 0-0.5 0.1-0.6 0.3q-0.7 1-1.4 2c-0.2 0.4-0.4 0.4-0.7 0q-0.7-1-1.4-2.1c-0.1-0.1-0.3-0.2-0.5-0.2-3.5-0.1-6.2-2.5-6.7-6-0.5-3.5 2.2-6.9 5.8-7.4q0.5 0 1 0 2.8 0 5.6 0zm-0.3 3.9q1.2 0 2.5 0 1.6 0 3.2 0c0.4 0 0.7-0.3 0.7-0.6 0-0.4-0.3-0.7-0.7-0.7q-0.1 0-0.2 0-5.5 0-11 0-0.2 0-0.3 0c-0.5 0.1-0.8 0.6-0.5 1 0.2 0.3 0.4 0.3 0.7 0.3q2.8 0 5.6 0zm-3.6 3.5q-0.3 0-0.5 0-2.1 0-4.3 0c-0.5 0-0.7 0.3-0.7 0.7 0 0.4 0.3 0.6 0.8 0.6q2.9 0 5.8 0 1.8 0 3.6 0c0.3 0 0.5-0.1 0.7-0.3 0.2-0.5-0.1-1-0.7-1q-2.3 0-4.7 0zm-2.3-2.4q-1.8 0-3.7 0c-0.5 0-0.8 0.2-0.8 0.6 0 0.5 0.3 0.7 0.8 0.7q3.7 0 7.5 0c0.5 0 0.8-0.2 0.8-0.7 0-0.4-0.3-0.6-0.8-0.6q-1.9 0-3.8 0zm4 4.8q-1.6 0-3.2 0c-0.5 0-0.7 0.2-0.7 0.6 0 0.4 0.2 0.7 0.7 0.7q0.2 0 0.3 0 2.9 0 5.8 0 0.1 0 0.3 0c0.4 0 0.7-0.3 0.7-0.7 0-0.3-0.3-0.6-0.7-0.6q-1.6 0-3.2 0z"/>
						<path id="&lt;Compound Path&gt;" fill-rule="evenodd" class="s1" d="m-258.9-1093.7c2 0 4.1-0.1 6.1 0 3.2 0.1 6 2.7 6.3 5.9 0.5 3.7-1.8 6.9-5.3 7.7q-0.7 0.1-1.4 0.1c-0.2 0-0.4 0.1-0.5 0.3q-0.6 0.9-1.2 1.8c-0.5 0.5-1.1 0.5-1.5 0q-0.6-0.9-1.2-1.8c-0.1-0.2-0.3-0.3-0.5-0.3q-3.2 0-6.4 0c-3.2 0-5.9-2.1-6.7-5.2-1.1-4.1 2-8.4 6.3-8.5 2-0.1 4-0.1 6-0.1q0 0 0 0.1zm3.2 15.1c0.4-0.6 0.8-1.1 1.1-1.7 0.4-0.5 0.7-0.7 1.4-0.7 4.2 0 7.1-4.5 5.3-8.3-1.1-2.3-3-3.5-5.5-3.5-3.6 0-7.1 0-10.7 0q-0.5 0-1 0.1c-3.3 0.2-5.8 3.5-5.2 6.8 0.6 2.9 2.9 4.9 5.9 4.9q3.4 0 6.8 0c0.2 0 0.4 0.1 0.5 0.3 0.5 0.7 0.9 1.3 1.4 2.1z"/>
						<path id="&lt;Path&gt;" class="s1" d="m-258.6-1089.5q-2.7 0-5.4 0c-0.7 0-0.9-0.4-0.7-1 0.1-0.1 0.3-0.2 0.4-0.3 0.1 0 0.2 0 0.3 0q5.4 0 10.7 0c0.7 0 0.9 0.4 0.7 1 0 0.2-0.3 0.3-0.5 0.3q-1.8 0-3.5 0-1 0-2 0z"/>
						<path id="&lt;Path&gt;" class="s1" d="m-260.2-1084.8q-2.3 0-4.5 0c-0.5 0-0.7-0.2-0.7-0.7 0-0.5 0.2-0.6 0.7-0.6q4.5 0 9.1 0c0.2 0 0.5 0.1 0.6 0.2 0.1 0.3 0.1 0.6 0 0.8-0.1 0.2-0.3 0.2-0.5 0.2q-2.3 0.1-4.7 0.1z"/>
						<path id="&lt;Path&gt;" class="s1" d="m-263.3-1087.2q-1.8 0-3.6 0c-0.6 0-0.9-0.5-0.7-1 0.1-0.1 0.3-0.3 0.5-0.3 0.4 0 0.8 0 1.1 0q3.2 0 6.4 0c0.5 0 0.7 0.2 0.7 0.7 0 0.4-0.2 0.6-0.6 0.6q-1.9 0-3.8 0z"/>
						<path id="&lt;Path&gt;" class="s1" d="m-260.2-1082.7q-1.5 0-3.1 0c-0.4 0-0.6-0.2-0.6-0.6 0-0.5 0.2-0.7 0.6-0.7q3.1 0 6.3 0c0.4 0 0.6 0.2 0.6 0.7 0 0.4-0.2 0.6-0.6 0.6q-1.6 0-3.2 0z"/>
					</g>
					<path id="&lt;Compound Path&gt;" fill-rule="evenodd" class="s1" d="m-313.3-1076.4c0.1-2.3 1.1-4.1 3.2-5.4q2-1.1 4-2.2c1.3-0.7 2.7-0.4 3.5 0.8q3.2 4.9 6.5 9.9c0.3 0.3 0.2 0.6 0 1q-1 1.4-1.9 2.8c-1.2 1.7-1.1 4.1 0.2 5.7 3.2 3.7 6.5 7.3 10.4 10.3 1.5 1.2 3.2 1.3 4.8 0.2q1.7-1.1 3.3-2.2c0.4-0.3 0.7-0.3 1.1 0q4.8 3.2 9.6 6.5c1.4 0.9 1.7 2.3 0.9 3.7q-1.2 1.9-2.3 3.8c-1.5 2.6-3.8 3.6-6.7 3.1-3-0.5-5.8-1.8-8.6-3.1-3.9-1.9-7.2-4.5-10.3-7.4-3.5-3.1-6.6-6.6-9.7-10.1-2.5-3-4.6-6.1-6.1-9.7q-1.3-3.3-1.8-6.7c-0.1-0.3-0.1-0.6-0.1-1zm28.4 25.1q-1.8 0-3.2-1.1c-4-3.2-7.4-6.9-10.7-10.7-1.6-1.9-1.5-5.4-0.3-7 0.5-0.8 1.1-1.6 1.6-2.4 0.2-0.2 0.2-0.4 0-0.7q-3-4.6-6.1-9.2c-0.5-0.7-1.2-0.9-2-0.5-1.3 0.7-2.5 1.4-3.8 2.1-1.9 1.1-2.8 2.8-2.6 5 0.3 2.4 1 4.8 2 7.1 1.4 3.3 3.4 6.2 5.7 8.9 2.9 3.3 5.8 6.6 9 9.5 3.3 3 6.7 5.8 10.7 7.7 2.5 1.3 5.2 2.4 8 2.9 2.5 0.5 4.3-0.3 5.6-2.5q1.1-1.9 2.2-3.8 0.7-1.2-0.5-2-4.6-3.1-9.1-6.2c-0.3-0.1-0.4-0.2-0.7 0q-1.4 1-2.9 2-1.3 0.9-2.9 0.9z"/>
				</g>
				<g id="&lt;Group&gt;">
					<g id="&lt;Group&gt;">
						<path id="&lt;Compound Path&gt;" fill-rule="evenodd" class="s1" d="m464.2-371.8c0.1-0.5 0.2-0.9 0.4-1.3 1-2.7 3.7-4.3 6.4-3.9 2.9 0.4 5.1 2.7 5.3 5.6q0 0.4 0 0.9c0 8.8-0.1 17.6 0 26.4 0 2.4-0.8 4.3-2.8 5.7-1.2 0.8-2.7 0.9-4.2 0.9q-15.7 0-31.4 0-4.8 0-9.5 0c-0.8 0-1.1-0.2-1.1-1.1q0-16 0-32c0-0.9 0.3-1.2 1.2-1.2q17.5 0 35.1 0 0.3 0 0.6 0zm1.8 32.7c-1.3-1.5-1.8-3.1-1.8-4.9 0-8.6 0-17.1 0-25.6q0-0.3 0-0.5-17.7 0-35.2 0 0 15.5 0 31c12.3 0 24.6 0 37 0zm-0.2-4.5c0 2.5 2 4.5 4.4 4.5 2.5 0 4.5-2 4.5-4.4 0-2.5-2.1-4.5-4.5-4.5-2.4 0-4.4 2-4.4 4.4z"/>
						<path id="&lt;Compound Path&gt;" fill-rule="evenodd" class="s1" d="m439.5-356.7c-2.7-2.2-1.7-6.1 1.4-6.9q0-1.1 0-2.3c0-0.6 0.3-1 0.9-1 0.4 0 0.8 0.4 0.8 1q0 1.1 0 2.3 0.2 0.1 0.5 0.2c2.6 1.1 3.3 4.4 1.2 6.3-0.3 0.3-0.3 0.4-0.2 0.8q2.6 6.2 5.3 12.5 0.4 1.1-0.3 1.4-0.8 0.3-1.3-0.8-1.5-3.5-2.9-7.1c-0.2-0.3-0.3-0.4-0.7-0.4q-2.5 0-5 0c-0.3 0-0.5 0.1-0.6 0.4q-1.5 3.6-3 7.2 0 0.1-0.1 0.2c-0.2 0.5-0.6 0.7-1.1 0.5-0.4-0.2-0.6-0.6-0.4-1.1q0.3-0.7 0.6-1.4 2.4-5.8 4.8-11.5 0.1-0.2 0.1-0.3zm2.2-1c-0.7 1.8-1.5 3.6-2.2 5.3 1.5 0 3 0 4.5 0-0.8-1.8-1.5-3.5-2.3-5.3z"/>
						<path id="&lt;Compound Path&gt;" fill-rule="evenodd" class="s1" d="m452.6-355.5q0-4.8 0-9.5c0-1.6 0.8-2.4 2.4-2.4q0.7-0.1 1.4 0c1.2 0 2.1 0.9 2.2 2.2q0 1 0 2.1 0 8.6 0 17.1c0 0.5-0.1 0.8-0.4 1.2q-0.9 1.2-1.9 2.5c-0.4 0.7-1 0.7-1.5 0-0.6-0.8-1.3-1.7-1.9-2.6-0.2-0.3-0.3-0.7-0.3-1q0-4.8 0-9.6zm3 11.5c0.3-0.5 0.6-1 1-1.4 0.3-0.3 0.3-0.7 0.3-1.1q0-7.2 0-14.4 0-0.3 0-0.6-1.4 0-2.7 0 0 0.2 0 0.2 0 7.6 0 15.2c0 0.1 0.1 0.3 0.2 0.4 0.3 0.6 0.7 1.1 1.2 1.7zm1.3-19.2q0-1 0-2c0-0.4-0.2-0.6-0.6-0.6-0.5 0-1 0-1.5 0-0.2 0.1-0.5 0.3-0.5 0.4-0.1 0.8-0.1 1.5-0.1 2.2 0.9 0 1.8 0 2.7 0z"/>
						<path id="&lt;Path&gt;" class="s1" d="m470.2-346.4c1.6 0 2.9 1.3 2.9 2.8 0 1.6-1.3 2.9-2.8 2.9-1.6 0-2.9-1.3-2.9-2.9 0-1.5 1.3-2.8 2.8-2.8z"/>
					</g>
					<g id="&lt;Group&gt;">
						<path id="&lt;Compound Path&gt;" fill-rule="evenodd" class="s1" d="m444.3-391.6q2.8 0 5.6 0c3.4-0.1 6.3 2.5 6.7 6 0.4 3.6-2.2 6.8-5.7 7.3q-0.5 0.1-1 0.1-3.4 0-6.7 0c-0.3 0-0.5 0.1-0.6 0.3q-0.7 1-1.4 2c-0.3 0.4-0.5 0.4-0.7 0q-0.8-1-1.5-2.1c-0.1-0.1-0.2-0.2-0.4-0.2-3.5 0-6.2-2.5-6.7-6-0.5-3.5 2.2-6.9 5.7-7.4q0.6 0 1.1 0 2.8 0 5.6 0zm-0.4 3.9q1.3 0 2.6 0 1.6 0 3.1 0c0.5 0 0.8-0.3 0.8-0.6 0-0.4-0.3-0.7-0.7-0.7q-0.1 0-0.2 0-5.5 0-11.1 0-0.1 0-0.2 0c-0.5 0.1-0.8 0.6-0.5 1 0.2 0.3 0.4 0.3 0.7 0.3q2.8 0 5.5 0zm-3.5 3.5q-0.3 0-0.5 0-2.2 0-4.3 0c-0.5 0-0.8 0.3-0.7 0.7 0 0.4 0.3 0.6 0.7 0.6q3 0 5.9 0 1.7 0 3.5 0c0.3 0 0.6-0.1 0.7-0.3 0.3-0.5 0-1-0.6-1q-2.4 0-4.7 0zm-2.3-2.4q-1.9 0-3.8 0c-0.4 0-0.7 0.3-0.7 0.7-0.1 0.4 0.3 0.6 0.7 0.6q3.8 0 7.6 0c0.5 0 0.8-0.2 0.8-0.7 0-0.4-0.3-0.6-0.8-0.6q-1.9 0-3.8 0zm4 4.8q-1.6 0-3.2 0c-0.5 0-0.8 0.2-0.8 0.6 0 0.4 0.3 0.7 0.8 0.7q0.1 0 0.3 0 2.9 0 5.8 0 0.1 0 0.3 0c0.4 0 0.6-0.3 0.7-0.7 0-0.3-0.3-0.6-0.8-0.6q-1.6 0-3.1 0z"/>
						<path id="&lt;Compound Path&gt;" fill-rule="evenodd" class="s1" d="m459.3-407.7c2 0 4-0.1 6.1 0 3.2 0.1 6 2.7 6.3 5.9 0.4 3.7-1.8 6.9-5.3 7.7q-0.7 0.1-1.4 0.1c-0.3 0-0.4 0.1-0.5 0.3q-0.6 0.9-1.3 1.8c-0.4 0.5-1 0.5-1.4 0q-0.6-0.9-1.2-1.8c-0.2-0.2-0.3-0.3-0.5-0.3q-3.2 0-6.5 0c-3.1 0-5.8-2.1-6.6-5.2-1.1-4.1 2-8.3 6.3-8.5 2-0.1 4-0.1 6-0.1q0 0.1 0 0.1zm3.2 15.1c0.4-0.6 0.8-1.1 1.1-1.7 0.3-0.5 0.7-0.7 1.4-0.7 4.2 0 7-4.5 5.3-8.3-1.1-2.3-3-3.5-5.5-3.5-3.6 0-7.2 0-10.7 0q-0.5 0-1 0.1c-3.4 0.2-5.9 3.5-5.2 6.8 0.5 2.9 2.9 4.9 5.9 4.9q3.4 0 6.7 0c0.3 0 0.4 0.1 0.6 0.3 0.4 0.7 0.9 1.3 1.4 2.1z"/>
						<path id="&lt;Path&gt;" class="s1" d="m459.5-403.5q-2.7 0-5.4 0c-0.6 0-0.9-0.4-0.6-1 0-0.1 0.2-0.2 0.4-0.3 0 0 0.2 0 0.3 0q5.3 0 10.7 0c0.7 0 0.9 0.4 0.7 1-0.1 0.2-0.3 0.3-0.5 0.3q-1.8 0-3.5 0-1 0-2.1 0z"/>
						<path id="&lt;Path&gt;" class="s1" d="m458-398.8q-2.3 0-4.6 0c-0.5 0-0.6-0.2-0.6-0.7 0-0.5 0.1-0.6 0.6-0.6q4.6 0 9.2 0c0.2 0 0.5 0.1 0.6 0.2 0.1 0.3 0 0.6 0 0.8-0.1 0.2-0.4 0.3-0.5 0.3q-2.4 0-4.7 0z"/>
						<path id="&lt;Path&gt;" class="s1" d="m454.9-401.2q-1.8 0-3.7 0c-0.6 0-0.9-0.5-0.6-1 0.1-0.1 0.3-0.3 0.5-0.3 0.3 0 0.7 0 1.1 0q3.2 0 6.4 0c0.5 0 0.7 0.2 0.7 0.7 0 0.4-0.2 0.6-0.7 0.6q-1.8 0-3.7 0z"/>
						<path id="&lt;Path&gt;" class="s1" d="m458-396.7q-1.5 0-3.1 0c-0.5 0-0.6-0.2-0.6-0.6 0-0.5 0.1-0.7 0.6-0.7q3.1 0 6.2 0c0.5 0 0.6 0.2 0.6 0.7 0 0.4-0.1 0.6-0.6 0.6q-1.5 0-3.1 0z"/>
					</g>
				</g>
				<g id="&lt;Group&gt;">
					<g id="&lt;Group&gt;">
						<path id="&lt;Compound Path&gt;" fill-rule="evenodd" class="s1" d="m92.8-1046.4q-1.1 0-2.1 0c-0.8 0-1.1-0.4-1.1-1.2q0-0.4 0-0.9-0.5 0-0.9 0-0.7 0-1.4 0c-0.5 0-0.9-0.4-0.9-0.9q0-0.1 0-0.2 0-10.5 0-21 0-0.2 0-0.3c0-0.5 0.4-0.9 0.9-0.9q1 0 1.9 0 0.2 0 0.4 0 0-0.5 0-1c0-0.7 0.3-1.1 1-1.1q1.1 0 2.2 0 0-0.4 0-0.8c0-0.7 0.3-1.1 1-1.1q6.3 0 12.5 0 0.5 0 0.9 0.4 3.9 3.9 7.8 7.8 0.4 0.4 0.4 0.9 0 10.6 0 21.2c0 0.7-0.4 1-1.1 1q-10.2 0-20.5 0c-0.6 0-1-0.4-1-1q0-0.4 0-0.9zm20.6-19.5q-0.2 0-0.3 0-3.2 0-6.5 0c-0.8 0-1.2-0.3-1.2-1.1q0-3.3 0-6.5 0-0.2 0-0.4-5.4 0-10.7 0 0 13.8 0 27.5 9.4 0 18.7 0 0-9.7 0-19.5zm-21.9-6q0 11.8 0 23.5 0.6 0 1.2 0 0-11.7 0-23.5-0.6 0-1.2 0zm-3.2 2q0 9.8 0 19.5 0.6 0 1.2 0 0-9.7 0-19.5-0.6 0-1.2 0zm23.7 2.1q-2.3-2.3-4.6-4.6 0 2.3 0 4.6 2.3 0 4.6 0z"/>
						<path id="&lt;Path&gt;" class="s1" d="m104.1-1056.9q2.8 0 5.6 0c0.7 0 1.1 0.6 0.9 1.3-0.1 0.3-0.5 0.6-1 0.6q-1.2 0-2.5 0-4.3 0-8.5 0c-0.7 0-1.1-0.4-1.1-1 0-0.5 0.4-0.9 0.9-0.9q1.3 0 2.6 0 1.5 0 3.1 0z"/>
						<path id="&lt;Path&gt;" class="s1" d="m104.1-1050.2q-2.8 0-5.6 0c-0.7 0-1.2-0.7-0.9-1.4q0.2-0.6 0.9-0.6 2 0 4.1 0 3.5 0 7 0 0.6 0 0.9 0.5 0.3 0.5 0 1c-0.2 0.3-0.5 0.5-0.9 0.5q-2.8 0-5.5 0z"/>
						<path id="&lt;Path&gt;" class="s1" d="m104.1-1059.8q-2.8 0-5.5 0c-0.7 0-1.1-0.4-1.1-1 0-0.5 0.4-0.8 0.8-0.9q0.2 0 0.3 0 5.5 0 11 0c0.4 0 0.8 0.2 1 0.6 0.2 0.6-0.1 1.2-0.8 1.3q-0.1 0-0.3 0-2.7 0-5.4 0z"/>
					</g>
					<path id="&lt;Path&gt;" class="s6" d="m121.3-1079.3h-5.7c-2.4 0-4.3-1.9-4.3-4.2v-5.7c0-2.4 1.9-4.3 4.3-4.3h5.7c2.3 0 4.2 1.9 4.2 4.3v5.7c0 2.3-1.9 4.2-4.2 4.2z"/>
					<g id="&lt;Group&gt;">
						<g id="&lt;Group&gt;">
							<path id="&lt;Path&gt;" class="s1" d="m115.6-1087c2.9 4.1 3.4 3.5 5.7-0.6 4-7 9.1-13.1 16.3-16.8 1-0.5 0.1-2-0.8-1.5-4.4 2.3-8.1 5.4-11.2 9.2q-2.3 2.7-4.2 5.6c-0.7 1.2-1.3 3-2.2 4q-0.4 0.6-0.7 1.3-0.7-1-1.5-2c-0.6-0.9-2-0.1-1.4 0.8z"/>
						</g>
					</g>
				</g>
				<g id="&lt;Group&gt;">
					<path id="&lt;Compound Path&gt;" fill-rule="evenodd" class="s1" d="m-494.8-387c-2.1 0-3.7-0.3-5.3-0.9-0.2-0.1-0.5-0.1-0.8 0q-3.5 1.2-7.1 2.4-0.1 0.1-0.2 0.1c-0.7 0.2-1.1-0.1-1-0.9q0.3-1.7 0.6-3.5 0.4-2.3 0.8-4.7c0-0.2 0-0.4-0.1-0.6-3.8-8.3 1.1-17.8 10.1-19.6 7.5-1.4 15 3.8 16.2 11.3 1.3 7.5-3.5 14.5-10.8 16.1-1 0.2-1.9 0.2-2.4 0.3zm-0.2-11.9q0 0 0 0 0 0.8 0 1.7 0 0.8 0.7 0.8 0.6 0 0.6-0.8 0-1.4 0-2.8c0-0.3 0.1-0.4 0.3-0.6 0.6-0.5 1.2-1 1.8-1.6 0.8-0.9 1.3-2 1.3-3.2 0.1-1.9-1.2-3.7-3.2-4.5-3.3-1.3-6.9 1.2-6.7 4.7 0 0.4 0.2 0.7 0.6 0.7 0.4 0 0.6-0.3 0.6-0.7 0.1-0.4 0.1-0.7 0.1-1 0.3-1.4 1.5-2.6 2.9-2.8 1.7-0.2 3 0.5 4 1.8 0.8 1.2 0.6 2.5-0.2 3.7q-0.8 1.3-2.2 2c-0.4 0.3-0.6 0.6-0.6 1.1q0.1 0.7 0 1.5zm1.3 4.8q0-0.4 0-0.7c0-0.4-0.2-0.6-0.6-0.6-0.4 0-0.6 0.2-0.6 0.6q0 0.7 0 1.5c0 0.4 0.2 0.6 0.6 0.6 0.4 0 0.6-0.2 0.6-0.6 0-0.3 0-0.5 0-0.8z"/>
					<g id="&lt;Group&gt;">
						<g id="&lt;Group&gt;">
							<path id="&lt;Compound Path&gt;" fill-rule="evenodd" class="s1" d="m-496.9-348.6h7.2q0.5 0 0.5 0.5 0 4.5 0 9 0 0.5-0.4 0.5h-14.7c-0.3 0-0.5-0.2-0.5-0.6v-8.8c0-0.5 0.3-0.6 0.6-0.6q3.6 0 7.3 0zm-7 0.4c0.3 0.2 0.6 0.4 0.8 0.6q1.5 1.2 2.9 2.3 1.5 1.2 2.9 2.3c0.2 0.2 0.3 0.1 0.4 0q0.8-0.6 1.6-1.2 0.7-0.5 1.4-1.1 0.9-0.7 1.8-1.4 1-0.7 2.1-1.6c-4.7 0-9.2 0.1-13.9 0.1zm-0.2 9.2h14.2q-0.3-0.2-0.5-0.4-1.3-0.9-2.5-1.8-1.4-1-2.8-2c-0.1-0.1-0.2-0.1-0.3 0q-0.5 0.4-1 0.7-0.1 0.1-0.2 0-0.5-0.3-0.9-0.7-0.2-0.1-0.3 0-0.3 0.2-0.7 0.5-1.2 0.9-2.5 1.8-1.2 0.9-2.5 1.9zm14.6-9.2q-1.1 0.8-2.1 1.6-0.9 0.7-1.9 1.5-0.9 0.7-1.9 1.4c-0.1 0.1-0.1 0.2 0 0.3q1.3 0.9 2.5 1.8 1.4 1 2.7 2c0.2 0.1 0.4 0.3 0.7 0.4zm-14.9 9q0.1-0.1 0.1-0.1 0.9-0.6 1.7-1.3 2-1.4 3.9-2.8c0.1-0.1 0.2-0.1 0.1-0.2q-0.3-0.2-0.6-0.4-0.7-0.6-1.4-1.1-0.7-0.6-1.5-1.2-0.6-0.5-1.2-1-0.5-0.5-1.1-0.9z"/>
							<path id="&lt;Compound Path&gt;" fill-rule="evenodd" class="s7" d="m-496.9-348.6h7.2q0.5 0 0.5 0.5 0 4.5 0 9 0 0.5-0.4 0.5h-14.7c-0.3 0-0.5-0.2-0.5-0.6v-8.8c0-0.5 0.3-0.6 0.6-0.6q3.6 0 7.3 0zm-7 0.4c0.3 0.2 0.6 0.4 0.8 0.6q1.5 1.2 2.9 2.3 1.5 1.2 2.9 2.3c0.2 0.2 0.3 0.1 0.4 0q0.8-0.6 1.6-1.2 0.7-0.5 1.4-1.1 0.9-0.7 1.8-1.4 1-0.7 2.1-1.6c-4.7 0-9.2 0.1-13.9 0.1zm-0.2 9.2h14.2q-0.3-0.2-0.5-0.4-1.3-0.9-2.5-1.8-1.4-1-2.8-2c-0.1-0.1-0.2-0.1-0.3 0q-0.5 0.4-1 0.7-0.1 0.1-0.2 0-0.5-0.3-0.9-0.7-0.2-0.1-0.3 0-0.3 0.2-0.7 0.5-1.2 0.9-2.5 1.8-1.2 0.9-2.5 1.9zm14.6-9.2q-1.1 0.8-2.1 1.6-0.9 0.7-1.9 1.5-0.9 0.7-1.9 1.4c-0.1 0.1-0.1 0.2 0 0.3q1.3 0.9 2.5 1.8 1.4 1 2.7 2c0.2 0.1 0.4 0.3 0.7 0.4zm-14.9 9q0.1-0.1 0.1-0.1 0.9-0.6 1.7-1.3 2-1.4 3.9-2.8c0.1-0.1 0.2-0.1 0.1-0.2q-0.3-0.2-0.6-0.4-0.7-0.6-1.4-1.1-0.7-0.6-1.5-1.2-0.6-0.5-1.2-1-0.5-0.5-1.1-0.9z"/>
						</g>
						<g id="&lt;Group&gt;">
							<path id="&lt;Compound Path&gt;" fill-rule="evenodd" class="s1" d="m-491.1-376q0.2 0 0.4 0.1c1.2 0.3 2 1.3 2 2.6q0 5.4 0 10.8c0 1.4-1 2.5-2.4 2.7q-0.1 0-0.3 0-5.5 0-10.9 0c-1.3 0-2.5-1-2.7-2.3q0-0.2 0-0.4 0-5.4 0-10.8c0-1.4 1-2.5 2.4-2.7q0 0 0 0zm-5.7 1.3q-2.7 0-5.3 0c-0.9 0-1.5 0.6-1.5 1.4q0 5.4 0 10.8c0 0.8 0.6 1.4 1.4 1.4q5.4 0 10.8 0c0.8 0 1.4-0.6 1.4-1.4q0-5.4 0-10.8 0-0.2-0.1-0.3c-0.1-0.7-0.6-1.1-1.3-1.1q-2.7 0-5.4 0z"/>
							<path id="&lt;Compound Path&gt;" fill-rule="evenodd" class="s1" d="m-492.8-367.9c0 2.2-1.8 4-4.1 4-2.2 0-4-1.8-4-4 0-2.3 1.8-4.1 4.1-4.1 2.2 0 4 1.8 4 4.1zm-4.1-2.7c-1.4 0-2.7 1.2-2.7 2.7 0 1.5 1.3 2.7 2.7 2.7 1.5 0 2.7-1.2 2.8-2.7 0-1.5-1.3-2.7-2.8-2.7z"/>
							<path id="&lt;Path&gt;" class="s1" d="m-493.5-372.3c0-0.6 0.5-1 1.1-1 0.5 0 1 0.4 1 1 0 0.6-0.5 1-1.1 1-0.5 0-1-0.5-1-1z"/>
						</g>
						<g id="&lt;Group&gt;">
							<path id="&lt;Compound Path&gt;" fill-rule="evenodd" class="s1" d="m-532.6-335.4c0.4-1.4 0.9-2.7 1.3-4 0.1-0.2 0-0.4-0.1-0.6-2.5-4.8 0.3-10.7 5.7-11.7 4.4-0.8 8.6 2.1 9.4 6.6 0.7 4.2-2.1 8.1-6.2 9q-2.8 0.6-5.4-0.6c-0.2-0.1-0.4-0.1-0.6 0-1.3 0.4-2.7 0.8-4.1 1.3zm2.1-2.2c0.8-0.2 1.5-0.4 2.2-0.6 0.2-0.1 0.5-0.1 0.7 0 1.1 0.7 2.4 1 3.7 0.9 3.9-0.2 6.8-3.7 6.2-7.6-0.5-3.5-4.1-6.1-7.7-5.5-4.7 0.9-7 6.1-4.4 10.2 0.1 0.1 0.1 0.4 0 0.5-0.2 0.7-0.4 1.4-0.7 2.1z"/>
							<path id="&lt;Path&gt;" class="s1" d="m-526.8-347.8c0.4 0 0.7 0.2 0.8 0.6q0.2 0.6 0.4 1.1c0.2 0.5 0.1 0.8-0.2 1.1-0.5 0.5-0.5 0.5-0.1 1.1q0.9 1.3 2.4 2c0.2 0.1 0.4 0.1 0.6-0.1 0.1-0.2 0.3-0.3 0.4-0.5 0.2-0.4 0.5-0.4 0.9-0.2q0.6 0.4 1.2 0.7c0.3 0.1 0.4 0.4 0.3 0.6-0.2 1.1-1.3 1.8-2.4 1.5q-3.1-0.8-4.8-3.4c-0.4-0.7-0.9-1.3-1-2.1q-0.2-1.3 0.9-2.2c0.1-0.1 0.4-0.1 0.6-0.2z"/>
						</g>
						<g id="&lt;Group&gt;">
							<path id="&lt;Compound Path&gt;" fill-rule="evenodd" class="s1" d="m-516.6-373q-0.7 2-1.3 3.9-1.3 3.9-2.6 7.8c-0.4 1-1.3 1.6-2.4 1.5-0.9-0.1-1.5-0.7-1.8-1.5q-0.8-2.3-1.6-4.7 0-0.1-0.2-0.2-2.3-0.7-4.6-1.5c-0.9-0.3-1.5-1.1-1.5-2.1 0-1 0.6-1.8 1.5-2.1q3.2-1.1 6.3-2.1 2.7-0.9 5.5-1.8c1.4-0.5 2.8 0.6 2.8 2.1 0 0.2-0.1 0.5-0.1 0.7zm-2.4-1.4q-5.8 1.9-11.6 3.9c-0.5 0.1-0.7 0.5-0.5 1 0.1 0.2 0.3 0.3 0.5 0.4q2.4 0.8 4.8 1.6 0.2 0.1 0.4 0.2c0.2 0.1 0.3 0.2 0.4 0.5q0.8 2.5 1.7 5c0.1 0.5 0.6 0.7 1 0.5 0.3-0.1 0.4-0.3 0.4-0.5q1.2-3.7 2.5-7.3 0.7-2.2 1.4-4.3c0.2-0.6-0.2-1.1-0.7-1.1q-0.2 0.1-0.3 0.1z"/>
							<path id="&lt;Path&gt;" class="s1" d="m-518.2-379q0-0.5 0-0.9c-0.1-0.5-0.4-0.8-0.8-0.8-0.4 0-0.7 0.3-0.7 0.7q0 1 0 1.9c0 0.4 0.3 0.7 0.7 0.7 0.4 0 0.7-0.3 0.8-0.7q0-0.5 0-0.9z"/>
							<path id="&lt;Path&gt;" class="s1" d="m-513.4-374.2q-0.4 0-0.9 0c-0.4 0-0.7 0.3-0.7 0.8 0 0.4 0.3 0.7 0.7 0.7q0.9 0 1.8 0c0.5 0 0.8-0.3 0.8-0.7 0-0.5-0.3-0.8-0.8-0.8q-0.4 0-0.9 0z"/>
							<path id="&lt;Path&gt;" class="s1" d="m-514.5-378.8c0 0.1-0.2 0.1-0.4 0.2q-0.6 0.7-1.3 1.3c-0.3 0.3-0.3 0.8 0 1.1 0.3 0.3 0.7 0.3 1 0q0.7-0.7 1.4-1.4c0.2-0.2 0.2-0.5 0.1-0.8-0.1-0.2-0.4-0.4-0.8-0.4z"/>
							<path id="&lt;Path&gt;" class="s1" d="m-524.4-378c0.1 0.1 0.2 0.3 0.3 0.5q0.6 0.6 1.3 1.3c0.3 0.3 0.7 0.3 1 0 0.3-0.3 0.3-0.8 0-1.1q-0.6-0.6-1.3-1.3c-0.2-0.2-0.5-0.2-0.8-0.1-0.3 0.1-0.4 0.4-0.4 0.7q0 0-0.1 0z"/>
							<path id="&lt;Path&gt;" class="s1" d="m-514.4-368.1q0.5 0 0.7-0.4 0.2-0.5-0.1-0.8-0.7-0.7-1.4-1.4c-0.3-0.2-0.7-0.2-1 0-0.3 0.3-0.3 0.7 0 1q0.7 0.8 1.4 1.4c0.1 0.1 0.3 0.2 0.4 0.2z"/>
						</g>
					</g>
				</g>
				<g id="&lt;Group&gt;">
					<g id="&lt;Group&gt;">
						<g id="&lt;Group&gt;">
							<path id="&lt;Compound Path&gt;" fill-rule="evenodd" class="s1" d="m-644.8-1094.6q0.4 0 0.8 0c0.4 0 0.5 0.1 0.5 0.4q0 1.6 0 3.2c0 0.3-0.1 0.4-0.5 0.4q-0.9 0-1.9 0 0 0.7 0 1.4 0 0.4 0 0.8c0 0.2-0.1 0.3-0.4 0.3q-0.3 0-0.3-0.3 0-1 0-1.9 0-0.1 0-0.3-8.9 0-17.8 0 0 0.9 0 1.9 0 0.1 0 0.3 0 0.3-0.4 0.3c-0.2 0-0.3-0.1-0.3-0.4q0-0.6 0-1.2 0-0.4 0-0.9-0.2 0-0.3 0-0.8 0-1.6 0c-0.4 0-0.5-0.1-0.5-0.5q0-1.5 0-3.1c0-0.3 0.1-0.4 0.4-0.4q0.5 0 0.9 0c-0.2-0.4-0.3-0.8-0.2-1.3q0.2-0.9 1-1.2c0.2-0.1 0.3-0.2 0.3-0.4q0-0.9 0-1.7c0-1 0.6-1.6 1.5-1.6q8.1 0 16.2 0c0.9 0 1.5 0.6 1.5 1.6q0 0.9 0 1.7c0 0.2 0 0.3 0.2 0.3 1 0.4 1.4 1.4 0.9 2.4q0 0.1 0 0.2zm-1.8-2.7q0-0.9 0-1.8c0-0.7-0.2-1-1-1q-7.9 0-15.8 0-0.2 0-0.3 0c-0.4 0-0.7 0.3-0.7 0.8q-0.1 1 0 2.1c0.5 0.1 0.9 0.4 1.2 1 0.2 0.5 0.1 1.1-0.2 1.6q7.9 0 15.8 0c-0.6-1-0.3-2.2 1-2.7zm-20.2 6q11.3 0 22.6 0 0-1.3 0-2.6-11.3 0-22.6 0 0 1.2 0 2.4 0 0.1 0 0.2zm2-3.3c0.5 0 1-0.4 1-1 0-0.5-0.4-1-1-1-0.5 0-1 0.5-1 1 0 0.5 0.5 1 1 1zm18.6 0c0.5 0 0.9-0.4 0.9-1 0.1-0.5-0.4-1-0.9-1-0.6 0-1 0.5-1 1 0 0.5 0.4 1 1 1z"/>
							<path id="&lt;Compound Path&gt;" fill-rule="evenodd" class="s1" d="m-640.4-1104.1q-0.8 0-1.7 0 0 0.7 0 1.4c0 0.1 0 0.2-0.1 0.3-0.1 0.1-0.3 0.1-0.4 0.1-0.1-0.1-0.2-0.3-0.2-0.4 0-0.4 0-0.9 0-1.4q-0.5 0-1 0c-0.5 0-0.6-0.2-0.5-0.6q0.9-2.6 1.8-5.3c0.1-0.2 0.2-0.3 0.5-0.3q2 0 4 0c0.3 0 0.4 0.1 0.5 0.3q0.9 2.7 1.8 5.3 0.2 0.6-0.4 0.6-1.6 0-3.2 0-0.1 0-0.3 0c0 5.1 0 10.2 0 15.3q0.6 0 1.2 0c0.3 0 0.5 0.1 0.5 0.4q0 0.3-0.5 0.3-1.6 0-3.2 0-0.1 0-0.2 0c-0.2 0-0.3-0.1-0.3-0.3q0-0.3 0.3-0.4 0.7 0 1.4 0 0-7.6 0-15.3zm3.9-0.7q0-0.1 0-0.2-0.8-2.2-1.5-4.5c-0.1-0.1-0.2-0.1-0.3-0.1q-1.7 0-3.4 0c-0.2 0-0.2 0-0.3 0.2q-0.4 1.4-0.9 2.7-0.3 0.9-0.6 1.9 3.5 0 7 0z"/>
							<path id="&lt;Compound Path&gt;" fill-rule="evenodd" class="s1" d="m-654.5-1097.3c0 0.5-0.5 1-1 1-0.6 0-1.1-0.5-1-1.1 0-0.5 0.4-1 1-1 0.6 0 1 0.5 1 1.1zm-1.4 0c0.1 0.2 0.2 0.3 0.4 0.3 0.2 0 0.3-0.2 0.3-0.4 0-0.2-0.1-0.3-0.3-0.3q-0.3 0-0.4 0.4z"/>
							<path id="&lt;Compound Path&gt;" fill-rule="evenodd" class="s1" d="m-658.7-1097.4c0 0.6-0.5 1.1-1.1 1.1-0.5 0-1-0.5-1-1.1 0-0.5 0.5-1 1-1 0.6 0 1.1 0.5 1.1 1zm-0.7 0.1q0-0.4-0.4-0.4c-0.2 0-0.3 0.1-0.3 0.3 0 0.2 0.1 0.4 0.3 0.4q0.3 0 0.4-0.3z"/>
							<path id="&lt;Compound Path&gt;" fill-rule="evenodd" class="s1" d="m-652.3-1097.3c0-0.6 0.5-1.1 1-1.1 0.6 0 1.1 0.5 1.1 1 0 0.6-0.5 1.1-1 1.1-0.6 0-1.1-0.5-1.1-1zm1.4 0c0-0.3-0.1-0.4-0.4-0.4q-0.3 0-0.3 0.3 0 0.4 0.3 0.4c0.2 0 0.3-0.1 0.4-0.3z"/>
						</g>
						<g id="&lt;Group&gt;">
							<path id="&lt;Compound Path&gt;" fill-rule="evenodd" class="s1" d="m-629.3-1098.5c0 12.5-10.2 22.7-22.8 22.7-12.5 0-22.7-10.2-22.7-22.7 0-12.6 10.2-22.8 22.7-22.8 12.6 0 22.8 10.2 22.8 22.8zm-43.5 0c0 11.5 9.3 20.8 20.7 20.8 11.5 0 20.8-9.3 20.8-20.8 0-11.5-9.3-20.8-20.8-20.8-11.4 0-20.7 9.3-20.7 20.8z"/>
						</g>
					</g>
					<g id="&lt;Group&gt;">
						<path id="&lt;Compound Path&gt;" fill-rule="evenodd" class="s1" d="m-659.2-1073.5c0 2-1.6 3.6-3.5 3.6-2 0-3.5-1.6-3.5-3.6 0-1.9 1.5-3.5 3.5-3.5 1.9 0 3.5 1.6 3.5 3.5zm-5.1 0c0 0.9 0.7 1.6 1.6 1.6 0.8 0 1.5-0.7 1.5-1.6 0-0.8-0.7-1.5-1.5-1.5-0.9 0-1.6 0.7-1.6 1.5z"/>
					</g>
					<g id="&lt;Group&gt;">
						<path id="&lt;Compound Path&gt;" fill-rule="evenodd" class="s1" d="m-664.6-1067.8c0 1.2-1 2.3-2.3 2.3-1.3 0-2.3-1.1-2.3-2.3 0-1.3 1-2.4 2.3-2.4 1.3 0 2.3 1.1 2.3 2.4zm-2.6 0c0 0.1 0.1 0.3 0.3 0.3 0.2 0 0.3-0.2 0.3-0.3 0-0.2-0.1-0.4-0.3-0.4-0.2 0-0.3 0.2-0.3 0.4z"/>
					</g>
					<g id="&lt;Group&gt;">
						<g id="&lt;Group&gt;">
							<path id="&lt;Path&gt;" class="s1" d="m-672.2-1068.1c0 3.4-2.8 6.2-6.2 6.2-3.4 0-6.2-2.8-6.2-6.2 0-3.4 2.8-6.2 6.2-6.2 3.4 0 6.2 2.8 6.2 6.2z"/>
						</g>
						<path id="&lt;Path&gt;" class="s1" d="m-672.1-1042.5h-18.8v-9.4c0-5.2 4.2-9.4 9.4-9.4 5.2 0 9.4 4.2 9.4 9.4z"/>
					</g>
				</g>
				<g id="&lt;Group&gt;">
					<g id="&lt;Group&gt;">
						<path id="&lt;Compound Path&gt;" fill-rule="evenodd" class="s1" d="m-131.8-380.8q-1.6 0-3.2 0c-0.5 0-0.6-0.1-0.8-0.5-0.8-2-1.6-4-2.4-5.9-0.3-0.8-0.8-1.6-1.3-2.4-3.5-5.6-0.3-12.8 6.2-14 4.8-0.9 9.6 2.4 10.5 7.3q0.7 3.6-1.3 6.8c-1.2 1.8-2.1 3.8-2.8 5.9q-0.4 1.1-0.9 2.3c-0.1 0.4-0.3 0.5-0.7 0.5q-1.6 0-3.3 0zm1.7-1.1q0.6 0 1.1 0c0.2 0 0.3-0.1 0.3-0.3q0.3-0.8 0.7-1.6c0.7-2.2 1.6-4.4 2.9-6.4 1.2-1.8 1.6-3.7 1.2-5.8-0.7-4.1-4.7-7.1-8.8-6.5-5.9 0.8-9 7.2-5.9 12.2 0.9 1.4 1.6 2.8 2.2 4.3 0.5 1.2 1 2.5 1.5 3.8 0 0.1 0.1 0.2 0.2 0.3q0.6 0 1.2 0 0-4.6 0-9.2-0.3 0-0.6 0c-1-0.1-1.7-0.8-1.7-1.7 0-0.9 0.7-1.7 1.6-1.8 0.9 0 1.7 0.6 1.8 1.6 0.1 0.2 0 0.5 0 0.7q0.6 0 1.1 0c0.1-0.4 0.1-0.7 0.2-1 0.2-0.9 1.1-1.4 1.9-1.2 0.9 0.1 1.5 0.9 1.4 1.7 0 1-0.7 1.6-1.6 1.7q-0.3 0-0.7 0c0 3.1 0 6.1 0 9.2zm-2.2-9.2q0 4.6 0 9.1 0.5 0 1.1 0 0-4.5 0-9.1-0.6 0-1.1 0zm-1.2-1.2c0-0.2 0-0.4 0-0.6-0.1-0.3-0.3-0.5-0.6-0.5-0.3 0-0.6 0.3-0.6 0.6 0 0.2 0.3 0.5 0.6 0.5q0.3 0 0.6 0zm3.4 0q0.4 0 0.6 0c0.4 0 0.6-0.2 0.6-0.6 0-0.2-0.3-0.5-0.6-0.5-0.3 0-0.5 0.2-0.6 0.6q0 0.2 0 0.5z"/>
						<path id="&lt;Compound Path&gt;" fill-rule="evenodd" class="s1" d="m-129-373.9c-0.5 1.5-1.4 2.3-2.8 2.3-1.3 0-2.2-0.7-2.8-2.3q-0.3 0-0.6 0c-0.4 0-0.6-0.3-0.6-0.6 0-0.3 0.2-0.5 0.5-0.6q0.1 0 0.2 0 3.3 0 6.6 0 0.1 0 0.2 0c0.3 0.1 0.5 0.4 0.5 0.6 0 0.3-0.2 0.6-0.5 0.6q-0.3 0-0.7 0zm-1.2 0q-0.8 0-1.6 0-0.8 0-1.6 0c0.2 0.7 0.9 1.1 1.6 1.1 0.7 0 1.4-0.4 1.6-1.1z"/>
						<path id="&lt;Path&gt;" class="s1" d="m-131.8-378.5q-1.6 0-3.3 0c-0.4 0-0.7-0.2-0.7-0.6 0-0.3 0.3-0.6 0.7-0.6q3.3 0 6.6 0c0.5 0 0.7 0.3 0.7 0.6 0 0.4-0.2 0.6-0.7 0.6q-1.6 0-3.3 0z"/>
						<path id="&lt;Path&gt;" class="s1" d="m-131.8-377.3q1.7-0.1 3.4 0c0.5 0 0.8 0.4 0.6 0.8q-0.2 0.3-0.6 0.3-0.6 0-1.2 0-2.6 0-5.3 0-0.1 0-0.2 0c-0.4 0-0.7-0.2-0.7-0.6 0-0.3 0.3-0.5 0.7-0.5q1.7-0.1 3.3 0z"/>
						<path id="&lt;Path&gt;" class="s1" d="m-146.6-396.3q-0.4-0.2-0.3-0.6 0.1-0.4 0.5-0.4 0.1 0 0.2 0 1.8 0.1 3.6 0.3 0.1 0 0.1 0c0.4 0 0.6 0.3 0.5 0.6 0 0.3-0.2 0.5-0.6 0.5q-1.9-0.1-3.8-0.3c-0.1 0-0.2 0-0.2-0.1z"/>
						<path id="&lt;Path&gt;" class="s1" d="m-145.4-387.9q-0.5 0-0.6-0.4-0.1-0.4 0.2-0.6 0.1-0.1 0.3-0.2 1.6-0.7 3.2-1.4 0.1 0 0.2-0.1c0.3-0.1 0.6 0.1 0.7 0.3 0.1 0.3 0 0.7-0.3 0.8q-1.7 0.8-3.5 1.6c-0.1 0-0.2 0-0.2 0z"/>
						<path id="&lt;Path&gt;" class="s1" d="m-135.4-409.9q0.2-0.5 0.6-0.5 0.4 0 0.5 0.4 0.1 0.1 0.1 0.3 0.2 1.7 0.5 3.5 0 0.1 0 0.1c0.1 0.4-0.1 0.6-0.4 0.7-0.3 0-0.6-0.2-0.7-0.5q-0.3-1.9-0.6-3.8c0-0.1 0-0.2 0-0.2z"/>
						<path id="&lt;Path&gt;" class="s1" d="m-142.3-404q-0.5-0.6-1-1.3c-0.3-0.3-0.2-0.6 0-0.8 0.3-0.2 0.6-0.2 0.9 0.1q1 1.3 2 2.6c0.3 0.3 0.2 0.7-0.1 0.9-0.2 0.2-0.5 0.1-0.8-0.2q-0.5-0.6-1-1.3z"/>
						<path id="&lt;Path&gt;" class="s1" d="m-119.5-405.1q0.5-0.1 0.7 0.3 0.2 0.3-0.1 0.6 0 0.1-0.2 0.2-1.3 1.1-2.6 2.3-0.1 0.1-0.2 0.1c-0.2 0.2-0.6 0.2-0.8-0.1-0.2-0.2-0.2-0.6 0.1-0.8q1.4-1.2 2.9-2.5c0.1 0 0.2-0.1 0.2-0.1z"/>
						<path id="&lt;Path&gt;" class="s1" d="m-126.2-410.2q0.3-0.2 0.6-0.1 0.4 0.2 0.3 0.6 0 0.2-0.1 0.3-0.6 1.6-1.2 3.3-0.1 0.1-0.1 0.2c-0.1 0.2-0.4 0.4-0.7 0.3-0.3-0.1-0.5-0.4-0.4-0.8q0.7-1.8 1.4-3.6c0.1 0 0.1-0.1 0.2-0.2z"/>
						<path id="&lt;Path&gt;" class="s1" d="m-119.1-386.8q0.2 0.4-0.1 0.7-0.2 0.3-0.6 0.1-0.1 0-0.2-0.1-1.5-1.1-2.9-2.1-0.1-0.1-0.2-0.1c-0.2-0.2-0.2-0.6-0.1-0.8 0.2-0.2 0.6-0.3 0.8-0.1q1.6 1.1 3.2 2.2c0 0.1 0.1 0.2 0.1 0.2z"/>
						<path id="&lt;Path&gt;" class="s1" d="m-118.4-395.3q0.8 0.1 1.6 0.2c0.4 0.1 0.6 0.3 0.6 0.6 0 0.4-0.3 0.6-0.7 0.6q-1.6-0.2-3.3-0.4c-0.4-0.1-0.6-0.3-0.5-0.7 0-0.3 0.3-0.5 0.7-0.5q0.8 0.1 1.6 0.2z"/>
						<path id="&lt;Path&gt;" class="s1" d="m-133.9-399.9q-0.2-0.5-0.4-1c2.7-1.3 6.9-0.3 8.6 3.2q-0.5 0.3-1 0.6c-1.3-2.7-4.4-3.8-7.2-2.8z"/>
						<path id="&lt;Path&gt;" class="s1" d="m-125.2-396.4c0.1 0.4 0.2 0.8 0.3 1.2q-0.6 0.1-1.2 0.1-0.1-0.5-0.2-1c0.4-0.1 0.7-0.2 1.1-0.3z"/>
					</g>
					<g id="&lt;Group&gt;">
						<g id="&lt;Group&gt;">
							<path id="&lt;Path&gt;" class="s1" d="m-141.1-364c0 3.5-2.8 6.2-6.2 6.2-3.4 0-6.1-2.7-6.1-6.2 0-3.4 2.7-6.1 6.1-6.1 3.4 0 6.2 2.7 6.2 6.1z"/>
						</g>
						<path id="&lt;Path&gt;" class="s1" d="m-141-338.3h-18.8v-9.4c0-5.2 4.2-9.4 9.4-9.4 5.2 0 9.4 4.2 9.4 9.4z"/>
					</g>
					<g id="&lt;Group&gt;">
						<g id="&lt;Group&gt;">
							<path id="&lt;Path&gt;" class="s1" d="m-122-364c0 3.5 2.7 6.2 6.1 6.2 3.4 0 6.2-2.7 6.2-6.2 0-3.4-2.8-6.1-6.2-6.1-3.4 0-6.1 2.7-6.1 6.1z"/>
						</g>
						<path id="&lt;Path&gt;" class="s1" d="m-122.2-338.3h18.8v-9.4c0-5.2-4.2-9.4-9.4-9.4-5.2 0-9.4 4.2-9.4 9.4z"/>
					</g>
				</g>
				<path id="&lt;Path&gt;" class="s8" d="m-579.5-945.3v-183.8h-174v158.5h148.7z"/>
				<path id="&lt;Path&gt;" class="s8" d="m-196.3-945.3v-183.8h-174v158.5h148.7z"/>
				<path id="&lt;Path&gt;" class="s8" d="m187-945.3v-183.8h-174v158.5h148.6z"/>
				<path id="&lt;Path&gt;" class="s8" d="m816.9-945.3v-183.8h174v158.5h-148.6z"/>
				<path id="&lt;Path&gt;" class="s8" d="m548.4-945.3v-183.8h174v158.5h-148.6z"/>
				<path id="&lt;Path&gt;" class="s8" d="m-423.5-454.2v183.8h-174v-158.5h148.7z"/>
				<path id="&lt;Path&gt;" class="s8" d="m-47-454.2v183.8h-174v-158.5h148.6z"/>
				<path id="&lt;Path&gt;" class="s8" d="m737.4-454.2v183.8h174v-158.5h-148.7z"/>
				<path id="&lt;Path&gt;" class="s8" d="m360.9-454.2v183.8h174v-158.5h-148.6z"/>
				<g id="&lt;Group&gt;">
					<path id="&lt;Path&gt;" class="s9" d=""/>
					<g id="&lt;Group&gt;">
						<g id="&lt;Group&gt;">
							<path id="&lt;Path&gt;" class="s9" d="m-575.5-866.5c26 0 49.5 10.5 66.5 27.5 15.4 15.5 25.5 36.4 27.2 59.5q0.3 3.5 0.3 7v74h-0.5v74q0 3.5 0.2 7c3.6 48.7 44.2 87 93.8 87 49.5 0 90.1-38.3 93.7-87q0.3-3.5 0.3-7v-74h-0.5v-74q0-3.5 0.2-7c3.6-48.6 44.2-87 93.8-87 25.9 0 49.4 10.5 66.4 27.5 15.5 15.5 25.6 36.3 27.3 59.5q0.3 3.5 0.3 7v74h-0.5v74q0 3.5 0.2 7c3.6 48.7 44.2 87 93.8 87 49.5 0 90.1-38.3 93.7-87q0.3-3.5 0.3-7v-74h-0.5v-74q0-3.5 0.2-7c3.6-48.6 44.2-87 93.8-87 25.9 0 49.4 10.5 66.4 27.5 15.5 15.5 25.6 36.3 27.3 59.5q0.3 3.5 0.3 7v74h-0.6v74q0.1 3.5 0.3 7c3.6 48.7 44.2 87 93.7 87 49.6 0 90.2-38.3 93.8-87q0.2-3.5 0.2-7v-74h-0.5v-74q0-3.5 0.3-7c3.6-48.6 44.2-87 93.7-87 26 0 49.5 10.5 66.5 27.5 15.5 15.5 25.6 36.3 27.3 59.5q0.2 3.5 0.2 7v74h-0.5v74q0 3.5 0.3 7c3.6 48.7 44.2 87 93.7 87 49.6 0 90.2-38.4 93.8-87.1q0.2-3.4 0.2-6.9v-120.7"/>
							<g id="&lt;Group&gt;">
								<path id="&lt;Path&gt;" class="s1" d="m853.4-738.9l-23-38.6-21.9 39.2z"/>
							</g>
						</g>
					</g>
					<path id="&lt;Path&gt;" class="s10" d="m-525.5-857.5c0 30.4-24.6 55-55 55-30.4 0-55-24.6-55-55 0-30.3 24.6-55 55-55 30.4 0 55 24.7 55 55z"/>
					<path id="&lt;Path&gt;" class="s10" d="m-141.5-857.5c0 30.4-24.6 55-55 55-30.4 0-55-24.6-55-55 0-30.3 24.6-55 55-55 30.4 0 55 24.7 55 55z"/>
					<path id="&lt;Path&gt;" class="s10" d="m242.5-857.5c0 30.4-24.7 55-55 55-30.4 0-55-24.6-55-55 0-30.3 24.6-55 55-55 30.3 0 55 24.7 55 55z"/>
					<path id="&lt;Path&gt;" class="s10" d="m596.4-857.5c0 30.4-24.6 55-55 55-30.3 0-55-24.6-55-55 0-30.3 24.7-55 55-55 30.4 0 55 24.7 55 55z"/>
					<path id="&lt;Path&gt;" class="s10" d="m882.9-857.5c0 30.4-24.6 55-55 55-30.3 0-55-24.6-55-55 0-30.3 24.7-55 55-55 30.4 0 55 24.7 55 55z"/>
					<path id="&lt;Path&gt;" class="s10" d="m-341-532c0 30.4-24.6 55-55 55-30.4 0-55-24.6-55-55 0-30.4 24.6-55 55-55 30.4 0 55 24.6 55 55z"/>
					<path id="&lt;Path&gt;" class="s10" d="m36-532c0 30.4-24.7 55-55 55-30.4 0-55-24.6-55-55 0-30.4 24.6-55 55-55 30.3 0 55 24.6 55 55z"/>
					<path id="&lt;Path&gt;" class="s10" d="m413-532c0 30.4-24.7 55-55 55-30.4 0-55-24.6-55-55 0-30.4 24.6-55 55-55 30.3 0 55 24.6 55 55z"/>
					<path id="&lt;Path&gt;" class="s10" d="m789.9-532c0 30.4-24.6 55-55 55-30.3 0-55-24.6-55-55 0-30.4 24.7-55 55-55 30.4 0 55 24.6 55 55z"/>
					<path id="&lt;Compound Path&gt;" class="s1" d="m-584-837v-29.5h-8.2v-7.1c6.9 0 9.9-1.4 11.4-6.7h8.1v43.3z"/>
					<path id="&lt;Compound Path&gt;" class="s1" d="m-206.9-867.2q0.2-6.8 3.5-9.9c2.3-2.1 5.7-3.2 10.1-3.2 10.6 0 13.6 4.4 13.6 12 0 3.5-1.5 7.6-6.1 8.6v0.1c5.2 1 6.9 4.9 6.9 9.5 0 9.8-4.8 14-14.1 14-9.9 0-14.4-3.4-14.4-13.9h10.6c0 2.5 0.3 4.1 0.8 5.2 0.5 1.1 1.4 1.6 2.6 1.6 2.6 0 3.1-1.3 3.1-6.8 0-4.2-1.3-5.3-4.1-5.3h-2.9v-7.1h1.6c3.4 0 5-1.1 5-6.1 0-3.6-0.9-4.7-2.9-4.7-2.2 0-3 1.4-3 6z"/>
					<path id="&lt;Compound Path&gt;" class="s1" d="m175-879.4h25.2v8.5h-16.5l-0.5 7.3c2.1-1.9 4.8-3.2 8.1-3.2 6.9 0 10.8 4.6 10.8 13.8 0 11.2-3.4 16.9-14.2 16.9-10 0-14.2-4.6-14.2-12.4v-1.5h10.6v1.5c0 4.1 1.2 5.3 3.2 5.3 2.2 0 3.2-1 3.2-9.3 0-4.9-1.2-6.6-3.2-6.6-1.9 0-3.2 1.1-3.2 3.7h-10.2z"/>
					<path id="&lt;Compound Path&gt;" class="s1" d="m529.1-879.4h28.2v8.5c-6.1 9.4-10.5 23-11.3 33.9h-11.7c1.1-11.1 5-23.3 12.2-33.1h-17.4z"/>
					<path id="&lt;Compound Path&gt;" fill-rule="evenodd" class="s1" d="m826.4-847.3c0.1 1.5 0.3 2.5 0.9 3.2 0.5 0.6 1.2 0.9 2.3 0.9 1.6 0 3.1-1.4 3.1-4.1v-6.9h-0.2c-0.9 2-3.9 3.4-7.2 3.4-6.2 0-10.4-3-10.4-13.2 0-11.7 5.2-16.3 14.5-16.3 9.9 0 15 4.4 15 18.5v4.8c0 13.3-2 20.9-14.9 20.9-11.2 0-13.6-5.4-13.7-11.2zm3.1-11.7c2.1 0 3.1-1.5 3.1-7.1 0-5.6-0.8-7.1-3.1-7.1-2.2 0-3.2 1.5-3.2 7.1 0 5.6 0.8 7.1 3.2 7.1z"/>
					<path id="&lt;Compound Path&gt;" class="s1" d="m-408.8-535.6c0.1-4.5 0.6-8.1 2.7-10.6 2.1-2.6 5.6-4.1 11.5-4.1 11.4 0 13.9 5.3 13.9 11.8 0 5.9-2.1 9.6-5.3 12.9l-6.8 6.5c-0.9 1-2.4 2.3-2.8 3.6h14.9v8.5h-28.5c0-6 1.6-11.5 6.5-16.6l7.6-7.7c2.2-2.2 3.1-3.8 3.1-7.1 0-3.6-1.2-4.8-3-4.8-1.6 0-3.1 0.9-3.1 5.8v1.8z"/>
					<path id="&lt;Compound Path&gt;" fill-rule="evenodd" class="s1" d="m-33.2-523.6l13.7-25.8h12.4v26.1h3.7v8.2h-3.7v8.1h-10.7v-8.1h-15.4zm15.8 0.4v-14.4h-0.1l-7.1 14.4z"/>
					<path id="&lt;Compound Path&gt;" fill-rule="evenodd" class="s1" d="m360.1-539.2c-0.1-1.4-0.3-2.5-0.9-3.1-0.5-0.6-1.2-0.9-2.2-0.9-1.7 0-3.2 1.4-3.2 4.1v6.9h0.2c0.9-2.1 3.9-3.4 7.2-3.4 6.2 0 10.4 3 10.4 13.1 0 11.8-5.2 16.4-14.5 16.4-9.9 0-15-4.3-15-18.4v-4.9c0-13.3 2-20.9 14.9-20.9 11.2 0 13.7 5.4 13.7 11.1zm-3 26c2.1 0 3.1-1.6 3.1-7.1 0-5.6-0.8-7.1-3.1-7.1-2.2 0-3.2 1.5-3.2 7.1 0 5.5 0.8 7.1 3.2 7.1z"/>
					<path id="&lt;Compound Path&gt;" fill-rule="evenodd" class="s1" d="m720.8-519.8c0-5.3 2.4-9.4 7.2-10v-0.1c-5.1-1.2-6.4-5-6.4-8.8 0-6.9 3.9-11.6 13.9-11.6 10.1 0 14 4.7 14 11.6 0 3.8-1.4 7.6-6.4 8.8v0.1c5.2 0.9 7.2 5.1 7.2 10 0 10.7-5.5 13.7-14.8 13.7-9.2 0-14.7-3-14.7-13.7zm14.7 6.6c2.1 0 3.4-1.3 3.4-6.4 0-5.1-1.3-6.4-3.4-6.4-2 0-3.3 1.3-3.3 6.4 0 5.1 1.3 6.4 3.3 6.4zm0-19.5c1.6 0 3-1 3-5.3 0-4.2-1.4-5.2-3-5.2-1.5 0-2.9 1-2.9 5.2 0 4.3 1.4 5.3 2.9 5.3z"/>
				</g>
			</g>
		</g>
	</g>
</svg>