<?xml version="1.0" encoding="UTF-8"?>
<svg id="Capa_2" data-name="Capa 2" xmlns="http://www.w3.org/2000/svg" viewBox="0 0 1920 526.18">
  <defs>
    <style>
      .cls-1 {
        fill: #101623;
        opacity: .5;
      }
    </style>
  </defs>
  <g id="Capa_1-2" data-name="Capa 1">
    <polygon class="cls-1" points="0 194.16 60.7 143.68 91.77 115.53 113.12 85.43 133.51 42.72 184.96 11.65 211.18 0 260.69 15.53 320.88 44.66 350.97 67.96 398.54 93.98 498.54 131.06 642.22 190.28 780.07 244.64 877.15 255.32 950.94 236.88 988.8 234.94 1036.37 213.58 1036.37 240.76 1060.64 241.73 1102.38 226.2 1130.54 225.23 1155.78 226.2 1170.34 232.99 1194.61 232.99 1210.14 228.14 1229.56 227.17 1245.09 215.52 1271.3 200.96 1291.69 205.81 1282.95 232.02 1390.71 194.16 1449.93 168.92 1479.06 150.48 1457.7 177.66 1440.22 199.99 1426.63 228.14 1474.2 202.9 1493.62 197.07 1484.88 218.43 1505.27 205.81 1505.27 221.35 1490.71 237.85 1530.51 223.29 1550.9 205.81 1571.28 199.02 1562.55 217.46 1550.9 255.32 1578.08 226.2 1605.26 213.58 1605.26 247.56 1630.5 229.11 1654.77 207.75 1665.45 205.81 1690.69 188.34 1701.37 170.86 1720.79 159.21 1747 166.98 1758.65 190.28 1775.16 229.11 1800.4 214.55 1823.7 187.37 1849.91 183.48 1885.83 225.23 1920 205.81 1920 409.06 1920 526.18 0 513.56 0 194.16"/>
  </g>
</svg>