<svg xmlns="http://www.w3.org/2000/svg" viewBox="0 0 100 125" x="0px" y="0px"><title>Artboard 5</title><g data-name="Layer 2"><path d="M54.38,39.42H90.77a5,5,0,1,0,0-10.08H59a5,5,0,0,0-3-9.09H20.18a5,5,0,0,0,0,10.09h5a4,4,0,0,1,0,8.08H9.23a5,5,0,0,0,0,10.09H36.84a4,4,0,1,1,0,8.09H31.27a5,5,0,1,0,0,10.08H42.65a4.91,4.91,0,0,0-1.92,3.88v.34a4.88,4.88,0,0,0,4.88,4.87H83.29a4.88,4.88,0,0,0,4.88-4.87v-.34a4.89,4.89,0,0,0-4.88-4.88H65.39a4,4,0,1,1,0-8.08H86.76a5,5,0,1,0,0-10.09H54.38a4,4,0,0,1,0-8.09ZM56,29.84ZM45.61,66.18Z"/></g><text x="0" y="115" fill="#000000" font-size="5px" font-weight="bold" font-family="'Helvetica Neue', Helvetica, Arial-Unicode, Arial, Sans-serif">Created by Bern Choogal</text><text x="0" y="120" fill="#000000" font-size="5px" font-weight="bold" font-family="'Helvetica Neue', Helvetica, Arial-Unicode, Arial, Sans-serif">from the Noun Project</text></svg>