<svg width="1440" height="667" viewBox="0 0 1440 667" fill="none" xmlns="http://www.w3.org/2000/svg">
<path d="M1848.82 236.88L1835.38 233.35L1825.49 231.94L1814.88 238.3H1808.52L1801.44 243.25L1792.96 246.08L1785.89 255.98L1763.97 269.41L1735.68 286.38L1722.25 280.72L1697.5 264.46L1662.85 246.08L1613.36 220.62L1604.87 221.33L1581.54 231.23L1570.23 235.47L1558.21 238.3L1551.84 241.83L1496.69 255.98L1460.63 266.58L1443.66 263.75L1421.74 265.88L1412.55 270.12L1395.57 277.19H1383.55L1363.05 291.33L1327.69 315.37L1303.65 323.15L1280.32 335.17L1250.62 347.19L1199.71 352.85H1174.96L1170.72 340.83L1156.58 334.46V323.15V314.66L1145.27 310.42L1132.54 305.47L1124.76 295.57L1109.91 287.8L1106.38 279.31L1103.55 268L1097.18 257.39L1084.46 249.61L1068.19 241.83L1058.29 234.06L1054.05 224.16L1041.32 220.62L1029.3 215.67L1019.4 208.6H1008.09L1003.14 209.31V203.65L998.9 195.17L979.1 190.22L975.56 185.97L962.13 179.61L953.64 172.54L940.92 174.66V185.97L932.43 187.39L922.53 189.51L915.46 178.9L908.39 177.49L905 185.97L894.96 195.87L882.94 185.97V176.08L873.04 180.32L865.97 176.08L860.31 189.51L851.82 187.39L841.22 188.8L835.56 181.02L827.78 180.32H817.18L808.69 178.9L799.3 183.85L793.84 183.15L788.89 190.92L778.29 212.14L761.32 260.22L752.12 257.39L744.35 224.86L740.1 197.29L728.08 188.8V181.02L718.89 170.42L710.41 169.71L700.51 180.32L693.44 188.8L688.49 176.78L682.83 161.93L678.59 160.52L672.22 171.83L661.62 186.68L653.13 190.92L645.35 199.41L640.4 219.91L636.16 213.55L629.8 193.75L626.26 173.95L620.61 140.01L617.07 132.94L610 113.14L604.34 108.9L591.61 104.66L585.25 109.61L577.47 118.8L571.82 132.24L559.8 140.01L555.55 147.08L547.78 171.13V181.73V193.05L544.24 200.12L537.88 220.62V234.76L531.51 239.01V249.61L521.61 268.7V279.31L513.13 275.77V270.12V259.51L509.59 243.96L501.81 226.99L494.04 216.38L485.55 208.6L467.17 197.29L455.85 188.1L450.9 178.9L443.83 162.64L439.59 144.26L433.93 135.77L417.67 122.34L407.77 115.97H398.58L392.92 120.92L387.97 127.99L379.49 130.82V140.72L371.71 153.45L362.52 154.86V162.64H356.15L332.11 144.26L328.58 135.06L325.04 122.34H313.73L298.88 115.97L288.27 108.9H275.55L254.33 99L238.07 90.52H221.1L195.64 75.67L187.16 66.48L180.8 56.58H173.72L159.58 45.26L150.39 37.49L131.3 28.29L106.55 14.51L74.73 7.79002L57.76 0.720032L51.4 4.25003H35.84L25.94 7.79002L16.75 12.74H0.489998H-11.53L-22.85 16.27L-31.33 12.74L-34.87 16.98L-55 28.29V666.9H1865V225.57L1855.89 229.81L1848.82 236.88Z" fill="#424B54"/>
<path d="M-55 420.2H-49.13L-42.15 427.72L-37.85 433.63L-26.58 430.4L-15.84 420.2L-12.08 415.91H-8.32L-11 427.18L-14.23 436.85H-8.32H4.57V441.68L-0.260002 445.44H-12.08L-17.98 448.01L-25.22 444.9L-30.87 444.37L-38.93 448.01L-41.61 452.42L-37.85 458.43L-36.24 461.01L-33.02 465.84L-43.76 458.33L-55 451.35V420.2Z" fill="#FFF9F6"/>
<path d="M-54.27 38.06H-46.86L-42.96 30.83L-40.18 25.26V20.69L-37.13 17.95L-30.6 12.02L-22.12 15.56L-10.8 12.02H17.48L32.64 4.94L52.13 3.54001L58.34 10.79L67.25 20.8H89.51L94.52 16.91L76.15 10.79L60.57 6.34001L58.49 0L78.22 7.66L97.35 11.7L114.84 19.03L151.12 36.77L170.78 53.65L175.79 65.89L185.8 72.57H193.22L215.93 86.36L221.83 89.8H238.8L261.13 101.12L263.73 107.64H255.38L246.47 111.54L242.02 115.43L232.56 119.33L229.22 125.45L234.23 131.02L239.79 133.24L245.36 128.79L250.37 127.68L257.61 129.9L260.39 133.24L251.48 136.58H242.58H233.67H228.11L219.76 139.37L211.96 149.94L209.74 164.41L212.52 173.32L220.31 183.89H224.21L232.56 174.99L234.78 183.89L237.57 188.35L245.92 191.69L257.61 187.23L265.95 183.89L272.08 195.58L281.54 204.49H292.11L295.45 199.48L302.13 204.49H311.6L318.28 208.38V218.4L316.05 228.98L308.81 233.43L308.26 237.33L314.38 249.02L318.28 265.16V270.17H309.93V272.95L303.25 275.18L295.45 269.61L297.12 254.58L296.01 249.02L294.34 241.22L284.32 238.44L282.65 228.42L277.64 225.08L265.95 223.97L250.37 222.86L245.92 227.31L248.14 232.87L262.61 243.45L273.19 247.35L277.09 251.8L269.85 256.81L251.48 259.04H242.02L235.9 266.83L226.99 267.38L215.86 264.6V250.13L221.98 245.12L214.19 247.35L206.4 239L197.49 232.32L184.69 231.76L175.79 226.75L176.34 220.07L172.45 212.28L165.21 200.59L148.51 187.23L139.61 181.67L136.82 186.12L136.27 192.8L125.69 193.36L114.56 196.7L104.54 196.14L103.43 200.04L106.77 206.16L101.76 208.38L93.96 206.16L97.3 199.48L93.41 198.92L86.73 194.47L92.3 190.57L97.3 190.02L98.97 182.78L106.77 179.44L111.22 172.76L113.45 166.08L119.01 173.88L122.35 176.66L128.47 177.77H134.6L137.94 172.21L142.95 174.99L149.07 169.98L154.63 167.2L162.43 164.97L160.76 159.4L153.52 162.19L155.75 156.06L165.21 153.28L167.99 158.85L173.56 157.18L179.12 155.51L187.47 157.73H196.94L201.95 155.51L198.05 144.93L193.6 147.71L185.8 146.05L181.91 142.15L183.02 137.59H176.9L175.23 134.36L173.56 145.49L167.44 147.71L159.64 148.27L152.41 147.71L150.74 137.59L142.95 132.13L137.94 126.56L128.47 122.67L121.79 115.99L118.46 111.54L114.56 108.75L110.66 100.4L100.09 99.29L94.52 100.96L91.74 108.75L90.63 117.66L97.3 121V126.01L98.42 133.24H106.21L111.22 137.59L107.88 143.82L105.1 148.83L105.65 159.4L105.1 167.2L103.98 174.99L96.19 177.77L94.52 184.45L87.84 185.56L82.83 188.35L80.05 191.69L74.48 197.81L66.69 193.91L73.37 184.45L65.02 185.01L61.13 176.1L69.47 173.88L64.47 168.87L56.67 172.21L49.99 171.65L46.65 164.41L41.64 162.74L34.41 166.64L24.39 165.53L5.46998 163.86L-5.67002 160.52L-15.69 157.18L-20.69 149.38L-27.37 137.59L-35.72 131.57L-42.96 127.68L-50.19 132.13L-54.27 125.45V38.06Z" fill="#FFF9F6"/>
<path d="M111.6 176.57H119.95H122.73L127.74 182.7L133.87 189.27V194.94V200.51L138.88 206.07V211.64V216.09H133.87L128.3 219.43L125.24 207.19L118.84 204.96L119.4 201.06V192.16H115.5L111.6 181.03V176.57Z" fill="#FFF9F6"/>
<path d="M279.31 146.32H288.22L294.9 148.83V152.72H287.11H279.31V146.32Z" fill="#FFF9F6"/>
<path d="M224.77 143.82L232.56 149.52H239.79L242.58 152.72H249.26L253.71 146.32L259.28 143.82L268.18 146.32L270.41 152.72L282.1 157.18H294.9L298.79 163.86L309.93 167.75L314.38 170.54L318.28 182.22V185.56H314.38H306.03L304.92 189.46H298.24L291 183.89L298.79 193.36L291.56 197.25L287.11 200.59L276.53 189.46L271.52 183.34V174.43L261.5 172.21H254.27L250.93 176.1L244.8 182.22L238.12 175.54L241.46 167.75L244.8 162.19L238.68 163.86L229.78 161.07L224.77 165.53L219.2 162.19L224.77 156.06L219.2 152.72V146.32L224.77 143.82Z" fill="#FFF9F6"/>
<path d="M115.11 280.47H125.24V286.4H131.27H138.88V289.36V297.07L135.26 305.96L136.45 311.29L135.85 316.63H125.24H115.11H103.85L95.5499 320.77L90.2199 317.81L84.8899 320.77L79.5499 326.86H73.0399H65.9199L59.9999 322.55L52.8899 316.03V309.51L62.9599 313.07L70.0699 310.11L74.8099 308.92L83.1099 311.29L86.0699 311.88L88.4399 307.14L95.8799 303.67H103.26L111.6 300.03L105.04 298.85L108.59 289.36L111.6 280.47H115.11Z" fill="#FFF9F6"/>
<path d="M-24.3001 214.9H-17.1101L-13.8201 220.89L-9.62009 223.89L0.259914 225.09L6.54992 226.88L12.2399 232.27H19.4199L27.8099 236.16L38.8899 241.55L47.5699 244.25H55.6499L61.6399 247.24L67.0299 252.27L70.6299 255.93H77.5099V260.42H70.3299L65.8399 255.93L59.2499 255.63L50.8599 255.93L38.5899 249.64L26.6099 246.35L12.5299 241.55L-2.44009 235.27L-9.03009 230.48L-16.2101 230.18L-22.2001 221.19L-27.5901 217.6L-24.3001 214.9Z" fill="#FFF9F6"/>
<path d="M67.6301 264.91L65.84 268.5L59.55 266.71V270.9L63.59 277.19L74.22 278.99H80.81V273.6V267.61L77.51 264.91H67.6301Z" fill="#FFF9F6"/>
<path d="M324.15 172.21L328.9 185.98L334.6 181.03L337.92 174.85L324.15 172.21Z" fill="#FFF9F6"/>
<path d="M345.04 191.95H352.16V185.98H361.18L365.46 191.95L384.45 200.59L402.49 208.74H415.31H423.38V213.23H407.71L402.49 220.27H393.94L370.2 203.12L356.44 200.59L342.19 196.69L345.04 191.95Z" fill="#FFF9F6"/>
<path d="M331.04 279.3V284.52L339.82 289.74H345.99L357.86 293.07L354.54 295.92L348.37 298.29L353.11 311.58L360.23 324.4L363.56 334.13H358.81L347.3 328.67V319.18V314.91L342.19 306.71L334.12 300.19L324.15 293.07V283.57L328.9 279.3H331.04Z" fill="#FFF9F6"/>
</svg>
