<svg width="1440" height="541" viewBox="0 0 1440 541" fill="none" xmlns="http://www.w3.org/2000/svg">
<path opacity="0.5" d="M-432 199.629L-371.3 147.727L-340.23 118.774L-318.88 87.8362L-298.49 43.9129L-247.04 11.9781L-220.82 0L-171.31 15.9674L-111.12 45.9076L-81.03 69.8638L-33.46 96.6167L66.54 134.751L210.22 195.639L348.07 251.53L445.15 262.511L518.94 243.542L556.8 241.547L604.37 219.596V247.541L628.64 248.538L670.38 232.571L698.54 231.563L723.78 232.571L738.34 239.552H762.61L778.14 234.566L797.56 233.568L813.09 221.59L839.3 206.61L859.69 211.607L850.95 238.555L958.71 199.629L1017.93 173.678L1047.06 154.708L1025.7 182.664L1008.22 205.612L994.63 234.566L1042.2 208.615L1061.62 202.62L1052.88 224.582L1073.27 211.607V227.574L1058.71 244.549L1098.51 229.569L1118.9 211.607L1139.28 204.615L1130.55 223.585L1118.9 262.511L1146.08 232.571L1173.26 219.596V254.522L1198.5 235.563L1222.77 213.601L1233.45 211.607L1258.69 193.634L1269.37 175.672L1288.79 163.694L1315 171.683L1326.65 195.639L1343.15 235.563L1368.4 220.593L1391.7 192.637L1417.91 188.648L1453.83 231.563L1488 211.607V420.581V541L-432 528.025V199.629Z" fill="#101623"/>
</svg>
