<svg xmlns="http://www.w3.org/2000/svg" xmlns:xlink="http://www.w3.org/1999/xlink" version="1.1" x="0px" y="0px" viewBox="0 0 90 112.5" enable-background="new 0 0 90 90" xml:space="preserve"><g><g><path d="M44.805,83.881c3.676-0.406,4.903-3.063,4.903-3.063h-9.396C41.538,83.881,44.805,83.881,44.805,83.881z M51.812,73.26    H39.025c-1.657,0-3.002,1.234-3.002,2.76c0,1.521,1.345,2.756,3.002,2.756h12.787c1.657,0,3.001-1.234,3.001-2.756    C54.813,74.494,53.469,73.26,51.812,73.26z M52.065,65.908H37.75c-1.856,0-3.36,1.234-3.36,2.758c0,1.521,1.504,2.756,3.36,2.756    h14.315c1.856,0,3.36-1.234,3.36-2.756C55.426,67.143,53.922,65.908,52.065,65.908z M67.015,27.471    c0.449-9.312-9.989-20.924-22.121-20.305c0,0-19.558-1.115-22.157,20.301c0,0-1.828,7.806,6.546,17.814    c0,0,5.076,5.849,3.852,11.769c0,0-1.239,5.076,3.092,5.795h18.382c0,0,3.977-0.832,2.912-5.918    c-1.115-5.322,3.465-12.255,3.465-12.255S68.043,36.379,67.015,27.471z M38.885,21.246c0,0-4.531,1.769-4.642,7.516    c0,0-1.546,2.541-3.646,1.325c-2.1-1.214-1.438-3.425-1.438-3.425s0.332-6.742,6.3-9.837c0,0,2.713-1.281,4.089,0.222    C40.765,18.372,38.885,21.246,38.885,21.246z"/></g></g><text x="0" y="105" fill="#000000" font-size="5px" font-weight="bold" font-family="'Helvetica Neue', Helvetica, Arial-Unicode, Arial, Sans-serif">Created by Opher Aloni</text><text x="0" y="110" fill="#000000" font-size="5px" font-weight="bold" font-family="'Helvetica Neue', Helvetica, Arial-Unicode, Arial, Sans-serif">from the Noun Project</text></svg>