<svg width="462" height="559" viewBox="0 0 462 559" fill="none" xmlns="http://www.w3.org/2000/svg">
<g filter="url(#filter0_d_348_2)">
<path d="M68.4586 480.748V518.978C68.4586 523.37 64.8811 526.947 60.4894 526.947C56.0977 526.947 52.5202 523.37 52.5202 518.978C52.5202 514.586 56.0977 511.009 60.4894 511.009C60.5214 511.009 60.5535 511.009 60.5856 511.009H64.2079V506.758H60.1047V506.771C53.546 506.976 48.2695 512.368 48.2695 518.978C48.2695 525.588 53.7512 531.198 60.4894 531.198C67.2276 531.198 72.7092 525.716 72.7092 518.978V480.748H68.4586Z" fill="#FFF9F6"/>
<path d="M267.573 508.265C269.843 508.265 271.683 510.111 271.683 512.375V550.772H276.574V512.375C276.574 507.406 272.535 503.367 267.567 503.367C265.182 503.367 262.931 504.29 261.232 505.97L261.008 506.194L260.783 505.97C259.084 504.29 256.841 503.367 254.449 503.367C252.058 503.367 249.814 504.29 248.115 505.97L247.89 506.194L247.666 505.97C245.967 504.29 243.717 503.367 241.332 503.367H237.325V508.258H241.332C242.409 508.258 243.435 508.675 244.204 509.425C244.313 509.528 244.409 509.637 244.505 509.752C244.672 509.957 244.826 510.175 244.948 510.406C245.275 511.002 245.441 511.682 245.441 512.368V531.781H250.333V512.368C250.333 510.099 252.18 508.258 254.443 508.258C256.706 508.258 258.552 510.105 258.552 512.368V531.781H263.444V512.368C263.444 510.099 265.291 508.258 267.554 508.258L267.573 508.265Z" fill="#FFF9F6"/>
<path d="M80.8644 496.019C80.8644 496.513 80.422 496.955 79.9732 496.955C79.3834 496.955 78.9858 496.513 78.9858 496.019C78.9858 495.474 79.3834 495.083 79.9732 495.083C80.4156 495.083 80.8644 495.481 80.8644 496.019ZM80.422 529.916H79.3385V504.008H80.422V529.916Z" fill="#FFF9F6" stroke="#FFF9F6" stroke-width="4" stroke-miterlimit="10"/>
<path d="M103.413 523.851C103.413 528.095 100.207 530.461 95.3669 530.461C92.0138 530.461 89.4942 529.326 87.4233 527.697L87.9683 526.909C89.9942 528.441 92.3087 529.525 95.3669 529.525C99.7586 529.525 102.374 527.454 102.374 523.851C102.374 520.741 100.945 519.215 95.5143 516.946C90.0391 514.676 88.2119 513.195 88.2119 509.393C88.2119 506.085 90.8277 503.469 95.3669 503.469C98.97 503.469 101.336 504.553 102.919 505.835L102.33 506.624C100.752 505.341 98.5276 504.405 95.322 504.405C91.5201 504.405 89.2505 506.675 89.2505 509.342C89.2505 512.548 90.7828 513.785 96.008 516.003C101.631 518.42 103.407 519.901 103.407 523.851H103.413Z" fill="#FFF9F6" stroke="#FFF9F6" stroke-width="4" stroke-miterlimit="10"/>
<path d="M129.27 516.593C129.27 516.792 129.27 516.939 129.218 517.138H109.927C110.023 525.082 113.972 529.525 119.153 529.525C122.807 529.525 124.974 528.685 127.346 527.306L127.789 528.095C125.269 529.576 122.903 530.461 119.056 530.461C113.729 530.461 108.895 525.973 108.895 516.939C108.895 507.906 113.485 503.469 119.159 503.469C124.833 503.469 129.276 508.207 129.276 516.593H129.27ZM128.231 516.247C128.083 508.547 124.384 504.405 119.153 504.405C113.921 504.405 110.125 508.547 109.927 516.247H128.231Z" fill="#FFF9F6" stroke="#FFF9F6" stroke-width="4" stroke-miterlimit="10"/>
<path d="M156.158 529.916H155.075V514.125C155.075 507.265 151.818 504.405 146.689 504.405C142.694 504.405 137.905 506.579 137.905 514.073V529.909H136.822V504.001H137.905V509.624C138.893 505.527 142.496 503.456 146.887 503.456C152.414 503.456 156.165 506.463 156.165 513.92V529.909L156.158 529.916ZM154.087 494.34C153.844 497.154 152.26 498.584 150.093 498.584C148.663 498.584 147.573 497.795 146.394 496.955C144.964 495.917 144.028 495.128 142.695 495.128C141.015 495.128 139.931 496.167 139.585 498.481H138.694C138.937 495.667 140.521 494.237 142.688 494.237C144.118 494.237 145.253 495.026 146.387 495.866C147.817 496.904 148.753 497.693 150.087 497.693C151.766 497.693 152.85 496.609 153.196 494.34H154.087Z" fill="#FFF9F6" stroke="#FFF9F6" stroke-width="4" stroke-miterlimit="10"/>
<path d="M185.419 516.939C185.419 525.671 180.483 530.461 174.315 530.461C168.148 530.461 163.211 525.671 163.211 516.939C163.211 508.207 168.148 503.469 174.315 503.469C180.483 503.469 185.419 508.303 185.419 516.939ZM184.336 516.939C184.336 508.797 179.944 504.405 174.322 504.405C168.699 504.405 164.307 508.797 164.307 516.939C164.307 525.082 168.699 529.525 174.322 529.525C179.944 529.525 184.336 525.082 184.336 516.939Z" fill="#FFF9F6" stroke="#FFF9F6" stroke-width="4" stroke-miterlimit="10"/>
<path d="M212.205 529.82L202.685 504.014H203.768L212.75 528.441L221.777 504.014H222.861L209.884 539.045H208.801L212.205 529.82Z" fill="#FFF9F6" stroke="#FFF9F6" stroke-width="4" stroke-miterlimit="10"/>
<path d="M281.774 504.014H282.858V519.805C282.858 526.665 286.114 529.525 291.243 529.525C295.238 529.525 300.027 527.351 300.027 519.857V504.021H301.11V529.929H300.027V524.306C299.04 528.403 295.436 530.474 291.045 530.474C285.518 530.474 281.768 527.467 281.768 520.01V504.021L281.774 504.014Z" fill="#FFF9F6" stroke="#FFF9F6" stroke-width="4" stroke-miterlimit="10"/>
<path d="M328.749 516.593C328.749 516.792 328.749 516.939 328.698 517.138H309.406C309.502 525.082 313.452 529.525 318.632 529.525C322.286 529.525 324.453 528.685 326.826 527.306L327.268 528.095C324.748 529.576 322.383 530.461 318.536 530.461C313.208 530.461 308.374 525.973 308.374 516.939C308.374 507.906 312.964 503.469 318.638 503.469C324.312 503.469 328.755 508.207 328.755 516.593H328.749ZM327.71 516.247C327.563 508.547 323.864 504.405 318.632 504.405C313.4 504.405 309.605 508.547 309.406 516.247H327.71Z" fill="#FFF9F6" stroke="#FFF9F6" stroke-width="4" stroke-miterlimit="10"/>
<path d="M336.295 494.538L337.378 493.948V508.502C339.501 505.643 342.507 503.469 346.361 503.469C352.131 503.469 356.131 507.419 356.131 516.843C356.131 526.268 352.086 530.461 346.264 530.461C342.565 530.461 339.507 528.39 337.385 525.524V529.916H336.301V494.538H336.295ZM337.378 509.887V523.998C339.353 527.159 342.61 529.525 346.162 529.525C351.688 529.525 355.041 525.626 355.041 516.843C355.041 508.06 351.586 504.412 346.162 504.412C342.661 504.412 339.449 506.681 337.378 509.887Z" fill="#FFF9F6" stroke="#FFF9F6" stroke-width="4" stroke-miterlimit="10"/>
<path d="M364.716 529.916H363.633V494.538L364.716 493.948V529.922V529.916Z" fill="#FFF9F6" stroke="#FFF9F6" stroke-width="4" stroke-miterlimit="10"/>
<path d="M392.593 516.593C392.593 516.792 392.593 516.939 392.541 517.138H373.25C373.346 525.082 377.295 529.525 382.476 529.525C386.13 529.525 388.297 528.685 390.669 527.306L391.112 528.095C388.592 529.576 386.226 530.461 382.38 530.461C377.052 530.461 372.218 525.973 372.218 516.939C372.218 507.906 376.808 503.469 382.482 503.469C388.156 503.469 392.599 508.207 392.599 516.593H392.593ZM391.554 516.247C391.407 508.547 387.707 504.405 382.476 504.405C377.244 504.405 373.449 508.547 373.25 516.247H391.554Z" fill="#FFF9F6" stroke="#FFF9F6" stroke-width="4" stroke-miterlimit="10"/>
<path d="M413.704 523.851C413.704 528.095 410.499 530.461 405.658 530.461C402.305 530.461 399.786 529.326 397.715 527.697L398.26 526.909C400.286 528.441 402.6 529.525 405.658 529.525C410.05 529.525 412.666 527.454 412.666 523.851C412.666 520.741 411.236 519.215 405.806 516.946C400.331 514.676 398.503 513.195 398.503 509.393C398.503 506.085 401.119 503.469 405.658 503.469C409.261 503.469 411.627 504.553 413.211 505.835L412.621 506.624C411.044 505.341 408.819 504.405 405.613 504.405C401.812 504.405 399.542 506.675 399.542 509.342C399.542 512.548 401.074 513.785 406.299 516.003C411.922 518.42 413.698 519.901 413.698 523.851H413.704Z" fill="#FFF9F6" stroke="#FFF9F6" stroke-width="4" stroke-miterlimit="10"/>
<path d="M134.334 333.398L133.36 334.244C130.891 336.392 127.75 337.578 124.506 337.578C117.062 337.578 111.01 331.519 111.01 324.076V301.784H105.625V294.969H111.01V284.563H117.819V294.969H123.698V301.784H117.819V324.076C117.819 327.762 120.819 330.763 124.506 330.763C126.102 330.763 127.654 330.173 128.878 329.109L129.84 328.269L134.334 333.398Z" fill="#FFF9F6"/>
<path d="M203.589 284.57H196.78V336.283H203.589V284.57Z" fill="#FFF9F6"/>
<path d="M165.314 293.225C159.242 293.225 154.062 297.316 152.395 302.874L158.813 305.182C159.518 302.246 162.185 300.04 165.314 300.04C168.91 300.04 171.904 302.97 171.988 306.548V306.9H172.033L171.988 319.537V324.076C171.988 327.763 168.987 330.763 165.301 330.763C161.614 330.763 158.62 327.763 158.62 324.076C158.62 320.39 161.602 317.408 165.269 317.389H168.59L168.616 310.574L164.865 310.587C157.671 310.863 151.812 316.908 151.805 324.076C151.805 327.641 153.209 331.02 155.761 333.584C158.325 336.161 161.711 337.578 165.301 337.578C172.744 337.578 178.803 331.52 178.803 324.076V306.522C178.694 299.188 172.648 293.219 165.314 293.219V293.225Z" fill="#FFF9F6"/>
<path d="M228.375 284.563H221.56V336.277H228.375V284.563Z" fill="#FFF9F6"/>
<path d="M314.657 296.751L310.169 301.88L309.201 301.04C307.983 299.976 306.432 299.393 304.835 299.393C301.149 299.393 298.148 302.387 298.148 306.073V336.296H291.333V306.073C291.333 298.63 297.392 292.578 304.835 292.578C308.079 292.578 311.227 293.757 313.689 295.911L314.657 296.751Z" fill="#FFF9F6"/>
<path d="M259.854 330.769C256.251 330.769 253.256 327.833 253.173 324.23V324.159C253.173 323.909 253.18 323.723 253.18 323.493L253.167 320.223V313.414V306.727C253.167 303.041 256.167 300.04 259.854 300.04C263.54 300.04 266.541 303.041 266.541 306.727C266.541 310.414 263.54 313.414 259.854 313.414H256.571V320.223H259.854C267.297 320.223 273.356 314.171 273.356 306.727C273.356 299.284 267.297 293.225 259.854 293.225C252.41 293.225 246.595 298.97 246.364 306.343L246.352 324.294C246.454 331.622 252.513 337.585 259.854 337.585C266.63 337.585 272.304 332.481 273.208 325.91L266.515 324.409C266.342 327.929 263.393 330.763 259.854 330.763V330.769Z" fill="#FFF9F6"/>
<path d="M326.242 175.322C317.933 175.322 310.413 178.669 304.938 184.086C299.463 178.669 291.942 175.322 283.633 175.322C275.324 175.322 267.804 178.669 262.329 184.086C256.853 178.669 249.333 175.322 241.024 175.322H226.971V193.306H241.024C244.371 193.306 247.41 194.639 249.628 196.806C249.948 197.114 250.243 197.441 250.525 197.787C251.026 198.396 251.474 199.05 251.853 199.749C252.801 201.493 253.34 203.493 253.34 205.622V269.728H271.324V205.622C271.324 198.819 276.837 193.306 283.64 193.306C290.442 193.306 295.956 198.819 295.956 205.622V269.728H313.939V205.622C313.939 198.819 319.453 193.306 326.255 193.306C333.058 193.306 338.571 198.819 338.571 205.622V406.339C306.419 425.707 269.509 436.061 231.01 436.061C175.174 436.061 122.679 414.314 83.1982 374.834C43.7177 335.353 21.9707 282.858 21.9707 227.022C21.9707 171.187 43.7177 118.691 83.1982 79.211C108.612 53.7968 139.418 35.7491 173.039 26.1002L168.134 8.6167C129.686 18.7016 99.3417 37.6469 70.4911 66.4975C27.6126 109.376 4 166.385 4 227.022C4 287.66 27.6126 344.669 70.4911 387.547C113.37 430.426 170.378 454.038 231.016 454.038C276.356 454.038 319.671 440.831 356.561 416.244V205.622C356.561 188.888 342.995 175.329 326.268 175.329L326.242 175.322Z" fill="#FFF9F6"/>
<path d="M391.516 66.4911C348.637 23.6126 291.628 0 230.991 0C217.437 0 204.07 1.18608 190.997 3.50054V21.7918V227.022C190.997 245.615 175.873 260.739 157.28 260.739C138.688 260.739 123.564 245.615 123.564 227.022C123.564 208.43 138.688 193.306 157.28 193.306C157.421 193.306 157.556 193.318 157.697 193.318V193.306H173.02V175.322H155.652V175.367C127.898 176.233 105.58 199.063 105.58 227.022C105.58 254.982 128.77 278.723 157.28 278.723C185.791 278.723 208.974 255.533 208.974 227.022V19.1376C216.238 18.3811 223.579 17.9836 230.984 17.9836C286.82 17.9836 339.315 39.7305 378.796 79.211C418.276 118.692 440.023 171.187 440.023 227.022C440.023 282.858 418.283 335.353 378.796 374.834C377.385 376.244 375.955 377.623 374.513 378.988L386.066 392.991L391.509 387.547C434.388 344.669 458 287.66 458 227.022C458 166.385 434.388 109.376 391.509 66.4975L391.516 66.4911Z" fill="#FFF9F6"/>
</g>
<defs>
<filter id="filter0_d_348_2" x="0" y="0" width="462" height="558.771" filterUnits="userSpaceOnUse" color-interpolation-filters="sRGB">
<feFlood flood-opacity="0" result="BackgroundImageFix"/>
<feColorMatrix in="SourceAlpha" type="matrix" values="0 0 0 0 0 0 0 0 0 0 0 0 0 0 0 0 0 0 127 0" result="hardAlpha"/>
<feOffset dy="4"/>
<feGaussianBlur stdDeviation="2"/>
<feComposite in2="hardAlpha" operator="out"/>
<feColorMatrix type="matrix" values="0 0 0 0 0 0 0 0 0 0 0 0 0 0 0 0 0 0 0.25 0"/>
<feBlend mode="normal" in2="BackgroundImageFix" result="effect1_dropShadow_348_2"/>
<feBlend mode="normal" in="SourceGraphic" in2="effect1_dropShadow_348_2" result="shape"/>
</filter>
</defs>
</svg>
