<?xml version="1.0" encoding="UTF-8"?>
<svg id="Capa_2" data-name="Capa 2" xmlns="http://www.w3.org/2000/svg" viewBox="0 0 1920 667.21">
  <defs>
    <style>
      .cls-1 {
        fill: #fff9f6;
      }

      .cls-2 {
        fill: #424b54;
      }

      .cls-3 {
        fill: #5a636b;
      }
    </style>
  </defs>
  <g id="Capa_1-2" data-name="Capa 1">
    <g>
      <g>
        <g>
          <polygon class="cls-2" points="1903.82 237.2 1890.38 233.67 1880.49 232.25 1869.88 238.62 1863.52 238.62 1856.44 243.57 1847.96 246.39 1840.89 256.29 1818.97 269.73 1790.69 286.7 1777.25 281.04 1752.5 264.78 1717.85 246.39 1668.36 220.94 1659.87 221.65 1636.54 231.54 1625.23 235.79 1613.21 238.62 1606.84 242.15 1551.69 256.29 1515.63 266.9 1498.66 264.07 1476.74 266.19 1467.55 270.43 1450.58 277.51 1438.55 277.51 1418.05 291.65 1382.69 315.69 1358.65 323.47 1335.32 335.49 1305.62 347.51 1254.71 353.16 1229.96 353.16 1225.72 341.14 1211.58 334.78 1211.58 323.47 1211.58 314.98 1200.27 310.74 1187.54 305.79 1179.76 295.89 1164.91 288.11 1161.38 279.63 1158.55 268.31 1152.18 257.71 1139.46 249.93 1123.19 242.15 1113.29 234.37 1109.05 224.47 1096.32 220.94 1084.3 215.99 1074.4 208.92 1063.09 208.92 1058.14 209.63 1058.14 203.97 1053.9 195.48 1034.1 190.53 1030.56 186.29 1017.13 179.93 1008.64 172.86 995.92 174.98 995.92 186.29 987.43 187.71 977.53 189.83 970.46 179.22 963.39 177.81 960 186.29 949.96 196.19 937.94 186.29 937.94 176.39 928.04 180.63 920.97 176.39 915.31 189.83 906.82 187.71 896.22 189.12 890.56 181.34 882.78 180.63 872.18 180.63 863.69 179.22 854.3 184.17 848.84 183.46 843.89 191.24 833.29 212.45 816.32 260.54 807.12 257.71 799.35 225.18 795.1 197.6 783.08 189.12 783.08 181.34 773.89 170.73 765.41 170.03 755.51 180.63 748.44 189.12 743.49 177.1 737.83 162.25 733.59 160.84 727.22 172.15 716.62 187 708.13 191.24 700.35 199.73 695.4 220.23 691.16 213.87 684.8 194.07 681.26 174.27 675.61 140.33 672.07 133.26 665 113.46 659.34 109.22 646.61 104.98 640.25 109.93 632.47 119.12 626.82 132.55 614.8 140.33 610.55 147.4 602.78 171.44 602.78 182.05 602.78 193.36 599.24 200.43 592.88 220.94 592.88 235.08 586.51 239.32 586.51 249.93 576.61 269.02 576.61 279.63 568.13 276.09 568.13 270.43 568.13 259.83 564.59 244.27 556.81 227.3 549.04 216.7 540.55 208.92 522.17 197.6 510.85 188.41 505.9 179.22 498.83 162.96 494.59 144.57 488.93 136.09 472.67 122.65 462.77 116.29 453.58 116.29 447.92 121.24 442.97 128.31 434.49 131.14 434.49 141.04 426.71 153.76 417.52 155.18 417.52 162.96 411.15 162.96 387.11 144.57 383.58 135.38 380.04 122.65 368.73 122.65 353.88 116.29 343.27 109.22 330.55 109.22 309.33 99.32 293.07 90.83 276.1 90.83 250.64 75.98 242.16 66.79 235.8 56.89 228.73 56.89 214.58 45.58 205.39 37.8 186.3 28.61 161.55 14.82 129.73 8.1 112.76 1.03 106.4 4.57 90.84 4.57 80.94 8.1 71.75 13.05 55.49 13.05 43.47 13.05 32.15 16.59 23.67 13.05 20.13 17.3 0 28.61 0 667.21 1920 667.21 1920 225.89 1910.89 230.13 1903.82 237.2"/>
          <polygon class="cls-1" points="0 38.06 7.42 38.06 11.31 30.83 14.09 25.26 14.09 20.69 17.14 17.94 23.67 12.02 32.15 15.56 43.47 12.02 71.75 12.02 86.91 4.94 106.4 3.54 112.61 10.79 121.52 20.8 143.78 20.8 148.79 16.91 130.42 10.79 114.84 6.33 112.76 0 132.49 7.65 151.62 11.69 169.11 19.03 205.39 36.77 225.05 53.65 230.06 65.89 240.07 72.57 247.49 72.57 270.2 86.36 276.1 89.8 293.07 89.8 315.4 101.12 318 107.64 309.65 107.64 300.74 111.53 296.29 115.43 286.83 119.32 283.49 125.45 288.5 131.01 294.06 133.24 299.63 128.79 304.64 127.67 311.88 129.9 314.66 133.24 305.75 136.58 296.85 136.58 287.94 136.58 282.38 136.58 274.03 139.36 266.23 149.94 264.01 164.41 266.79 173.32 274.58 183.89 278.48 183.89 286.83 174.98 289.06 183.89 291.84 188.34 300.19 191.68 311.88 187.23 320.22 183.89 326.35 195.58 335.81 204.48 346.39 204.48 349.72 199.48 356.4 204.48 365.87 204.48 372.55 208.38 372.55 218.4 370.32 228.98 363.08 233.43 362.53 237.32 368.65 249.01 372.55 265.15 372.55 270.16 364.2 270.16 364.2 272.95 357.52 275.17 349.72 269.61 351.39 254.58 350.28 249.01 348.61 241.22 338.59 238.44 336.92 228.42 331.91 225.08 320.22 223.97 304.64 222.85 300.19 227.31 302.41 232.87 316.89 243.45 327.46 247.34 331.36 251.8 324.12 256.81 305.75 259.03 296.29 259.03 290.17 266.82 281.26 267.38 270.13 264.6 270.13 250.13 276.25 245.12 268.46 247.34 260.67 238.99 251.76 232.31 238.96 231.76 230.06 226.75 230.61 220.07 226.72 212.28 219.48 200.59 202.78 187.23 193.88 181.66 191.09 186.12 190.54 192.8 179.96 193.35 168.83 196.69 158.81 196.14 157.7 200.03 161.04 206.15 156.03 208.38 148.24 206.15 151.57 199.48 147.68 198.92 141 194.47 146.57 190.57 151.57 190.01 153.24 182.78 161.04 179.44 165.49 172.76 167.72 166.08 173.28 173.87 176.62 176.65 182.74 177.77 188.87 177.77 192.21 172.2 197.22 174.98 203.34 169.98 208.9 167.19 216.7 164.97 215.03 159.4 207.79 162.18 210.02 156.06 219.48 153.28 222.26 158.84 227.83 157.17 233.4 155.5 241.74 157.73 251.21 157.73 256.22 155.5 252.32 144.93 247.87 147.71 240.07 146.04 236.18 142.15 237.29 137.59 231.17 137.59 229.5 134.35 227.83 145.48 221.71 147.71 213.91 148.27 206.68 147.71 205.01 137.59 197.22 132.13 192.21 126.56 182.74 122.66 176.07 115.99 172.73 111.53 168.83 108.75 164.93 100.4 154.36 99.29 148.79 100.96 146.01 108.75 144.9 117.65 151.57 120.99 151.57 126 152.69 133.24 160.48 133.24 165.49 137.59 162.15 143.82 159.37 148.82 159.92 159.4 159.37 167.19 158.25 174.98 150.46 177.77 148.79 184.45 142.11 185.56 137.1 188.34 134.32 191.68 128.75 197.81 120.96 193.91 127.64 184.45 119.29 185 115.4 176.1 123.74 173.87 118.74 168.86 110.94 172.2 104.26 171.65 100.92 164.41 95.91 162.74 88.68 166.64 78.66 165.52 59.74 163.85 48.6 160.51 38.58 157.17 33.58 149.38 26.9 137.59 18.55 131.57 11.31 127.67 4.08 132.13 0 125.45 0 38.06"/>
          <polygon class="cls-1" points="166.6 124.89 174.95 124.89 177.74 124.89 182.74 131.01 188.87 137.59 188.87 143.26 188.87 148.82 193.88 154.39 193.88 159.96 193.88 164.41 188.87 164.41 183.3 167.75 180.24 155.5 173.84 153.28 174.4 149.38 174.4 140.48 170.5 140.48 166.6 129.34 166.6 124.89"/>
          <polygon class="cls-1" points="333.58 146.32 342.49 146.32 349.17 148.82 349.17 152.72 341.38 152.72 333.58 152.72 333.58 146.32"/>
          <polygon class="cls-1" points="279.04 143.82 286.83 149.52 294.06 149.52 296.85 152.72 303.53 152.72 307.98 146.32 313.55 143.82 322.45 146.32 324.68 152.72 336.37 157.17 349.17 157.17 353.06 163.85 364.2 167.75 368.65 170.53 372.55 182.22 372.55 185.56 368.65 185.56 360.3 185.56 359.19 189.46 352.51 189.46 345.27 183.89 353.06 193.35 345.83 197.25 341.38 200.59 330.8 189.46 325.79 183.33 325.79 174.43 315.77 172.2 308.54 172.2 305.2 176.1 299.07 182.22 292.39 175.54 295.73 167.75 299.07 162.18 292.95 163.85 284.05 161.07 279.04 165.52 273.47 162.18 279.04 156.06 273.47 152.72 273.47 146.32 279.04 143.82"/>
          <polygon class="cls-1" points="170.11 228.79 180.24 228.79 180.24 234.72 186.27 234.72 193.88 234.72 193.88 237.68 193.88 245.38 190.26 254.27 191.45 259.61 190.85 264.94 180.24 264.94 170.11 264.94 158.85 264.94 150.56 269.09 145.22 266.13 139.89 269.09 134.55 275.17 128.04 275.17 120.92 275.17 115 270.87 107.89 264.35 107.89 257.83 117.96 261.39 125.07 258.42 129.81 257.24 138.11 259.61 141.07 260.2 143.44 255.46 150.88 251.98 158.26 251.98 166.6 248.35 160.04 247.16 163.59 237.68 166.6 228.79 170.11 228.79"/>
          <polygon class="cls-1" points="30.7 163.22 37.89 163.22 41.18 169.21 45.38 172.2 55.26 173.4 61.55 175.2 67.24 180.59 74.42 180.59 82.81 184.48 93.89 189.87 102.57 192.57 110.66 192.57 116.64 195.56 122.03 200.59 125.63 204.24 132.51 204.24 132.51 208.74 125.33 208.74 120.84 204.24 114.25 203.94 105.86 204.24 93.59 197.96 81.61 194.66 67.54 189.87 52.56 183.58 45.98 178.79 38.79 178.49 32.8 169.51 27.41 165.92 30.7 163.22"/>
          <polygon class="cls-1" points="122.63 213.23 120.84 216.82 114.55 215.02 114.55 219.22 118.59 225.5 129.22 227.3 135.81 227.3 135.81 221.91 135.81 215.92 132.51 213.23 122.63 213.23"/>
          <polygon class="cls-1" points="399.31 191.94 406.43 191.94 406.43 185.98 415.45 185.98 419.73 191.94 438.72 200.59 456.76 208.74 469.58 208.74 477.65 208.74 477.65 213.23 461.98 213.23 456.76 220.26 448.21 220.26 424.47 203.12 410.71 200.59 396.46 196.69 399.31 191.94"/>
          <polygon class="cls-1" points="385.31 279.3 385.31 284.52 394.09 289.74 400.26 289.74 412.13 293.06 408.81 295.91 402.64 298.29 407.38 311.58 414.5 324.4 417.83 334.12 413.08 334.12 401.57 328.67 401.57 319.18 401.57 314.9 396.46 306.71 388.39 300.19 378.42 293.06 378.42 283.57 383.17 279.3 385.31 279.3"/>
        </g>
        <polygon class="cls-1" points="1137.9 265.1 1140.46 272.24 1145.31 272.24 1148.81 268.67 1148.27 265.1 1146.52 261.19 1143.35 256.75 1141.8 256.75 1139.38 254.06 1135.07 254.73 1131.43 255.81 1130.08 258.9 1130.08 263.15 1131.57 264.16 1137.9 265.1"/>
      </g>
      <polygon class="cls-1" points="1165.88 354.07 1173.73 351.64 1178.83 344.64 1191.38 341.13 1201.97 337.2 1201.97 329.36 1194.52 329.36 1194.52 320.34 1186.28 316.41 1180.79 320.73 1179.61 324.26 1170.98 321.51 1165.88 324.26 1165.88 329.75 1169.41 330.14 1169.8 335.24 1173.33 337.99 1173.73 341.13 1172.16 344.64 1165.88 351.64 1165.88 354.07"/>
      <polygon class="cls-1" points="1123.51 301.9 1129.01 306.61 1138.81 306.61 1146.27 306.61 1154.11 308.57 1158.04 305.23 1161.96 305.23 1167.84 305.23 1165.88 310.14 1158.82 313.67 1147.84 313.67 1139.21 316.41 1130.58 318.37 1123.51 316.41 1115.67 306.61 1115.67 301.9 1103.9 301.9 1107.43 293.66 1113.71 293.66 1121.55 288.17 1128.22 293.66 1127.83 297.19 1123.51 301.9"/>
      <polygon class="cls-3" points="1162.54 352.74 1111.47 327.08 1097.41 315.08 1089.27 311.16 1084.83 293.33 1077.79 282.3 1059.29 270.42 1050.31 274.16 1041.9 264.53 1044.12 256.02 1034.13 248.99 1018.95 244.92 1010.81 241.22 988.24 231.6 976.03 217.54 988.24 193.48 977.88 193.48 959.32 204.21 950.49 211.61 937.91 204.21 925.7 197.55 909.78 193.48 898.31 193.48 892.5 183.12 884.61 178 863.01 177.39 850.94 180.9 844.28 184.23 837.62 199.4 823.56 234.56 818.38 251.95 816.16 277.12 808.75 269.72 801.41 233.81 794.42 195.78 782.4 187.29 780.57 176.37 773.21 168.91 763.88 168.08 752.94 181.78 751.49 184.38 749.87 186 747.75 186.26 743.25 176.37 737.15 160.43 734.5 158.51 732.9 157.98 727.34 166.39 725.07 172.38 722.23 176.37 721.67 178.22 720.21 181.62 718.1 184.95 713.06 186.61 707.45 188.38 699.67 196.87 699.67 197.9 696.93 210.9 696.21 211.2 696.71 209.13 691.21 212.5 691.51 213.16 691.29 213.25 681.28 176.37 675.57 141.36 671.39 131.43 667.02 122.06 664.32 110.6 658.66 107.39 645.93 102.12 643.9 103.7 633.28 114.49 626.13 129.69 621.03 133 611.64 141.6 605.22 158.93 602.09 180.22 601.89 193.48 593.85 212.76 592.19 232.22 587.45 236.04 585.83 247.07 578.92 260.4 575.93 276.77 581.9 282.3 594.85 290.81 605.59 293.33 612.62 300.8 620.02 306.72 628.16 310.42 634.45 305.24 636.3 300.8 641.48 305.61 644.44 310.42 654.81 317.45 666.65 312.27 674.79 317.45 683.3 326.34 690.33 343.3 702.17 366.3 716.61 383.7 726.97 389.64 734.7 389.64 749.33 385.83 763.87 382.89 853.62 411.2 866.99 413.75 901.37 404.6 984.38 389.64 1029.79 388.67 1086.31 380.37 1164.76 376.67 1162.54 352.74"/>
      <polygon class="cls-1" points="728.7 392.98 736.28 384.23 746.78 388.61 757.87 384.23 763.7 378.4 777.7 374.31 801.04 363.81 812.12 344.64 815.62 351.64 826.7 351.64 833.12 351.64 833.12 357.39 824.37 363.81 824.37 373.73 821.45 388.31 820.87 392.98 827.29 381.31 833.12 388.31 833.12 401.73 842.46 411.07 858.79 415.73 874.54 411.07 889.71 406.98 918.3 401.73 945.13 399.98 945.13 395.84 978.38 392.98 978.38 384.23 994.14 380.19 1002.89 387.73 1014.55 391.81 1038.47 387.15 1044.31 384.81 1035.56 398.23 1044.31 413.98 1037.31 427.98 1030.31 433.82 1026.81 424.48 1020.39 421.57 1009.3 422.15 1003.47 408.73 989.47 409.32 973.13 419.23 953.32 413.98 942.21 413.98 917.71 421.57 904.88 427.4 893.21 423.9 898.46 417.48 899.63 410.48 886.5 412.23 869.29 415.73 886.5 421.57 889.71 427.4 886.5 429.73 871.04 433.82 860.54 437.32 851.79 426.82 844.79 423.32 838.96 425.07 817.95 420.98 795.79 416.9 790.53 411.07 805.12 409.32 810.95 403.48 814.45 395.84 815.04 383.65 811.54 373.15 810.95 366.73 802.2 376.06 799.29 384.81 801.04 399.98 802.79 404.65 787.03 407.57 774.78 407.57 756.11 401.73 728.7 395.84 728.7 392.98"/>
    </g>
  </g>
</svg>