<?xml version="1.0" encoding="UTF-8"?>
<svg id="Capa_2" data-name="Capa 2" xmlns="http://www.w3.org/2000/svg" viewBox="0 0 1920 527.88">
  <defs>
    <style>
      .cls-1 {
        fill: #101623;
      }

      .cls-2 {
        fill: #29303a;
      }

      .cls-3 {
        fill: #454e56;
        opacity: .34;
      }
    </style>
  </defs>
  <g id="Capa_1-2" data-name="Capa 1">
    <g>
      <polygon class="cls-1" points="1440.23 201.68 1426.63 229.84 1474.2 204.59 1493.62 198.77 1484.88 220.13 1505.27 207.51 1505.27 223.04 1490.71 239.54 1528.56 225.69 1525.15 223.5 1479.06 152.17 1479.05 152.18 1457.7 179.35 1440.23 201.68"/>
      <polygon class="cls-1" points="1550.9 257.02 1578.08 227.89 1605.26 215.27 1605.26 215.27 1605.26 215.27 1582.41 207.17 1571.28 200.71 1571.28 200.71 1562.55 219.16 1550.9 257.02"/>
      <polygon class="cls-1" points="1605.26 249.25 1624.19 235.42 1621.63 232.57 1614.97 218.34 1605.26 215.27 1605.26 215.27 1605.26 249.25"/>
      <polygon class="cls-1" points="1306.35 225.5 1291.69 207.51 1282.95 233.72 1306.35 225.5"/>
      <polygon class="cls-1" points="1060.64 243.43 1075.23 238 1069.97 228.17 1059.15 230.51 1055.93 228.17 1048.91 226.71 1050.66 223.49 1046.57 221.44 1041.59 217.64 1036.37 215.27 1036.37 242.46 1060.64 243.43"/>
      <polygon class="cls-1" points="1775.16 230.81 1799.98 216.49 1764.08 178.09 1753.99 172.81 1747.13 168.75 1747.03 168.74 1758.65 191.97 1775.16 230.81"/>
      <polygon class="cls-1" points="1911.71 212.22 1902.91 212.78 1896.94 209 1894.95 203.03 1874.27 190.11 1858.56 184.34 1849.91 185.18 1885.83 226.92 1911.71 212.22"/>
      <polygon class="cls-2" points="1911.71 212.22 1885.83 226.92 1849.91 185.18 1823.7 189.06 1800.4 216.24 1799.98 216.49 1775.16 230.81 1758.65 191.97 1747.03 168.74 1747 168.67 1720.79 160.91 1701.37 172.56 1690.69 190.03 1665.45 207.51 1654.77 209.45 1630.5 230.81 1624.19 235.42 1605.26 249.25 1605.26 215.27 1578.08 227.89 1550.9 257.02 1562.55 219.16 1571.28 200.71 1571.28 200.71 1550.9 207.51 1530.51 224.98 1528.56 225.69 1490.71 239.54 1505.27 223.04 1505.27 207.51 1484.88 220.13 1493.62 198.77 1474.2 204.59 1426.63 229.84 1440.23 201.68 1457.7 179.35 1479.05 152.18 1479.06 152.17 1449.93 170.62 1390.71 195.86 1306.35 225.5 1282.95 233.72 1291.69 207.51 1271.3 202.65 1245.09 217.22 1229.56 228.86 1210.14 229.84 1194.61 234.69 1170.34 234.69 1155.78 227.89 1130.54 226.92 1102.38 227.89 1075.23 238 1060.64 243.43 1036.37 242.46 1036.37 215.27 988.8 236.63 950.94 238.57 877.15 257.02 780.93 246.43 822.99 309.42 773.72 372.29 854.43 408.82 862.07 475.08 806 503.12 784.78 518.72 775.04 520.35 1920 527.88 1920 410.75 1920 207.51 1911.71 212.22"/>
      <path class="cls-2" d="m0,195.86v.47c1.24-1.2,2.46-2.37,3.66-3.52l-3.66,3.05Z"/>
      <polygon class="cls-2" points="391.85 142.92 477.3 211.73 574.08 218.52 668.38 258.45 745.69 252.5 777.24 245.22 642.22 191.97 498.54 132.75 398.54 95.67 350.97 69.65 320.88 46.35 268.83 21.17 311.58 85.43 391.85 142.92"/>
      <polygon class="cls-3" points="0 516.51 760.27 522.82 775.04 520.35 0 515.25 0 516.51"/>
      <polygon class="cls-3" points="780.93 246.43 779.73 244.64 777.24 245.22 780.07 246.34 780.93 246.43"/>
      <path class="cls-3" d="m91.77,117.22l21.36-30.1,20.39-42.72,51.45-31.07,26.21-11.65,49.51,15.53,8.14,3.94-1.5-2.26L210.83,0l-11.8,5.24-65.87,37.47-20.39,42.72c-33.03,48.87-51.49,52.24-109.12,107.38l57.04-47.44,31.07-28.15Z"/>
      <path class="cls-2" d="m806,503.12l56.07-28.03-7.65-66.26-80.71-36.53,49.27-62.87-42.07-62.99-.85-.09-2.84-1.12-31.55,7.28-77.31,5.95-94.3-39.93-96.78-6.8-85.46-68.81-80.27-57.48-42.74-64.26-8.14-3.94L211.18,1.69l-26.21,11.65-51.45,31.07-20.39,42.72-21.36,30.1-31.07,28.15L3.66,192.81c-1.21,1.15-2.42,2.32-3.66,3.52v318.92l775.04,5.09,9.74-1.63,21.22-15.6Z"/>
      <path class="cls-3" d="m806,503.12l56.07-28.03-7.65-66.26-80.71-36.53,49.27-62.87-42.07-62.99-.85-.09-2.84-1.12-31.55,7.28-77.31,5.95-94.3-39.93-96.78-6.8-85.46-68.81-80.27-57.48-42.74-64.26-8.14-3.94L211.18,1.69l-26.21,11.65-51.45,31.07-20.39,42.72-21.36,30.1-31.07,28.15L3.66,192.81c-1.21,1.15-2.42,2.32-3.66,3.52v318.92l775.04,5.09,9.74-1.63,21.22-15.6Z"/>
    </g>
  </g>
</svg>