<?xml version="1.0" encoding="UTF-8"?>
<svg xmlns="http://www.w3.org/2000/svg" viewBox="0 0 1345.71 888.57">
  <defs>
    <style>
      .cls-1, .cls-2, .cls-3 {
        fill: #141b28;
      }

      .cls-2 {
        mix-blend-mode: soft-light;
        opacity: .3;
      }

      .cls-3 {
        mix-blend-mode: multiply;
        opacity: .1;
      }

      .cls-4 {
        isolation: isolate;
      }
    </style>
  </defs>
  <g class="cls-4">
    <g id="Capa_2" data-name="Capa 2">
      <g id="Capa_1-2" data-name="Capa 1">
        <g>
          <path class="cls-1" d="m1118.68,147.05c-.23-.23-.46-.46-.68-.69.63-.45.13-.66-.02-.95-1.36-1.9-3.16-.26-4.71-.69-.42-.43-.8-.47-1.11.41.03.07.05.14.08.21h0c-.03-.07-.06-.14-.08-.21-.94.92-.43,1.34.12,1.74-.05.28-.09.57-.14.85.47-.31.94-.89,1.42-.99-.48.09-.95.68-1.42.99-.08.09-.16.18-.24.27-.13-.03-.26-.07-.39-.1-.21-.47-.42-.94-.63-1.41-.58-1.38-2.18-.55-2.43-2.51-.16-1.22-.57-1.65-1.27-1.9-1.83-.65-3.68.73-5.51.65-.04-.28-.08-.56-.11-.84.13-.15.27-.31.4-.46.4-.17.76-.42.94-1.1,0,0,0,0,0,.01.49-.51.98-1.02,1.47-1.53.71-.09,1.47.14,1.96-1.2.03-.13.01-.24-.05-.32.27-1.58.46-2.97-1.1-2.22-.45.22-1.04.16-1.44-.14-1.29-.95-2.01-.12-2.43,2t0,0c-.49.27-.98,1.13-1.49.52-.55-.65.19-1.25.23-1.89.05-.77.2-1.79-.68-1.11.11.42.09.74-.02.99.11-.26.14-.57.02-.99l-.86.29c-.06-.04-.11-.1-.15-.19-.73-1.37-1.89-.69-2.83-1.07-.02-.81-.29-1.19-.43-.14-.15,1.13-.58,1.79-1.01,2.55,1.06-.18,2.11-.37,3.17-.55,0,0,0,0,0,0-1.06.18-2.11.37-3.17.55-.21-.04-.42-.07-.64-.11-.24-1.96-2.12-3.35-3.21-2.38-1.54-.79-3.1-.57-4.7.48-.14.05-.28.11-.42.16-.05-.21-.1-.42-.16-.63-.11.04-.23.08-.34.13-.08.22-.15.44-.23.65-.15.06-.29.11-.43.17-.2-.05-.4-.1-.6-.15-.1-.55.37-1.46-.31-1.63-.3-.26-.6-.52-.91-.78.29-.07.71-.14.49-.78-.16-.46-.33-1.47-.98-.68-.3.13-.6.26-.91.39,0,0-.07.02-.07.02-2.99.89-5.89.6-8.73-.38-.86.09-1-2.62-2.22-1.15-.62-.14-1.23-.28-1.85-.43,0,0-.08.07-.08.07-.27.05-.54.11-.82.17-.27-.21-.48,0-.66.38,0,0-.1.12-.1.12-.05.12-.12.2-.2.25,0,0-.08.1-.08.1-.23.04-.46.07-.69.11-4.31-2.58-8.7-.15-13.07,1.82-.08.07-.16.14-.23.21-2.09,1.43-4.23,2.41-6.41,3.08-.2.01-.41.02-.61.03-.3-.03-.59-.07-.89-.1-.95-.89-1.5-.07-1.9,1.4-.05.06-.11.1-.17.13-.25-.08-.51-.17-.76-.26-.07-.08-.13-.16-.2-.24,0,0-.02-.02-.02-.02-.08-.1-.16-.21-.25-.32-.88-.66-1.8-.79-2.79-.04-.05.07-.1.14-.16.19-.38-.02-.59.38-.77.86-.06.06-.12.11-.18.13-.7-.42-1.24.02-1.71.87-.23-.21-.53-.4-.91-.56q1.3-3.94-2.21-5.87c-.59-1.05-1.3-1.89-2.7-1.51-1.37.1-2.07,1.88-3.65,1.45-.39-.51-.78-1.02-1.17-1.53-.01,0-.02,0-.03,0,1.29-2.09.12-3.71-1.04-5.33,0,0,0,0,.01,0,.06-1.48-.84-2.09-2.12-1.98-1.4.12-2.5.74-2.2,2.49-.26.32-1.25.86-.36,1,1.54.25,3.08,1.03,4.71.55,1.27.81.24,2.31.97,3.28-.35.02-.69.04-1.04.05-.62-.75-1.34.03-2-.14-.53-1.28-2.08-1.5-2.76-2.62-1.66-1.19-2.1-4.35-5.19-3.23-.25.03-.5.06-.76.1.25-.03.5-.06.75-.1-.77-1.41-2.05-1.09-3.27-.98-.74-.15-1.34.1-1.86.67.75.51,1.49,1,2.23,1.5.37.15.73.29,1.1.44-.13.73-.27,1.46-.4,2.18-.2.35-.41.71-.61,1.06-1.96-.21-3.92-.43-5.88-.64-.05-.83-.34-1.55-1.05-2.04-.5-.23-.55-.72-.67-1.17l.49-1.61c.37-.68.74-1.36,1.11-2.04,0,0-.07,0-.13.01.07,0,.13-.01.13-.01.74-.6.75-1.37.49-2.2.08-.5.17-1.01.25-1.51l-.19-.16h0s.19.16.19.16c.83-.22,1.03-.9,1.18-1.61,2.56-.81,1.05-2.89,1.35-4.39.05-.16.05-.33.02-.49.87-.49.81-1.03.1-1.62-.01-.18-.06-.34-.13-.51.03-.52.07-1.04.1-1.57.18,0,.36-.02.54-.03,1.47,1.65,3.75,3.16,5.37,1.89,1.79-1.4,4.41-.47,5.62-2.64.18-.33.64-.32.94-.08,2.49,1.97,1.82-.33,1.94-1.46.17-1.56.46-3.12.04-4.68.33-.36.66-.73.99-1.09-.38-1.12-1.46-2.13.23-3.3.75-.52.47-2.22-.62-2.37-2.08-.29-3.36-.79-2.56-3.2-.25-.08-.49-.16-.74-.24.13-2.06-2.62-2.32-2.65-4.27.74-.82.68-1.37-.49-1.65-.97-.23-1.92-.52-2.95-.81.66-1.18,1.45-2.74-.62-2.7-3.52.06-6.97-.11-10.45-.65-1.06-.17-3.23-1.02-2.77,1.8.1.64-.8.82-1.43.89-1.08.26-1.81.79-1.6,2.05-.45.81-1.05,1.45-1.19,2.51-.16,1.21-.65,2.25,1.17,2.34-.44,2.18,1.27,2.83,2.64,3.73.09.43.34.63.78.57.07.15.16.28.28.4.34,1.27.64,2.52,1.65,3.52,1.66,1.66,1.57,3.69.93,5.77-1.68,1.17-4.06.86-5.42,2.84-.7,1-2.02.99-3.13.21,0,0,0,0,0,0,.54-2.49,1.66-4.98-.01-7.47-.46-1.26-.43-2.51.17-3.73,1.89-1.66.4-2.36-.88-3.12-.72-1.58-2.22-1.62-3.51-1.36-2.25.46-4.1.12-5.58-1.7-2.09-2.57-4.86-2.38-7.66-1.77-.69.15-1.68.63-.57,1.62.03.55.07,1.09.1,1.64,0,0-.04.01-.04.01-1.14.25-1.2,1.12-1.17,2.04.01.54.02,1.08.03,1.61.22,1.17.72,1.39,1.56.46.98.65,1.86,1.36,1.53,2.74-1.55-.59-3.18.08-4.79-.33-.44-.11-1.84.47-2.17,1.61-.14.48-.21.87.27,1.12.48.26.93.04,1.06-.43.82-2.95,1.84-1.09,2.76-.11.52.56.91,1.25,1.36,1.88.07.03.15.07.22.1-.07-.04-.14-.08-.2-.12.36-1.69,1.57-1.14,2.5-.83,2.23.74,4.42,1.62,6.63,2.44.15.38.31.76.46,1.15.37.98.49,2.13,1.6,2.67,0,.15,0,.3,0,.46-.04.16-.08.32-.11.49-.16.17-.32.33-.48.5-.18-.06-.41-.2-.57-.23-.26-.41-.71-.72-.92-1.15-.8-.9-1.8-1.14-2.87-1.15-2.23-.65-4.47-1.29-6.7-1.96-.35-.1-.7-.28-.91.13-.16.32-.14.75.28.87,2.43.68,4.12,3.31,7.05,2.65.16-.04.3-.11.43-.22.06-.05.13-.1.19-.15,1.04.8,2.36,1.25,3.27,2.21t0,0c.28.37.63,1.01,1.06.59.03.04.07.07.1.11-1.19,1.2-.73,2.21.14,3.42.47.66.55,1.78-.46,2.43-.06.4-.01.75.25.99-.26-.24-.31-.59-.25-.99-1.5.34-1.76-1.79-3.19-1.59-.27-.49-.55-.42-.84-.02-.19-.06-.37-.12-.56-.18-.72-.44-1.18-2.16-2.13-1.18-1.04,1.07-2.62,1.2-3.44,2.44h0c-.39-.76-1.06-.38-1.63-.4,0,0-.11-.11-.11-.11-.05-.12-.11-.24-.16-.37-.05.12-.1.24-.15.36-.4.06-.79.13-1.19.19-.13.02-.26.05-.4.07.11.08.22.17.34.25.02.34.04.69.07,1.04-2.1-.17-3.47,1.46-4.89,2.47-.5.35,1.81,1.71,2.69,2.75.28.34.5.73.8,1.06.75.85,1.58,1.12,2.5.24h0c.44-.03.84-.11,1.05-.56h0c.45.02.85-.09,1.12-.49h0c.2-.33.41-.65.61-.98-.06-.07-.13-.14-.21-.2h0c.07.06.14.13.21.2.17-.06.35-.11.52-.17.29-.01.57-.02.86-.03.55-.11.65-.51.63-.98.13.06.26.12.39.18-.12.1-.25.21-.37.33,0,0-.02,0-.02-.01,0,.01,0,.02,0,.04l.03-.02c1.39,1.91,4.23,1.57,6.39-.98-1.86.11-3.67-.55-5.28.18.08-1.59.18-3.18,2.02-4.02,1.09,0,1.31.82,1.77,1.61.88,1.5,2.06,1.83,3.16.08.83-.65,1.49-.95,1.59.58.05.76-.74,2.06,1.02,1.95-.02.18-.03.37-.05.55-.53.45-.51,1.5-1.73,1.28-.47-.09-.04.62.11.95.37-.07.64-.04.84.05-.2-.09-.47-.12-.84-.05-.04,1.24-.06,2.46,1.6,2.67.17.49.35.98.52,1.47.22,0,.43.02.65.02.07-.04.1-.1.12-.18-.02.08-.05.14-.12.18-.22,0-.43-.02-.65-.02-1.51.53-2.31-.5-3.16-1.43-1.32-.75-2.74-1.15-4.26-1.2-3.48-1.17-5.5-.84-6.86,1.13-.6,1.11-1.98.93-2.78,1.7-.59.12-1.18.33-1.77.35-.93.02-2.08.3-2.29.94-.3.89.63,1.8,1.39,2.27,1.11.69,1.52,1.61,1.64,2.79-.36,0-.72,0-1.07.01-1.42-1.15-1.4.08-1.58.97-.35,0-.7,0-1.04,0-.22.02-.44.03-.66.05-.49.01-.97.02-1.46.04.49-.01.97-.02,1.46-.04.22-.02.44-.03.66-.05-.08-.79-.39-1.39-1.24-1.55-.74-.42-1.6-1.07-2.2,0-.41.72.39.73.88.79,0,0,.08-.02.08-.02,0,0-.08.02-.09.03-.1.25-.2.5-.3.75-.27.14-.8,0-.65.6,0,.24.02.49.03.73-1.36-1.13-2.7-.87-4.02.41-2.5,1.22-2.61,2.6-.59,4.54,1.07,1.03,2.12,1.32,3.46.89,1.13,1.31,2.39,1.19,3.59.43.17.19.46.38.91.55,1.35.52,2.77,1.05,3.84,2.14.13,0,.25.04.37.1.36.4.77.52,1.28.3h0c.42.05.92-.03,1.03.58.15.08.24.18.31.29-.07-.11-.16-.21-.31-.29-.39.34-.79.68-1.18,1.02-1.09-.4-2.57-.07-3.02-1.73-.09-.32-.77-.2-1.13.13-.27.1-.73-.05-.71.43,0,.11.42.2.64.29.22.48.43.96.65,1.44-.03.17-.06.34-.1.51.04.21.08.43.12.64-.04-.21-.08-.43-.12-.64-.33-.17-.67-.33-1-.5-.2-.24-.39-.65-.59,0h-.02c-.14-.04-.3-.05-.45-.04.02-.14.04-.29.07-.43-.4-1.23-1.45-.36-2.13-.8.32.86.1,1.81.88,2.35.49.02.75-.14.92-.37.24.35.75.33,1.22.32.23.26.46.51.69.77.3.15.61.31.91.46.08.4.16.8.61.97.37.26,1.37-.4,1.13.73-.66,3.09-.62,3.13,2.55,2.7.62.29,1.21.4,1.65-.31.18.03.35.05.53.06.19.02.37.05.56.07.17.04.34.06.51.04,0,0,0,0,0,0,.21.17.42.34.64.51.28.92-1.51,1.84,0,2.76,1.18-.22,1.81,1.58,3.12.87,1.97-.24,3.96,1.84,5.91-.07,1.82.46,3.65.8,5.32-.43.93-.69,1.33.11,1.39.66.21,1.99,1,4.14-1.37,5.58-.77.46-1.78,1.55.14,1.77,1.81.2.71,1.75.67,1.83-1.31,2.44-1.15,5.34-2.49,7.74h0c-1.16-.03-.15-1.35-.95-1.6-.18.12-.33.16-.48.16.15,0,.31-.04.48-.16-.13-.3-.27-.6-.4-.9-.71-2.05-1.2-2.19-2.86-.86-.21.11-.41.22-.62.33.17.07.35.13.52.2,0,0,.07,0,.07,0h0c.21.22.42.44.63.66-.21-.22-.42-.44-.63-.66,0,0-.07,0-.07,0-.17-.07-.34-.13-.52-.2h0s-.02,0-.04-.01c.92-.81-.09-1.7-.4-1.5-1.42.94-3.21-.34-4.46.94-.12-.04-.23-.03-.34.03-.5-.17-1.38.29-1.44-.57-.05-.67.71-.57,1.18-.57.52,0,1.02.08,1.42-.36l.04-.03c.82.05,1.5-.09,1.53-1.12.55-.3,1.1-.61,1.63-.9-1.02-1.01-1.98-1.93-3.27-2.36-.52-.18-1.25-.67-.95-1.01,1.66-1.95-.91-1.44-1.11-1.54-.98-.46-2.14-.55-3.24-.77-.21.05-.42.1-.63.15-.29.42-.72.45-1.15.49.43-.05.86-.08,1.15-.49.21-.05.42-.1.63-.15-.03-.47-.05-.93-.08-1.4.82.03,1.16-.38,1.07-1.18-.36-.04-.72-.07-1.08-.11.35-.49.72-.98-.33-1-1.01-.65-.76-2.49-2.29-2.59-2.92-.19-5.8.1-8.57,1.11.17.29.34.57.51.86.36.17.79.16,1.15.32-.36-.17-.79-.16-1.15-.32-.21.39-.41.78-.62,1.17-1.03-.16-2.06-.31-3.1-.46-1,1.71-2.35,2.5-4.31,1.61,0-.01,0-.02,0-.04h0s-.02,0-.02,0c-.1-.69.06-1.54-1-1.67-.04-.17-.09-.34-.14-.5.18,0,.35,0,.53,0l.92-.19c-.28-.11-.56-.23-.84-.34,0,0,.01,0,.02,0-.01-.14-.02-.29-.02-.43.52-.43,1.03-.85,1.55-1.28.54.28,1.07.55,1.03-.46,1.89-1.91,1.94-2.06,1.19-3.23-.57-.32-1.14-.63-1.71-.95-.34-.2-.67-.39-1.01-.59-.52-2.92-2.9-2.36-4.85-2.58-.33,0-.66.01-1,.02-.75-.14-1.32-.55-1.73-1.2-.85-.38-1.71-.76-2.56-1.14,1.01-2.2-.66-2.63-2.12-3.19-.33-.46-.81-.86-.59-1.53,1.57-1.63.13-2.11-1.03-2.71.11-.46-.26-.55-.55-.71-.33-.13-.65-.27-.98-.4-.66-1.06-1.65-1.19-2.76-.99,0-.38-.02-.76-.02-1.14.9-.14,1.79-.28,2.69-.42.87-.31,1.96.38,2.69-.58-.54-.36-1.08-.71-1.62-1.07l-.03-.03.03.03c.54.36,1.08.71,1.62,1.07,1.79-1.07,1.11-2.42.43-3.77.98-2.14.53-3.48-2.04-3.62-.16-.08-.32-.15-.48-.23-.21-1.05,2.33-.39,1.24-1.99.22-1.76-.02-2.92-2.32-2.87-1.08.02-2.19-.9-3.28-1.39-.55-.34-1.1-.68-1.65-1.02-1.32-.66-2.64-.79-3.78.28-.79.73-1.17.32-1.58-.33-.39-.1-.85-.09-1.04-.57-1.4-.89-2.82-.58-4.24-.04h0c-.19-2.05-1.24-3.34-3.32-3.67,0-.37,0-.75-.01-1.12.76-.03,1.41-.26,1.62-1.07.17-.66-.18-.98-.83-1.02.4-1.83-2.27-1.2-2.21-2.75.7-.46,2.19.15,2.04-1.48-.22-.57-.43-1.14-.65-1.72,0,0,0,0,0,0,.22.57.43,1.14.65,1.72.41-.04.83-.07,1.24-.11.66.81,1.67.68,2.53.96.89.24,1.9-.07,2.68.63.12.17.24.35.36.52.24-.04.47-.09.71-.13,0-.57.02-1.14.02-1.7-.71-.23-1.41-.46-2.12-.7h0c.71.23,1.41.46,2.12.7.9,0,.99-.76,1.28-1.34,1.07.18,2.13.37,3.2.55.76,1.09,1.92.81,2.97.87,1.9.58,1.51-1.78,2.71-2.1,1.36-.71,4.26-.28,2.38-3.38-.32-.53.65-.92,1.06-.79,3.02,1.01,4.33-1.57,6.43-2.67,3.03-1.6,3.7-3.85,3.83-6.74-1.45-.28-2.81.84-4.25.77,1.44.07,2.8-1.05,4.26-.77.2-1.02.51-2.08-1.02-2.34.16-1.5-1.9-.49-2.02-1.86-.13-1.59-1.45-2.2-2.77-2.69,0,0-.16-.19-.16-.19.09-.29-.02-.38-.3-.31-1.63-2.47-3.74-3.98-6.87-3.47h0c-.9-.34-2,.31-2.79-.56.2-1.11-1.41-2.38.29-3.37-2.97-.34-.7-2.42-1.19-3.58-.27.28-.53.49-.79.54.26-.05.53-.26.79-.54-.08-.44-.06-.94-.63-1.1.08-.75-.19-1.13-.9-1.55-.89-.53-1.95-1.2-1.79-2.58-1.22-4.82-3.37-6.39-6.93-5.06-.52-.03-1.04-.05-1.56-.08-.53-.51-1.36-.85-1.14-1.83,1.46-.48,3.14.52,4.48-.68,1.59-.17.92-1.29.89-2.14h-13.91c-.55,1.01-.63,2.1-.57,3.22-.44.48-.88.96-1.33,1.43-2.01-.94-2.88.68-3.99,1.77.28,2.88-1.27,5.77.05,8.64.19,1.55.38,3.11.57,4.66.12.03.23.06.35.07-.12-.01-.24-.04-.35-.07-.22,1.48-1.71,1.49-2.63,2.39-.11-.91-.2-1.66-.29-2.41-.02-.28-.03-.56-.05-.84l.03-.77c-.12.2-.23.4-.35.59-.32-.24-.64-.48-.95-.72-.46.75.04,1.28.44,1.83.3.71.84,1.42.06,2.16-.15-1.04-1.1-1.48-1.68-2.19.47-1.54-.54-2.59-1.22-3.75,1.19-2.18.94-4.24.2-6.62-.55-1.78-2.19-2.47-2.73-4.04.56-1.84,1.21-.96,1.9-.08.28.36.66.65,1.14.36.41-.25.77-.73.44-1.1-1.22-1.36.06-3.13-.82-4.52h-7.49c.65,1.02.83,2.23-.6,2.38-1.82.19-1.83,1.37-2.06,2.59t0,0c-1.84.49-2.4,1.75-2.09,3.52-.06.64-.17,1.29.51,1.7-.09.18-.17.35-.24.52-1.03-1.78-2.55-3.34-2.23-5.75.2-1.53-2.06-3.33-3.13-2.73-.88.49-1.14,4.31-.37,5.52,1.03,1.62,1.92.09,3.35-.34-.7,2.16.7,3.25,1.44,4.61.21.38.49.7.81.83.16.55.46,1.09.9,1.61-.07.76.44,1.25,1.03,1.3,1.38.13,2.1,1.26,3.12,1.8.88.46,1.25,1.35,1.68,2.17-.41-.77-1.53-.76-2.15-.78-1.45-.05-1.24,1.38-1.22,2.43-.73,2.78.44,5.14,1.61,7.51.63-.19,1.27-.38,1.9-.57.62-1.16.55-2.36.26-3.59.27.05.55.11.82.16.04.01.08.02.13.03.09.45.19.9.28,1.35.18.14.36.27.54.41.2.31.39.62.59.93,1.35-1.98,3.53-.78,5.24-1.37h0c.44,2.08-1.39,2.93-2.31,4.27h0c-.65.19-1.11-1.63-1.88-.18-.67-.16-1.36-.24-2-.49-.73-.28-1.55-.86-2.17-.17-.69.77-.06,1.63.35,2.39-.41.07-.82.03-1.13.49-.26.38-.43.74-.54,1.1-.08-.09-.14-.19-.23-.28-.95.39-1.4.78-1.56,1.17-.08-.15-.19-.3-.37-.43-.27-.73-1.77-.13-1.5-1.03.36-1.21.26-2.11-1.01-1.93-.07,0-.1.03-.16.05.25-.83.25-1.68-.53-2.41-.18-.17-.28-.43-.42-.65h0s0-.1,0-.1c.05-.08.09-.16.12-.24.05-.05.15-.12.13-.15-.05-.12-.13-.22-.21-.33-.05-.09-.1-.19-.14-.28.17-.29.23-.62.18-.85-.54-2.34.75-4.82-.56-7.05-.37-.62-.53-1.7-1.6-1.41-1.24.34-.84,1.28-.56,2.13.1.32.08.67.12,1.01-.06.05-.18.13-.17.15.06.12.14.23.22.34,0,0,.04.05.04.05.11.52.23,1.05.34,1.57-.1,1.02-.22,2.03-.28,3.06-.02.35.02.67.13.94-1.81-.42-3.7-.68-4.9-2.4,1.83-.02,2.17-1.69,2.63-2.82.22-.55.19-1.41-.27-1.97.18-.1.37-.21.58-.32-.2-.27-.31-.57-.48-.6-.39-.08-.63.17-.8.45-.15-.04-.31-.07-.49-.08-1.36-.02-1.23,1.23-1.17,2.19.08,1.07.05,2.11-.63,3.01-.91.21-1.82.43-2.73.64-.32,0-.64.01-.96.02-.31-1.61-1.21-.81-2.58,0,.98-1.88,1.88-3.16,1.39-4.73-.22-.7.34-.78.73-.58.66.35,1.43,1.34,1.43-.35,0-1-.04-2.4-1.5-2.3-1.08.07-2.07-.34-3.11-.22-.24.07-.48.13-.72.2,0,0,0,0,0,0-.62-.26-1.19-.58-1.54-1.19,0-.19,0-.38,0-.56-.4-.07-1.1-.32-.98.32.23,1.26-.37,2.38-.27,3.68.25,3.56-2.76,2.09-4.57,2.41.01.19.02.39.03.58,2.89-.4,3.7,1.54,4.25,3.78-.04.33-.09.65-.13.98-.33.31-.2.44.19.45.32.05.64.08.95.11-.14.22-.29.44-.43.66.01.18.03.36.04.54.9-.1,1-.12.75-1.17.78.06,1.56.12,2.35.33,2.48.66,4.96,1.45,7.49,1.83.02.13.05.26.03.38-.61-.03-1.19.08-1.71.35-1.44-.3-2.9-.48-4.01.93-.2.26-.35.56-.49.79.26.54.68.6,1.06.61-.44.53-1.58.76-.79,1.81.35.46.84.18,1.18-.07.76-.55.74-1.13.38-1.71,1.07.05,2.12-.13,2.95-.84,0,0,.01,0,.02,0,1.4-.18,2.7-.4,2.88-2.09,1.27.1,2.56.08,3.88-.15.14-.01.28-.02.42-.03-.04.04-.08.09-.12.13.11,1.01.01,2.17,1.25,2.55.33.1.66.02.94-.15.04.46.18.96.16,1.36-.01.37.37.75.58,1.13-.01,1.24-.03,2.47-.04,3.71,1.38.18,1.87-.95,2.61-1.71.03.53,0,1.1.93,1.03v-.09c.16-.13.31-.26.46-.38.09-.33.04-.62-.06-.89.32.39.62.78.71,1.17.33-.3.56-.6.74-.9.32.57.7,1.12,1.06,1.65.97,1.46.7,2.04-.87,2.21-.7.08-1.21.12-1.19.99.01.55.09,1.4.57,1.32,2.37-.41,1.35,1.38,1.67,2.35.5,1.53.45,3.25,1.58,4.56-.2,0-.39,0-.59,0-.68.17-1.25.43-.57,1.2.4.46.61.98.77,1.52-1.51-.43-2.61-1.75-4.22-1.76-.02-.2-.03-.39-.05-.59-3.04-.28-3.25,2.35-4.25,4.16,1.37-.24,2.78-.36,3.83-1.45.13.4.43.51.81.5.12.05.2.12.26.23.11,2.7,1.91.06,2.63.83,0,0,.03.03.03.03.46.82,1.05,1.23,1.69.91.15,1.38-.17,2.8.66,4.02.56-.16,1-.25,1.36-.23-.35-.01-.8.07-1.36.23.02,1.64-1.16,3.15-.55,4.86-1.93.19-1.02,1.82-.83,2.4.59,1.83.4,3.63.4,5.45-1.95,1.39-4.18,1.7-6.5,1.66-3.16-3.04-4.21-3.25-7.5-1.46-.95.39-1.67,1.57-3,.63-.48-.34-1.36-.33-1.87.38.48,1.1-.71,1.35-1.03,2.04-.82.47-2.63-1.51-2.6,1.06h.01c1.98-.16,2.51,1.66,3.63,2.66h.04c.17-.33.34-.66.52-1-.17.34-.34.67-.52,1.01,0,0-.04,0-.04,0,0,.57,0,1.14.01,1.71-.31,0-.62.01-.92.02-.23-.24-.47-.58-.82-.32-.44.32-.22.73-.01,1.09-.12.6-.23,1.21-.35,1.81h0c-.34,0-.68.01-1.02.02-.04-.35-.08-.7-.12-1.04.03-.05.09-.11.08-.16-.02-.11-.07-.21-.1-.32h0c-.12-.2-.24-.39-.36-.59,0,0-.06-.09-.06-.09-.14-.44-.47-.59-.91-.57-1.32-.68-2.57-.66-4.06-.11-.01-.12-.03-.24-.04-.37-.04.15-.08.29-.13.43-.5.19-1.04.44-1.61.75h1.37c-.49,1.4-1.09,2.18-2.71,1.21-.15.3-.31.6-.46.9-.55-.69-1.07-1.4-1.67-2.05-.25-.27-.53-.76-1.07-.31-.49.41-.17.75.02,1.14.61,1.22,1.52,2.14,2.69,2.82.68.4,1.77,1.65,2.03.92.68-1.93,2.67-1.77,4.03-3.23-2,.86-2.25-.09-2.38-1.4h1.78c.07.06.16.09.26.1.22.33.44.66.65.99.04.16.1.32.15.47-.36.81.6,1.3.49,2.04l2.1,1.64c.41-.58.97-.5,1.52-.46-.55-.04-1.11-.12-1.52.46-.7-.55-1.4-1.09-2.1-1.64,0,1.23.26,2.39.95,3.43-1.18.35-2.51.56-2.18,2.33-.2.13-.56.27-.56.4,0,.47.41.33.7.37.13.43-.28.81-.42,1.19-.19.1-.37.22-.55.36-.38.03-.76.05-1.15.08-.19-.03-.39-.07-.58-.1.23-1.54-.45-1.72-1.66-1.11-.1-.06-.2-.06-.3,0-.2-.17-.39-.34-.59-.5.1-.72,1.54-1.15.48-2.13-.22-.45-.62-.52-1.06-.52-1.3-1.99-3.1-2.04-5.09-1.31-.67,1.72.88,3.34.23,5.05-.91.55-.35,1.4-.43,2.12,0,.57-.01,1.13-.02,1.7-.03,3.47-.04,6.95-.09,10.42-.02,1.38.67,2.26,1.95,2.38,1.2.11.61-.98.72-1.58-.08-.04-.17-.06-.23-.12-.05-.05-.11-.18-.08-.21,1.68-1.8,3.95-2.14,6.22-2.46,1.36-.21,2.71-.42,4.06-.63-.11-.54-.34-.99-.27-1.4.42-2.52.85-4.98-3.1-4.46-.22.03-.47-.18-.71-.28.35-1.73-.26-2.86-2.06-3.21.15-.03.3-.07.44-.12,0-.14,0-.26.02-.38-.02.12-.02.24-.02.38.75-.04,1.5-.07,2.25-.11.34,0,.46,1.01.99.23,3.07,1,3.59.81,3.59-1.83.98.27,1.47-.59,2.19-.94.15,1.36,1.12,1.65,2.25,1.73,1.09,1.44,2.35,2.63,4.21,2.98.15.45-.23,1.15.48,1.33,1.98.49.08.95,0,1.41l.04.02c-.2.18-.4.35-.6.53-.38-.11-.82-.02-1.15.19-1.1.69-2.1,1.52-3.12,2.27,1.49.87,2.86,1.1,3.96-.27.02,0,.04,0,.06.01.5.1.97.37,1.45.57-.1.94.56.95,1.2.98-.04.37-.08.73-.13,1.1-1.46.36-2.71,1.88-4.53.52.03,1.1.86,1.89-.09,2.64-.96.76.5,1.31.29,2.04.87.01,1.81.24,2.59-.02.93-.31.17-1.04-.05-1.52-.3-.67-.23-1.28.29-1.67.87-.64,1.24.86,2.07.6,1.69.92.61,2.56.99,3.83l-.06,1.04h0c-.52-.03-1.04-.07-1.56-.11-.72-.33-.74.36-1,.7-.08.48-.05.9.48,1.11,0,0,.25.02.25.02,0,0,.25,0,.25,0,.55.16,1.11.31,1.66.47.16,0,.31,0,.47.02.02-.21.04-.41.06-.61-.02.2-.04.41-.06.61-.16-.01-.31-.02-.47-.02-.38.66-1.02.53-1.62.55h0c-.75-.18-1.49-.37-2.23-.55-.12.04-.25.07-.38.1-1.69-.55-2.77.47-4.15,1.58.8.23,1.35.39,1.89.55.03.13.06.26.08.39.11,1.31-1.76,1.31-1.7,2.59-1.53.61-3.07,1.23-4.6,1.84-.77.5-1.6,1.57-.56,1.9.37.12.76.25,1.16.39-.01.04-.02.09-.03.14,0,0-.05.11-.05.11,0,.08-.04.16-.09.22,0,0-.04.09-.04.09-.19.12-.38.25-.57.37-4.71.63-7.75,3.89-10.96,6.9-.04.07-.09.14-.13.22-1.36,1.69-2.92,3.17-4.62,4.51-.18.1-.35.2-.53.3-.27.12-.55.24-.82.36-1.14-.03-1.35.65-1.2,1.59-.03.05-.06.1-.1.14-.25.07-.51.14-.76.21-.09-.01-.17-.02-.26-.03,0,0-.02,0-.02,0-.11-.02-.22-.03-.33-.05-1.01.06-1.87.41-2.48,1.25-.02.06-.04.12-.08.17-.34.16-.39.47-.38.8-.03.06-.07.11-.11.15-.85.11-1.16.68-1.25,1.44-.12.09-.23.18-.35.27-1.4.54-2.17,1.54-2.23,3.06-.27.07-.54.15-.81.22-.07-.03-.12-.02-.16.05-.19.04-.39.07-.58.11-.35-.33-.6-.06-.8.18-.19.23-.05.35.22.34.13.36.11.68-.28.89-.07-.03-.12,0-.15.07-.04.21-.07.41-.11.62.08,1.19-.81,1.35-1.58,1.19-.71-.15-1.26-.13-1.82.26-.05.32.17.31.38.31-.34.36-.88.57-.81,1.19-.02.09-.05.19-.07.28-.04.27-.07.53-.11.8-.21.22-.42.43-.62.65,0,0,0,0,0,0,0,.13,0,.27,0,.4-1.6.75-1.91,2.72-3.41,3.6-.32.19-.23.67-.07,1.03.02.26.04.53.07.79.06-.01.12,0,.18.01.14.05.27.09.41.14.51-.15.98-.07,1.42.21.04.15.08.3.11.45-.07.02-.13.07-.17.13-.18.16-.36.33-.54.49-.03.26-.06.52-.09.78.15-.12.31-.24.46-.36.06-.07.11-.14.14-.21-.04.07-.08.14-.14.21-.15.12-.31.24-.46.36,1.31,1.21,2.72-.04,4.07.17,0,0,0,0,0,0,.44.04.88.08,1.32.12.02.13.03.27.05.4-.06.11-.12.21-.19.32-.31.17-.45.43-.44.78.04.18.08.37.12.55.2,1.16.95.85,1.67.63.1.05.21.09.31.14.05.33.1.65.14.98-.02.03-.05.09-.05.1.06.04.12.07.18.1h0c-.04.11-.07.22-.11.33-.53.41-1.06.83-1.59,1.24-.1.04-.19.08-.28.12-.18.09-.35.18-.53.26-.09.21-.18.41-.28.62-1.11.82-2.97.77-3.14,2.69h0c-.05.11-.1.22-.15.33-.33.81-.5,1.44.78,1.54.73.05,1.44.46,2.15.71.13.67-.16,1.12-.74,1.42-1.35.7-1.71,2-2.03,3.33-.27.24-.55.48-.82.72-.08.06-.15.12-.23.17-.01.05-.03.09-.05.13-.69.81-1.76.62-2.62,1-2.05,1.78-4.25,3.27-6.96,3.89-1.94.45-3.71,1.32-5.01,2.93-.48.6-.69,1.21.4,1.4.06.05.08.11.06.19-.51.52-1.4.84-1.01,1.85,1.71,1.6,2.82,1.52,3.75-.26v.02c.11-.04.23-.08.35-.11.21.41.54.34.88.23.18.11.37.23.55.34.44.98,2.02-.29,2.24,1.13-.85.4-1.87.63-2.11,1.62-.11.07-.22.15-.33.22-.06.06-.11.13-.17.19-1.63,1.42-3.42,2.61-5.32,3.63-.4-.02-.79-.06-1.2-.09-1.02-.08-2.18-.14-2.96.85-.12.06-.25.12-.37.18-.19.22-.39.44-.58.67.01.05.03.1.04.15-.75.03-1.43.26-2.01.82-.03.06-.06.11-.11.16-.36.1-.47.39-.52.72-.04.05-.08.09-.14.13-.85-.04-1.26.47-1.49,1.2-.13.07-.26.13-.39.2-1.47.29-2.41,1.14-2.73,2.62-.28.02-.56.05-.83.07-.06-.05-.12-.04-.17.02-.2,0-.39,0-.59,0-.29-.39-.58-.16-.82.04-.23.19-.11.34.16.37.06.38-.01.69-.43.82-.07-.04-.12-.03-.16.04-.07.2-.14.4-.22.59-.13,1.19-1.04,1.19-1.76.9-.67-.27-1.22-.35-1.84-.06-.1.3.11.33.32.37-.39.29-.97.4-1.01,1.03-.04.09-.08.18-.12.27-.08.26-.17.51-.25.77-.24.18-.48.35-.73.53,0,0,0,0,0,0-.02.13-.04.26-.07.39-1.71.46-2.36,2.35-3.98,2.95-.35.13-.34.62-.25,1.01-.02.26-.05.53-.07.79.06,0,.12.01.18.05.12.07.25.14.38.21.53-.06.97.1,1.36.45.01.15.02.31.03.46-.07.01-.14.04-.19.09-.21.13-.41.26-.62.39-.08.25-.15.5-.23.76.17-.09.35-.18.52-.28.07-.06.13-.12.18-.18-.05.06-.11.13-.18.18-.17.09-.35.18-.52.27,1.08,1.42,2.69.44,3.98.88,0,0,0,0,0,0,.43.11.85.23,1.28.34,0,.13-.02.27-.02.4-.08.09-.16.19-.24.28-.33.11-.52.35-.56.69,0,.19.02.38.03.56,0,1.17.79,1,1.53.91.09.06.19.12.28.19-.01.33-.02.66-.03.99-.02.03-.07.08-.06.09.05.05.11.08.16.13h0c-.06.11-.11.21-.17.31-.6.32-1.19.63-1.78.95-.1.02-.2.05-.3.07-.19.06-.38.11-.57.17-.13.19-.25.37-.38.56-1.24.61-3.06.24-3.56,2.1h0c-.07.1-.13.2-.2.3-.46.74-.74,1.33.5,1.65.71.18,1.33.71,1.99,1.08,0,.68-.36,1.08-.97,1.27-1.45.45-2.03,1.67-2.58,2.92-.31.19-.62.38-.93.57-.08.04-.17.09-.25.13-.02.04-.05.08-.08.12-.82.68-1.84.3-2.75.53-2.33,1.4-4.75,2.47-7.54,2.62-1.99.1-3.89.65-5.44,2.01-.58.51-.89,1.07.15,1.45h0c.05.06.06.12.03.2-.6.42-1.52.58-1.32,1.64,1.4,1.87,2.51,1.99,3.74.4v.02c.11-.02.23-.03.36-.05.13.44.47.43.83.38.16.14.32.29.49.43.26,1.05,2.04.07,2.01,1.5-1.08.29-2.35.29-2.52,1.83-.04.31-.09.61-.13.92-.24.29-.46.57.12.71h0c.33.29-.15,1.04.62,1.07.11-.06.22-.13.32-.19.29-.09.57-.23.85-.38-.27.15-.55.29-.85.38-.11.06-.22.13-.32.19-.03.22-.05.44-.08.66-.79.61-1.54.18-2.3-.08,0,0-.07-.03-.07-.03-.13-.28-.13-.74-.58-.65-1.74.35-3.35-.1-5.02-.53-.99-.26-2.12-.52-3.06.32-.13.04-.26.07-.4.11-.23.18-.46.37-.69.55.02.18.04.36.06.54-.04.19-.08.39-.11.58,0,.18.02.36.03.54.1.63.19,1.25.29,1.88,0,.11,0,.21,0,.32.2.79.87,1.5.36,2.4,0,0,0,0,0,0,.09.66.18,1.33.27,1.99.15.8-.04,1.66.51,2.37.07-.12.14-.24.21-.36.02-.08.06-.13.14-.15.38-.13.66.05.91.3.3.14.4,1.14.94.22.23-.21.46-.41.69-.62,1.45.63,2.9,1.2,4.34-.02,0,0,0,0,0,0,.07-.02.14-.04.2-.06.75.5,1.49.05,2.23-.02.17,0,.34-.02.51-.03.51-.01,1.02-.03,1.53-.04.68.3,1.37.3,2.08.11t0,0c.81-.04,1.45.77,2.31.43.18.03.35.05.53.08.23.08.46.15.68.23.7.08.79,1.22,1.68.98.17-.04.34-.07.51-.11.06.02.12.03.18.05.21-.1.43-.21.64-.31-.05-.13-.11-.25-.16-.38.35-.09.69-.18,1.04-.27.13-.26.33-.46.55-.52-.21.06-.41.26-.54.52-.35.09-.7.18-1.04.27.05.13.11.25.16.38-.22.1-.43.21-.65.31.23.71.53,1.32,1.58.98-.04.04-.07.08-.11.12l-65.45,41.66c.04-.4.08-.79.12-1.19-.09,0-.18,0-.26-.01-1.03-.78-1.49-.69-1.74.34-.04.16-.07.32-.11.48-.07.17-.13.35-.2.52h-.02c-.29-.02-.47.12-.57.39,0,0-.04.02-.04.02-.39-.07-.73,0-.99.31-.26,0-.53,0-.79,0-.06-.04-.12-.06-.19-.07-.03.03-.06.05-.1.08,0,.05,0,.09.02.13-.51.51-1.02-.29-1.49-.01-1.74,1-1.72,1.01-2.41-.58-.29-.67-.74-1.31-1.58-1.09-1.44.37-3,.53-4.05,1.8-.15-.02-.29-.03-.44-.05-.66.67-1.79.66-2.23,1.7-.21.49.2,1.25-.59,1.5-1.92.2-.7,1.91-1.32,2.74-.04.02-.07.05-.11.08-1.06-.33-1.39.65-1.99,1.13-.08.06-.16.12-.24.19-.11.02-.22.03-.33.05-.04-.04-.08-.08-.12-.12-.08-.07-.16-.15-.24-.22,0,0-.07.05-.07.05-.04,0-.07,0-.11,0-.27-.36-.57-.4-.91-.02.06.18.12.36.18.54.05-.15.09-.3.14-.45,0,0,.02,0,.03,0-.04.13-.08.25-.12.38-.03.11-.07.22-.1.32-.47-.01-.93-.05-1.4-.03-.15,0-.3.13-.45.21.13.14.26.29.39.43.24.1.43.07.61,0-.18.08-.37.11-.61,0-.49.05-.98.09-1.47.14h0c-.39-.47-.81-.36-1.24-.08-.46.39-.99.46-1.57.32h0c-.03-.2-.06-.39-.09-.59-.61-1.22-1.52-3.56-1.77-3.49-1.85.5-3.06-.8-4.56-1.14-.34-.08-.78.18-1.14.35-1.08.52-1.92.56-2.09-.93,0,0,0,0,0,0-1.03-.6-2-.8-2.76.41-.09.08-.17.16-.26.24-.12.22-.24.43-.36.65.12-.22.24-.43.36-.65-.04,0-.07,0-.11,0-.35.36-.7.72-1.05,1.07l-.02.02h0s0,0,0,0c-6.54,6.64-13.51,12.95-21.98,15.77-6.02,1.34-11.6-2.7-17.63-5.21-.13.1-.26.23-.33.34-.33.55-.8.66-1.37.62-.75,0-1.51,0-2.26,0-.29.01-.58.03-.86.04,0,0-.06,0-.07,0-2.06-.09-3.82.81-5.57,1.7-.86.44-1.98-.23-2.66.61-2.11,2.59-4.79,1.02-7.25,1.03-.06,0-.12-.33-.18-.5l.08-.09s-.02-.06-.03-.09t0,0v-.02s0,0,0,0c-.25-.66-.72-.58-1.23-.34-.49.21-.97.43-1.46.64-.53.09-1.06.18-1.59.26-2.4.28-4.25,1.91-5.89,3.27-.57.47-1.2.83-1.85,1.15l-3.26-.15L0,509.09l146.68,309.09,1172.74,70.4L1345.71,0l-227.02,147.05Z"/>
          <polygon class="cls-2" points="690.88 395.89 610.19 409.3 614.19 431.86 118.47 522.6 0 512.5 617.18 392.57 690.88 395.89"/>
          <polygon class="cls-3" points="1010.75 836.24 1313.44 469.64 1321.96 266.73 441 755.63 555.11 809.86 1010.75 836.24"/>
        </g>
      </g>
    </g>
  </g>
</svg>