<svg xmlns:dc="http://purl.org/dc/elements/1.1/" xmlns:cc="http://creativecommons.org/ns#" xmlns:rdf="http://www.w3.org/1999/02/22-rdf-syntax-ns#" xmlns:svg="http://www.w3.org/2000/svg" xmlns="http://www.w3.org/2000/svg" xmlns:sodipodi="http://sodipodi.sourceforge.net/DTD/sodipodi-0.dtd" xmlns:inkscape="http://www.inkscape.org/namespaces/inkscape" viewBox="0 0 511.99998 639.999975" version="1.1" x="0px" y="0px"><g transform="translate(-91.214475,-152.15558)"><path style="color:#000000;font-style:normal;font-variant:normal;font-weight:normal;font-stretch:normal;font-size:medium;line-height:normal;font-family:sans-serif;text-indent:0;text-align:start;text-decoration:none;text-decoration-line:none;text-decoration-style:solid;text-decoration-color:#000000;letter-spacing:normal;word-spacing:normal;text-transform:none;direction:ltr;block-progression:tb;writing-mode:lr-tb;baseline-shift:baseline;text-anchor:start;white-space:normal;clip-rule:nonzero;display:inline;overflow:visible;visibility:visible;opacity:1;isolation:auto;mix-blend-mode:normal;color-interpolation:sRGB;color-interpolation-filters:linearRGB;solid-color:#000000;solid-opacity:1;fill:#000000;fill-opacity:1;fill-rule:nonzero;stroke:none;stroke-width:15;stroke-linecap:round;stroke-linejoin:round;stroke-miterlimit:4;stroke-dasharray:none;stroke-dashoffset:0;stroke-opacity:1;color-rendering:auto;image-rendering:auto;shape-rendering:auto;text-rendering:auto;enable-background:accumulate" d="m 496.6764,158.15629 a 6.8986753,6.8986609 0 0 0 -4.77601,2.01988 l -34.38763,34.38756 31.6296,31.63145 c 2.72978,2.65398 2.79423,7.01785 0.14305,9.75036 -2.70779,2.79127 -7.18613,2.79375 -9.89724,0.006 l -31.63151,-31.63145 -29.51244,29.51238 31.63151,31.62954 c 2.72976,2.65397 2.7942,7.01786 0.14304,9.75035 -2.70779,2.79128 -7.18611,2.79377 -9.89724,0.006 l -31.63151,-31.63144 -29.51053,29.51048 31.63151,31.63144 c 2.72977,2.65398 2.79231,7.01785 0.14114,9.75036 -2.70779,2.79128 -7.18612,2.79377 -9.89725,0.006 l -31.6315,-31.63145 -29.51244,29.51239 31.6315,31.63144 c 2.72977,2.65397 2.79421,7.01786 0.14306,9.75036 -2.7078,2.79128 -7.18612,2.79377 -9.89725,0.006 l -31.63342,-31.63145 -29.51053,29.51047 31.63342,31.63145 c 2.72979,2.65398 2.79232,7.01785 0.14114,9.75036 -2.70779,2.79127 -7.18611,2.79375 -9.89724,0.006 l -31.63342,-31.63143 -29.51053,29.51046 31.63342,31.63145 c 2.72978,2.65397 2.79422,7.01785 0.14304,9.75035 -2.70779,2.79128 -7.18802,2.79376 -9.89915,0.006 l -31.6315,-31.63334 -29.51054,29.51047 31.63151,31.63335 c 2.73023,2.65447 2.7935,7.01995 0.14114,9.75226 -2.70822,2.78987 -7.18493,2.79156 -9.89534,0.004 l -31.63341,-31.63335 -29.51245,29.51237 31.63342,31.63336 c 2.72979,2.65397 2.79422,7.01786 0.14305,9.75036 -2.70779,2.79128 -7.18803,2.79376 -9.89915,0.006 l -31.63342,-31.63335 -29.51053,29.51047 31.63342,31.63335 c 2.72975,2.65399 2.7942,7.01786 0.14305,9.75036 -2.7078,2.79127 -7.18611,2.79376 -9.89725,0.006 l -31.63532,-31.63576 -34.387631,34.38756 a 6.8986753,6.8986609 0 0 0 0,9.75417 L 192.77435,656.136 a 6.8986753,6.8986609 0 0 0 9.75419,0 L 595.19489,263.47046 a 6.8986753,6.8986609 0 0 0 0,-9.75417 l -93.54031,-93.54012 a 6.8986753,6.8986609 0 0 0 -4.97818,-2.01988 z"/></g><text x="0" y="526.99998" fill="#000000" font-size="5px" font-weight="bold" font-family="'Helvetica Neue', Helvetica, Arial-Unicode, Arial, Sans-serif">Created by Ali Coşkun</text><text x="0" y="531.99998" fill="#000000" font-size="5px" font-weight="bold" font-family="'Helvetica Neue', Helvetica, Arial-Unicode, Arial, Sans-serif">from the Noun Project</text></svg>