<?xml version="1.0" encoding="utf-8"?><!DOCTYPE svg PUBLIC "-//W3C//DTD SVG 1.1//EN" "http://www.w3.org/Graphics/SVG/1.1/DTD/svg11.dtd"><svg version="1.1" xmlns="http://www.w3.org/2000/svg" xmlns:xlink="http://www.w3.org/1999/xlink" x="0px" y="0px" viewBox="0 18.512 100 35.27375" enable-background="new 0 18.512 100 28.219" xml:space="preserve"><g><path d="M91.04,22.033c-4.58-5.329-7.583-3.228-9.834-2.477c-2.25,0.75-12.834,3.828-12.834,3.828l12.384,20.192
		c0,0,1.576,2.023,4.878,2.699c3.304,0.677,11.635-1.498,13.887-3.228C101.771,41.322,95.617,27.362,91.04,22.033z M91.04,43.124
		c-5.556,1.877-6.456-3.827-9.233-9.308c-2.776-5.478-7.969-8.439-0.75-11.258c4.804-1.875,3.753-0.449,8.03,7.13
		S98.864,40.479,91.04,43.124z"/><path d="M2.102,36.673C0.076,37.122,0,38.323,0,38.323l0.3,8.392l1.268-2.193l1.238,2.146l1.238-2.146l1.239,2.146l1.238-2.146
		l1.238,2.146l1.238-2.146l1.238,2.146l1.239-2.146l1.238,2.146l1.238-2.146l1.238,2.146l1.238-2.146l1.238,2.146l1.238-2.146
		l1.235,2.139l1.235-2.139l1.238,2.146l1.238-2.146l1.238,2.146l1.238-2.146l1.239,2.146l1.238-2.146l1.238,2.146l1.238-2.146
		l1.238,2.146l1.24-2.146l1.238,2.146l1.237-2.146l1.238,2.146l1.238-2.146l1.249,2.158l1.247-2.158l1.238,2.146l1.239-2.146
		l1.238,2.146l1.238-2.146l1.238,2.146l1.238-2.146l1.239,2.146l1.239-2.146l1.236,2.146l1.24-2.146l1.236,2.146l1.239-2.146
		l1.236,2.146l1.24-2.146l1.232,2.139l1.236-2.139l1.236,2.146l1.24-2.146l1.236,2.146l1.239-2.146l1.24,2.146l1.236-2.146
		l1.239,2.146l1.236-2.146l1.238,2.146l1.238-2.146l1.239,2.146l1.238-2.146l1.238,2.146l1.204-2.086L65.897,24.213
		C65.897,24.213,4.128,36.222,2.102,36.673z"/><polygon points="79.632,46.731 79.634,46.731 79.603,46.682 	"/></g><text x="0" y="61.731" fill="#000000" font-size="5px" font-weight="bold" font-family="'Helvetica Neue', Helvetica, Arial-Unicode, Arial, Sans-serif">Created by John Brüggemann</text><text x="0" y="66.731" fill="#000000" font-size="5px" font-weight="bold" font-family="'Helvetica Neue', Helvetica, Arial-Unicode, Arial, Sans-serif">from the Noun Project</text></svg>