<svg width="1440" height="938" viewBox="0 0 1440 938" fill="none" xmlns="http://www.w3.org/2000/svg">
<path d="M2070.99 333.275L2055.2 328.294L2043.58 326.304L2031.11 335.279H2023.64L2015.32 342.264L2005.35 346.258L1997.05 360.228L1971.29 379.18L1938.05 403.127L1922.27 395.14L1893.19 372.195L1852.47 346.258L1794.32 310.33L1784.35 311.331L1756.93 325.302L1743.65 331.285L1729.52 335.279L1722.04 340.26L1657.24 360.228L1614.87 375.186L1594.93 371.193L1569.17 374.198L1558.37 380.182L1538.42 390.159H1524.3L1500.21 410.112L1458.66 444.037L1430.41 455.015L1403 471.977L1368.1 488.94L1308.28 496.927H1279.2L1274.22 479.965L1257.61 470.975V455.015V443.035L1244.32 437.051L1229.36 430.066L1220.22 416.096L1202.77 405.131L1198.62 393.15L1195.3 377.19L1187.81 362.218L1172.87 351.239L1153.75 340.26L1142.12 329.295L1137.13 315.325L1122.18 310.33L1108.05 303.344L1096.42 293.367H1083.13L1077.31 294.369V286.382L1072.33 274.416L1049.07 267.43L1044.91 261.433L1029.13 252.458L1019.15 242.481L1004.21 245.473V261.433L994.23 263.437L982.598 266.428L974.29 251.456L965.983 249.466L962 261.433L950.203 275.403L936.079 261.433V247.477L924.447 253.46L916.14 247.477L909.489 266.428L899.513 263.437L887.058 265.427L880.408 254.448L871.266 253.46H858.811L848.836 251.456L837.802 258.441L831.387 257.454L825.571 268.418L813.116 298.363L793.176 366.211L782.366 362.218L773.236 316.313L768.242 277.407L754.119 265.427V254.448L743.321 239.49L733.357 238.488L721.724 253.46L713.417 265.427L707.601 248.464L700.95 227.509L695.968 225.519L688.483 241.479L676.028 262.435L666.053 268.418L656.911 280.399L651.095 309.328L646.113 300.353L638.64 272.412L634.48 244.471L627.842 196.576L623.682 186.599L615.375 158.658L608.725 152.675L593.767 146.692L586.294 153.677L577.152 166.646L570.513 185.612L556.39 196.576L551.396 206.553L542.267 240.491V255.45V271.424L538.107 281.401L530.634 310.33V330.283L523.149 336.281V351.239L511.517 378.178V393.15L501.553 388.155V380.182V365.209L497.393 343.266L488.252 319.319L479.122 304.346L469.146 293.367L447.55 277.407L434.249 264.439L428.433 251.456L420.125 228.511L415.143 202.574L408.493 190.593L389.387 171.641L377.755 162.652H366.956L360.306 169.637L354.49 179.614L344.526 183.608V197.578L335.384 215.542L324.586 217.532V228.511H317.101L288.854 202.574L284.706 189.591L280.547 171.641H267.258L249.809 162.652L237.342 152.675H222.396L197.463 138.705L178.357 126.738H158.417L128.502 105.782L118.538 92.814L111.065 78.8435H102.746L86.1315 62.8692L75.3332 51.9046L52.9025 38.9219L23.8212 19.4762L-13.5673 9.99322L-33.507 0.0163574L-40.98 4.99774H-59.263L-70.8955 9.99322L-81.6938 16.9785H-100.799H-114.923L-128.224 21.9598L-138.188 16.9785L-142.347 22.9617L-166 38.9219V940.1H2090V317.315L2079.3 323.298L2070.99 333.275Z" fill="#424B54"/>
</svg>
