<svg xmlns="http://www.w3.org/2000/svg" viewBox="0 0 128 160" x="0px" y="0px"><title>Winter - 128 Pixel - 25 Set - Solid</title><g><path d="M23,97.71a15.31,15.31,0,0,0,0-30.62h0a15.31,15.31,0,0,0,0,30.62Zm0-26.49A11.19,11.19,0,0,1,34.18,82.4a2,2,0,0,1-4,0A7.18,7.18,0,0,0,23,75.22a2,2,0,0,1,0-4Z"/><path d="M44.61,82.4A19.29,19.29,0,0,1,52.2,67.09H34.76l.37.3.26.21c.41.34.8.7,1.18,1.07l.2.21c.39.4.77.81,1.13,1.24v0c.36.43.7.89,1,1.36l.12.18c.31.46.6.93.87,1.42l.12.22a16.77,16.77,0,0,1,.74,1.54l0,.1c.23.54.43,1.09.61,1.66,0,0,0,0,0,.06.17.56.32,1.13.44,1.71,0,.08,0,.15,0,.22.11.58.2,1.15.26,1.74,0,.07,0,.14,0,.2.06.61.1,1.22.1,1.85s0,1.23-.1,1.83c0,.08,0,.15,0,.23-.06.57-.15,1.14-.26,1.7l-.06.28q-.18.84-.42,1.65a.88.88,0,0,0-.05.15c-.17.52-.36,1-.57,1.54l-.07.18c-.22.51-.46,1-.72,1.48l-.15.29c-.26.47-.54.93-.83,1.37l-.17.24c-.3.44-.62.86-.95,1.27,0,0,0,.06-.07.08-.34.42-.71.82-1.09,1.21l-.23.24c-.38.36-.76.71-1.16,1l-.28.22-.36.3H52.2A19.29,19.29,0,0,1,44.61,82.4Z"/><path d="M104.32,67.09H75.68l.37.31a2.43,2.43,0,0,1,.25.2c.41.34.8.7,1.18,1.07l.21.22c.39.39.76.8,1.12,1.22a.21.21,0,0,0,0,.06c.34.42.66.85,1,1.3l.16.23c.3.44.58.9.84,1.37l.15.29c.26.48.5,1,.71,1.47a1.67,1.67,0,0,1,.08.2c.21.49.39,1,.56,1.51,0,.06,0,.11.05.17.17.54.3,1.08.42,1.63,0,.11,0,.21.07.32.11.54.19,1.1.25,1.66l0,.29c0,.59.09,1.19.09,1.79s0,1.2-.09,1.79l0,.29c-.06.56-.14,1.12-.25,1.66,0,.11,0,.21-.07.32-.12.55-.25,1.09-.42,1.62,0,.06,0,.12-.05.18-.17.51-.35,1-.56,1.51l-.08.2c-.21.5-.45,1-.71,1.47l-.15.29c-.26.47-.54.93-.84,1.37l-.16.23c-.31.45-.63.88-1,1.3l0,.06c-.36.42-.73.83-1.12,1.22l-.21.22c-.38.37-.77.73-1.18,1.07l-.25.2-.37.31h28.64a15.31,15.31,0,1,0,0-30.62Zm-12.87,9h11.18a1,1,0,0,1,0,2H91.45a1,1,0,1,1,0-2ZM98.37,92H87.18a1,1,0,0,1,0-2H98.37a1,1,0,0,1,0,2Zm13.21-5.93H100.4a1,1,0,0,1,0-2h11.18a1,1,0,0,1,0,2Z"/><path d="M41.81,63.09A15.31,15.31,0,1,0,26.5,47.78,15.33,15.33,0,0,0,41.81,63.09ZM48.3,41a2,2,0,0,1,2.77.53,11.13,11.13,0,0,1,.21,12.18,2,2,0,0,1-2.76.63,2,2,0,0,1-.63-2.76,7.07,7.07,0,0,0,1.1-3.8,7.18,7.18,0,0,0-1.23-4A2,2,0,0,1,48.3,41Z"/><path d="M55.37,34.05l.21.22c.39.39.76.8,1.12,1.22a.21.21,0,0,0,0,.06c.34.42.66.85,1,1.3l.16.23c.3.44.58.9.84,1.37l.15.29c.26.48.5,1,.71,1.47,0,.07.06.14.08.2.21.49.39,1,.56,1.51,0,.06,0,.12,0,.18a14.81,14.81,0,0,1,.42,1.62c0,.11,0,.21.07.32.11.54.19,1.1.25,1.66A2.85,2.85,0,0,1,61,46a17.85,17.85,0,0,1,0,3.58,2.85,2.85,0,0,1,0,.29c-.06.56-.14,1.12-.25,1.66,0,.11,0,.21-.07.32a15.6,15.6,0,0,1-.42,1.63c0,.05,0,.11,0,.17-.17.51-.35,1-.56,1.51a1.67,1.67,0,0,1-.08.2c-.21.5-.45,1-.71,1.47l-.15.29c-.26.47-.54.93-.84,1.37l-.16.23c-.31.45-.63.88-1,1.3a.21.21,0,0,0,0,.06c-.36.42-.73.83-1.12,1.22l-.21.22c-.38.37-.77.73-1.18,1.07a2.43,2.43,0,0,1-.25.2l-.37.31H92.38a15.31,15.31,0,0,0,0-30.62H53.57l.37.31a2.43,2.43,0,0,1,.25.2C54.6,33.32,55,33.68,55.37,34.05Zm35.89,20a1,1,0,0,1-1,1H67.9a1,1,0,0,1,0-2H90.26A1,1,0,0,1,91.26,54.08Zm-25.9-12H87.72a1,1,0,0,1,0,2H65.36a1,1,0,0,1,0-2Z"/><path d="M48.61,82.4A15.33,15.33,0,0,0,63.88,97.71H64a15.31,15.31,0,0,0,0-30.62h-.16A15.33,15.33,0,0,0,48.61,82.4Zm14.86,9.38a2,2,0,0,1-1.93,1.48A2.37,2.37,0,0,1,61,93.2,11.27,11.27,0,0,1,53,84.65a2,2,0,0,1,3.92-.81,7.23,7.23,0,0,0,5.17,5.49A2,2,0,0,1,63.47,91.78Z"/></g><text x="0" y="143" fill="#000000" font-size="5px" font-weight="bold" font-family="'Helvetica Neue', Helvetica, Arial-Unicode, Arial, Sans-serif">Created by Ian Rahmadi Kurniawan</text><text x="0" y="148" fill="#000000" font-size="5px" font-weight="bold" font-family="'Helvetica Neue', Helvetica, Arial-Unicode, Arial, Sans-serif">from the Noun Project</text></svg>